<?xml version="1.0" standalone="no"?>
<!DOCTYPE svg PUBLIC "-//W3C//DTD SVG 20010904//EN"
 "http://www.w3.org/TR/2001/REC-SVG-20010904/DTD/svg10.dtd">
<svg version="1.0" xmlns="http://www.w3.org/2000/svg"
 width="500.000000pt" height="500.000000pt" viewBox="0 0 500.000000 500.000000"
 preserveAspectRatio="xMidYMid meet">
<metadata>
Created by potrace 1.11, written by Peter Selinger 2001-2013
</metadata>
<g transform="translate(0.000000,500.000000) scale(0.100000,-0.100000)"
fill="#000000" stroke="none">
<path d="M2440 4607 c-14 -8 -141 -97 -282 -198 -142 -101 -267 -191 -279
-199 -12 -8 -40 -28 -63 -45 -22 -16 -185 -132 -361 -258 -176 -125 -329 -235
-340 -243 -98 -71 -632 -453 -675 -482 -128 -87 -150 -130 -124 -249 8 -37 22
-99 30 -138 20 -94 24 -109 93 -420 33 -148 62 -281 65 -295 3 -14 7 -34 10
-45 2 -11 12 -54 21 -95 8 -41 20 -93 25 -115 5 -22 26 -114 46 -205 19 -91
37 -172 39 -180 14 -61 117 -529 121 -546 2 -12 18 -81 34 -154 16 -73 32
-142 34 -154 29 -148 47 -187 99 -216 l41 -24 1532 0 c1502 1 1532 1 1565 20
18 11 41 33 51 50 14 24 65 225 92 364 2 14 23 108 46 210 23 102 43 194 45
205 3 11 25 112 50 225 26 113 48 214 50 225 31 141 228 1035 266 1205 33 146
34 201 3 242 -10 14 -166 130 -347 259 -180 129 -336 240 -345 247 -17 13
-172 123 -227 162 -16 12 -79 57 -140 100 -60 43 -125 89 -143 102 -17 13 -40
29 -50 36 -133 99 -826 590 -852 604 -40 21 -95 23 -130 5z"/>
</g>
</svg>
