<svg width="820" height="820" viewBox="0 0 820 820" fill="none" xmlns="http://www.w3.org/2000/svg">
<path d="M585.72 442.509L585.78 442.399C585.51 442.219 585.26 442.019 585 441.829C574.66 439.829 564 432.289 561.21 422.189C557.58 409.189 562.72 400.249 573.63 393.239C575.756 391.812 578.13 390.794 580.63 390.239L581.56 388.619C581.56 388.449 581.45 388.279 581.4 388.109H581.19L581.43 388.239C573.37 388.339 565.13 383.959 559.43 378.619C558.213 377.462 557.112 376.189 556.14 374.819L556.5 375.009L556.24 374.709C549.45 381.919 540.17 384.709 528.91 384.019C524.16 384.809 512.43 380.279 508.4 377.419C502.57 373.289 498 363.999 497.89 356.999C497.64 343.299 506.18 328.999 519.82 325.749C534.82 322.199 549.69 326.199 559.82 337.749C559.98 337.929 560.12 338.119 560.27 338.309L560.92 338.149L559.92 337.869C568.92 330.619 583.25 330.249 592.65 336.009C597.888 339.38 601.88 344.37 604.02 350.219L602.64 349.829C602.73 350.029 602.82 350.239 602.9 350.439C604.482 350.124 606.082 349.904 607.69 349.779C607.558 320.116 601.789 290.748 590.69 263.239C572 216.859 539.33 177.769 499 148.519C455.21 116.789 401.87 95.1193 347.12 100.709C294.93 105.999 243.4 124.889 208.2 165.149C177.26 200.529 160.2 245.989 151.65 291.719C144.11 332.219 140.97 375.549 147.49 416.799C146.49 442.729 152.74 468.799 167.13 490.419C168.197 492.019 169.307 493.583 170.46 495.109C171.71 492.929 173.02 490.689 174.46 488.359C189.71 463.029 203.24 441.629 221.77 419.099C237.77 399.699 258.77 369.999 278.6 348.249C278.6 348.249 283.48 291.249 285.49 269.769C286.27 261.439 287.33 243.489 287.33 243.489C287.33 243.489 259.71 246.109 246.28 245.849C251.851 236.589 257.903 227.627 264.41 218.999C273.26 207.339 280.41 197.059 289.04 185.299C294.317 178.186 300.239 171.575 306.73 165.549C301.791 162.956 297.238 159.688 293.2 155.839C291.27 154.009 292.91 151.249 295.2 151.009C307.097 149.774 318.744 146.777 329.76 142.119C339.76 137.879 348.97 130.709 359.83 128.889C368.78 127.379 379.02 130.299 382.88 139.259C383.715 141.267 384.073 143.44 383.926 145.609C383.778 147.778 383.129 149.884 382.03 151.759C387.933 153.28 393.098 156.863 396.59 161.859C402.91 170.729 403.87 182.449 403.08 192.999L403.02 193.699C408.64 193.519 416.09 193.999 419.44 197.039C423.44 200.639 423.38 207.459 421.33 211.889C417.71 219.729 410.09 222.079 402.08 223.599C399.41 224.099 396.78 224.519 394.16 224.899C394.44 224.899 394.71 224.829 394.98 224.779C390.705 234.515 385.476 243.804 379.37 252.509C379.241 252.922 379.002 253.291 378.68 253.579C377.54 266.959 376.34 280.359 375.58 293.779C374.702 307.285 374.536 320.827 375.08 334.349L376 333.789C382.67 361.259 395.84 385.239 411.64 407.989C417.883 416.837 424.793 425.195 432.31 432.989L432.99 433.809C440.18 423.809 447.99 415.939 461.6 415.279C480.13 414.369 495.33 419.279 509.24 431.369C526.85 446.679 536.42 469.369 536.42 492.259L536.18 492.369C537.881 493.855 539.344 495.592 540.52 497.519C540.894 498.141 541.228 498.786 541.52 499.449C546.656 495.677 551.521 491.551 556.08 487.099C566.707 476.536 575.717 464.462 582.82 451.269C583.456 448.25 584.429 445.312 585.72 442.509Z" fill="#F4F6F9"/>
<path d="M538.811 538.879C554.931 558.269 571.501 584.199 569.241 609.539C567.531 615.089 563.241 616.999 559.241 616.389C555.241 615.779 550.561 612.039 557.841 605.689C565.121 599.339 575.171 610.599 576.841 619.409C579.841 635.309 574.241 660.899 565.301 673.479" stroke="#333333" stroke-width="7" stroke-linecap="round" stroke-linejoin="round"/>
<path d="M145.681 553.399C151.361 535.549 156.431 518.239 174.421 488.399C189.671 463.069 203.201 441.669 221.731 419.139C237.731 399.739 258.731 370.049 278.561 348.289C295.971 351.439 308.871 350.349 323.151 350.529C337.431 350.709 358.001 345.299 376.001 333.779C382.671 361.249 395.841 385.229 411.641 407.979C417.884 416.827 424.794 425.185 432.311 432.979" stroke="#333333" stroke-width="7" stroke-linecap="round" stroke-linejoin="round"/>
<path d="M517.76 382.359C515.1 386.429 511.25 392.019 508.36 395.899" stroke="#333333" stroke-width="7" stroke-linecap="round" stroke-linejoin="round"/>
<path d="M292.461 607.08C292.461 607.08 343.871 549.62 359.461 530.98C375.051 512.34 404.871 474.83 425.281 445.07C435.391 430.32 443.081 416.17 461.591 415.27C480.101 414.37 495.321 419.27 509.231 431.36C526.841 446.67 536.411 469.36 536.411 492.25" stroke="#333333" stroke-width="7" stroke-linecap="round" stroke-linejoin="round"/>
<path d="M336.48 595.309C364.73 566.819 396.14 545.479 426.48 524.539C451.31 507.389 476.6 490.989 505.99 486.539C518.5 484.639 533.3 485.759 540.52 497.539C545.78 506.099 547.39 530.679 540.16 537.749C531.16 546.579 487.99 564.919 487.99 564.919" stroke="#333333" stroke-width="7" stroke-linecap="round" stroke-linejoin="round"/>
<path d="M459.001 414.64C458.191 407.05 458.351 398.28 456.601 391.09C458.771 394.48 460.401 399.14 463.141 402.5C464.141 398.62 465.641 394.43 466.851 390.79C469.063 396.637 470.864 402.632 472.241 408.73C472.141 402.73 472.801 393.22 478.661 389.98C487.551 385.06 486.881 400.88 486.321 405.83C486.511 401.18 486.841 395.94 489.221 391.89C491.601 387.84 497.941 384.83 502.651 386.54C511.381 389.71 506.491 405.44 505.341 411.54C504.501 416.01 503.911 420.54 502.461 424.62" stroke="#333333" stroke-width="7" stroke-linecap="round" stroke-linejoin="round"/>
<path d="M545.081 526C550.871 526 556.871 530.31 562.081 532.63C565.851 534.31 571.301 536.39 570.761 529.93C570.481 526.62 567.521 523.48 565.061 521.46C561.311 518.38 559.321 518.18 554.911 517.08C552.112 516.491 549.285 516.044 546.441 515.74C553.581 514.64 570.031 508.63 573.011 501.11C576.291 492.82 559.801 495.76 555.691 497.74C561.191 494.3 578.541 486.22 564.571 481.92C554.571 478.85 545.041 480.92 535.971 484.05" stroke="#333333" stroke-width="7" stroke-linecap="round" stroke-linejoin="round"/>
<path d="M518.761 440.43C519.131 437.06 522.491 434.03 524.071 430.9C526.991 425.12 532.571 413.52 532.571 413.52C532.09 416.236 531.459 418.923 530.681 421.57C528.391 428.325 526.823 435.304 526.001 442.39C527.841 438.57 530.521 433.93 535.381 433.32C536.461 438.19 531.321 444.21 530.561 448.85C534.321 444.35 547.721 440.52 552.021 446.29C558.021 454.36 543.611 461.29 538.471 463.92C542.381 465.21 547.651 465.34 545.001 470.83C543.181 474.6 539.341 475.23 535.861 475.9" stroke="#333333" stroke-width="7" stroke-linecap="round" stroke-linejoin="round"/>
<path d="M504.931 414.639C508.381 409.869 513.881 412.229 515.741 417.319C517.951 423.319 513.921 427.979 511.141 432.979" stroke="#333333" stroke-width="7" stroke-linecap="round" stroke-linejoin="round"/>
<path d="M544.201 382.66C544.201 382.66 519.911 410.3 514.451 414.23" stroke="#333333" stroke-width="7" stroke-linecap="round" stroke-linejoin="round"/>
<path d="M567.001 386.5C551.351 402.58 532.741 418.5 513.201 429.96" stroke="#333333" stroke-width="7" stroke-linecap="round" stroke-linejoin="round"/>
<path d="M562.881 428.719C562.881 428.719 543.441 438.289 534.081 443.079" stroke="#333333" stroke-width="7" stroke-linecap="round" stroke-linejoin="round"/>
<path d="M560.061 414.23L529.351 434.51" stroke="#333333" stroke-width="7" stroke-linecap="round" stroke-linejoin="round"/>
<path d="M536.001 482.939C536.001 482.939 555.871 474.189 562.941 471.739C568.852 469.582 574.933 467.927 581.121 466.789" stroke="#333333" stroke-width="7" stroke-linecap="round" stroke-linejoin="round"/>
<path d="M582 441.35C567.5 450.24 543.41 465.14 543.41 465.14" stroke="#333333" stroke-width="7" stroke-linecap="round" stroke-linejoin="round"/>
<path d="M664.921 389.279C659.491 383.889 652.661 381.469 646.191 382.119C646.133 379.177 645.672 376.256 644.821 373.439C643.064 367.043 639.436 361.318 634.401 356.999C627.761 351.359 620.771 349.819 612.311 349.639C609.168 349.557 606.025 349.825 602.941 350.439C602.861 350.239 602.771 350.029 602.681 349.829L604.061 350.219C601.923 344.366 597.93 339.373 592.691 335.999C583.291 330.239 569.011 330.609 559.961 337.859L560.961 338.139L560.311 338.299C560.161 338.109 560.021 337.919 559.861 337.739C549.691 326.169 534.861 322.169 519.861 325.739C506.181 328.999 497.641 343.299 497.891 356.999C498.021 363.999 502.571 373.289 508.431 377.419C512.431 380.279 524.191 384.809 528.941 384.019C540.201 384.699 549.481 381.919 556.271 374.709L556.531 375.009L556.171 374.819C557.142 376.189 558.244 377.462 559.461 378.619C565.121 383.959 573.361 388.339 581.461 388.239L581.221 388.109H581.431C581.481 388.279 581.541 388.449 581.591 388.619L580.661 390.239C578.161 390.794 575.787 391.812 573.661 393.239C562.751 400.239 557.661 409.239 561.241 422.189C564.001 432.299 574.661 439.829 585.001 441.829C585.261 442.019 585.511 442.219 585.781 442.399L585.721 442.509C580.131 454.619 580.581 467.919 588.951 477.969C596.471 485.049 611.461 488.219 620.791 484.619C632.901 479.949 640.991 468.729 639.871 455.319C639.721 453.575 639.447 451.844 639.051 450.139L641.051 448.249C644.24 448.877 647.496 449.099 650.741 448.909C679.911 446.559 682.771 406.999 664.921 389.279Z" fill="#FEAABC" stroke="#FEAABC" stroke-width="7" stroke-linecap="round" stroke-linejoin="round"/>
<path d="M507.731 568.76C500.811 567.15 495.571 569.23 491.941 575.62C488.501 560.11 475.711 554.15 460.741 554.07C452.551 554.07 442.741 556.83 435.581 560.84C428.381 564.951 422.687 571.259 419.331 578.84C390.011 564.91 381.781 630.75 378.331 647.04" stroke="#333333" stroke-width="7" stroke-linecap="round" stroke-linejoin="round"/>
<path d="M391.53 595.51C391.53 595.51 376.36 598.81 369.18 600.58C363.26 602.05 357.79 602.75 354.27 608.02C345.53 621.13 339.45 637.68 336.89 653.02C336.16 657.45 335.09 663.57 336.48 667.93" stroke="#333333" stroke-width="7" stroke-linecap="round" stroke-linejoin="round"/>
<path d="M355.101 605C348.001 602.68 338.701 602.52 331.101 602.08C319.961 601.45 304.611 602.95 292.471 607.08C280.331 611.21 268.611 617.78 263.561 633.59" stroke="#333333" stroke-width="7" stroke-linecap="round" stroke-linejoin="round"/>
<path d="M301.301 617.859C289.231 617.859 277.041 623.389 267.631 630.079C260.441 635.189 258.371 640.989 256.181 649.319" stroke="#333333" stroke-width="7" stroke-linecap="round" stroke-linejoin="round"/>
<path d="M288.051 633.18C277.981 634.27 267.531 642.18 259.701 648.28C254.091 652.62 247.491 658.86 247.211 667.94" stroke="#333333" stroke-width="7" stroke-linecap="round" stroke-linejoin="round"/>
<path d="M271.08 654.289C256.4 658.419 239.08 669.789 240.13 685.289C255.37 677.889 265.43 674.549 281.81 670.999C293.715 668.569 305.854 667.479 318 667.749C323 666.849 328.95 666.409 333.58 664.629" stroke="#333333" stroke-width="7" stroke-linecap="round" stroke-linejoin="round"/>
<path d="M240.13 685.28C240.13 685.28 216.19 709 213.65 720.17C213.65 720.17 258.78 697.61 276 689.79C290.37 683.26 321.07 667.26 321.07 667.26" stroke="#333333" stroke-width="7" stroke-linecap="round" stroke-linejoin="round"/>
<path d="M317 601.999C314.9 597.679 312.21 587.999 318.77 587.329C325.33 586.659 341 599.999 348.57 603.519" stroke="#333333" stroke-width="7" stroke-linecap="round" stroke-linejoin="round"/>
<path d="M464.521 370.579C462.881 364.579 461.271 357.849 455.421 360.189C444.751 365.189 462.761 367.959 464.521 370.579Z" stroke="#333333" stroke-width="7" stroke-linecap="round" stroke-linejoin="round"/>
<path d="M483 362.68C484.7 355 486.84 340.37 477.24 338.07C467.42 335.72 469.64 348.64 473.45 353.28C476.13 356.56 480.72 359.23 483 362.68Z" stroke="#333333" stroke-width="7" stroke-linecap="round" stroke-linejoin="round"/>
<path d="M654.86 468.75C659.2 466.8 673.57 468.41 668.51 475.37C665.51 479.51 657.45 471 654.86 468.75Z" stroke="#333333" stroke-width="7" stroke-linecap="round" stroke-linejoin="round"/>
<path d="M583.221 506.48C587.781 506.58 589.661 506.22 594.101 507.74C596.611 508.6 599.941 512.45 595.621 514.85C591.801 516.97 585.271 509.17 582.921 506.99" stroke="#333333" stroke-width="7" stroke-linecap="round" stroke-linejoin="round"/>
<path d="M560.861 335.77C568.861 344.85 566.221 362.94 560.291 372.47C559.104 374.389 557.727 376.185 556.181 377.83" stroke="#333333" stroke-width="7" stroke-linecap="round" stroke-linejoin="round"/>
<path d="M648.191 381.12C648.311 389.66 643.601 398.42 635.711 403.87C625.581 410.87 606.501 412.87 594.331 405.95C583.331 397.95 576.091 383.08 580.331 369.35C584.411 356.28 591.771 350.01 603.901 348.85" stroke="#333333" stroke-width="7" stroke-linecap="round" stroke-linejoin="round"/>
<path d="M582.001 441.35C587.661 429.08 606.301 424.98 619.181 427.58C629.841 429.73 639.261 438.75 642.371 448.65" stroke="#333333" stroke-width="7" stroke-linecap="round" stroke-linejoin="round"/>
<path d="M622.89 428.719C622.126 425.444 621.873 422.071 622.14 418.719C622.341 415.676 622.847 412.661 623.65 409.719" stroke="#333333" stroke-width="7" stroke-linecap="round" stroke-linejoin="round"/>
<path d="M603.871 409.549C604.251 410.749 604.581 411.969 604.871 413.189C606.048 417.674 605.728 422.421 603.961 426.709" stroke="#333333" stroke-width="7" stroke-linecap="round" stroke-linejoin="round"/>
<path d="M565.411 356.999C564.151 350.919 554.561 347.709 549.351 346.999C542.031 345.999 537.071 347.659 530.351 350.099" stroke="#333333" stroke-width="7" stroke-linecap="round" stroke-linejoin="round"/>
<path d="M506.9 334.87C511.71 332.66 521.2 338.93 524.44 342.16C529.71 347.43 531.57 352.08 533.78 359.07C534.717 362.086 535.166 365.232 535.11 368.39" stroke="#333333" stroke-width="7" stroke-linecap="round" stroke-linejoin="round"/>
<path d="M520.871 337.349C525.571 335.529 529.611 335.029 533.871 337.729C536.871 339.619 539.581 342.929 539.461 346.659" stroke="#333333" stroke-width="7" stroke-linecap="round" stroke-linejoin="round"/>
<path d="M555.63 347.28C556.51 335.64 542.431 336.08 534.521 337.04" stroke="#333333" stroke-width="7" stroke-linecap="round" stroke-linejoin="round"/>
<path d="M525.211 325C530.841 325.47 540.001 328.12 539.801 335.47" stroke="#333333" stroke-width="7" stroke-linecap="round" stroke-linejoin="round"/>
<path d="M564.931 363.001C569.191 358.791 573.391 353.811 579.781 351.941C583.301 350.941 589.311 348.701 592.501 350.941" stroke="#333333" stroke-width="7" stroke-linecap="round" stroke-linejoin="round"/>
<path d="M566.891 334.33C570.285 335.885 573.157 338.389 575.161 341.54C576.671 343.9 578.991 348.75 578.601 351.63" stroke="#333333" stroke-width="7" stroke-linecap="round" stroke-linejoin="round"/>
<path d="M575.16 341.539C583.57 341.019 588.53 342.979 588.53 350.489" stroke="#333333" stroke-width="7" stroke-linecap="round" stroke-linejoin="round"/>
<path d="M583.261 365.289C589.761 359.929 600.771 362.289 607.481 365.839C615.191 369.939 618.931 375.949 620.201 384.379C620.561 387.836 620.561 391.321 620.201 394.779" stroke="#333333" stroke-width="7" stroke-linecap="round" stroke-linejoin="round"/>
<path d="M644.64 390.429C641.56 379.429 627.75 373.269 617.41 373.669" stroke="#333333" stroke-width="7" stroke-linecap="round" stroke-linejoin="round"/>
<path d="M599.801 362.411C604.291 358.631 612.501 358.751 618.161 359.601C627.684 360.863 636.627 364.893 643.881 371.191" stroke="#333333" stroke-width="7" stroke-linecap="round" stroke-linejoin="round"/>
<path d="M627.001 373.669C626.221 367.819 619.881 360.859 614.581 359.209" stroke="#333333" stroke-width="7" stroke-linecap="round" stroke-linejoin="round"/>
<path d="M650.621 382.67C654.681 386.6 652.961 395.67 651.711 400.39C650.443 405.521 648.552 410.478 646.081 415.15C644.281 418.44 639.801 425.28 636.341 426.75" stroke="#333333" stroke-width="7" stroke-linecap="round" stroke-linejoin="round"/>
<path d="M645.121 416.82C651.911 416.82 656.651 418.46 661.331 423.49C664.241 426.62 669.331 432.31 669.561 436.68" stroke="#333333" stroke-width="7" stroke-linecap="round" stroke-linejoin="round"/>
<path d="M651.24 404.4C655.24 404.93 665.85 405.72 667.73 409.99" stroke="#333333" stroke-width="7" stroke-linecap="round" stroke-linejoin="round"/>
<path d="M666.051 391.141C665.201 395.721 662.391 401.921 658.381 404.711" stroke="#333333" stroke-width="7" stroke-linecap="round" stroke-linejoin="round"/>
<path d="M664.901 426.749C665.721 422.809 663.191 416.609 661.171 413.399C659.05 409.922 656.189 406.955 652.791 404.709" stroke="#333333" stroke-width="7" stroke-linecap="round" stroke-linejoin="round"/>
<path d="M608.71 428.299C615.51 437.879 610.18 453.399 607.16 463.379" stroke="#333333" stroke-width="7" stroke-linecap="round" stroke-linejoin="round"/>
<path d="M611.061 452.289C617.391 455.289 620.441 456.389 624.741 462.289C627.591 466.209 631.141 472.119 630.441 477.029" stroke="#333333" stroke-width="7" stroke-linecap="round" stroke-linejoin="round"/>
<path d="M619.001 429.539C620.291 438.989 621.191 446.359 619.001 455.759" stroke="#333333" stroke-width="7" stroke-linecap="round" stroke-linejoin="round"/>
<path d="M639.761 457.479C636.211 453.479 626.501 450.969 621.131 450.029" stroke="#333333" stroke-width="7" stroke-linecap="round" stroke-linejoin="round"/>
<path d="M626.721 464.09C626.861 461.09 628.521 454.78 627.501 451.58" stroke="#333333" stroke-width="7" stroke-linecap="round" stroke-linejoin="round"/>
<path d="M589.78 420.85C592.26 416.85 593.46 409.48 593.78 406.57" stroke="#333333" stroke-width="7" stroke-linecap="round" stroke-linejoin="round"/>
<path d="M593.441 430.099C590.611 420.219 581.261 412.699 572.091 408.439" stroke="#333333" stroke-width="7" stroke-linecap="round" stroke-linejoin="round"/>
<path d="M279.271 361.69C279.271 372.29 279.131 390.22 292.421 391.42C306.691 392.71 313.891 373.74 318.421 362.13C318.321 372.71 332.611 402.07 347.771 391.23C357.571 384.23 366.551 362.81 367.011 351.08" stroke="#333333" stroke-width="7" stroke-linecap="round" stroke-linejoin="round"/>
<path d="M318.2 397.08C318.66 413.08 314 428.26 309.2 443.3C305.3 455.45 296.96 471.36 288.15 480.24C278.78 489.7 271.15 495.7 265.15 508.16C257.254 524.063 255.001 542.178 258.76 559.53C234.7 547.26 231.35 595.31 234.7 615.09" stroke="#333333" stroke-width="7" stroke-linecap="round" stroke-linejoin="round"/>
<path d="M245.721 575.58H249.261" stroke="#333333" stroke-width="7" stroke-linecap="round" stroke-linejoin="round"/>
<path d="M273.78 525.959L278.03 524.539" stroke="#333333" stroke-width="7" stroke-linecap="round" stroke-linejoin="round"/>
<path d="M306.211 480.949L310.461 479.539" stroke="#333333" stroke-width="7" stroke-linecap="round" stroke-linejoin="round"/>
<path d="M327.4 431.77L331.65 430.35" stroke="#333333" stroke-width="7" stroke-linecap="round" stroke-linejoin="round"/>
<path d="M375.06 334.56C375.06 334.56 374.06 319.23 375.55 293.77C376.83 271.38 379.29 249.05 380.73 226.77C380.73 226.61 380.73 226.45 380.73 226.3C387.878 225.866 394.99 224.964 402.02 223.6C410.02 222.08 417.65 219.73 421.27 211.89C423.32 207.46 423.35 200.64 419.38 197.04C415.11 193.17 404.19 193.45 398.88 193.95C393.876 194.496 388.903 195.297 383.98 196.35C384.03 194.78 384.04 193.2 383.98 191.63C383.72 184.52 384.12 175.41 380.72 168.97C375.97 159.97 364.9 152.9 355.18 151.61C343.38 150.05 328.6 148.7 318.41 155.94C307.182 164.176 297.266 174.065 289 185.27C280.34 197.03 273.22 207.27 264.37 218.97C257.848 227.607 251.783 236.579 246.2 245.85C259.63 246.11 287.25 243.49 287.25 243.49C287.25 243.49 286.19 261.44 285.41 269.77C283.41 291.23 278.52 348.25 278.52 348.25" stroke="#333333" stroke-width="7" stroke-linecap="round" stroke-linejoin="round"/>
<path d="M331.181 212.35V219.9" stroke="#333333" stroke-width="7" stroke-linecap="round" stroke-linejoin="round"/>
<path d="M314.001 213.049V220.599" stroke="#333333" stroke-width="7" stroke-linecap="round" stroke-linejoin="round"/>
<path d="M321.74 247.499C326.98 248.839 337.51 247.309 338.74 241.369" stroke="#333333" stroke-width="7" stroke-linecap="round" stroke-linejoin="round"/>
<path d="M396.59 161.82C393.087 156.823 387.912 153.244 382 151.73C383.099 149.854 383.748 147.749 383.896 145.58C384.043 143.411 383.685 141.237 382.85 139.23C378.99 130.23 368.75 127.35 359.8 128.86C348.94 130.68 339.71 137.86 329.73 142.09C318.725 146.752 307.088 149.755 295.2 151C292.91 151.24 291.27 154 293.2 155.83C301.787 163.99 312.583 169.448 324.246 171.524C335.908 173.601 347.924 172.205 358.8 167.51C357.182 173.895 356.933 180.551 358.07 187.04C359.76 196.7 366.61 208.13 366.12 218.15C365.96 221.49 370.68 221.79 371.68 218.91C374.1 211.91 378.83 204.68 383.47 199.23C384.34 198.197 385.145 197.112 385.88 195.98C390.22 195.13 394.58 194.36 398.93 193.98C400.07 193.87 401.48 193.78 403.02 193.73L403.08 193.03C403.87 182.42 402.91 170.7 396.59 161.82Z" fill="#333333"/>
<path d="M380.73 226.74C380.16 235.68 379.41 244.62 378.65 253.57C378.973 253.281 379.211 252.912 379.34 252.5C385.464 243.796 390.71 234.508 395 224.77C390.27 225.49 385.59 226 380.82 226.27C380.76 226.42 380.74 226.58 380.73 226.74Z" fill="#333333"/>
<path d="M392.051 210.46C392.051 210.46 400.371 206.19 405.261 206.68" stroke="#333333" stroke-width="7" stroke-linecap="round" stroke-linejoin="round"/>
</svg>
