<svg width="250" height="250" viewBox="0 0 250 250" fill="none" xmlns="http://www.w3.org/2000/svg">
<path d="M171.6 94.32C181.41 105.38 186.28 127.99 180.6 148.03C175.79 165.11 158.34 182.5 140.46 185.6C129.29 187.54 115.22 187.66 104.27 184.79C87.54 180.41 76.27 168.73 71.06 152.79C63.14 128.33 67.74 101.79 89.06 85.43C103.63 74.22 117.34 72.1299 135.64 73.8099C144.51 74.5899 161.8 83.25 171.6 94.32Z" stroke="#333333" stroke-width="7" stroke-linecap="round" stroke-linejoin="round"/>
<path d="M90.7998 133.42C90.7998 133.42 111.39 133.59 124.59 133.42" stroke="#333333" stroke-width="7" stroke-linecap="round" stroke-linejoin="round"/>
<path d="M130.49 127.199C137.18 133.449 130.28 142.809 123.14 141.469C117.08 140.349 111.97 129.949 118.46 125.469C121.45 123.419 127.11 123.579 130.49 127.199Z" fill="#333333" stroke="#333333" stroke-width="7" stroke-linecap="round" stroke-linejoin="round"/>
<path d="M154.59 180.449C157.59 186.299 160.8 192.159 164.19 198.089" stroke="#333333" stroke-width="7" stroke-linecap="round" stroke-linejoin="round"/>
<path d="M76.8994 197.879C80.6194 191.659 84.6527 185.632 88.9994 179.799" stroke="#333333" stroke-width="7" stroke-linecap="round" stroke-linejoin="round"/>
<path d="M59.9997 93.3293C41.4797 64.2093 79.9997 37.5693 99.2797 60.6893" stroke="#333333" stroke-width="7" stroke-linecap="round" stroke-linejoin="round"/>
<path d="M151.76 61.2785C174.7 40.7585 207 73.9985 190.21 93.3285" stroke="#333333" stroke-width="7" stroke-linecap="round" stroke-linejoin="round"/>
<path d="M124.22 134.069V89.4688" stroke="#333333" stroke-width="7" stroke-linecap="round" stroke-linejoin="round"/>
</svg>
