<svg width="820" height="820" viewBox="0 0 820 820" fill="none" xmlns="http://www.w3.org/2000/svg">
<path d="M751.25 322C744.18 314.62 735.84 306.51 733.64 296.12C732.53 290.85 734.08 281.82 739.25 279.7C746.72 276.64 749.81 266.03 741.64 261.42C732.14 256.08 721.58 254.42 710.79 254.5C700.84 254.58 690.39 256.61 680.48 255.24C673.685 254.322 667.347 251.305 662.35 246.61C660.26 244.53 658.84 242.44 658.43 239.84C658.49 240.25 658.55 237.84 658.62 237.58C659.24 234.98 660.74 232.63 661.62 230.15C665.56 219.64 660.26 209.37 649.91 205.63C645.914 204.263 641.659 203.829 637.47 204.36C632.93 204.88 627.41 207.36 622.89 206.47C622.515 206.324 622.159 206.132 621.83 205.9L621.52 205.6L621 205C620.83 204.74 620.67 204.48 620.54 204.23C620.19 203.57 619.83 202.93 619.54 202.23C619.54 202.08 619.44 201.89 619.37 201.64C618.88 200.1 618.37 198.57 618.02 197C616.62 191.36 616.02 185.51 614.17 180C612.17 173.73 608.83 167.87 602.79 164.72C593.54 159.89 584.08 163.92 576.53 169.85C570.7 174.44 566.71 176.65 559.73 173.21C551.47 169.14 544.84 162.09 538.16 155.93C507.46 127.62 466.72 122.12 426.86 117.39C379.66 111.79 332.33 108.02 286.04 121.51C264.69 127.73 244.16 136.64 224.24 146.44C205.88 155.44 187.7 165.08 170.24 175.74C137.62 195.58 106 221 88.9996 256C79.1896 276.18 74.5096 298.06 71.3896 320.15C68.5909 339.444 66.8483 358.876 66.1696 378.36C63.7896 452.85 78.2896 532.02 124.43 592.42C124.56 592.6 124.7 592.77 124.83 592.94C128.9 586.56 133.01 580.18 137.12 573.74C153.89 547.43 171.42 520.83 191.12 496.96C198.23 488.35 204.94 479.51 212.12 471.09C217.43 464.88 223.6 458.09 231.22 450.37C234.93 435.09 235.22 423.09 241.6 423.76C242.21 423.82 242.99 423.93 243.92 424.08C243.56 410.14 242.42 366.38 242.24 356.08C242.08 347.74 241.48 336.68 240.78 326.49C239.879 326.887 238.867 326.948 237.925 326.662C236.984 326.376 236.176 325.761 235.65 324.93C232.087 318.78 228.869 312.437 226.01 305.93C215.06 309.01 202.15 308.86 196.77 299.14C188.26 283.78 196.17 272.55 208.38 266.14C210.668 265.004 213.09 264.161 215.59 263.63C215.59 263.17 215.59 262.71 215.59 262.25C215.41 245.49 223.04 227.95 238.71 221.06C238.46 203.47 250.57 186.76 267.77 182.25C289.2 176.64 310.17 189.4 331.6 185.81C335.31 185.18 338.6 189.48 335.49 192.49C330.776 197.122 325.765 201.441 320.49 205.42C322.752 205.858 324.986 206.432 327.18 207.14C350.18 214.62 373.23 226.89 394.97 237.52C409.32 244.52 422.74 250.68 436.71 258.15C448.41 264.4 454.02 268.48 438.43 275.71C423.13 282.81 410.61 289.81 395.63 296.95C386.19 301.46 380.06 304.85 379.74 315.65C379.16 335.24 379.59 355.06 378.41 374.51C377.78 385.03 376.41 423.79 376.41 423.79L375.63 425.43C376.53 425.03 377.42 424.6 378.24 424.15C378.24 424.15 385.47 443.65 390.14 456.15C404.95 461.74 423.6 482.15 435.72 491.68C441.46 496.21 481.96 539.68 495.58 556.31C496.011 555.014 496.512 553.743 497.08 552.5C499.08 548.2 501.4 545.6 504.67 544.45L504.24 541.82C502.59 523.49 502.75 498.04 504.68 491.25C505.68 491.45 506.68 491.69 507.68 491.94V490.15C507.68 490.15 507.94 478.78 507.5 471.93C493.23 467.93 484.94 457.2 480.5 444.26C477.58 448.53 470.24 451.15 464.59 448.41C458.94 445.67 453.51 436.68 449.99 428.48C444.12 414.75 445.3 392.57 461.46 385.72C461.61 376.53 467.55 374.31 474.58 370.45C478.39 368.36 477.58 368.38 480.95 364.45C482.408 362.675 484.206 361.21 486.24 360.14C488.586 358.92 491.105 358.063 493.71 357.6C498.41 350.6 509.17 347.41 520.24 347.5C529.45 347.57 540.39 348.73 550.18 352.1C574.57 347.49 591.27 371.67 591.18 392.83C591.18 404.95 591.58 416.73 591.67 428.55C591.73 437.17 593.52 483.16 593.52 483.16V484.16C594.58 483.63 595.65 483.1 596.72 482.55C597.32 491 597.19 531.11 597.18 533.98C598.143 533.207 599.297 532.706 600.52 532.53C607.94 532.85 610.98 549.92 612.24 555.35C613.62 561.35 614.96 567.23 616.17 573.14C621.665 569.287 627.714 566.289 634.11 564.25C639.49 562.49 644.89 559.95 647.87 554.84C651.29 548.97 650.58 542.38 649.06 536.06C644.13 515.64 638.74 495.31 633.45 474.97C655.84 476.302 677.939 480.721 699.12 488.1C706.93 490.81 712.69 482.7 711.42 475.8C708.64 460.72 705.863 445.64 703.09 430.56L729.71 428C735.38 427.45 742.06 421.92 739.35 415.34C732.28 398.16 724.93 381.07 718.13 363.79C717.53 362.27 716.26 359.98 716.37 358.33C716.531 358.269 716.682 358.185 716.82 358.08C719.61 356.08 722.56 354.29 725.49 352.47L749.22 337.73C750.523 336.941 751.632 335.868 752.464 334.591C753.296 333.314 753.829 331.866 754.024 330.354C754.219 328.843 754.071 327.307 753.591 325.861C753.11 324.414 752.31 323.095 751.25 322Z" fill="#F4F6F9"/>
<path d="M243.929 423.76C243.929 423.76 242.459 368.42 242.239 356.07C241.909 338.28 239.509 308.13 238.599 300.46C227.979 307.25 204.539 313.15 196.769 299.12C188.259 283.76 196.169 272.53 208.379 266.12C215.459 262.39 227.099 261.89 235.259 261.8C235.969 249.53 242.939 234.09 252.129 225.3C260.399 217.39 274.029 209.19 285.129 206.47C298.219 203.25 314.259 202.9 327.209 207.12C350.209 214.6 373.259 226.87 394.999 237.5C409.349 244.5 422.769 250.66 436.739 258.13C448.439 264.38 454.049 268.46 438.459 275.69C423.159 282.79 410.639 289.79 395.659 296.93C386.219 301.44 380.089 304.83 379.769 315.63C379.189 335.22 379.619 355.04 378.439 374.49C377.809 385.01 376.439 423.77 376.439 423.77" stroke="#333333" stroke-width="7" stroke-linecap="round" stroke-linejoin="round"/>
<path d="M315.049 316.54C324.199 310.54 332.049 308.33 343.309 307.75" stroke="#333333" stroke-width="7" stroke-linecap="round" stroke-linejoin="round"/>
<path d="M308.02 276.84L308.38 270.82" stroke="#333333" stroke-width="7" stroke-linecap="round" stroke-linejoin="round"/>
<path d="M348.979 275.08L348.659 268.76" stroke="#333333" stroke-width="7" stroke-linecap="round" stroke-linejoin="round"/>
<path d="M356.399 237.32C349.219 239.69 342.469 250.38 342.469 250.38" stroke="#333333" stroke-width="7" stroke-linecap="round" stroke-linejoin="round"/>
<path d="M299.799 240.211C308.209 241.451 317.079 251.681 317.079 251.681" stroke="#333333" stroke-width="7" stroke-linecap="round" stroke-linejoin="round"/>
<path d="M220.309 285.061C217.597 285.187 214.894 285.451 212.209 285.851" stroke="#333333" stroke-width="7" stroke-linecap="round" stroke-linejoin="round"/>
<path d="M89.4092 654.45C103.079 625.96 120.149 600.36 137.099 573.77C153.869 547.46 171.399 520.86 191.099 496.99C198.209 488.38 204.919 479.54 212.099 471.12C217.409 464.91 223.579 458.12 231.199 450.4C234.909 435.12 235.199 423.12 241.579 423.79C247.959 424.46 273.169 430.16 288.409 431.79C310.649 434.16 321.579 435.12 350.239 431.79C356.549 431.06 369.739 428.79 378.239 424.12C378.239 424.12 385.469 443.62 390.139 456.12C404.949 461.71 423.599 482.12 435.719 491.65C442.179 496.75 488.949 546.33 495.579 556.3" stroke="#333333" stroke-width="7" stroke-linecap="round" stroke-linejoin="round"/>
<path d="M231.219 450.401C241.339 464.401 268.639 484.131 287.429 482.521C299.609 481.521 308.039 473.711 316.429 466.131C322.526 460.346 328.228 454.159 333.499 447.611C333.499 447.611 346.499 467.871 353.299 473.611C361.639 480.611 368.899 479.191 374.469 476.111C381.919 472.001 390.199 456.111 390.199 456.111" stroke="#333333" stroke-width="7" stroke-linecap="round" stroke-linejoin="round"/>
<path d="M333.459 476.711C334.399 485.771 328.749 504.121 326.929 513.091C323.829 528.411 319.659 543.661 316.879 558.971C315.059 568.971 317.199 582.971 326.429 588.501C335.659 594.031 336.999 594.881 339.659 598.001C347.809 607.821 339.939 624.191 337.029 634.371C334.869 641.911 330.079 658.671 333.579 666.441C336.579 673.011 344.259 668.331 348.319 676.081C353.919 686.761 347.099 697.251 346.929 707.751" stroke="#333333" stroke-width="7" stroke-linecap="round" stroke-linejoin="round"/>
<path d="M335.599 527.121L334.929 532.461" stroke="#333333" stroke-width="7" stroke-linecap="round" stroke-linejoin="round"/>
<path d="M336.929 583.121L337.599 585.121" stroke="#333333" stroke-width="7" stroke-linecap="round" stroke-linejoin="round"/>
<path d="M347.6 657.121L348.93 657.791" stroke="#333333" stroke-width="7" stroke-linecap="round" stroke-linejoin="round"/>
<path d="M437.599 564.461C420.709 563.461 389.119 575.131 389.119 575.131" stroke="#333333" stroke-width="7" stroke-linecap="round" stroke-linejoin="round"/>
<path d="M416.129 554.41C419.819 566.27 419.049 585.18 416.939 597.23" stroke="#333333" stroke-width="7" stroke-linecap="round" stroke-linejoin="round"/>
<path d="M426.589 558.33C428.879 563.82 430.119 574.54 429.369 580.52" stroke="#333333" stroke-width="7" stroke-linecap="round" stroke-linejoin="round"/>
<path d="M453.72 690.79C451.06 679.67 452.24 669.62 455.98 658.79C457.52 654.31 460.84 644.91 466.26 644.4C470.37 644.01 473.18 646.3 475.66 648.86C468.85 636.63 489.45 594.12 499.31 608.36C494.65 591.74 489.61 568.55 497.1 552.45C500.38 545.45 504.5 542.9 512.25 543.92C523.25 545.37 532.96 547.77 544.46 547.77C556.13 547.77 567.46 547.45 578.64 544.1C582.946 542.769 587.074 540.915 590.93 538.58C593.08 537.34 598.31 532.38 600.6 532.48C608.02 532.8 611.06 549.87 612.32 555.3C616.92 575.15 621.05 594.4 621.26 614.85C621.36 624.23 621.15 646.21 620.89 667.73" stroke="#333333" stroke-width="7" stroke-linecap="round" stroke-linejoin="round"/>
<path d="M504.259 541.791C502.609 523.461 502.769 498.011 504.699 491.221C510.929 492.461 517.579 495.222 524.579 496.142C533.869 497.402 547.749 496.471 557.259 495.461C571.639 493.921 583.999 489.111 596.799 482.521C597.419 491.281 597.259 534.121 597.259 534.121" stroke="#333333" stroke-width="7" stroke-linecap="round" stroke-linejoin="round"/>
<path d="M572.26 368.111C562.26 351.791 538.04 347.591 520.26 347.461C507.74 347.361 499.26 351.121 495.6 357.231" stroke="#333333" stroke-width="7" stroke-linecap="round" stroke-linejoin="round"/>
<path d="M516.599 358.731C508.479 355.641 493.599 355.991 486.259 360.101C484.226 361.171 482.427 362.636 480.969 364.411C477.609 368.351 478.409 368.331 474.599 370.411C467.599 374.271 461.599 376.491 461.479 385.681C445.319 392.531 444.139 414.681 450.009 428.441C453.529 436.641 459.009 445.631 464.609 448.371C470.209 451.111 477.609 448.491 480.519 444.221" stroke="#333333" stroke-width="7" stroke-linecap="round" stroke-linejoin="round"/>
<path d="M507.659 490.12C507.659 490.12 507.919 478.75 507.479 471.9C483.239 465 476.259 439 476.259 415.32C476.569 421 476.259 432.97 468.419 432.41" stroke="#333333" stroke-width="7" stroke-linecap="round" stroke-linejoin="round"/>
<path d="M461.479 385.69C468.419 383.12 476.259 384.39 480.479 385.16" stroke="#333333" stroke-width="7" stroke-linecap="round" stroke-linejoin="round"/>
<path d="M477.999 368.11C482.649 367.11 488.129 366.11 495.649 368.11" stroke="#333333" stroke-width="7" stroke-linecap="round" stroke-linejoin="round"/>
<path d="M550.209 352.061C574.599 347.451 591.299 371.631 591.209 392.791C591.209 404.911 591.609 416.691 591.699 428.511C591.759 437.131 593.549 483.121 593.549 483.121" stroke="#333333" stroke-width="7" stroke-linecap="round" stroke-linejoin="round"/>
<path d="M517.149 285.271C516.429 281.021 516.589 276.771 516.049 272.541" stroke="#333333" stroke-width="7" stroke-linecap="round" stroke-linejoin="round"/>
<path d="M620.93 308.461C625.71 305.581 628.99 300.391 632.93 297.121" stroke="#333333" stroke-width="7" stroke-linecap="round" stroke-linejoin="round"/>
<path d="M436.259 343.791C434.759 342.901 430.669 338.851 428.929 338.121" stroke="#333333" stroke-width="7" stroke-linecap="round" stroke-linejoin="round"/>
<path d="M655.43 334.321C655.43 334.321 665.65 326.801 671.73 323.631C671.04 326.241 670 332.511 671.08 335.141C676.15 333.911 687.52 327.961 687.52 327.961" stroke="#333333" stroke-width="7" stroke-linecap="round" stroke-linejoin="round"/>
<path d="M549.999 276.78L556.559 256.69C556.559 256.69 546.719 259.36 543.899 260.69C543.389 252.85 545.769 246.28 546.179 238.48" stroke="#333333" stroke-width="7" stroke-linecap="round" stroke-linejoin="round"/>
<path d="M639.949 381.711L655.429 384.881" stroke="#333333" stroke-width="7" stroke-linecap="round" stroke-linejoin="round"/>
<path d="M225.999 305.911C228.858 312.417 232.077 318.761 235.639 324.911C236.166 325.742 236.973 326.356 237.915 326.642C238.856 326.929 239.869 326.868 240.769 326.471C239.979 314.941 239.069 304.471 238.589 300.471C234.669 302.868 230.431 304.699 225.999 305.911Z" fill="#333333"/>
<path d="M331.559 185.781C310.129 189.371 289.159 176.611 267.729 182.221C250.529 186.731 238.419 203.441 238.669 221.031C222.999 227.921 215.369 245.461 215.549 262.221C215.549 262.681 215.549 263.141 215.549 263.601C219.717 262.713 223.952 262.178 228.209 262.001C229.142 270.311 231.159 278.464 234.209 286.251C235.669 290.131 240.379 289.921 241.919 286.251C246.919 274.251 255.919 263.791 257.439 250.521C258.244 244.45 257.199 238.277 254.439 232.811C267.959 232.591 281.969 226.921 293.709 221.501C309.191 214.309 323.315 204.498 335.459 192.501C338.519 189.451 335.269 185.151 331.559 185.781Z" fill="#333333"/>
</svg>
