<svg width="250" height="250" viewBox="0 0 250 250" fill="none" xmlns="http://www.w3.org/2000/svg">
<path d="M170.3 89.9997C179.87 100.81 184.63 122.9 179.11 142.48C174.41 159.17 157.37 176.15 139.9 179.18C128.99 181.08 115.24 181.18 104.54 178.39C88.1897 174.11 77.1497 162.7 72.0997 147.09C64.3597 123.19 68.8497 97.2697 89.6497 81.2697C103.88 70.3297 117.28 68.2697 135.15 69.9197C143.83 70.7297 160.72 79.1997 170.3 89.9997Z" fill="#FEAABC" stroke="#FEAABC" stroke-width="7" stroke-linecap="round" stroke-linejoin="round"/>
<path d="M145.26 158.619C137.09 164.199 126.81 167.619 116.39 166.079C103.45 164.079 93.4502 159.709 86.8302 143.289C80.2102 126.869 84.4802 106.489 97.5002 94.4792C110.52 82.4692 131.54 79.9992 146.79 88.9992C162.04 97.9992 169.97 117.999 164.56 134.889C163.11 139.439 160.5 143.999 156.13 145.939C148.38 149.379 139.24 142.359 137.21 134.129C135.18 125.899 138.05 117.339 140.88 109.339" stroke="#333333" stroke-width="7" stroke-linecap="round" stroke-linejoin="round"/>
<path d="M137.909 118.599C136.139 111.529 128.819 107.169 122.179 107.169C118.545 107.126 115.014 108.38 112.221 110.706C109.428 113.032 107.555 116.277 106.939 119.859C105.419 128.249 106.389 136.009 113.579 140.579C120.769 145.149 133.379 142.679 137.209 134.089" stroke="#333333" stroke-width="7" stroke-linecap="round" stroke-linejoin="round"/>
</svg>
