<svg width="250" height="250" viewBox="0 0 250 250" fill="none" xmlns="http://www.w3.org/2000/svg">
<path d="M151.16 168.41C140.61 175.609 127.34 180.059 113.88 178.029C97.1702 175.519 84.2702 169.819 75.7102 148.609C67.1502 127.399 72.7102 101.089 89.4902 85.6095C106.27 70.1295 133.49 66.8495 153.13 78.4795C172.77 90.1095 183.06 115.949 176.13 137.729C174.25 143.609 170.88 149.489 165.25 151.999C155.25 156.449 143.43 147.389 140.81 136.759C138.19 126.129 141.9 115.069 145.55 104.759" stroke="#333333" stroke-width="7" stroke-linecap="round" stroke-linejoin="round"/>
<path d="M141.67 116.73C139.39 107.61 129.93 101.97 121.35 101.97C116.658 101.917 112.101 103.537 108.496 106.541C104.891 109.545 102.474 113.735 101.68 118.36C99.6804 129.19 100.97 139.21 110.25 145.11C119.53 151.01 135.81 147.83 140.76 136.74" stroke="#333333" stroke-width="7" stroke-linecap="round" stroke-linejoin="round"/>
</svg>
