<svg width="250" height="250" viewBox="0 0 250 250" fill="none" xmlns="http://www.w3.org/2000/svg">
<path d="M155.27 100.589C136.377 117.745 118.386 135.87 101.37 154.889C100.69 157.889 104.22 160.489 107.28 160.119C110.34 159.749 112.8 157.519 115.03 155.389C135.137 136.169 154.574 116.279 173.34 95.7191C174.37 94.7635 175.14 93.5629 175.58 92.2291C176.17 89.7491 174.45 87.3691 172.83 85.3891C168.58 80.2091 162.83 74.4791 156.3 76.0491C153.82 76.6491 151.73 78.2691 149.73 79.8391C127.61 97.2324 105.81 115.022 84.3303 133.209C79.5803 137.209 74.4503 142.059 74.3303 148.289C74.2103 153.429 77.5703 157.919 80.8403 161.889C85.2903 167.319 90.5003 172.999 97.4603 173.999C105.94 175.269 113.61 169.259 120.02 163.569C135.787 149.569 151.244 135.236 166.39 120.569" stroke="#333333" stroke-width="7" stroke-linecap="round" stroke-linejoin="round"/>
</svg>
