<svg width="850" height="820" viewBox="0 0 850 820" fill="none" xmlns="http://www.w3.org/2000/svg">
<path d="M93.2797 440.29L177.67 416C156.361 451.515 139.377 489.451 127.08 529C124.37 537.73 134.38 544.17 141.77 540.3L207.7 505.78C194.367 528.983 186.501 554.921 184.7 581.62C193.93 576.87 202.91 572.05 211.37 567.54C227.51 558.91 245.18 547.89 263.51 543.02C280.238 538.204 297.229 534.354 314.4 531.49C320.52 530.49 326.88 529.74 333.32 529.09C328.03 521.09 333.61 503.55 342.03 506.09C337.37 501.36 337.7 491.75 345.18 491.27H345.45L345.05 490.27C345.05 490.27 336.74 471.57 331.71 464.32C332.51 463.91 333.32 463.52 334.12 463.13L333.32 461.41L328 451.74C319 455.97 311.53 457.74 299.33 455.74C287.13 453.74 274.48 447.88 270.06 440.25C264.96 444.85 255.22 445.54 248.99 439.71C242.29 433.43 238.39 406.33 255.3 401.04L255.37 401.16C256.54 387.93 266.37 378.85 281.23 378.85L281.31 379.15C287.03 373.65 297.4 371.15 308.09 371.15L308.84 370.97C306.11 366.59 301.94 362.43 293.66 359.72C283.78 356.49 270.93 354.2 260.39 355.39C251.92 356.34 236.52 360.59 228.67 356.76C220.39 352.76 222.78 342.39 231.38 337.76C242.38 331.82 255.21 331.15 267.23 330.76C280.98 330.28 293.12 333.37 306.23 336.9C354.69 349.9 380.44 401.38 404.56 439.73L404.8 440.42C413.64 439.53 413.31 444.34 417.29 453.64C419.82 459.56 424.7 477.39 424.7 477.39C438.24 478.08 449.09 484.39 451.46 502.87L452.08 506.45C455.859 505.567 459.685 504.899 463.54 504.45C478.88 491.45 491.46 478.14 504.74 463.23C494.323 446.481 482.934 430.357 470.63 414.94C463.663 406.174 456.393 397.654 448.82 389.38C445.14 385.38 441.39 381.42 437.57 377.5C433.96 373.82 429.79 370.39 426.57 366.39C424.15 363.39 426.96 362.39 429.57 359.82C433.57 355.92 437.69 352.11 441.85 348.38C450.943 340.234 460.37 332.484 470.13 325.13C473.73 322.42 476 318.47 474.72 313.84C473.63 309.84 469.4 306.1 465.08 306.49C441.49 308.634 417.779 309.138 394.12 308C410.827 280.377 430.65 254.762 453.2 231.66C461.04 223.66 450.99 210.03 441.08 215.95C402.74 238.884 363.51 260.217 323.39 279.95C309.045 235.267 299.432 189.201 294.71 142.51C294.541 140.827 294.045 139.193 293.25 137.7C292.8 131.12 287.2 126.53 280.6 128.1C269.55 130.72 265.45 141.44 264.51 151.65C263.39 163.86 264.37 176.37 263.64 188.65C262.38 209.864 259.491 230.949 255 251.72C221.143 229.465 186.152 208.984 150.17 190.36C142.05 186.16 130.22 195.36 136.49 204.05C158.62 234.89 180.92 265.88 206.57 293.91C175.307 287.306 143.511 283.547 111.57 282.68C102.1 282.42 97.3497 297.05 106.52 301.31C133.688 313.93 159.909 328.494 184.98 344.89C174.45 360.75 158.03 371.3 141.63 381.07C121.07 393.31 99.3397 405.07 83.6297 423.57C77.3997 430.8 83.0697 443.22 93.2797 440.29Z" fill="#F4F6F9"/>
<path d="M27.6699 691.61C68.1099 694.32 110.77 686.87 151.48 688.39C222.48 691.04 293.35 685.27 364.48 684.09C500.48 681.85 638.14 677.67 774.04 682.74C793.15 683.45 822.37 683.64 822.37 683.64" stroke="#333333" stroke-width="7" stroke-linecap="round" stroke-linejoin="round"/>
<path d="M330.59 683.82C342 653.54 343.85 633.59 348 619.26C351.82 635.26 357.67 668.05 368.47 683.82" stroke="#333333" stroke-width="7" stroke-linecap="round" stroke-linejoin="round"/>
<path d="M809.51 682.291C807.82 665.501 803.72 652.841 801.4 642.691C797 623.411 790.78 608.771 777.59 588.571C748.22 589.851 718.4 589.431 688.5 592.101C662.05 594.461 634.5 596.561 607.97 593.901C593.74 592.481 580.14 587.901 566.41 584.801C547.73 580.641 535.05 575.931 519.51 564.111C504.22 552.471 493.62 534.861 476.69 525.321C452.96 511.941 416.53 514.751 395.01 531.321C382.83 540.691 373.56 552.601 365.78 565.861C358.15 578.861 352.46 593.111 347.78 609.271C340.06 577.081 329.06 559.271 309.16 547.921C274.93 528.391 240.67 551.921 211.4 567.561C185.95 581.151 155.73 597.501 128.4 606.561C112.57 611.811 84.4904 618.561 67.4004 615.691C55.5962 640.204 46.2182 665.812 39.4004 692.151" stroke="#333333" stroke-width="7" stroke-linecap="round" stroke-linejoin="round"/>
<path d="M263.36 543.05C280.122 538.211 297.151 534.347 314.36 531.48C332.713 528.656 351.252 527.212 369.82 527.16C377.36 527.16 389.82 526.7 396.41 529.87" stroke="#333333" stroke-width="7" stroke-linecap="round" stroke-linejoin="round"/>
<path d="M407.5 523.901C418.29 518.831 436.33 511.081 447.83 507.551C462.4 503.081 479.2 503.471 494.23 501.991C518.65 499.601 544.03 497.851 568.23 501.991C591.99 506.071 618.91 519.101 638.92 533.091C662.63 549.681 693.65 569.371 713.09 576.091C732.53 582.811 750.54 588.231 777.61 588.521" stroke="#333333" stroke-width="7" stroke-linecap="round" stroke-linejoin="round"/>
<path d="M331.509 613.75C325.669 605.27 311.439 595.11 302.189 591.64C290.319 587.2 276.329 587.64 263.929 590.26C231.169 597.26 208.599 614.54 177.689 627.05C162.019 633.39 132.439 639.86 116.689 643.05" stroke="#333333" stroke-width="7" stroke-linecap="round" stroke-linejoin="round"/>
<path d="M68.6895 676.38C132.019 672.71 168.409 658.73 189.689 656.12C220.119 652.4 252.199 651.37 282.359 654.64C292.659 655.76 311.799 661.44 321.019 665.64" stroke="#333333" stroke-width="7" stroke-linecap="round" stroke-linejoin="round"/>
<path d="M323.88 637.541C310.38 630.351 282.09 621.541 254.28 630.861" stroke="#333333" stroke-width="7" stroke-linecap="round" stroke-linejoin="round"/>
<path d="M372 608.771C385.71 591.391 394.14 577.681 414.28 566.921C431.46 557.741 445.38 556.851 463.52 565.381C475.95 571.221 496.36 583.731 508.34 590.711" stroke="#333333" stroke-width="7" stroke-linecap="round" stroke-linejoin="round"/>
<path d="M380.689 627.281C395.529 620.921 421.689 609.901 438.219 608.281C451.669 606.951 464.989 607.96 478.309 609.2C506.359 611.81 534.459 621.6 561.939 627.37C570.953 629.214 580.129 630.152 589.329 630.17" stroke="#333333" stroke-width="7" stroke-linecap="round" stroke-linejoin="round"/>
<path d="M614.729 594.48C622.379 617.05 627.73 654.291 630.03 680.331" stroke="#333333" stroke-width="7" stroke-linecap="round" stroke-linejoin="round"/>
<path d="M387.43 657C409.69 655 423.72 654.28 447.02 653C464.52 652.06 518.69 656 518.69 656" stroke="#333333" stroke-width="7" stroke-linecap="round" stroke-linejoin="round"/>
<path d="M563.31 657H570.53" stroke="#333333" stroke-width="7" stroke-linecap="round" stroke-linejoin="round"/>
<path d="M773.3 619.531C764.81 618.931 713.36 620.031 703.96 622.281" stroke="#333333" stroke-width="7" stroke-linecap="round" stroke-linejoin="round"/>
<path d="M784.69 636.18C763.39 638 664.24 640 644 640.63" stroke="#333333" stroke-width="7" stroke-linecap="round" stroke-linejoin="round"/>
<path d="M773 657C733.93 657 695.34 657 653.67 659" stroke="#333333" stroke-width="7" stroke-linecap="round" stroke-linejoin="round"/>
<path d="M451.46 502.821C446.08 460.821 397.07 481.741 372.05 488.181C363.32 490.431 352.66 490.741 345.17 491.231C337.68 491.721 337.36 501.321 342.02 506.051C333.6 503.531 328.02 521.051 333.31 529.051" stroke="#333333" stroke-width="7" stroke-linecap="round" stroke-linejoin="round"/>
<path d="M345 490.189C345 490.189 336.69 471.489 331.66 464.239C346 457.049 359.02 452.57 373.86 447.32C382.2 444.38 392.86 442.489 401.86 440.809C413.73 438.569 412.86 443.359 417.27 453.589C419.8 459.509 424.68 477.339 424.68 477.339" stroke="#333333" stroke-width="7" stroke-linecap="round" stroke-linejoin="round"/>
<path d="M404.56 439.68C380.44 401.33 354.69 349.87 306.23 336.85C293.09 333.32 280.95 330.23 267.23 330.71C255.23 331.13 242.42 331.8 231.38 337.71C222.78 342.35 220.38 352.71 228.67 356.71C236.52 360.54 251.92 356.29 260.39 355.34C270.93 354.15 283.78 356.44 293.66 359.67C304.08 363.08 307.99 368.77 310.72 374.34" stroke="#333333" stroke-width="7" stroke-linecap="round" stroke-linejoin="round"/>
<path d="M334.3 389.451C319.69 389.051 301.7 391.991 289.12 395.451C281.82 397.451 273.04 399.391 269.7 407.341C266.36 415.291 272.22 420.531 281 420.681C291.33 420.871 301.67 418.681 315.69 419.011C313.69 424.011 313.34 436.861 320.69 439.641" stroke="#333333" stroke-width="7" stroke-linecap="round" stroke-linejoin="round"/>
<path d="M308.06 371.141C288.69 371.141 270.35 379.401 278.85 398.681" stroke="#333333" stroke-width="7" stroke-linecap="round" stroke-linejoin="round"/>
<path d="M281.2 378.859C262.69 378.859 251.91 392.999 256.12 411.709C260.69 432.069 289.12 442.709 293.63 424.349" stroke="#333333" stroke-width="7" stroke-linecap="round" stroke-linejoin="round"/>
<path d="M255.27 401.051C238.36 406.341 242.27 433.441 248.96 439.721C257.96 448.161 274.37 442.941 273.36 431.961" stroke="#333333" stroke-width="7" stroke-linecap="round" stroke-linejoin="round"/>
<path d="M270 440.26C274.42 447.89 287.07 453.81 299.27 455.75C311.47 457.69 318.98 455.97 327.94 451.75L333.28 461.34" stroke="#333333" stroke-width="7" stroke-linecap="round" stroke-linejoin="round"/>
<path d="M463.54 504.391C480.9 489.651 494.71 474.581 510.02 457.211C522.24 443.351 534.53 428.711 545.41 407.381C553.69 412.591 562.88 415.571 589.57 416.891C616.26 418.211 640.5 416.951 648.72 415.601C658.43 414.001 659.65 419.001 662 428.711C664.44 438.861 667.88 448.631 673.32 456.711C687.26 477.371 695.82 488.261 712.76 512.991C729.7 537.721 743.52 559.251 758.1 585.791" stroke="#333333" stroke-width="7" stroke-linecap="round" stroke-linejoin="round"/>
<path d="M535.53 440.081C538.53 450.081 545.07 457.791 557.43 450.971C567.32 445.521 575.92 439.711 583.22 428.711C591.09 446.141 598.66 454.381 612.04 462.711C625.89 471.311 646.59 461.361 656.98 449.951" stroke="#333333" stroke-width="7" stroke-linecap="round" stroke-linejoin="round"/>
<path d="M548.86 406.31L546.02 343.31C546.02 343.31 513.15 347.58 499.37 350.22C502.87 332.72 508.37 320.75 514.02 307.8C520.32 293.4 526.4 280.21 537.19 268.52C556.75 247.33 598.11 228.31 621.5 255.24C635.17 270.98 632.72 293.88 633.8 313.29C647.46 310.29 668.41 297.21 677.18 316.79C686.49 337.59 654.86 337.62 641.89 337.9C644.27 356.7 651.83 401.8 653.48 413.52" stroke="#333333" stroke-width="7" stroke-linecap="round" stroke-linejoin="round"/>
<path d="M582.229 356.71C595.579 356.71 603.88 349.95 603.88 343.18" stroke="#333333" stroke-width="7" stroke-linecap="round" stroke-linejoin="round"/>
<path d="M573.21 305.301L575.02 313.321" stroke="#333333" stroke-width="7" stroke-linecap="round" stroke-linejoin="round"/>
<path d="M560.36 308.32L562.16 316.34" stroke="#333333" stroke-width="7" stroke-linecap="round" stroke-linejoin="round"/>
<path d="M650 308.28C649.76 305.794 649.467 303.307 649.12 300.82C648.12 293.82 647.12 284.21 643.89 276.27C640.89 264.79 634.34 246.34 623.81 240.38C619.68 237.26 614.81 235.67 609.39 236.85C609.39 236.76 609.32 236.66 609.27 236.57C607.77 233.27 603.78 231.19 600.61 229.87C592.88 226.63 584.02 227.37 576.2 229.87C557 236.05 545 253.76 526.5 261.15C523.82 262.22 523.96 266.44 527.22 266.46L553.74 266.64C561.74 266.7 569.89 266.81 577.85 265.38C585.166 264.184 592.037 261.08 597.77 256.38C598.77 264.89 603.24 274.91 610.63 280.66C616.37 285.12 621.5 289.13 623.53 296.44C625.8 304.65 626.81 313.35 628.36 321.72C628.85 324.4 633.95 324.2 634.57 321.72C635.31 318.79 636.02 315.72 636.68 312.58C640.78 311.37 645.35 309.64 650 308.28Z" fill="#333333"/>
<path d="M641.89 337.91C642.46 342.34 643.31 348.26 644.3 354.84C645.74 355.93 648.3 355.66 648.61 353.54C649.43 348.26 650.02 342.967 650.38 337.66C647.18 337.81 644.23 337.86 641.89 337.91Z" fill="#333333"/>
<path d="M580.36 444.381C575.18 453.811 580.36 463.441 582.36 473.051C584.75 484.241 576.55 491.561 575.68 501.711" stroke="#333333" stroke-width="7" stroke-linecap="round" stroke-linejoin="round"/>
<path d="M589.52 464.711C589.563 464.96 589.682 465.19 589.861 465.369C590.04 465.548 590.27 465.667 590.52 465.711" stroke="#333333" stroke-width="7" stroke-linecap="round" stroke-linejoin="round"/>
<path d="M588.52 496.711C589.22 496.911 589.8 497.061 590.52 497.211" stroke="#333333" stroke-width="7" stroke-linecap="round" stroke-linejoin="round"/>
</svg>
