<svg width="250" height="250" viewBox="0 0 250 250" fill="none" xmlns="http://www.w3.org/2000/svg">
<path d="M181.55 104.909C176.646 93.0748 167.609 83.426 156.12 77.7591C147.12 73.2291 131.24 72.2991 115.54 73.5491C99.84 74.7991 85.65 79.1091 77.23 88.8591C69 98.4291 67.13 105.679 65.66 117.599C64.66 125.769 68.1 132.719 71.66 140.199C74.19 145.519 78.5 149.529 84.12 152.929C83.7539 153.978 83.3231 155.003 82.83 155.999C78.7058 163.907 73.2066 171.018 66.59 176.999C73.86 175.459 79.38 173.659 85.59 169.619C89.01 167.399 94.21 164.099 100.13 160.109C111.32 163.109 126.68 162.959 133.75 161.929C142.91 160.599 150.52 159.449 159 156.059C165.4 153.499 175.06 147.129 178.24 141.979C181.677 136.499 183.768 130.284 184.344 123.841C184.919 117.399 183.962 110.911 181.55 104.909Z" fill="#02ABF8" stroke="#02ABF8" stroke-width="7" stroke-linecap="round" stroke-linejoin="round"/>
<path d="M148.17 122.208L147.96 116.988" stroke="white" stroke-width="7" stroke-linecap="round" stroke-linejoin="round"/>
<path d="M123.79 122.229L123.65 116.969" stroke="white" stroke-width="7" stroke-linecap="round" stroke-linejoin="round"/>
<path d="M99.3199 122.298L99.1699 116.898" stroke="white" stroke-width="7" stroke-linecap="round" stroke-linejoin="round"/>
</svg>
