<svg width="1100" height="820" viewBox="0 0 1100 820" fill="none" xmlns="http://www.w3.org/2000/svg">
<path d="M450.62 625.091C458.46 614.651 465.95 603.981 472.83 592.831C478.95 582.901 477.54 580.561 475.45 569.771C471.68 550.341 468.1 530.891 464.45 511.421C464.228 511.345 464.014 511.248 463.81 511.131C452.374 504.649 442.667 495.508 435.51 484.481C426.25 484.481 419.14 481.081 420.12 469.971C420.472 466.278 421.812 462.747 424 459.751C422.827 455.815 421.915 451.807 421.27 447.751C418.22 428.671 420.49 397.011 438.37 385.591C437.37 372.111 449.17 360.591 462.23 357.121C481.52 352.121 503.11 361.321 521.23 351.301C524.58 349.451 528.97 353.961 526.37 357.091C523.58 360.431 520.75 363.831 517.81 367.161C552.292 365.969 586.812 367.702 621 372.341C602.94 387.641 556.27 405.501 556.27 405.501C556.27 405.501 566.53 430.651 569.69 440.681C576.22 461.371 583.06 481.621 588.23 502.741C590.87 513.521 601.18 554.741 601.18 554.741C611.54 565.541 622.18 575.651 632.04 585.471C642.09 595.471 650.04 606.671 658.52 617.981C660.52 616.021 662.497 614.004 664.45 611.931C690.25 585.081 700.32 517.561 700.32 486.091C700.32 454.621 692.21 421.631 683.24 402.441C673.67 382.001 662.14 361.721 647.58 345.001C597.51 287.381 513.15 291.671 452.52 326.621C421.79 344.341 393.25 371.071 380.31 406.761C365.75 446.941 376.54 488.681 390.57 527.111C403.79 563.281 421.68 600.551 450.62 625.091Z" fill="#F4F6F9"/>
<path d="M601.16 554.702C601.16 554.702 590.85 513.522 588.21 502.702C583.04 481.582 576.21 461.332 569.67 440.642C566.51 430.642 556.25 405.462 556.25 405.462C556.25 405.462 602.92 387.602 620.98 372.302C583.583 367.208 545.792 365.618 508.1 367.552C485.77 368.742 462.63 374.552 449.76 393.872C441.87 405.702 443.76 417.292 446.71 430.982C447.59 434.982 448.5 438.982 449.41 442.982C435.47 448.032 421.24 456.892 420.09 469.982C418.36 489.632 442 485.242 458 480.212C459.85 488.432 461.62 496.692 463.21 505.032C467.32 526.642 471.21 548.222 475.44 569.772C477.53 580.562 478.94 582.902 472.82 592.832C460.99 612.022 447.33 629.832 433.2 647.372C424.88 657.702 397.09 689.712 395.43 696.372C395.43 696.372 676.43 695.932 704.43 691.272C689.25 660.642 678.07 642.512 666.49 628.212C654.57 613.492 645.11 598.482 632 585.392C622.16 575.572 611.5 565.462 601.14 554.662C587.05 560.982 573.68 565.882 559.42 570.662C546.24 575.092 532.56 575.822 518.59 577.222C507.8 578.302 491.23 581.862 480.43 582.222" stroke="#333333" stroke-width="7" stroke-linecap="round" stroke-linejoin="round"/>
<path d="M503.229 420.393L508.919 425.743" stroke="#333333" stroke-width="7" stroke-linecap="round" stroke-linejoin="round"/>
<path d="M522.8 411.551L528.49 416.901" stroke="#333333" stroke-width="7" stroke-linecap="round" stroke-linejoin="round"/>
<path d="M487 592.731C487 592.731 499.52 609.491 507 616.091C516 624.091 527.95 635.901 541 634.361C561.52 631.921 569.91 600.131 563.13 585.501C566.4 598.301 592.13 637.591 605.81 605.011C608.46 598.711 608.42 576.121 608.42 576.121" stroke="#333333" stroke-width="7" stroke-linecap="round" stroke-linejoin="round"/>
<path d="M452.84 461.772C447.98 461.552 443.42 460.362 440.29 464.352" stroke="#333333" stroke-width="7" stroke-linecap="round" stroke-linejoin="round"/>
<path d="M458 480.211C451 482.401 442.6 484.461 435.47 484.481C442.626 495.508 452.333 504.649 463.77 511.131C463.973 511.248 464.188 511.345 464.41 511.421L463.21 505.031C461.63 496.691 459.86 488.431 458 480.211Z" fill="#333333"/>
<path d="M521.28 351.302C503.13 361.302 481.54 352.082 462.28 357.122C449.22 360.542 437.45 372.122 438.42 385.592C420.54 397.012 418.27 428.672 421.32 447.752C421.965 451.807 422.877 455.816 424.05 459.752C429.33 452.292 439.13 446.832 448.88 443.232C452.8 447.292 456.88 451.232 460.52 456.122C462.82 459.222 467.03 456.832 467.52 453.792C470.94 433.862 466.81 410.452 455.65 393.792C466.06 396.792 477.65 395.412 487.72 391.112C503.81 384.242 515.49 370.212 526.42 357.112C529 354.002 524.63 349.452 521.28 351.302Z" fill="#333333"/>
<path d="M525.18 474.593C539.44 466.593 555.94 470.063 570.85 475.823" stroke="#333333" stroke-width="7" stroke-linecap="round" stroke-linejoin="round"/>
<path d="M578.68 469.092C575.74 459.632 572.68 450.202 569.68 440.682C569.56 440.292 569.42 439.872 569.28 439.432C566.62 442.042 564.39 445.172 561.56 447.652C553.56 454.652 543.31 458.272 533.67 462.142C526.67 464.942 518.41 464.142 524.07 472.962C536.47 492.392 564.29 484.462 578.68 469.092Z" stroke="#333333" stroke-width="7" stroke-linecap="round" stroke-linejoin="round"/>
<path d="M572.439 627.893C581.069 646.023 585.069 672.193 584.439 692.393" stroke="#333333" stroke-width="7" stroke-linecap="round" stroke-linejoin="round"/>
<path d="M626.939 669.892C642.249 669.512 660.829 671.472 674.939 675.892" stroke="#333333" stroke-width="7" stroke-linecap="round" stroke-linejoin="round"/>
<path d="M659.93 662.393C662.634 669.079 664.156 676.185 664.43 683.393" stroke="#333333" stroke-width="7" stroke-linecap="round" stroke-linejoin="round"/>
<path d="M646.439 660.893C653.629 668.803 651.439 684.173 655.439 693.893" stroke="#333333" stroke-width="7" stroke-linecap="round" stroke-linejoin="round"/>
<path d="M595.439 677.393H596.939" stroke="#333333" stroke-width="7" stroke-linecap="round" stroke-linejoin="round"/>
<path d="M587.439 638.393H590.439" stroke="#333333" stroke-width="7" stroke-linecap="round" stroke-linejoin="round"/>
<path d="M575.999 462.812C574.289 459.252 572.539 455.722 570.809 452.182C570.809 452.102 570.719 452.042 570.669 451.962C574.469 448.812 570.539 442.062 566.509 445.162C554.509 454.402 540.229 459.162 525.959 463.672C521.869 464.962 522.319 471.932 527.019 471.522C533.625 470.854 540.26 470.52 546.899 470.522C554.299 470.632 560.699 472.212 567.759 474.122C571.869 475.232 577.159 474.392 577.899 469.292C578.189 466.942 576.919 464.812 575.999 462.812Z" fill="#333333"/>
<path d="M272.41 443.691C306.14 436.691 327.92 420.211 350.66 392.301C373.4 364.391 377.44 319.361 370.61 284.941C367.636 270.889 363.375 257.141 357.88 243.871C357.49 242.961 356.81 241.611 355.88 239.931C345.42 220.796 330.759 204.281 312.999 191.626C295.239 178.972 274.841 170.508 253.34 166.871C249.48 166.125 245.585 165.574 241.67 165.221H241.38C218.701 166.135 196.122 168.735 173.83 173.001C153.83 176.731 128.89 183.071 110.83 192.411C78.9998 208.801 63.3498 242.491 58.9998 276.861C58.8798 277.861 58.7698 278.811 58.6698 279.781C58.5898 280.521 58.5198 281.251 58.4498 281.991C58.4498 282.301 58.3998 282.611 58.3698 282.931V283.291C58.2298 285.021 58.0998 286.751 58.0098 288.491C58.0098 289.151 57.9498 289.811 57.9298 290.491C57.9298 291.431 57.8498 292.371 57.8298 293.311C57.8098 294.251 57.7698 295.391 57.7598 296.441C57.7598 298.081 57.7598 299.741 57.7598 301.441C57.7598 301.921 57.7598 302.441 57.7598 302.881C57.7598 304.171 57.8198 305.461 57.8598 306.751C57.8598 306.891 57.8598 307.021 57.8598 307.151V308.041C57.9198 309.711 57.9998 311.381 58.0898 313.041L58.1498 313.971C58.2298 315.381 58.3198 316.811 58.4198 318.241C58.4198 318.751 58.4898 319.241 58.5298 319.781C58.6298 321.201 58.7398 322.621 58.8598 324.041C58.8598 324.191 58.8598 324.341 58.8598 324.491C58.8598 324.641 58.8598 324.871 58.8598 325.061C59.0098 326.801 59.1698 328.551 59.3298 330.311C59.3898 330.841 59.4398 331.381 59.4898 331.911C59.6198 333.231 59.7498 334.561 59.8898 335.911C59.8898 336.461 59.9998 337.011 60.0598 337.571C60.2298 339.221 60.4098 340.881 60.5898 342.571C60.5898 342.711 60.5898 342.841 60.5898 342.971L60.8298 345.041L60.9198 345.811C60.9198 346.181 60.9998 346.551 61.0498 346.911C61.0998 347.271 61.1198 347.551 61.1598 347.911C61.2498 348.571 61.3298 349.211 61.4198 349.861C61.5098 350.511 61.5398 350.861 61.6098 351.361C61.6098 351.501 61.6098 351.641 61.6098 351.771C61.6139 351.814 61.6139 351.857 61.6098 351.901C61.7398 352.841 61.8798 353.761 62.0098 354.681L62.0998 355.311C62.1598 355.681 62.2098 356.051 62.2698 356.411C62.4098 357.331 62.5598 358.231 62.6998 359.121C62.7498 359.411 62.7898 359.691 62.8398 359.971C62.9598 360.691 63.0898 361.391 63.2198 362.101L63.3998 363.101C63.4698 363.521 63.5498 363.931 63.6298 364.341L63.9298 365.891C63.9298 366.091 63.9998 366.291 64.0398 366.491C64.1298 366.901 64.2098 367.321 64.2898 367.721C64.3998 368.291 64.5198 368.841 64.6398 369.401C64.7198 369.781 64.7998 370.161 64.8898 370.541C64.9798 370.921 65.0898 371.481 65.1998 371.951C65.3098 372.421 65.4698 373.111 65.5998 373.691C65.7298 374.271 65.8298 374.691 65.9398 375.141C66.1498 375.991 66.3598 376.841 66.5798 377.691C66.7198 378.241 66.8598 378.781 67.0098 379.321C67.1598 379.861 67.2398 380.221 67.3698 380.661C67.4998 381.101 67.6598 381.761 67.8198 382.311C68.0198 383.031 68.2298 383.761 68.4398 384.481C68.4398 384.571 68.4398 384.661 68.5198 384.741C76.8898 373.321 85.2398 361.251 88.8998 355.491C102.9 333.491 117.7 310.111 127.59 286.341C108.73 304.091 98.5898 280.871 105.5 263.021C111.64 247.231 134.42 228.801 145.32 249.911C143.27 222.911 167.62 194.851 195.52 194.911C217.37 194.981 229.9 203.851 244.52 219.761C253.85 229.901 261.91 241.421 269.6 253.281L270.5 252.961C293.63 230.431 309.44 275.201 295.5 289.961L293.72 290.901L295.03 292.821C304.09 305.881 318.57 333.611 318.57 333.611C318.57 333.611 289.49 325.211 267.06 320.161C268.366 321.525 269.386 323.136 270.06 324.901C270.866 326.834 271.67 328.767 272.47 330.701C273.507 332.238 274.221 333.97 274.57 335.791C275.28 337.531 275.99 339.281 276.71 341.021C278.07 344.301 274.82 346.291 272.03 345.691C271.972 345.781 271.909 345.868 271.84 345.951C270.03 348.041 266.91 347.101 265.55 345.141C263.617 342.335 261.033 340.04 258.02 338.451C258.46 342.096 258.356 345.786 257.71 349.401C257.427 350.423 256.75 351.291 255.827 351.814C254.905 352.338 253.812 352.473 252.79 352.191C248.827 350.837 245.185 348.682 242.09 345.861L241.51 347.961C241.51 347.961 228.51 390.331 227.57 411.171L226.88 411.991C230.858 411.181 234.782 410.126 238.63 408.831C238.63 408.831 238.54 427.831 236.79 440.651C236.365 443.67 235.733 446.657 234.9 449.591L235.75 449.441C246.24 447.761 258.96 445.841 272.16 443.661L272.41 443.691Z" fill="#9ED5F0"/>
<path d="M236 449.471C246.49 447.791 259.31 446.421 272.41 443.691C306.14 436.691 327.92 420.211 350.66 392.301C373.4 364.391 377.44 319.361 370.61 284.941C367.636 270.889 363.375 257.141 357.88 243.871C357.49 242.961 356.81 241.611 355.88 239.931C345.42 220.796 330.759 204.281 312.999 191.626C295.239 178.972 274.842 170.508 253.34 166.871C249.377 166.079 245.37 165.528 241.34 165.221C218.675 166.137 196.109 168.737 173.83 173.001C153.83 176.731 128.89 183.071 110.83 192.411C79.0002 208.801 63.3502 242.491 59.0002 276.861C56.4202 297.381 58.1402 319.001 60.7602 343.001C63.3802 367.001 67.5702 383.471 74.9102 403.001C79.6202 415.561 84.7102 424.921 91.9102 436.501C94.7202 441.001 79.8202 505.001 75.4202 512.881C89.1802 494.371 131.42 459.601 131.42 459.601C141.197 461.06 151.113 461.359 160.96 460.491C176.67 458.711 183.21 458.141 212.96 453.441" stroke="#9ED5F0" stroke-width="7" stroke-linecap="round" stroke-linejoin="round"/>
<path d="M68.1104 382.49C76.9904 373.49 82.2304 366.38 89.1104 355.49C103.11 333.49 117.91 310.11 127.8 286.34C108.94 304.09 98.8004 280.87 105.71 263.02C111.85 247.23 134.63 228.8 145.53 249.91C143.48 222.91 167.83 194.85 195.73 194.91C217.58 194.98 230.11 203.85 244.73 219.76C264.44 241.18 278.54 268.76 295.24 292.82C304.3 305.88 318.78 333.61 318.78 333.61C318.78 333.61 271.1 319.85 250.76 317C230.42 314.15 212.41 312 197.08 311.86" stroke="#333333" stroke-width="7" stroke-linecap="round" stroke-linejoin="round"/>
<path d="M120.76 263C123.538 264.097 126.215 265.435 128.76 267" stroke="#333333" stroke-width="7" stroke-linecap="round" stroke-linejoin="round"/>
<path d="M187.911 266.001C189.591 253.421 198.201 237.871 211.741 235.001C223.441 232.501 235.951 241.001 240.301 251.521C249.661 274.211 229.301 307.881 202.761 298.021C191.621 293.851 186.321 276.151 187.911 266.001Z" stroke="#333333" stroke-width="7" stroke-linecap="round" stroke-linejoin="round"/>
<path d="M218.76 264.99L217.76 270.99" stroke="#333333" stroke-width="7" stroke-linecap="round" stroke-linejoin="round"/>
<path d="M270.76 253C293.89 230.47 309.7 275.24 295.76 290" stroke="#333333" stroke-width="7" stroke-linecap="round" stroke-linejoin="round"/>
<path d="M242.17 258.17L285.15 265.99" stroke="#333333" stroke-width="7" stroke-linecap="round" stroke-linejoin="round"/>
<path d="M163.57 243.871L193.76 249.361" stroke="#333333" stroke-width="7" stroke-linecap="round" stroke-linejoin="round"/>
<path d="M197.08 311.852C187.63 319.492 175.48 335.852 184.25 342.002C193.53 348.482 212.16 331.122 215.81 323.292C215.71 329.222 213.75 340.182 219.74 344.042C227.84 349.262 233.62 337.142 234.74 330.192C237.15 341.612 245.13 355.282 258.54 352.622C260.32 347.452 260.14 341.692 256.64 337.372C259.64 343.372 270.2 352.372 276.64 346.422C282.44 341.042 271.98 326.292 270.75 321.992" stroke="#333333" stroke-width="7" stroke-linecap="round" stroke-linejoin="round"/>
<path d="M176.46 413.581C182.01 413.631 191.76 416.581 197.03 416.371C196.44 423.371 195.3 433.251 191.82 439.741C186.82 437.411 177.15 436.741 171.82 436.601C173.67 432.291 175.58 427.141 175.82 422.391C176.19 414.231 175.9 414.461 175.9 414.461C175.9 414.461 153.74 398.001 145.18 392.301C136.96 406.551 134.18 430.671 132.93 445.911C145.51 444.201 158.19 438.521 170.65 436.191" stroke="#333333" stroke-width="7" stroke-linecap="round" stroke-linejoin="round"/>
<path d="M87.5605 357.932C112.731 371.162 143.251 384.102 170.761 390.022C181.321 392.292 203.201 397.292 228.811 397.292" stroke="#333333" stroke-width="7" stroke-linecap="round" stroke-linejoin="round"/>
<path d="M241.76 348C241.76 348 228.76 390.37 227.82 411.21" stroke="#333333" stroke-width="7" stroke-linecap="round" stroke-linejoin="round"/>
<path d="M199.12 419.061C211.85 413.871 226.12 413.301 238.87 408.861C238.87 408.861 238.79 427.861 237.04 440.681C235.756 448.971 233.157 457.002 229.34 464.471L194.521 439.171" stroke="#333333" stroke-width="7" stroke-linecap="round" stroke-linejoin="round"/>
<path d="M70.7402 391.15C91.9002 399.67 113.74 409.42 134.63 416.22" stroke="#333333" stroke-width="7" stroke-linecap="round" stroke-linejoin="round"/>
<path d="M277 341.051C276.28 339.311 275.57 337.561 274.86 335.821C274.511 334 273.797 332.268 272.76 330.731C271.96 328.791 271.157 326.857 270.35 324.931C268.72 321.091 266.71 318.601 262.5 317.771C251.03 315.501 238.76 315.241 227.12 314.131C221.12 313.561 215.22 312.991 209.26 312.481C204.43 312.061 200.07 311.941 195.92 314.791C188.36 320.001 184.66 329.701 183.74 338.461C183.49 340.891 186.53 343.221 188.81 342.321C198.16 338.684 206.469 332.796 213 325.181C213.36 325.181 213.7 325.091 214.06 325.071C215.33 324.943 216.613 325.017 217.86 325.291C218.129 325.38 218.408 325.434 218.69 325.451C218.307 325.773 218.006 326.181 217.81 326.641C216.544 329.313 215.929 332.247 216.018 335.202C216.107 338.158 216.896 341.05 218.32 343.641C218.629 344.169 219.054 344.619 219.564 344.956C220.074 345.294 220.655 345.51 221.261 345.588C221.868 345.667 222.484 345.605 223.063 345.407C223.642 345.21 224.167 344.883 224.6 344.451C227.49 341.111 231.33 336.351 233.6 331.451C234.86 336.249 237.292 340.659 240.678 344.284C244.065 347.91 248.299 350.637 253 352.221C254.022 352.503 255.115 352.368 256.038 351.845C256.96 351.321 257.637 350.453 257.92 349.431C258.566 345.816 258.671 342.126 258.23 338.481C261.244 340.07 263.827 342.365 265.76 345.171C267.12 347.171 270.24 348.071 272.05 345.981C272.119 345.898 272.182 345.811 272.24 345.721C275.07 346.321 278.32 344.331 277 341.051Z" fill="#333333"/>
<path d="M975 208C972.155 211.451 968.886 214.529 965.27 217.16C954 225 942.58 231.26 931.43 232L925.88 228.7C926.77 229.51 927.65 230.36 928.49 231.27C941.345 245.551 951.181 262.283 957.41 280.46C967.31 276.24 980.05 273.65 989.26 275.04C997.36 276.27 1004.76 283.26 1003.76 292.54C1002.76 301.54 993.1 306.54 984.76 308.79C980.42 309.95 973.32 312.21 967.23 314.21C969.84 328.04 972.23 341.96 975.4 355.71C978.57 369.46 989 415.79 989 415.79C989 415.79 1009.64 425.35 1025.73 432.58C1028 428.127 1030.03 423.554 1031.8 418.88C1042.8 389.68 1043.21 368.71 1041.63 337.99C1040.63 318.36 1035.88 292.24 1028.5 273.99C1019.97 252.84 1006.15 234.69 989.95 219.8C985.272 215.494 980.274 211.55 975 208Z" fill="#FEAABC"/>
<path d="M858.06 483.94C863.818 476.411 868.92 468.402 873.31 460C873.31 460 860.23 421 852.81 402.69C847.27 389.02 832.73 352.88 832.73 352.88C814.73 360.34 779.96 381.88 779.96 381.88C779.96 381.88 791.19 329.42 798.54 307.98C807.79 280.98 818.54 255.34 840.81 236.41C858.51 221.41 888.81 211.95 911.66 220.16C907.39 210.59 908.4 197.42 911.4 184.9L911.21 184.83C901.219 183.504 891.147 182.893 881.07 183C859.21 183.17 810.91 195 777.87 220.28C744.83 245.56 726.46 291.54 722.49 329.83C718.4 369.23 729.64 410.83 750.84 443.9C759.61 457.6 770.36 471.16 796.58 489.35C809.3 498.18 825.58 503.98 842.42 507.43C849.56 496.45 856 486.74 858.06 483.94Z" fill="#FEAABC"/>
<path d="M890.76 309.99L892.76 319.99" stroke="#333333" stroke-width="7" stroke-linecap="round" stroke-linejoin="round"/>
<path d="M869.76 317.99L871.76 327.99" stroke="#333333" stroke-width="7" stroke-linecap="round" stroke-linejoin="round"/>
<path d="M893.56 355.361C897.95 353.281 899.36 356.591 898.81 360.691C898.26 356.051 903.14 350.571 908.59 352.171C914.04 353.771 916.41 375.291 909.18 382.491C901 390.641 892.61 385.491 888.76 374.821C884.91 364.151 889.17 357.441 893.56 355.361Z" stroke="#333333" stroke-width="7" stroke-linecap="round" stroke-linejoin="round"/>
<path d="M877.76 376C894.63 378.64 918.26 364.35 921.58 349.34" stroke="#333333" stroke-width="7" stroke-linecap="round" stroke-linejoin="round"/>
<path d="M831.76 246C861.54 266 918.76 289.26 950.76 267" stroke="#333333" stroke-width="7" stroke-linecap="round" stroke-linejoin="round"/>
<path d="M911.19 184.83C901.206 183.505 891.141 182.894 881.07 183C859.21 183.17 810.91 195 777.87 220.28C744.83 245.56 726.46 291.54 722.49 329.83C718.4 369.23 729.64 410.83 750.84 443.9C759.61 457.6 770.36 471.16 796.58 489.35C822.8 507.54 864.25 512.93 893.76 511.17C917.62 509.75 946.33 504.56 967.37 494.7L967.69 494.95C967.69 494.95 987.1 513.69 997.3 522C1008.81 531.37 1022.24 540.79 1035.86 546.6C1029.71 530.94 1019.42 515.14 1011.14 500.37C1007.03 493.03 1001.48 481.37 997.37 472.37C1012.23 457.03 1024.74 437.48 1031.76 418.85C1042.76 389.65 1043.17 368.68 1041.59 337.96C1040.59 318.33 1035.84 292.21 1028.46 273.96C1019.93 252.81 1006.11 234.66 989.91 219.77C985.244 215.476 980.26 211.542 975 208" stroke="#FEAABC" stroke-width="7" stroke-linecap="round" stroke-linejoin="round"/>
<path d="M1025.79 432.38C1015.62 428.38 988.96 415.79 988.96 415.79C988.96 415.79 978.6 369.43 975.4 355.66C972.2 341.89 969.84 327.99 967.23 314.16C973.32 312.16 980.42 309.9 984.76 308.74C993.1 306.52 1002.76 301.52 1003.76 292.49C1004.76 283.21 997.36 276.22 989.26 274.99C980.05 273.6 967.26 276.19 957.41 280.41C951.181 262.233 941.345 245.502 928.49 231.22C906.39 207.22 863.39 217.22 840.81 236.42C818.51 255.35 807.81 281.03 798.54 307.99C791.19 329.43 779.96 381.89 779.96 381.89C779.96 381.89 814.69 360.33 832.73 352.89C832.73 352.89 847.27 389.03 852.81 402.7C860.23 421 873.31 460 873.31 460C868.921 468.405 863.819 476.418 858.06 483.95C852.55 491.33 840.71 507.08 840.71 507.08" stroke="#333333" stroke-width="7" stroke-linecap="round" stroke-linejoin="round"/>
<path d="M972.46 124.541C951.15 120.201 930.91 130.951 919.63 152.601C911.81 167.601 899.41 201.331 908.44 221.601C908.7 222.188 909.116 222.692 909.644 223.058C910.171 223.424 910.789 223.637 911.43 223.675C912.071 223.712 912.71 223.572 913.276 223.269C913.843 222.967 914.315 222.514 914.64 221.961L928.42 230.171C928.062 230.774 927.892 231.47 927.93 232.171C927.984 233.06 928.375 233.894 929.024 234.504C929.673 235.114 930.53 235.452 931.42 235.451H931.64C944.64 234.641 957.48 226.771 967.24 220.001C979.16 211.731 994.04 190.081 997.24 169.511C999.72 153.941 990.38 128.191 972.46 124.541Z" fill="#333333"/>
<path d="M944.06 475.16C966.06 462.43 983.23 436.3 993.06 415.25" stroke="#333333" stroke-width="7" stroke-linecap="round" stroke-linejoin="round"/>
<path d="M869.76 463C885.84 473.27 907.76 483.61 927.56 481.14" stroke="#333333" stroke-width="7" stroke-linecap="round" stroke-linejoin="round"/>
<path d="M938.23 470.001C928.07 467.411 923.48 481.511 932.23 485.001C943.23 489.441 949.8 472.531 937.23 470.001H938.23Z" stroke="#333333" stroke-width="7" stroke-linecap="round" stroke-linejoin="round"/>
<path d="M984 290.481C981.812 290.186 979.585 290.496 977.561 291.378C975.537 292.259 973.794 293.679 972.52 295.481" stroke="#333333" stroke-width="7" stroke-linecap="round" stroke-linejoin="round"/>
<path d="M949.85 262.61C941.77 241.9 923.85 225.56 902.01 220.53C879.44 215.34 855.13 222.83 838.89 239.18C835.83 239.61 833.97 244.47 837.37 246.73C854.959 258.505 874.651 266.782 895.37 271.11C905.236 273.211 915.284 274.344 925.37 274.49C933.89 274.56 942.84 273.11 948.81 266.49C949.31 265.992 949.67 265.371 949.852 264.69C950.035 264.009 950.034 263.291 949.85 262.61Z" fill="#333333"/>
</svg>
