<svg width="820" height="820" viewBox="0 0 820 820" fill="none" xmlns="http://www.w3.org/2000/svg">
<path d="M677 154.35C659 128.95 640.68 110.08 615.079 94.1899C588.724 77.903 560.492 64.8712 530.999 55.3799C470.129 35.6999 405.699 31.9299 342.79 41.2399C310.348 46.0889 278.507 54.3342 247.789 65.8399C221.279 75.7299 191.849 90.4099 173.229 107.65C154.609 124.89 134.399 158.9 129.619 174.77C119.89 207.443 116.343 241.645 119.159 275.62C123.249 324.75 140.779 372.08 169.719 410.39C173.889 404.5 177.919 398.7 180.999 393.8C189.499 380.31 206.099 360.24 206.099 360.24C204.619 351.66 204.029 341.44 204.529 337.78C209.829 338.09 226.529 337.99 237.529 337.99V337.23C237.529 337.23 232.679 302.52 228.009 287.09C222.479 286.9 217.899 284.86 216.009 279.76C210.229 283.7 200.589 281.1 195.339 275.04C178.749 255.9 189.689 233.9 208.339 220.88C218.229 213.98 229.279 208.29 241.459 210.52C249.63 212.02 257.02 216.35 270.85 231.83C272.373 232.481 273.795 233.35 275.07 234.41C283.12 241.14 285.539 255.9 288.609 265.18C293.019 278.55 295.93 292.56 298.35 306.27C301.219 322.56 308.689 378.73 308.689 378.73L309.209 381.31L310.79 380.98C324.74 360.74 346.509 334.16 352.109 309.93C356.859 289.37 356.969 266.14 356.109 244.63L355.67 244.17C355.482 244.048 355.308 243.907 355.149 243.75C351.76 240.386 349.324 236.183 348.089 231.57C345.753 228.345 343.714 224.914 341.999 221.32C339.339 221 336.92 220.69 335.07 220.49C326.84 219.61 323.709 216.25 323.239 206.8C322.689 195.62 328.7 191.69 336.76 190.72C336.82 185.5 337.2 180.28 337.76 175.19C338.76 164.93 340.249 154.08 345.359 144.93C347.953 140.212 351.834 136.327 356.549 133.73C359.628 131.365 363.293 129.886 367.149 129.45C368.389 123.87 370.279 118.3 374.929 114.65C380.329 110.4 387.569 110.03 394.169 110.29C401.34 110.59 407.679 112.24 413.279 116.86C419.859 122.28 426.709 125.45 435.409 123.61C439.149 122.82 441.689 128.02 438.089 129.97C433.459 132.479 428.613 134.567 423.609 136.21C444.849 148.21 463.169 170.37 477.609 188.06C471.069 189.4 428.609 181.12 428.609 181.12C428.609 181.12 429.609 219.26 430.699 235.66C431.699 250.22 432.899 264.39 436.059 278.81C438.059 288 441.769 298.54 445.959 305.95C454.689 321.38 463.519 335.75 473.529 350.69C482.179 363.6 489.689 377.16 497.189 390.4H497.309L499.499 387.65V387.4C499.499 387.4 503.499 358.35 505.249 348.7C507.659 335.4 513.969 302.86 517.629 289.84C522.149 273.72 525.419 258.72 532.96 243.58C544.28 220.85 559.069 213.43 584.379 217.35C595.319 219.04 606.269 225.57 604.439 238.35C621.209 237.72 617.989 261.05 608.439 267.64C612.849 281.59 587.569 295.98 582.069 284.17C581.589 290.46 578.529 295.73 569.789 298.17L568.949 302.04C568.859 314.29 570.639 331.63 570.639 331.63V331.87C578.699 331.46 589.639 331.38 591.119 333.31C594.639 337.81 593.949 352.53 593.27 358.7C593.27 358.7 610.21 374.92 617.02 382.35C627.627 394.093 637.538 406.447 646.7 419.35C663.98 398.16 679.34 375.09 689.32 349.07C701.44 317.51 704.46 282.78 705.32 249.02C706.13 216.11 696.33 181.7 677 154.35Z" fill="#F4F6F9"/>
<path d="M497.21 390.401C489.71 377.161 482.21 363.601 473.55 350.691C463.55 335.741 454.71 321.381 445.99 305.951C441.79 298.541 438.09 288.001 436.08 278.811C432.92 264.391 431.71 250.221 430.72 235.661C429.59 219.261 428.63 181.121 428.63 181.121C428.63 181.121 471.05 189.401 477.63 188.061C459.52 165.891 435.35 136.731 406.95 129.241C364.76 118.121 355.48 155.661 354.39 191.501C339.75 189.651 322.39 188.131 323.28 206.801C323.75 216.251 326.88 219.611 335.11 220.491C339.82 220.991 348.11 222.281 354.96 222.231C355.11 225.091 355.27 227.801 355.41 230.321C356.84 255.461 357.97 284.701 352.15 309.921C346.55 334.151 324.78 360.731 310.83 380.971" stroke="#333333" stroke-width="7" stroke-linecap="round" stroke-linejoin="round"/>
<path d="M384 202.34C388.13 203.14 394.81 203.85 398.85 205.07" stroke="#333333" stroke-width="7" stroke-linecap="round" stroke-linejoin="round"/>
<path d="M392.559 161.211L391.689 167.691" stroke="#333333" stroke-width="7" stroke-linecap="round" stroke-linejoin="round"/>
<path d="M407.77 163.939L407.13 170.869" stroke="#333333" stroke-width="7" stroke-linecap="round" stroke-linejoin="round"/>
<path d="M285.93 91C287.52 87.15 290.93 79 296.64 78.84C302.54 78.69 306.64 86.61 306.02 91.56C305.45 95.94 301.02 101.56 299.02 105.75C297.66 108.6 296.32 111.22 295.08 114.05C294.45 115.49 292.9 119.6 292.9 119.6" stroke="#333333" stroke-width="7" stroke-linecap="round" stroke-linejoin="round"/>
<path d="M291.13 138.701L292.16 137.051" stroke="#333333" stroke-width="7" stroke-linecap="round" stroke-linejoin="round"/>
<path d="M587.38 71C597.11 71.9 616.13 79.22 604.81 92.94C598.58 100.49 571.54 106.02 573.41 116.81" stroke="#333333" stroke-width="7" stroke-linecap="round" stroke-linejoin="round"/>
<path d="M571.3 129.619L571.14 131.349" stroke="#333333" stroke-width="7" stroke-linecap="round" stroke-linejoin="round"/>
<path d="M657.2 185.19C660.45 182.19 665.89 180.98 669.68 184.19C673.47 187.4 670.83 196.19 664.41 201.99C660.11 205.85 649.81 210.55 652.41 217.91" stroke="#333333" stroke-width="7" stroke-linecap="round" stroke-linejoin="round"/>
<path d="M652.72 232.599L652.95 231.109" stroke="#333333" stroke-width="7" stroke-linecap="round" stroke-linejoin="round"/>
<path d="M114.63 211.46C122.81 200.89 131.63 207.87 133.03 218.23C134.03 225.59 129.81 246.81 137.25 250.23" stroke="#333333" stroke-width="7" stroke-linecap="round" stroke-linejoin="round"/>
<path d="M141.01 266.321L142.98 263.881" stroke="#333333" stroke-width="7" stroke-linecap="round" stroke-linejoin="round"/>
<path d="M308.69 378.721C308.69 378.721 301.22 322.551 298.35 306.261C295.93 292.551 293.02 278.541 288.61 265.171C285.54 255.891 283.12 241.171 275.07 234.401C265.17 226.121 249.07 231.831 240.51 235.401C231.95 238.971 222.89 243.861 224.75 251.401C226.07 256.781 242.03 255.871 246.95 254.271C234.95 258.271 242.38 269.101 245.95 272.271" stroke="#333333" stroke-width="7" stroke-linecap="round" stroke-linejoin="round"/>
<path d="M270.85 231.819C257 216.339 249.63 211.999 241.46 210.509C229.28 208.279 218.23 213.969 208.34 220.869C189.67 233.869 178.73 255.869 195.34 275.029C203.2 284.109 220.95 285.429 220.72 268.629C228.49 269.759 234.85 264.869 234.18 257.159" stroke="#333333" stroke-width="7" stroke-linecap="round" stroke-linejoin="round"/>
<path d="M189 245.83C188.9 258.01 204.369 270.53 220.679 268.63" stroke="#333333" stroke-width="7" stroke-linecap="round" stroke-linejoin="round"/>
<path d="M201.34 226.529C199.34 236.529 209.78 263.699 222.89 252.969" stroke="#333333" stroke-width="7" stroke-linecap="round" stroke-linejoin="round"/>
<path d="M222.93 212.689C218.21 218.769 217.45 238.569 228.43 240.369" stroke="#333333" stroke-width="7" stroke-linecap="round" stroke-linejoin="round"/>
<path d="M243.54 224.51C244.22 224.74 245.39 230.14 245.93 230.63" stroke="#333333" stroke-width="7" stroke-linecap="round" stroke-linejoin="round"/>
<path d="M499.52 387.439C499.52 387.439 503.52 358.389 505.27 348.739C507.68 335.449 513.99 302.899 517.65 289.879C522.17 273.759 525.44 258.759 532.98 243.619C544.3 220.889 559.09 213.469 584.4 217.389C595.33 219.079 606.29 225.609 604.46 238.389C621.23 237.759 618.01 261.089 608.46 267.679C612.87 281.629 587.59 296.019 582.09 284.209" stroke="#333333" stroke-width="7" stroke-linecap="round" stroke-linejoin="round"/>
<path d="M552.1 236.24C562.51 236.64 580.97 240.47 585.02 251.24C591.69 269.02 563.78 266.49 555.48 259.18C564.64 261.41 566.97 269.96 565.66 278.51" stroke="#333333" stroke-width="7" stroke-linecap="round" stroke-linejoin="round"/>
<path d="M579.779 267.641C582.869 279.931 585.779 293.751 569.849 298.211C568.679 298.211 570.659 297.861 570.909 297.401" stroke="#333333" stroke-width="7" stroke-linecap="round" stroke-linejoin="round"/>
<path d="M569.41 294.641C568 305.341 570.7 331.641 570.7 331.641" stroke="#333333" stroke-width="7" stroke-linecap="round" stroke-linejoin="round"/>
<path d="M584.42 217.391C590.04 223.451 587.5 239.391 579.42 243.141" stroke="#333333" stroke-width="7" stroke-linecap="round" stroke-linejoin="round"/>
<path d="M567.31 232.41C566.73 233.29 564.15 236.66 564.31 236.5" stroke="#333333" stroke-width="7" stroke-linecap="round" stroke-linejoin="round"/>
<path d="M604.72 234.119C603.8 244.059 600.38 263.119 586.88 256.939" stroke="#333333" stroke-width="7" stroke-linecap="round" stroke-linejoin="round"/>
<path d="M580.15 265C584.45 279.81 600.15 272 608.5 267.64" stroke="#333333" stroke-width="7" stroke-linecap="round" stroke-linejoin="round"/>
<path d="M338.99 206.92L347.67 207.48" stroke="#333333" stroke-width="7" stroke-linecap="round" stroke-linejoin="round"/>
<path d="M216 279.76C217.93 284.86 222.51 286.9 228 287.09C232.67 302.52 237.52 337.23 237.52 337.23" stroke="#333333" stroke-width="7" stroke-linecap="round" stroke-linejoin="round"/>
<path d="M527.31 360.241C528.83 369.531 537.31 383.311 543.31 383.311C549.31 383.311 555 363.501 558.2 351.721C563.37 362.891 568.65 380.361 575.07 380.031C581.49 379.701 585.25 369.331 586.07 363.351" stroke="#333333" stroke-width="7" stroke-linecap="round" stroke-linejoin="round"/>
<path d="M559.21 384.17C561.69 403.03 561.48 431.43 562.04 450.4C562.94 481.26 562.48 512.14 564.33 543.17C565.62 564.82 568.85 587.88 568.46 609.44C568.21 623.32 565.06 636.69 564.46 650.53C563.87 664.03 564.12 677.9 564.15 691.38C564.15 697.07 562.15 708.11 563.95 712.67" stroke="#333333" stroke-width="7" stroke-linecap="round" stroke-linejoin="round"/>
<path d="M570.16 418.779L573.63 419.099" stroke="#333333" stroke-width="7" stroke-linecap="round" stroke-linejoin="round"/>
<path d="M573.78 474.16L576.37 474.4" stroke="#333333" stroke-width="7" stroke-linecap="round" stroke-linejoin="round"/>
<path d="M577.229 531.279L580.609 532.469" stroke="#333333" stroke-width="7" stroke-linecap="round" stroke-linejoin="round"/>
<path d="M581.17 597.381C582.33 596.948 583.524 596.613 584.74 596.381" stroke="#333333" stroke-width="7" stroke-linecap="round" stroke-linejoin="round"/>
<path d="M576.93 666.68L580.4 667" stroke="#333333" stroke-width="7" stroke-linecap="round" stroke-linejoin="round"/>
<path d="M478.059 479.289C479.779 486.209 469.869 496.799 470.179 504.879C471.279 503.119 477.579 500.169 478.589 498.209C478.009 505.679 469.949 514.109 469.309 521.409C469.829 521.509 473.309 520.219 473.459 520.259C466.809 576.259 473.829 633.619 469.929 689.979C469.199 700.459 469.189 712.129 469.189 716.879C469.189 721.629 488.929 733.129 500.699 736.319C517.159 740.789 531.699 740.519 548.359 738.319C563.569 736.319 579.009 740.249 594.029 737.159C600.319 735.859 618.089 734.319 630.339 727.369" stroke="#333333" stroke-width="7" stroke-linecap="round" stroke-linejoin="round"/>
<path d="M478.22 726.351C477.12 738.281 476.74 750.071 463.12 751.441C454.9 752.271 432.66 750.441 429.67 749.021C426.68 747.601 427.83 707.261 428.46 694.361C429.54 672.061 432.51 650.841 434.54 628.561C438.54 584.561 442.61 540.561 446.75 496.561C447.75 485.561 448.2 469.561 451.88 459.341C458.93 439.811 475.88 420.741 487.54 403.511C496.27 390.611 518.32 365.061 518.32 365.061C518.32 365.061 520.12 355.341 521.51 349.571C523.43 341.681 522.29 340.271 530.11 337.741C539.75 334.631 553.22 333.391 563.36 332.391C569 331.841 589.08 330.641 591.17 333.321C594.69 337.821 594 352.541 593.32 358.711C593.32 358.711 610.26 374.931 617.07 382.361C632.45 399.111 644.71 416.301 657.79 434.821C668.32 449.741 679.66 463.001 678 480.731C675.76 504.821 675.88 530.061 676.88 554.201C677.62 572.041 676.82 589.401 676.57 607.201C676.27 629.201 680.49 650.951 678.57 672.831C677.63 683.711 678.27 742.601 675.18 747.471C670.97 754.151 650.31 754.871 642.49 756.661C631.72 759.141 629.87 757.661 629.8 746.751C629.74 738.101 630.42 729.251 630.45 720.651C630.52 692.401 630.45 663.851 629.57 635.571C628.74 607.501 628.3 578.671 629.57 550.721C630.02 540.911 631.42 529.831 629.35 520.441C628.35 515.711 618.68 490.301 634.04 501.441C630.62 495.681 625.79 490.031 628.12 482.811C629.27 480.381 631.76 482.661 633.2 483.151" stroke="#333333" stroke-width="7" stroke-linecap="round" stroke-linejoin="round"/>
<path d="M635.79 757.76C634.91 767.2 635.23 772.27 634.91 781.69C647.11 784.15 659.27 781.69 670.18 780.1C670.63 772.17 670.18 751.1 670.18 751.1" stroke="#333333" stroke-width="7" stroke-linecap="round" stroke-linejoin="round"/>
<path d="M431.09 749.899C430.52 756.029 430.51 777.899 431.93 781.529C433.35 785.159 466.54 783.179 467.57 781.689C468.6 780.199 471.29 748.439 471.29 748.439" stroke="#333333" stroke-width="7" stroke-linecap="round" stroke-linejoin="round"/>
<path d="M602.8 453.26C610.63 454.17 624.8 458.12 624.8 458.12" stroke="#333333" stroke-width="7" stroke-linecap="round" stroke-linejoin="round"/>
<path d="M204.56 337.779C211.65 338.199 239.13 337.869 246.04 338.039C257.59 338.329 271.34 337.039 282.95 339.039C282.57 349.039 284.06 375.629 275.61 382.309C264.03 391.459 247.12 361.149 243.29 353.859C240.38 362.389 229.39 381.329 222.69 381.909C215.99 382.489 210.33 376.229 207.69 367.319C205.05 358.409 203.91 342.549 204.56 337.779Z" stroke="#333333" stroke-width="7" stroke-linecap="round" stroke-linejoin="round"/>
<path d="M206.13 360.24C206.13 360.24 189.53 380.31 181.03 393.8C174.12 404.8 162.44 420.32 155.03 431.23C148.68 440.61 143.03 449.02 140.78 460.31C137.06 479.31 135.46 498.84 133.68 518.18C129.17 566.98 134.38 616.18 132.35 664.92C131.53 684.57 128.35 704.83 129.44 724.02C130.06 735.17 128.44 741.83 140.8 743.42C149.01 744.47 164.99 742.8 167.05 741.33C169.11 739.86 169.49 728.33 169.49 728.33" stroke="#333333" stroke-width="7" stroke-linecap="round" stroke-linejoin="round"/>
<path d="M164.77 722.521C170.59 736.311 199.38 736.341 216.88 735.781C234.96 735.191 253.88 732.391 271.96 734.781C286.03 736.651 299.59 739.081 313.53 736.721C324.09 734.931 333.76 735.471 342.63 730.611C343.63 730.071 324.96 728.451 314.19 728.021C303.42 727.591 292.64 726.671 281.87 725.891C268.08 724.891 250.27 721.041 236.54 723.441C231.04 724.441 229.35 727.611 224.3 729.261C219.25 730.911 212.22 729.061 207.03 728.571C198.87 727.821 191.03 726.721 183.03 726.281C171.83 725.661 162.88 727.281 162.64 715.281C162.25 695.711 161.8 675.751 162.86 656.281C163.48 644.931 164.06 633.841 165.11 622.501C166.68 605.501 163.05 589.371 163.58 572.501C163.92 561.781 166.78 550.921 165.53 540.391C164.64 532.961 158.93 507.141 174.17 514.861C168.39 504.661 161.25 493.701 165.24 481.151C167.24 474.901 173.79 470.251 173.72 463.381" stroke="#333333" stroke-width="7" stroke-linecap="round" stroke-linejoin="round"/>
<path d="M325 471.25C326.72 477.82 329.57 486.51 328.94 493.38C328.22 492.77 326.65 492.06 325.94 491.45C322.53 506.58 330.77 521.33 330.38 536.4C330.11 547.09 332.76 557.4 332.73 568.08C332.73 578.37 331.16 588.87 330.73 599.08C329.65 622.86 337.25 644.97 339.22 668.34C340.45 683.01 341.92 697.99 342.9 712.72C343.39 720.1 343.11 742.39 344.19 748.42C355.184 749.911 366.318 750.069 377.35 748.89C393.35 747.35 389.71 742.24 388.59 726.96C386 691.9 386.4 656.23 385.46 621C384.46 583.26 383.07 545.78 381.03 508.18C380.41 496.84 378.97 478.85 372.03 463.26C365.09 447.67 353.59 431.21 340.17 414.73C320.17 390.15 307.79 377.52 282.81 351.73" stroke="#333333" stroke-width="7" stroke-linecap="round" stroke-linejoin="round"/>
<path d="M246.58 378.721C247.89 385.381 255.79 409.141 256.32 416.041C257.49 431.261 255.32 447.281 251.84 462.141C249.72 471.141 246.91 480.571 248.15 489.921C249.24 498.151 254.37 506.821 257.42 514.861C262.3 527.781 268.42 541.681 270.53 555.381C272.32 567.171 269.67 574.781 263.06 584.051C255.35 594.881 252.38 608.681 252.38 617.921C252.38 627.161 256.19 640.821 261.23 648.691C266.27 656.561 264.06 691.571 260.5 706.441" stroke="#333333" stroke-width="7" stroke-linecap="round" stroke-linejoin="round"/>
<path d="M277.6 672.19C278.24 672.32 278.55 672.06 278.54 671.41" stroke="#333333" stroke-width="7" stroke-linecap="round" stroke-linejoin="round"/>
<path d="M269.29 617.92L271.19 616.35" stroke="#333333" stroke-width="7" stroke-linecap="round" stroke-linejoin="round"/>
<path d="M277.09 545.451L279.85 543.961" stroke="#333333" stroke-width="7" stroke-linecap="round" stroke-linejoin="round"/>
<path d="M260.5 480.979L262.54 479.609" stroke="#333333" stroke-width="7" stroke-linecap="round" stroke-linejoin="round"/>
<path d="M266.26 426.25L268.86 426.49" stroke="#333333" stroke-width="7" stroke-linecap="round" stroke-linejoin="round"/>
<path d="M305.1 469.4C297.92 472.6 287.6 478.4 282.24 480.4" stroke="#333333" stroke-width="7" stroke-linecap="round" stroke-linejoin="round"/>
<path d="M310.68 475.16C305.78 475.98 297.41 480.88 294.28 482.38" stroke="#333333" stroke-width="7" stroke-linecap="round" stroke-linejoin="round"/>
<path d="M347.729 750.369C347.729 750.369 348.109 757.279 347.729 766.019C355.729 767.829 375.789 767.819 383.809 766.019C385.039 760.099 383.809 747.789 383.809 747.789" stroke="#333333" stroke-width="7" stroke-linecap="round" stroke-linejoin="round"/>
<path d="M271.83 337.88C267.61 335.35 263.52 331.78 259.56 328.88C256.01 326.3 246.22 318.26 241.8 318.09C235.89 317.87 218.33 337.23 218.33 337.23" stroke="#333333" stroke-width="7" stroke-linecap="round" stroke-linejoin="round"/>
<path d="M533.49 336.801C533.49 336.801 545.66 319.151 554.35 315.881C562.9 320.761 579.42 331.671 579.42 331.671" stroke="#333333" stroke-width="7" stroke-linecap="round" stroke-linejoin="round"/>
<path d="M241.46 316.72L239.91 285.05C239.1 282.99 235.06 281.43 233.31 280.05C231.544 278.628 229.98 276.973 228.66 275.13C227.295 273.37 226.303 271.35 225.744 269.194C225.185 267.038 225.072 264.791 225.41 262.59C225.675 260.302 226.579 258.136 228.02 256.34" stroke="#333333" stroke-width="7" stroke-linecap="round" stroke-linejoin="round"/>
<path d="M555.28 315.179C556.12 306.179 557.52 294.099 558.71 287.529C558.71 287.529 584.27 287.659 573.63 265.029" stroke="#333333" stroke-width="7" stroke-linecap="round" stroke-linejoin="round"/>
<path d="M135.5 743C135.5 743 135.09 750.47 135.25 754C142.013 754.5 148.806 754.44 155.56 753.82C159.56 753.39 161.35 753.82 162.18 749.68C162.59 747.68 162.5 745.32 163.05 743.31" stroke="#333333" stroke-width="7" stroke-linecap="round" stroke-linejoin="round"/>
<path d="M354.92 222.23C350.599 222.182 346.285 221.879 342 221.32C343.706 224.91 345.734 228.337 348.06 231.56C349.295 236.173 351.731 240.376 355.12 243.74C355.414 244.018 355.752 244.244 356.12 244.41C355.92 239.61 355.67 234.89 355.41 230.32C355.23 227.8 355.07 225.09 354.92 222.23Z" fill="#333333"/>
<path d="M435.379 123.61C426.679 125.45 419.829 122.28 413.259 116.86C407.649 112.24 401.309 110.59 394.139 110.29C387.539 110.03 380.299 110.4 374.899 114.65C370.249 118.3 368.359 123.87 367.119 129.45C363.263 129.886 359.598 131.366 356.519 133.73C351.804 136.328 347.923 140.212 345.329 144.93C340.219 154.08 338.779 164.93 337.729 175.19C337.199 180.28 336.819 185.5 336.729 190.72C341.674 190.307 346.649 190.458 351.559 191.17C352.287 193.646 353.203 196.063 354.299 198.4C355.839 201.67 360.719 199.87 360.779 196.64C360.863 190.698 361.997 184.817 364.129 179.27C366.129 174.16 369.219 169.55 371.349 164.49C374.654 156.571 375.793 147.915 374.649 139.41C383.999 142.13 394.229 141.67 403.799 140.53C415.786 139.233 427.414 135.659 438.059 130C441.659 128 439.119 122.82 435.379 123.61Z" fill="#333333"/>
</svg>
