<svg width="820" height="820" viewBox="0 0 820 820" fill="none" xmlns="http://www.w3.org/2000/svg">
<path d="M698.601 357.9C695.941 310.24 683.131 261.9 656.721 221.73C643.575 201.561 626.902 183.926 607.501 169.67C586.001 154 560.871 143.5 535.101 137.23C507.481 130.51 478.851 128.23 450.491 127.78C422.131 127.33 393.391 128.02 365.051 130.28C334.941 132.68 305.051 137.95 277.451 150.63C257.343 160.049 239.084 172.993 223.541 188.85C232.291 192.44 240.441 196.48 243.991 202.91C247.781 209.77 245.211 220.66 237.991 239.75C231.451 256.98 222.351 279.75 211.641 314.31C212.512 314.193 213.397 314.24 214.251 314.451C225.071 317.201 211.101 364.22 204.491 382.32C199.971 394.711 193.491 403.46 191.211 415.69C189.731 423.69 188.351 434.78 188.051 437.171C188.691 437.25 189.331 437.33 189.951 437.43C192.724 447.886 194.809 458.512 196.191 469.24C205.531 470.53 215.801 489.82 219.581 499.33C226.371 516.41 231.861 533.931 238.891 551.01C248.401 574.09 261.311 603.76 288.351 605.6C297.596 606.208 306.852 604.6 315.351 600.91C311.651 587.42 311.831 574.62 322.761 566.36C314.821 558.87 311.361 544.54 311.911 533.66C312.401 524.05 316.721 512.66 325.861 508.8C325.391 496.16 326.151 479.61 326.151 466.65C327.321 466.65 328.491 466.72 329.651 466.74L329.301 464.8L327.001 439.74L326.851 439.51C323.074 438.984 319.609 437.126 317.081 434.27L315.191 434.86C308.071 434.58 303.321 436.22 296.681 431.11C292.021 427.52 288.161 420.25 286.881 413.451L284.661 412.22C273.721 404.921 268.571 375.72 286.111 374.63L288.801 373.451C285.651 358.891 291.011 350.941 304.801 345.951C307.801 344.85 311.131 343.701 314.571 342.671C305.921 338.671 295.511 333.67 287.461 328.33C279.991 323.4 271.831 317.47 266.711 310.33C262.141 303.93 256.261 292.48 264.571 286.25C273.841 279.25 283.171 288.59 289.451 293.83C298.891 301.71 310.281 307.36 321.121 313.62C331.251 319.48 343.991 324.96 354.911 330.87C375.911 342.25 393.621 348.66 391.421 376.31C389.601 399.11 378.421 423.14 381.301 449.61V449.98C382.511 449.07 383.771 448.11 385.101 447.08C387.301 456.97 388.871 479.31 388.871 479.31C401.551 475.69 406.431 492.51 411.381 509.16L411.711 508.921C416.921 502.41 422.171 495.97 427.711 489.72C447.711 467.11 470.711 439.72 483.711 427.15C484.181 427.87 484.711 428.6 485.261 429.34C489.771 418.4 499.881 394.17 505.591 382.83C512.741 368.65 523.661 348.88 533.021 335.05C525.171 328.58 495.501 311.54 488.021 305.84C514.561 294.56 539.551 287.211 565.201 284.141C566.651 283.971 568.201 283.811 569.721 283.671C566.343 280.265 563.63 276.26 561.721 271.86C560.641 269.41 563.281 266.34 565.801 268.09C575.881 275.09 588.801 270.9 600.121 273.21C609.121 275.05 617.861 281.98 617.391 291.84C617.556 291.898 617.717 291.968 617.871 292.05C618.865 292.59 619.812 293.212 620.701 293.91C637.801 303.5 636.701 330.35 631.121 346.26C630.581 347.767 630.001 349.257 629.381 350.73C639.051 353.26 646.771 359.04 645.231 370.37C643.071 386.37 622.231 387.63 606.521 385.04L606.831 385.1C603.108 389.086 598.627 392.288 593.651 394.52C593.105 394.766 592.514 394.896 591.916 394.905C591.318 394.914 590.724 394.8 590.171 394.57C587.081 406 582.931 422 581.841 429.57C579.781 443.91 576.741 467.09 576.741 467.09L576.461 468.38C576.991 468.28 577.521 468.17 578.031 468.05C578.031 468.05 577.131 486.71 580.411 490.65C583.691 494.59 597.001 505.27 603.001 511.24C610.641 518.93 617.801 529.24 624.001 540.24C637.187 532.011 649.072 521.859 659.261 510.12C694.261 469.11 701.511 410.06 698.601 357.9Z" fill="#F4F6F9"/>
<path d="M388.82 479.31C388.82 479.31 387.25 456.97 385.05 447.08C376.43 453.71 370.88 457.94 361.12 461.93C350.17 466.4 338.61 467.11 326.12 466.66C326.12 479.66 325.36 496.17 325.83 508.81C338.366 508.667 350.724 505.822 362.06 500.47C373 495.31 386 487.3 388.82 479.31Z" stroke="#333333" stroke-width="7" stroke-linecap="round" stroke-linejoin="round"/>
<path d="M467.491 457.631C466.251 464.471 461.401 488.101 474.121 480.721C483.701 475.171 489.831 462.811 498.241 456.131C499.351 470.461 490.081 488.431 497.701 502.821C504.851 516.331 525.951 508.161 537.351 503.761C545.351 500.671 560.161 494.951 568.131 493.531" stroke="#333333" stroke-width="7" stroke-linecap="round" stroke-linejoin="round"/>
<path d="M485.591 428.182C485.591 428.182 498.061 397.732 505.591 382.832C512.741 368.652 523.661 348.882 533.021 335.052C525.171 328.582 495.501 311.542 488.021 305.842C514.561 294.562 539.551 287.212 565.201 284.142C587.341 281.492 622.601 282.022 617.791 314.412C615.971 326.602 609.591 339.942 602.791 350.412C616.051 347.292 648.191 348.342 645.191 370.412C642.331 391.532 606.651 386.992 593.711 381.712C593.711 381.712 583.601 417.112 581.801 429.632C579.741 443.972 576.701 467.152 576.701 467.152" stroke="#333333" stroke-width="7" stroke-linecap="round" stroke-linejoin="round"/>
<path d="M550.16 352.791C553.1 355.691 561.3 356.221 565.16 354.791" stroke="#333333" stroke-width="7" stroke-linecap="round" stroke-linejoin="round"/>
<path d="M556.771 319.641C555.561 322.111 553.551 326.261 553.551 326.261" stroke="#333333" stroke-width="7" stroke-linecap="round" stroke-linejoin="round"/>
<path d="M570.401 323.91C569.181 326.38 567.181 330.53 567.181 330.53" stroke="#333333" stroke-width="7" stroke-linecap="round" stroke-linejoin="round"/>
<path d="M325.831 508.811C316.691 512.681 312.371 524.061 311.881 533.671C311.331 544.551 314.791 558.881 322.731 566.371C308.891 576.831 312.281 594.571 318.981 611.781C325.681 628.991 339.561 657.421 339.561 666.921" stroke="#333333" stroke-width="7" stroke-linecap="round" stroke-linejoin="round"/>
<path d="M388.82 479.311C402.76 475.311 407.28 496.071 412.82 514.111C418.36 532.151 429.63 555.181 441.54 575.401C457.34 602.201 485.54 653.401 526.34 653.321C551.22 653.321 554.46 638.411 549.22 630.501C543.98 622.591 529.45 628.851 537.66 638.241C545.87 647.631 567.15 630.081 573.57 610.151" stroke="#333333" stroke-width="7" stroke-linecap="round" stroke-linejoin="round"/>
<path d="M411.66 508.92C416.87 502.41 422.12 495.97 427.66 489.72C447.66 467.11 470.66 439.72 483.66 427.15C489.02 435.26 498.96 444.58 515.66 454.27C532.36 463.96 558.66 472.58 577.99 468.07C577.99 468.07 577.09 486.73 580.37 490.68C583.65 494.63 597 505.27 603 511.24C618.76 527.1 632.47 554.11 639.58 575.4C643.4 586.86 647.46 606.57 649.12 618.25" stroke="#333333" stroke-width="7" stroke-linecap="round" stroke-linejoin="round"/>
<path d="M139.171 483.191C139.171 483.191 133.481 446.801 132.641 438.261C151.587 435.136 170.893 434.86 189.921 437.441C192.694 447.896 194.779 458.522 196.161 469.251C205.501 470.541 215.771 489.831 219.551 499.341C226.341 516.421 231.831 533.941 238.861 551.021C248.371 574.101 261.281 603.771 288.321 605.611C297.566 606.218 306.822 604.61 315.321 600.921" stroke="#333333" stroke-width="7" stroke-linecap="round" stroke-linejoin="round"/>
<path d="M196.161 469.25C177.471 469.25 141.321 477.12 132.641 489.09C123.961 501.06 133.941 544.15 137.831 558.36C145.201 585.26 151.081 614.57 162.131 640.05C168.691 655.19 173.231 680.96 185.061 692.35" stroke="#333333" stroke-width="7" stroke-linecap="round" stroke-linejoin="round"/>
<path d="M159.08 380.261C162.79 367.091 176.82 361.091 189.73 353.441C196.73 335.441 203.39 311.721 214.22 314.441C225.05 317.161 211.07 364.211 204.46 382.311C199.94 394.701 193.46 403.451 191.18 415.681C189.51 424.751 187.97 437.631 187.97 437.631" stroke="#333333" stroke-width="7" stroke-linecap="round" stroke-linejoin="round"/>
<path d="M329.27 464.81L326.98 439.74" stroke="#333333" stroke-width="7" stroke-linecap="round" stroke-linejoin="round"/>
<path d="M331.791 439.001C318.461 443.201 304.731 422.611 317.561 414.691" stroke="#333333" stroke-width="7" stroke-linecap="round" stroke-linejoin="round"/>
<path d="M161.79 373.541C161.79 373.541 148.72 370.161 142.55 365.541C133.63 358.881 136.93 345.731 137.79 335.931C141.41 294.611 152.1 259.141 168.08 221.431C172.71 210.501 178.56 196.521 185.99 187.431C193.62 178.081 204.18 181.161 215.56 185.691C226.94 190.221 239.37 194.551 243.99 202.931C247.78 209.791 245.21 220.681 237.99 239.771C231.45 257.001 222.35 279.771 211.64 314.331" stroke="#333333" stroke-width="7" stroke-linecap="round" stroke-linejoin="round"/>
<path d="M315.17 434.86C308.05 434.58 303.3 436.22 296.66 431.11C290.55 426.41 285.79 415.36 286.46 407.36C287.37 396.51 318.29 375.08 324.21 382.83" stroke="#333333" stroke-width="7" stroke-linecap="round" stroke-linejoin="round"/>
<path d="M133.73 435.001C128.66 412.241 132.6 390.231 127.73 368.171C123.4 348.711 117.09 324.021 123.73 305.021C127.29 294.841 134.73 292.021 142.46 297.701" stroke="#333333" stroke-width="7" stroke-linecap="round" stroke-linejoin="round"/>
<path d="M288.17 401.63C284.82 386.2 285.24 378.48 298.49 369.72C306.17 364.64 323.55 355.58 331.37 357.72" stroke="#333333" stroke-width="7" stroke-linecap="round" stroke-linejoin="round"/>
<path d="M130.001 294.56C127.001 291.34 128.111 279.75 130.641 275.38C133.881 269.75 144.871 262.28 151.431 266.62" stroke="#333333" stroke-width="7" stroke-linecap="round" stroke-linejoin="round"/>
<path d="M289.1 374.94C285.25 359.41 290.53 351.11 304.73 345.94C316.96 341.5 333.73 336.16 345.49 341.79" stroke="#333333" stroke-width="7" stroke-linecap="round" stroke-linejoin="round"/>
<path d="M137.14 269.431C133.79 257.861 142.44 243.601 157.14 245.331" stroke="#333333" stroke-width="7" stroke-linecap="round" stroke-linejoin="round"/>
<path d="M284.64 412.221C273.7 404.921 268.55 375.721 286.09 374.631" stroke="#333333" stroke-width="7" stroke-linecap="round" stroke-linejoin="round"/>
<path d="M143.74 247.911C143.74 234.991 155.6 209.531 168.74 217.291" stroke="#333333" stroke-width="7" stroke-linecap="round" stroke-linejoin="round"/>
<path d="M314.76 342.781C306.06 338.781 295.52 333.701 287.39 328.331C279.92 323.401 271.76 317.471 266.64 310.331C262.07 303.931 256.19 292.481 264.5 286.251C273.77 279.251 283.1 288.591 289.38 293.831C298.82 301.711 310.21 307.361 321.05 313.621C331.18 319.481 343.92 324.961 354.84 330.871C375.84 342.251 393.55 348.661 391.35 376.311C389.53 399.111 378.35 423.141 381.23 449.611" stroke="#333333" stroke-width="7" stroke-linecap="round" stroke-linejoin="round"/>
<path d="M152.311 355.32C156.851 308.07 170.071 271.43 185.061 226.42C187.851 218.04 195.761 200.15 202.631 194.32" stroke="#333333" stroke-width="7" stroke-linecap="round" stroke-linejoin="round"/>
<path d="M616.28 368.57C617.75 367.51 625.82 367.41 625.82 367.41" stroke="#333333" stroke-width="7" stroke-linecap="round" stroke-linejoin="round"/>
<path d="M590.08 394.561C590.637 394.803 591.238 394.929 591.845 394.929C592.452 394.929 593.053 394.803 593.61 394.561C598.586 392.329 603.067 389.126 606.79 385.141C602.319 384.472 597.934 383.322 593.71 381.711C593.71 381.711 592.11 387.151 590.08 394.561Z" fill="#333333"/>
<path d="M620.66 293.912C619.771 293.213 618.824 292.591 617.83 292.052C617.676 291.969 617.515 291.899 617.35 291.842C617.82 281.982 609.12 275.052 600.08 273.212C588.77 270.902 575.84 275.112 565.76 268.092C563.24 266.342 560.6 269.412 561.68 271.862C569.9 290.652 589.58 297.422 608.68 299.002C604.11 304.272 602.34 311.802 602.26 318.882C602.13 330.342 605.98 344.882 595.9 353.452C593.45 355.522 596.42 359.872 599.2 358.102C603.181 355.56 606.885 352.607 610.25 349.292C616.663 348.741 623.122 349.228 629.38 350.732C630 349.258 630.58 347.768 631.12 346.262C636.68 330.352 637.76 303.502 620.66 293.912Z" fill="#333333"/>
</svg>
