<svg width="250" height="250" viewBox="0 0 250 250" fill="none" xmlns="http://www.w3.org/2000/svg">
<path d="M122.71 57.8093C103.6 57.0293 85.7103 61.0693 73.6403 74.1693C61.8203 86.9993 58.1903 97.4893 54.0903 114.999C51.2703 126.999 54.0303 137.889 56.8303 149.619C60.0003 162.809 69.1903 171.899 81.6103 180.659C94.0303 189.419 117.15 192.659 127.22 192.249C138.48 191.809 147.86 191.379 158.72 187.749C166.91 185.019 179.78 177.159 184.62 170.029C195.292 154 199.322 134.453 195.86 115.509C192.59 98.3793 184.28 82.1493 170.65 70.8693C160.67 62.6193 141.82 58.5993 122.71 57.8093Z" stroke="#333333" stroke-width="7" stroke-linecap="round" stroke-linejoin="round"/>
<path d="M109.65 58.0996C119.19 57.7196 134.75 60.8497 141.34 64.8297C147.93 68.8097 157.14 75.2997 163.89 84.5397C169.45 92.1597 175.33 106.65 176.13 115.79C177.27 128.87 173.6 147.79 166.81 159.07C163.68 164.26 154.6 175.33 144.39 182.31C134.18 189.29 125 191.61 113.39 191.31" stroke="#333333" stroke-width="7" stroke-linecap="round" stroke-linejoin="round"/>
<path d="M90.5703 114.829C94.3803 112.829 98.2103 110.749 101.83 108.469C101.65 119.639 100.11 130.819 100.11 142.089" stroke="#333333" stroke-width="7" stroke-linecap="round" stroke-linejoin="round"/>
<path d="M90.5703 141.41C93.3003 143.35 99.5703 143.02 102.91 143.41C105.35 143.67 107.46 144.35 109.99 144.16" stroke="#333333" stroke-width="7" stroke-linecap="round" stroke-linejoin="round"/>
<path d="M134.871 108C129.481 104.17 122.871 107.14 122.601 113.8C122.311 119.92 129.221 126.6 134.531 120.61" stroke="#333333" stroke-width="7" stroke-linecap="round" stroke-linejoin="round"/>
<path d="M120.9 135.619C125.57 135.619 131.28 135.619 135.9 136.619" stroke="#333333" stroke-width="7" stroke-linecap="round" stroke-linejoin="round"/>
<path d="M68.4206 132.209C65.0106 120.299 68.5606 107.879 75.2306 97.8887C78.8906 92.3987 84.2306 85.5887 90.3006 82.7987C95.6206 80.3687 101.301 79.7987 106.921 79.3887" stroke="#333333" stroke-width="7" stroke-linecap="round" stroke-linejoin="round"/>
<path d="M127.71 79.7285C134.31 80.4231 140.565 83.0258 145.71 87.2185C152.03 92.1085 156.01 100.139 158.24 107.749C160.565 115.863 161.084 124.388 159.759 132.725C158.433 141.061 155.297 149.005 150.57 155.999C147.51 160.469 140.78 165.999 135.89 167.999" stroke="#333333" stroke-width="7" stroke-linecap="round" stroke-linejoin="round"/>
<path d="M117.86 172.089C113.96 173.019 109.7 171.959 105.86 171.039" stroke="#333333" stroke-width="7" stroke-linecap="round" stroke-linejoin="round"/>
<path d="M89.7 164C81.96 159.43 77.26 154.34 74.21 146.17" stroke="#333333" stroke-width="7" stroke-linecap="round" stroke-linejoin="round"/>
<path d="M158.721 77.6895C165.121 79.0695 171.471 77.4894 177.801 78.0294" stroke="#333333" stroke-width="7" stroke-linecap="round" stroke-linejoin="round"/>
<path d="M175.08 103.24C178.69 104.34 188.29 104.84 192.08 103.24" stroke="#333333" stroke-width="7" stroke-linecap="round" stroke-linejoin="round"/>
<path d="M176.101 136.3C182.481 136.3 189.101 136.03 195.181 136.3" stroke="#333333" stroke-width="7" stroke-linecap="round" stroke-linejoin="round"/>
<path d="M162.83 166.92C167.35 168.3 172.41 167.41 177.14 167.6C179.9 167.71 183.44 166.99 186 167.94" stroke="#333333" stroke-width="7" stroke-linecap="round" stroke-linejoin="round"/>
<path d="M150.2 178.889C157.5 178.889 164.89 179.349 172.01 179.569" stroke="#333333" stroke-width="7" stroke-linecap="round" stroke-linejoin="round"/>
</svg>
