<svg width="250" height="250" viewBox="0 0 250 250" fill="none" xmlns="http://www.w3.org/2000/svg">
<path d="M199.89 121.571C198.38 102.111 192.45 83.2707 177.7 69.5707C163.84 56.7007 144.93 51.4507 122.35 49.4707C101.5 49.4707 81.7197 56.7007 68.7597 73.3807C61.5897 82.6207 56.9297 93.4707 53.5497 104.581C50.4302 115.216 49.2647 126.329 50.1097 137.381C51.1097 153.211 58.1097 166.781 68.8297 178.271C76.0797 186.011 84.1897 191.141 94.3497 195.271C106.725 200.262 120.239 201.736 133.4 199.531C173.19 193.341 203.1 163.001 199.89 121.571ZM170.33 163.431C157.94 177.571 144.59 182.431 125.88 184.371C116.8 185.321 97.7197 180.061 85.6697 170.911C73.6197 161.761 64.2297 140.001 65.9097 118.771C67.3397 100.661 83.9097 74.2407 101.66 68.9607C112.78 65.6607 126.47 64.8007 137.98 66.1107C155.57 68.1107 166.57 77.2007 174.98 92.2107C187.77 115.191 188.44 142.741 170.33 163.431Z" fill="#FFE945" stroke="#FFE945" stroke-width="7" stroke-linecap="round" stroke-linejoin="round"/>
<path d="M157.25 87.2402C155.16 114 136 140.91 111.37 154.41C105.474 157.84 99.2327 160.639 92.75 162.76C93.27 156.96 95.82 151.76 98.34 146.5C104.46 133.7 109.34 127.69 118.68 116.99C122.94 112.07 138.31 95.6102 157.25 87.2402Z" stroke="#333333" stroke-width="7" stroke-linecap="round" stroke-linejoin="round"/>
<path d="M164.5 115.93C167.44 115.13 170.377 114.317 173.31 113.49" stroke="#333333" stroke-width="7" stroke-linecap="round" stroke-linejoin="round"/>
<path d="M76.6895 136.511C79.8195 135.891 82.9395 135.271 86.0695 134.631" stroke="#333333" stroke-width="7" stroke-linecap="round" stroke-linejoin="round"/>
<path d="M133.59 162.76C134.55 166.28 135.523 169.796 136.51 173.31" stroke="#333333" stroke-width="7" stroke-linecap="round" stroke-linejoin="round"/>
<path d="M113.489 76.6914C114.156 80.2114 114.863 83.7281 115.609 87.2414" stroke="#333333" stroke-width="7" stroke-linecap="round" stroke-linejoin="round"/>
<path d="M133.59 137.1C127.128 143.99 119.631 149.831 111.37 154.41C105.474 157.84 99.2327 160.639 92.75 162.76C93.27 156.96 95.82 151.76 98.34 146.5C103.75 135.19 108.23 129.18 115.61 120.5C116.58 119.41 134.59 136.05 133.59 137.1Z" fill="#333333" stroke="#333333" stroke-width="7" stroke-linecap="round" stroke-linejoin="round"/>
</svg>
