<svg width="820" height="820" viewBox="0 0 820 820" fill="none" xmlns="http://www.w3.org/2000/svg">
<path d="M186.999 421.329C186.549 392.639 184.999 365.749 186.999 337.069C188.529 314.509 193.939 278.139 202.279 275.649C202.279 275.649 203.399 261.369 204.709 247.759C178.149 245.759 151.599 243.369 125.079 241.029C119.579 240.539 114.989 245.279 114.589 250.509C109.669 315.909 108.279 383.199 126.319 446.879C137.649 486.879 156.449 525.109 183.999 556.209C188.509 510.459 187.709 467.279 186.999 421.329Z" fill="#F4F6F9"/>
<path d="M270.539 273.15C282.089 275.36 287.419 297.88 288.259 319.24C289.479 350.46 298.119 403.45 302.259 434.69C308.179 479.28 322.939 523.609 330.999 568C331.159 568.89 331.329 569.79 331.489 570.71C339.649 560.05 351.489 549.599 354.639 537.359C359.379 518.939 379.969 437.84 379.969 437.84L343.169 441.92C353.429 428.48 379.279 395.92 387.169 387.16C393.929 379.6 401.299 372.16 409.849 367.04L408.849 366.66C403.849 364.59 397.349 362.1 395.669 356.44C394.909 353.88 396.399 351.12 399.369 351.44C403.799 351.87 408.539 352.27 412.859 350.91C417.179 349.55 419.329 346.22 422.339 343.24C428.82 337.01 437.357 333.368 446.339 333C454.159 332.84 462.569 336.69 465.659 344.28C466.787 347.052 467.073 350.096 466.479 353.03C470.182 352.765 473.881 353.582 477.129 355.38C486.129 360.38 490.059 370.62 490.969 380.38C491.389 384.903 491.5 389.451 491.299 393.99C503.489 393.45 514.589 397.47 515.909 410.68C517.369 425.27 500.629 428.4 484.759 429.2C482.829 435.04 480.159 440.65 475.869 444.69C475.869 444.54 475.869 444.4 475.869 444.25C476.639 457.91 477.689 477.73 477.939 488.92C478.409 509.77 479.459 547.669 482.389 557.859C484.839 566.389 493.089 578.33 500.069 592.46C510.319 572.35 526.639 544.46 537.129 515.39C555.389 464.66 570.989 412.8 565.759 358.39C563.269 332.57 554.859 282.88 573.949 266.46C574.469 261.84 574.529 251.23 574.539 241.52C506.079 246.17 437.749 253.28 369.099 254.26C335.779 254.73 302.499 253.8 269.249 252.06C270.179 263.22 270.539 273.15 270.539 273.15Z" fill="#F4F6F9"/>
<path d="M751.08 247.529C750.62 243.169 745.78 240.009 741.81 239.719C706.87 237.139 671.81 236.989 636.81 238.179C637.49 246.439 637.98 253.319 637.98 253.319C650.3 254.379 665.46 285.619 654.18 304.909C666.4 305.779 665.18 330.599 663.73 338.359C662.21 346.649 655.43 353.019 655.46 360.649C655.46 370.279 661.98 380.849 663.33 390.779C666.14 411.449 668.02 432.099 667.33 453.029C666.18 488.969 662.33 524.029 656.64 559.529C687.27 523.589 706.84 479.529 720.17 434.289C728.82 404.909 735.17 374.909 741.43 344.949C748.22 312.759 754.53 280.549 751.08 247.529Z" fill="#F4F6F9"/>
<path d="M771.43 135.309C771.17 131.369 770.02 121.769 764.97 117.799C756.3 110.999 735.97 109.179 727.56 109.369C727.1 109.374 726.646 109.47 726.223 109.65C725.801 109.831 725.418 110.093 725.097 110.422C724.448 111.086 724.089 111.98 724.1 112.909C724.11 113.837 724.489 114.723 725.153 115.372C725.817 116.021 726.712 116.379 727.64 116.369V156.449H727.39C726.462 156.48 725.584 156.88 724.95 157.559C724.316 158.238 723.978 159.14 724.01 160.069C724.042 160.997 724.441 161.874 725.12 162.508C725.799 163.142 726.702 163.48 727.63 163.449H727.88L730.69 163.259C741.69 162.569 760.01 161.399 767.22 154.029C772 149.209 771.64 138.479 771.43 135.309Z" fill="#FEAABC"/>
<path d="M628.83 92.1886C632.49 83.4286 660.13 84.1886 651.15 97.7486" stroke="#333333" stroke-width="7" stroke-linecap="round" stroke-linejoin="round"/>
<path d="M635 167.799C634.71 179.199 625.599 182.379 621.229 185.269" stroke="#333333" stroke-width="7" stroke-linecap="round" stroke-linejoin="round"/>
<path d="M87.8198 133.069C87.2398 129.459 88.2798 124.719 85.6398 124.119C84.4898 122.699 61.1498 132.629 58.2198 133.719C54.8998 134.959 52.9598 139.649 57.2198 140.429C63.9698 141.669 74.7198 142.909 81.4698 144.149C83.4698 144.529 85.8898 143.609 86.3898 141.359C86.6698 140.129 88.0898 134.669 87.8198 133.069Z" fill="#333333"/>
<path d="M235.609 124C225.949 122.52 212.319 120.77 208.319 110.11C207.319 107.32 207.829 103.8 205.549 101.67C207.219 101.58 208.469 101.52 209.129 101.5C209.589 101.484 210.041 101.378 210.46 101.188C210.878 100.997 211.255 100.726 211.569 100.39C211.883 100.054 212.127 99.6593 212.289 99.2286C212.45 98.798 212.525 98.3397 212.509 97.8801C212.494 97.4205 212.387 96.9685 212.197 96.5498C212.006 96.1312 211.735 95.7542 211.399 95.4404C211.063 95.1265 210.668 94.8819 210.238 94.7206C209.807 94.5593 209.349 94.4843 208.889 94.5001C206.469 94.5901 197.389 95.0801 185.889 95.7101C167.349 96.7101 144.289 98.0001 139.599 98.0401C138.822 98.0497 138.07 98.3177 137.462 98.8019C136.854 99.286 136.425 99.9588 136.241 100.714C136.058 101.469 136.131 102.264 136.449 102.973C136.768 103.682 137.313 104.265 137.999 104.63C140.107 105.613 141.841 107.251 142.94 109.301C144.04 111.35 144.447 113.7 144.099 116C143.569 121 140.789 124.33 139.769 124.61C138.891 124.805 138.122 125.331 137.622 126.078C137.121 126.825 136.927 127.736 137.08 128.622C137.233 129.509 137.721 130.302 138.444 130.838C139.166 131.373 140.067 131.611 140.959 131.5C141.87 131.322 142.812 131.387 143.69 131.689C144.568 131.991 145.351 132.519 145.959 133.22C147.959 135.54 148.649 140.02 147.619 143.87C146.369 148.56 141.299 152.61 137.619 155.57C136.479 156.48 135.399 157.34 134.519 158.15C134.011 158.613 133.651 159.216 133.483 159.882C133.315 160.549 133.347 161.25 133.575 161.899C133.804 162.547 134.218 163.114 134.766 163.529C135.315 163.943 135.973 164.187 136.659 164.23C137.159 164.23 186.949 167.36 221.269 168.01H221.329C222.258 168.019 223.151 167.66 223.814 167.01C224.477 166.36 224.855 165.473 224.864 164.545C224.874 163.617 224.514 162.723 223.864 162.06C223.214 161.397 222.328 161.019 221.399 161.01H220.999C221.239 160.91 221.489 160.84 221.719 160.72C225.049 159.1 225.179 155.92 226.719 152.96C231.029 144.43 242.309 143.39 250.659 142.59C252.659 142.4 254.839 140.91 254.659 138.59C253.759 128.21 244.439 125.31 235.609 124Z" fill="#FFE945"/>
<path d="M568.129 101L570.129 101.06H570.239C571.168 101.073 572.063 100.717 572.729 100.07C573.395 99.4233 573.776 98.5384 573.789 97.6101C573.803 96.6819 573.447 95.7864 572.8 95.1206C572.153 94.4548 571.268 94.0734 570.339 94.0601C512.569 92.3001 375.599 92.1501 283.919 93.0601C282.991 93.0601 282.101 93.4289 281.445 94.0852C280.788 94.7416 280.419 95.6319 280.419 96.5601C280.419 97.4884 280.788 98.3786 281.445 99.035C282.101 99.6914 282.991 100.06 283.919 100.06H284.039C277.039 103.96 271.459 110.24 270.039 118.45C269.933 119.167 270.007 119.9 270.254 120.582C270.502 121.263 270.915 121.873 271.457 122.355C271.998 122.837 272.652 123.177 273.357 123.344C274.063 123.51 274.799 123.499 275.499 123.31C284.51 132.452 290.262 144.305 291.869 157.04C291.924 157.382 292.014 157.717 292.139 158.04C292.039 158.24 291.949 158.44 291.839 158.64C291.576 159.088 291.408 159.586 291.346 160.102C291.284 160.619 291.329 161.142 291.479 161.64L289.179 161.58C288.251 161.556 287.351 161.902 286.678 162.542C286.005 163.181 285.613 164.062 285.589 164.99C285.566 165.918 285.911 166.818 286.551 167.491C287.19 168.165 288.071 168.556 288.999 168.58C296.999 168.78 304.999 169.007 312.999 169.26C340.159 170.06 368.239 170.9 395.999 170.47C426.709 170 504.689 170.52 567.359 170.93C568.288 170.93 569.178 170.561 569.834 169.905C570.491 169.249 570.859 168.358 570.859 167.43C570.859 166.502 570.491 165.612 569.834 164.955C569.178 164.299 568.288 163.93 567.359 163.93H566.179C566.431 163.232 566.49 162.479 566.349 161.75C565.659 157.91 568.859 154.94 571.399 152.55C574.759 149.39 578.399 146.55 581.339 142.96C587.869 134.82 586.419 124.5 582.579 115.39C581.247 112.152 579.283 109.212 576.802 106.742C574.321 104.271 571.373 102.319 568.129 101Z" fill="#FFE945"/>
<path d="M676.64 107.75C676.88 106.845 676.784 105.884 676.368 105.045C675.952 104.206 675.246 103.547 674.38 103.19C674.56 102.776 674.655 102.331 674.66 101.88C674.668 101.42 674.585 100.963 674.417 100.536C674.248 100.108 673.997 99.7178 673.678 99.3872C673.358 99.0566 672.977 98.7922 672.555 98.6091C672.133 98.4259 671.68 98.3276 671.22 98.3198C666.87 98.2498 658.8 97.8998 650.99 97.5598C644.08 97.2498 637.55 96.9698 633.73 96.8798C632.802 96.8586 631.903 97.207 631.232 97.8484C630.56 98.4898 630.171 99.3716 630.15 100.3C630.129 101.228 630.477 102.127 631.119 102.798C631.76 103.47 632.642 103.859 633.57 103.88L636.57 103.97C636.237 104.484 636.07 105.088 636.09 105.7C636 106.357 636.057 107.026 636.256 107.659C636.454 108.291 636.791 108.872 637.24 109.36C639.9 116.68 645.98 135.82 638.88 136.03C638.024 136.683 636.985 137.052 635.909 137.084C634.833 137.117 633.773 136.811 632.88 136.21C628.51 137.14 625.37 139.92 622.41 143.12C618.36 147.51 614.41 150.83 608.58 152.62C607.995 152.793 607.457 153.095 607.005 153.504C606.553 153.914 606.199 154.42 605.97 154.985C605.74 155.549 605.641 156.159 605.679 156.767C605.717 157.376 605.892 157.968 606.19 158.5C607.342 160.847 609.09 162.851 611.26 164.31H611C610.072 164.31 609.182 164.679 608.525 165.335C607.869 165.991 607.5 166.882 607.5 167.81C607.5 168.738 607.869 169.628 608.525 170.285C609.182 170.941 610.072 171.31 611 171.31C632.63 171.44 647.54 171.5 657.16 171.5C664.55 171.5 668.82 171.5 670.59 171.39C671.436 171.357 672.241 171.018 672.855 170.436C673.469 169.853 673.851 169.068 673.929 168.225C674.007 167.383 673.777 166.54 673.28 165.855C672.784 165.17 672.055 164.688 671.23 164.5C675.73 159.13 676.29 149.76 677.15 143.25C678.636 131.451 678.464 119.502 676.64 107.75Z" fill="#FFE945"/>
<path d="M421.36 397.24L420.85 401.71" stroke="#333333" stroke-width="7" stroke-linecap="round" stroke-linejoin="round"/>
<path d="M437.36 399.959L436.85 404.429" stroke="#333333" stroke-width="7" stroke-linecap="round" stroke-linejoin="round"/>
<path d="M392.32 437.43C398.19 438.43 404.63 440.85 410.83 440.43C418.47 439.95 424.77 435.26 431.83 432.58C441.42 428.95 455.29 429.91 457.98 442.1C464.64 472.25 418.48 478.65 400.71 468.98C394.11 465.42 382.83 438.69 392.32 437.43Z" stroke="#333333" stroke-width="7" stroke-linecap="round" stroke-linejoin="round"/>
<path d="M453.81 434.719C452.46 439.029 451.09 443.239 449.91 447.719C452.47 450.365 454.811 453.214 456.91 456.239" stroke="#333333" stroke-width="7" stroke-linecap="round" stroke-linejoin="round"/>
<path d="M397.579 438.939C400.909 442.499 401.319 450.439 402.319 453.069C401.639 455.939 396.789 461.869 396.829 461.499" stroke="#333333" stroke-width="7" stroke-linecap="round" stroke-linejoin="round"/>
<path d="M354.67 537.359C385.72 556.489 447.67 564.589 480.73 547.439" stroke="#333333" stroke-width="7" stroke-linecap="round" stroke-linejoin="round"/>
<path d="M355.81 559.24C358.56 574.1 369.09 596.37 381.81 605.5C396.3 615.94 431.95 591.74 429.28 576.72C426.4 587.29 431.08 602.28 439.54 609.24C458.68 625 471.23 578.2 471 565C469.78 563.61 470.83 565.56 470.19 565.94" stroke="#333333" stroke-width="7" stroke-linecap="round" stroke-linejoin="round"/>
<path d="M425.44 604.309C421.81 611.889 424.87 632.459 423.02 640.309C417.52 663.589 403.83 676.079 397.2 698.179C392.76 712.979 406.2 706.489 417.39 709.409C436.39 714.349 409.71 729.569 413.48 736.159C417.25 742.749 427.39 742.159 430.39 748.079" stroke="#333333" stroke-width="7" stroke-linecap="round" stroke-linejoin="round"/>
<path d="M641 681.38C642.55 667.31 641.53 652.56 643.21 638.09C646.12 613.09 651.89 588.91 655.96 564.15C662.06 527.15 666.2 490.54 667.4 453.03C668.07 432.1 666.19 411.45 663.4 390.78C662.05 380.85 655.56 370.28 655.53 360.65C655.53 353.02 662.28 346.65 663.8 338.36C665.23 330.6 666.47 305.78 654.25 304.91C665.53 285.62 650.37 254.38 638.05 253.32C625.73 252.26 583.49 258.32 574.05 266.42C554.96 282.84 563.37 332.53 565.86 358.35C571.09 412.78 555.49 464.64 537.23 515.35C521.23 559.94 491.43 601.54 490.77 616.96C490.39 625.61 489.2 642.52 499.21 642.69C516.78 642.98 507.05 608.1 504.05 600.88C496.63 583.04 485.41 568.01 482.49 557.82C479.57 547.63 478.49 509.73 478.04 488.88C477.63 470.63 475.1 429.44 475.1 429.44C492.84 429.18 517.77 428.31 516 410.64C514 390.96 490.38 391.64 473.73 397.47L471.4 388.1C467 366.62 453 359.5 432.1 360.17C413.05 360.79 399.1 373.75 387.16 387.17C379.31 395.95 353.46 428.49 343.16 441.93L380 437.84C380 437.84 359.41 518.94 354.67 537.36C349.93 555.78 325.46 570.15 323.58 587.29C322.58 596.11 326.66 599.58 330.65 591.01C334.01 583.79 332.38 575.42 331.03 568.01C322.94 523.62 308.18 479.29 302.26 434.7C298.12 403.46 289.48 350.47 288.26 319.25C287.42 297.89 282.09 275.37 270.54 273.16C251.03 269.43 219.81 270.41 202.23 275.66C193.89 278.15 188.48 314.52 186.95 337.08C185.01 365.76 186.53 392.65 186.95 421.34C187.69 467.81 188.51 511.44 183.77 557.77C181.37 581.26 183.96 603.98 181.3 627.31" stroke="#333333" stroke-width="7" stroke-linecap="round" stroke-linejoin="round"/>
<path d="M574 266.42C575 257.48 574.3 226.15 574.79 222.27C575.28 218.39 593.54 216.08 603.1 213.71C612.66 211.34 632.45 207.03 633.81 210.56C635.17 214.09 638.01 253.32 638.01 253.32" stroke="#333333" stroke-width="7" stroke-linecap="round" stroke-linejoin="round"/>
<path d="M270.54 273.151C270.54 273.151 269.349 240.151 265.869 226.611C248.059 221.211 225.519 225.441 207.049 227.101C205.119 238.771 202.229 275.651 202.229 275.651" stroke="#333333" stroke-width="7" stroke-linecap="round" stroke-linejoin="round"/>
<path d="M577.37 219.929C574.17 200.749 561.21 176.479 570.31 157.019C575.89 145.089 606.79 121.899 618.63 136.689C627.9 148.269 606.37 155.289 599.5 156.209C610.05 161.979 613.28 168.649 610.5 176.209" stroke="#333333" stroke-width="7" stroke-linecap="round" stroke-linejoin="round"/>
<path d="M224.129 168.19C221.559 144.5 255.879 139.42 264.249 150.19C256.199 145.37 244.839 124.82 256.869 118.52C268.469 112.44 277.339 129.34 282.689 136.63C289.579 146.02 291.689 153.63 289.119 165.63C286.199 179 275.999 177.94 269.999 188.61C266.719 194.45 262.099 214.25 263.259 225.9" stroke="#333333" stroke-width="7" stroke-linecap="round" stroke-linejoin="round"/>
<path d="M588.68 137.159C590.32 126.249 579.68 102.939 570.24 97.5586" stroke="#333333" stroke-width="7" stroke-linecap="round" stroke-linejoin="round"/>
<path d="M557.859 95.4091C562.349 83.1891 582.369 79.6491 588.149 94.1891C591.709 83.0291 606.049 87.9391 609.449 95.9291C619.769 80.7891 637.079 101.149 639.609 111.579C642.069 121.699 647.359 147.289 628.609 134.129C628.309 137.739 624.779 141.259 621.139 140.849" stroke="#333333" stroke-width="7" stroke-linecap="round" stroke-linejoin="round"/>
<path d="M627.479 182.719C629.409 188.849 630.39 209.229 630.39 209.229" stroke="#333333" stroke-width="7" stroke-linecap="round" stroke-linejoin="round"/>
<path d="M205.69 166.1C203.28 175.37 210.92 188.78 221.35 187.81" stroke="#333333" stroke-width="7" stroke-linecap="round" stroke-linejoin="round"/>
<path d="M210.91 223.78C212.05 214.25 210.29 197.42 214.66 187.51" stroke="#333333" stroke-width="7" stroke-linecap="round" stroke-linejoin="round"/>
<path d="M237.25 191.429C237.983 190.434 239.017 189.702 240.198 189.341C241.38 188.981 242.647 189.012 243.81 189.429" stroke="#333333" stroke-width="7" stroke-linecap="round" stroke-linejoin="round"/>
<path d="M601.85 196.65C604.049 196.677 606.236 196.315 608.31 195.58" stroke="#333333" stroke-width="7" stroke-linecap="round" stroke-linejoin="round"/>
<path d="M285.519 93.6191C282.519 98.9391 272.219 117.789 268.189 118.529" stroke="#333333" stroke-width="7" stroke-linecap="round" stroke-linejoin="round"/>
<path d="M251.7 129.08C246.1 129.75 236.42 129.56 235.99 122.79C230.79 126.64 221.1 126.5 222.87 117.31C193.87 124.89 213.75 65.7002 232.94 85.8302" stroke="#333333" stroke-width="7" stroke-linecap="round" stroke-linejoin="round"/>
<path d="M223.85 102C227.31 95.7495 230.63 87.2595 236.04 82.3195C240.96 77.8395 254.16 72.3195 255.98 82.6995C261.74 63.3095 297.5 72.5195 298.35 91.3495" stroke="#333333" stroke-width="7" stroke-linecap="round" stroke-linejoin="round"/>
<path d="M483.56 415C487.37 413.15 491.7 411.85 495.2 410.43" stroke="#333333" stroke-width="7" stroke-linecap="round" stroke-linejoin="round"/>
<path d="M480 702C496.6 697.31 515.84 694.83 531.33 688.93" stroke="#333333" stroke-width="7" stroke-linecap="round" stroke-linejoin="round"/>
<path d="M517.67 681.859C521.53 688.459 522.67 697.419 523.17 705.139" stroke="#333333" stroke-width="7" stroke-linecap="round" stroke-linejoin="round"/>
<path d="M505.529 685C512.429 695 514.149 711.17 515.669 723.31" stroke="#333333" stroke-width="7" stroke-linecap="round" stroke-linejoin="round"/>
<path d="M673.55 167.79C689.95 167.36 717.03 168.17 723.04 164.22C729.46 160 731.24 145.32 730.23 130.98C729.22 116.64 726.5 109.04 720.55 106.42C715.99 104.42 695.65 103.36 676.97 102.42" stroke="#333333" stroke-width="7" stroke-linecap="round" stroke-linejoin="round"/>
<path d="M619.6 146.299L680.09 147.559" stroke="#333333" stroke-width="7" stroke-linecap="round" stroke-linejoin="round"/>
<path d="M286.55 143.229C348.94 143.399 445.98 142.809 477.73 143.389C489.12 143.599 534.83 144.539 579.93 145.469" stroke="#333333" stroke-width="7" stroke-linecap="round" stroke-linejoin="round"/>
<path d="M151.45 142C151.45 142 231.51 142.44 239.45 142.69C243.86 142.83 249.93 142.94 257.29 143.02" stroke="#333333" stroke-width="7" stroke-linecap="round" stroke-linejoin="round"/>
<path d="M677.67 102.84C682.53 117.28 684.77 144.77 673.55 167.79" stroke="#333333" stroke-width="7" stroke-linecap="round" stroke-linejoin="round"/>
<path d="M139.64 101.5C139.64 101.5 113.64 112.36 106.25 115.16C97.9497 118.32 48.4697 138.16 48.4697 138.16C48.4697 138.16 86.2097 146.68 95.2697 148.97C108.27 152.26 136.83 160.64 136.83 160.64" stroke="#333333" stroke-width="7" stroke-linecap="round" stroke-linejoin="round"/>
<path d="M86.3798 123.59C91.8298 128.74 88.1698 139.74 83.7998 146.28" stroke="#333333" stroke-width="7" stroke-linecap="round" stroke-linejoin="round"/>
<path d="M491 380.36C490.09 370.58 486.16 360.36 477.16 355.36C473.91 353.556 470.207 352.736 466.5 353C467.093 350.066 466.808 347.022 465.68 344.25C462.59 336.66 454.18 332.81 446.36 332.97C437.378 333.338 428.841 336.98 422.36 343.21C419.36 346.21 417.12 349.54 412.88 350.88C408.64 352.22 403.82 351.88 399.39 351.41C396.39 351.13 394.93 353.89 395.69 356.41C397.37 362.07 403.91 364.56 408.87 366.63C415.609 369.424 422.698 371.288 429.94 372.17C436.94 373.02 447.08 373.68 453.78 369.75C453.802 372.65 454.236 375.532 455.07 378.31C456.506 383.066 458.202 387.739 460.15 392.31C462.15 397.06 466.41 402.94 464.48 408.25C462.86 412.69 469.04 414.96 471.17 410.94C473.766 406.219 475.977 401.296 477.78 396.22C482.197 394.978 486.738 394.234 491.32 394C491.525 389.451 491.418 384.894 491 380.36Z" fill="#333333"/>
<path d="M475.92 444.67C480.21 440.67 482.92 435.02 484.81 429.18C481.45 429.34 478.13 429.41 475.03 429.46C475 429.46 475.43 435.83 475.92 444.67Z" fill="#333333"/>
<path d="M598.17 106.82C602.59 114.54 604.59 120.49 606.53 128.92" stroke="#333333" stroke-width="7" stroke-linecap="round" stroke-linejoin="round"/>
<path d="M620.37 108.139C624.89 116.139 627.15 124.479 628.37 133.219" stroke="#333333" stroke-width="7" stroke-linecap="round" stroke-linejoin="round"/>
<path d="M400.19 451.77C399.683 447.83 399.176 443.89 398.67 439.95C398.33 437.3 395.84 436.56 393.89 437.27C393.465 437.221 393.034 437.264 392.627 437.395C392.22 437.526 391.846 437.742 391.53 438.03C388.08 441.4 388.2 445.54 389.81 449.47C389.9 450.069 390.034 450.66 390.21 451.24C390.48 452.156 390.831 453.046 391.26 453.9C391.513 455.463 391.922 456.998 392.48 458.48C393.41 461 396.35 461.06 398.1 459.63C399.001 459.248 399.718 458.531 400.1 457.63L401.01 455.63C401.26 454.976 401.315 454.264 401.17 453.579C401.024 452.894 400.684 452.266 400.19 451.77Z" fill="#333333"/>
<path d="M458.52 444.999C458.52 444.999 458.52 444.919 458.52 444.879C458.52 444.839 458.52 444.879 458.52 444.939C458.515 444.896 458.515 444.852 458.52 444.809C458.567 443.891 458.266 442.989 457.676 442.285C457.086 441.58 456.251 441.124 455.34 441.009C454.599 440.947 453.856 441.109 453.208 441.474C452.561 441.84 452.039 442.392 451.71 443.059C451.522 443.288 451.386 443.554 451.31 443.839C450.911 445.154 450.808 446.54 451.01 447.899C451.155 448.752 451.602 449.525 452.269 450.076C452.936 450.628 453.779 450.921 454.644 450.903C455.51 450.885 456.339 450.556 456.983 449.977C457.626 449.399 458.04 448.608 458.15 447.749C458.15 447.619 458.15 447.489 458.15 447.359C458.214 447.25 458.271 447.136 458.32 447.019C458.57 446.377 458.639 445.678 458.52 444.999Z" fill="#333333"/>
</svg>
