<svg width="820" height="820" viewBox="0 0 820 820" fill="none" xmlns="http://www.w3.org/2000/svg">
<path d="M658.32 231.82C630.62 187.32 592.18 148.82 545.9 123.59C498.29 97.59 424.64 93.5901 370.68 100.14C343.61 103.44 307.4 110.7 282.81 122.52C256.67 135.09 233.61 153.12 213.81 174.18C173.73 216.84 141.43 269.11 133.94 327.23C126.87 382.05 131.24 440.32 155.06 490.53C165.591 512.767 179.819 533.055 197.14 550.53C200.07 545.91 204.81 539.53 209.14 540.34L198.01 494.4C195.341 483.387 197.156 471.765 203.056 462.09C208.956 452.415 218.457 445.48 229.47 442.81L287.05 428.86C293.05 420.86 299.22 413.09 302.71 408.2C310.446 397.503 318.934 387.371 328.11 377.88C335.36 370.25 343.27 363.03 350.46 355.35C353.9 351.68 354.9 351.19 355.17 345.72C355.39 341.22 355.58 336.83 355.81 332.37C356.22 324.59 356.89 317.06 357.25 309.47L358.72 309.38L358.48 306.03C358.48 292.29 355.48 278.21 353.48 264.7C352.53 258.37 350.92 247.4 349.48 237.34C340 232.34 333.94 223.77 330.18 213.97C326.47 213.78 323.06 213.56 321.18 213.37C310.87 212.29 301.31 203.63 307.84 192.3C310.71 187.3 317.7 184.65 325.02 183.3C325.07 173.46 326.17 162.74 330.07 153.96C332.21 149.15 336.69 145.02 341.66 143.96C343.33 143.02 343.97 142.88 344.79 140.8C345.26 139.63 345.6 138.41 346.12 137.25C351.18 125.99 363.62 120.25 375.43 119.83C382.32 119.58 389.28 121 395.85 122.97C403.35 125.22 411.1 129.26 419.03 126.81C422.66 125.69 424.87 129.73 423.55 132.69C421.672 136.855 418.971 140.596 415.61 143.69C428.2 147.92 442.72 153.49 448.44 156.21C460.829 162.058 472.661 169.02 483.79 177.01C480.25 180.12 457.33 190.82 449.79 193.35C441.64 196.09 433.29 200.41 425.24 202.26C426.92 219.16 439.11 280.8 441.24 293.39L441.48 295.03C442.143 295.302 442.758 295.68 443.3 296.15C446.78 298.99 449.2 311 450.48 315.33C452.78 323.09 453.63 331.17 455.24 338.73C467.92 340.89 484.58 350.92 494.8 358.19C499.29 361.38 507.02 368.1 513.72 374.07L574.26 359.4C579.712 358.079 585.371 357.844 590.914 358.71C596.458 359.576 601.776 361.526 606.565 364.447C611.355 367.368 615.522 371.205 618.829 375.737C622.137 380.269 624.519 385.407 625.84 390.86L632.84 419.58C645.14 423.77 658.5 432.47 666.18 443.16C669.779 448.16 673.299 455.75 675.599 462.11C682.736 444.599 686.926 426.029 688 407.15C691.4 349.63 688.47 280.26 658.32 231.82Z" fill="#F4F6F9"/>
<path d="M664.409 549.729L673.279 586.299C674.6 591.752 674.834 597.413 673.968 602.957C673.101 608.501 671.151 613.821 668.229 618.611C665.306 623.402 661.469 627.57 656.936 630.878C652.403 634.185 647.263 636.568 641.809 637.889L296.999 721.429C285.992 724.095 274.378 722.282 264.708 716.388C255.038 710.495 248.103 701.003 245.429 689.999L240.429 669.299" stroke="#333333" stroke-width="7" stroke-linecap="round" stroke-linejoin="round"/>
<path d="M218.94 580.65L198.05 494.42C195.381 483.406 197.196 471.784 203.096 462.11C208.996 452.435 218.497 445.5 229.51 442.83L574.31 359.29C579.762 357.968 585.421 357.734 590.965 358.6C596.508 359.466 601.826 361.415 606.615 364.336C611.405 367.258 615.573 371.094 618.88 375.626C622.187 380.158 624.569 385.297 625.89 390.75L643.07 461.64" stroke="#333333" stroke-width="7" stroke-linecap="round" stroke-linejoin="round"/>
<path d="M607.649 479.42C607.129 477.49 606.649 475.83 606.479 474.83C604.999 467.77 602.549 463.37 598.769 461C593.279 457.54 586.599 459.19 578.139 461.27C576.419 461.69 574.609 462.14 572.699 462.57C560.599 465.28 548.119 468.5 535.629 472.13L534.839 472.36C523.999 475.5 520.559 477.06 520.349 488.86C519.759 521.07 525.139 538.86 536.349 541.69C537.246 541.908 538.167 542.012 539.089 542C543.549 542 549.719 540.12 556.619 537.86C558.619 537.22 560.249 536.67 561.359 536.38C574.079 533.06 589.119 528.38 603.489 523.79C618.289 519.08 611.369 493.28 607.649 479.42Z" fill="#FFE945"/>
<path d="M542.759 474.459L558.199 488.699L523.699 499.389" stroke="#333333" stroke-width="7" stroke-linecap="round" stroke-linejoin="round"/>
<path d="M526.359 513.82C552.249 506.03 577.359 497.43 603.159 491.68" stroke="#333333" stroke-width="7" stroke-linecap="round" stroke-linejoin="round"/>
<path d="M561.439 503.859C561.109 514.019 554.519 526.469 554.809 534.289" stroke="#333333" stroke-width="7" stroke-linecap="round" stroke-linejoin="round"/>
<path d="M580.25 498.029L573.52 529.369" stroke="#333333" stroke-width="7" stroke-linecap="round" stroke-linejoin="round"/>
<path d="M564.439 470C564.439 470 571.119 479.34 572.829 484.2C582.329 481.39 593.079 480.9 602.779 477.89" stroke="#333333" stroke-width="7" stroke-linecap="round" stroke-linejoin="round"/>
<path d="M275.859 516.679C263.859 489.049 304.639 463.049 325.009 484.979C344.009 505.449 335.199 535.979 306.379 537.409C292.309 538.089 281.679 532.379 275.859 516.679Z" stroke="#333333" stroke-width="7" stroke-linecap="round" stroke-linejoin="round"/>
<path d="M320.639 499.259C320.639 485.869 324.959 477.039 341.209 471.659C353.119 467.719 365.859 468.599 372.099 481.019C383.229 503.149 363.289 529.079 338.439 522.489C331.259 520.589 320.639 512.659 320.639 499.259Z" stroke="#333333" stroke-width="7" stroke-linecap="round" stroke-linejoin="round"/>
<path d="M322.929 615.08C322.929 615.08 358.989 602.76 379.929 597.08C404.099 590.49 431.099 580.81 455.179 574.08" stroke="#333333" stroke-width="7" stroke-linecap="round" stroke-linejoin="round"/>
<path d="M322.929 641.109C359.209 626.999 392.079 620.569 429.189 609.309" stroke="#333333" stroke-width="7" stroke-linecap="round" stroke-linejoin="round"/>
<path d="M337.279 661.389C362.579 653.239 454.519 626.719 454.519 626.719" stroke="#333333" stroke-width="7" stroke-linecap="round" stroke-linejoin="round"/>
<path d="M287.089 428.88C293.089 420.88 299.259 413.11 302.739 408.22C310.481 397.525 318.973 387.393 328.149 377.9C335.399 370.27 343.309 363.04 350.499 355.37C353.939 351.7 354.939 351.21 355.209 345.74C355.429 341.24 355.619 336.85 355.849 332.39C356.259 324.61 356.929 317.08 357.289 309.49C365.059 309.11 372.289 308.34 379.989 307.39C397.419 305.21 416.909 303.95 433.219 297.2C437.969 295.2 439.869 293.2 443.349 296.04C446.829 298.88 449.249 310.89 450.529 315.22C452.829 322.98 453.679 331.06 455.289 338.62C467.969 340.78 484.629 350.81 494.849 358.08C499.339 361.27 507.069 367.99 513.769 373.96" stroke="#333333" stroke-width="7" stroke-linecap="round" stroke-linejoin="round"/>
<path d="M215.189 583.05C220.189 581.34 244.439 556.42 250.569 561.19C258.519 567.39 237.449 588.03 235.569 592.05C233.259 596.85 232.699 599.7 237.899 602.73C242.269 605.28 249.139 607.24 254.039 608.57C259.789 610.13 284.039 613.57 284.599 620.72C285.599 632.72 252.689 629.82 246.099 629.39C253.887 629.3 261.654 630.234 269.199 632.17C275.959 634.02 287.909 636.32 290.199 643.71C294.549 657.65 260.799 648.31 254.119 644C262.479 646.08 292.969 651.8 294.519 663.08C295.719 671.8 279.519 666.58 274.619 665.35C267.409 663.56 256.619 662.55 250.079 658.69C255.519 660.14 275.079 665.48 273.779 673.27C271.879 683.05 241.779 671.18 229.379 663.52C215.619 654.99 206.619 640.35 203.379 624.75C200.769 612.19 197.799 601.62 200.519 588.85C201.889 582.46 208.919 570.24 215.869 568.72" stroke="#333333" stroke-width="7" stroke-linecap="round" stroke-linejoin="round"/>
<path d="M361.85 351.39C369.44 352.91 382.48 359.07 390.77 354.64C399.92 349.75 400.97 325.91 402.67 316.77C406.03 325.19 414.22 347.2 424.18 350.12C435.44 353.41 439.44 343.31 449.18 340.72" stroke="#333333" stroke-width="7" stroke-linecap="round" stroke-linejoin="round"/>
<path d="M646.189 459.719C641.189 465.389 619.099 461.649 620.619 468.599C621.849 475.389 632.099 478.349 637.909 482.229C644.309 486.499 647.809 488.119 643.849 495.389C639.219 503.879 627.709 513.029 622.189 521.049C618.639 526.189 615.439 537.969 626.189 534.379C635.649 531.219 644.609 520.739 650.589 513.649C644.749 520.819 636.949 526.649 631.589 534.049C628.409 538.439 617.539 547.719 622.589 553.289C630.499 559.049 646.879 537.139 653.589 530.769C644.779 536.409 626.459 557.769 631.229 561.299C638.529 565.219 652.229 548.879 656.229 543.599C650.229 550.079 642.459 564.719 645.229 566.549C659.699 575.239 675.609 521.349 676.999 513.669C680.709 493.149 668.499 449.389 638.139 441.389" stroke="#333333" stroke-width="7" stroke-linecap="round" stroke-linejoin="round"/>
<path d="M206.519 634.719C188.079 613.919 179.379 580.029 195.019 554.049C197.129 550.539 203.489 539.289 209.179 540.359" stroke="#333333" stroke-width="7" stroke-linecap="round" stroke-linejoin="round"/>
<path d="M675.07 486.499C678.89 481.569 678.39 470.549 676.77 465.389C674.61 458.539 670.46 449.009 666.19 443.049C658.51 432.359 645.19 423.659 632.85 419.469" stroke="#333333" stroke-width="7" stroke-linecap="round" stroke-linejoin="round"/>
<path d="M358.519 306.05C358.519 292.31 355.519 278.23 353.519 264.72C351.439 250.85 346.179 214.72 346.179 214.72C346.179 214.72 326.849 213.98 321.179 213.39C310.869 212.31 301.309 203.65 307.839 192.32C313.099 183.19 332.149 181.83 341.739 181.95C339.099 165.21 344.199 147.67 361.139 140.55C372.079 135.96 384.489 136.86 396.139 138.14C404.749 139.07 438.869 151.56 448.419 156.14C460.809 161.987 472.641 168.949 483.769 176.94C480.229 180.05 457.309 190.75 449.769 193.28C441.609 196.02 433.269 200.34 425.219 202.19C426.899 219.09 439.089 280.73 441.219 293.32" stroke="#333333" stroke-width="7" stroke-linecap="round" stroke-linejoin="round"/>
<path d="M371.189 210.719C369.989 222.109 379.329 230.329 389.849 230.719" stroke="#333333" stroke-width="7" stroke-linecap="round" stroke-linejoin="round"/>
<path d="M390.52 188.719L388.52 180.049" stroke="#333333" stroke-width="7" stroke-linecap="round" stroke-linejoin="round"/>
<path d="M411.85 180.049L409.85 171.389" stroke="#333333" stroke-width="7" stroke-linecap="round" stroke-linejoin="round"/>
<path d="M329.259 213.939C332.759 224.309 338.859 233.479 349.109 238.219C349.289 238.309 349.469 238.349 349.649 238.419C347.829 226.029 346.189 214.719 346.189 214.719C346.189 214.719 336.859 214.359 329.259 213.939Z" fill="#333333"/>
<path d="M418.999 126.749C411.069 129.199 403.319 125.159 395.819 122.909C389.249 120.909 382.289 119.519 375.399 119.769C363.589 120.189 351.149 125.929 346.089 137.189C345.569 138.349 345.229 139.569 344.759 140.739C343.939 142.819 343.299 142.959 341.629 143.899C336.629 145.009 332.179 149.139 330.039 153.899C326.139 162.679 325.039 173.399 324.989 183.239C328.232 182.645 331.508 182.254 334.799 182.069C337.055 189.801 340.813 197.012 345.859 203.289C348.069 206.059 352.759 203.699 352.679 200.459C352.409 188.459 359.589 178.049 360.749 166.249C361.041 163.462 360.971 160.648 360.539 157.879H362.019C363.919 157.779 365.809 157.719 367.709 157.639C371.499 157.489 375.299 157.349 379.079 157.039C385.781 156.661 392.408 155.431 398.799 153.379C409.279 149.729 418.889 142.969 423.519 132.609C424.879 129.669 422.669 125.629 418.999 126.749Z" fill="#333333"/>
<path d="M407.519 346.389C407.439 350.389 409.199 354.989 409.859 359.059C410.699 364.179 411.429 369.329 412.189 374.509C413.389 382.509 416.549 397.509 416.549 397.509" stroke="#333333" stroke-width="7" stroke-linecap="round" stroke-linejoin="round"/>
<path d="M422.52 381.049C422.752 381.092 422.991 381.085 423.22 381.028C423.45 380.971 423.664 380.866 423.85 380.719" stroke="#333333" stroke-width="7" stroke-linecap="round" stroke-linejoin="round"/>
<path d="M331.809 199.14C328.749 198.14 326.219 197.35 322.889 197.59" stroke="#333333" stroke-width="7" stroke-linecap="round" stroke-linejoin="round"/>
</svg>
