<svg width="820" height="820" viewBox="0 0 820 820" fill="none" xmlns="http://www.w3.org/2000/svg">
<path d="M326.67 285.869C325.18 279.809 321.79 260.079 317.17 256.039C313.88 253.159 255.67 256.339 231.43 256.149C296.11 211.329 335.31 187.079 377.75 179.359C372.626 176.668 367.884 173.305 363.65 169.359C334.41 169.929 305.2 171.549 276.11 174.669C262.32 176.139 247.89 177.149 234.41 180.549C228.149 181.982 222.445 185.215 218 189.849C213.22 195.079 210.91 201.619 208.59 208.159C198.96 235.229 195.05 252.609 189.65 280.899C183.99 310.509 179.29 349.299 178.43 378.999C177.58 408.449 177.28 437.839 177.87 467.279C178.42 494.419 178.87 521.649 185.3 548.109C188.517 561.431 193.261 574.336 199.44 586.569C202.31 592.249 205.32 598.049 209.91 602.569C215.07 607.659 221.86 609.799 228.63 611.899C244.959 616.918 261.624 620.771 278.5 623.429C281.94 597.759 300.84 565.429 314.35 543.209C336.64 506.569 386.05 428.909 386.05 428.909C386.05 428.909 356.76 372.559 346 344.119C339.08 325.769 331.38 305.049 326.67 285.869Z" fill="#F4F6F9"/>
<path d="M641.229 375.789C638.179 321.269 628.749 266.499 608.909 215.449C606.503 209.249 603.939 203.115 601.219 197.049C598.219 190.449 595.539 182.969 588.459 179.719C582.299 176.909 574.559 177.429 567.959 176.979L544.289 175.399L529.999 174.479C530.139 177.656 529.294 180.799 527.579 183.479C527.399 183.769 527.179 184.029 526.979 184.309C534.343 186.351 541.136 190.065 546.828 195.163C552.521 200.261 556.96 206.604 559.799 213.699C563.369 222.829 563.519 233.069 561.679 243.109H561.169C571.539 243.919 580.779 244.549 582.309 256.869C585.189 280.059 560.529 282.789 543.309 281.869L544.779 281.939C534.959 294.989 521.019 305.109 504.829 308.269L503.919 308.449C481.359 348.839 455.449 389.569 433.689 430.209C433.689 430.209 479.039 502.209 493.779 527.209C506.999 549.419 520.419 571.999 529.269 594.739C532.174 601.954 534.325 609.451 535.689 617.109L583.349 609.869C589.769 608.869 596.489 608.299 601.849 604.279C607.439 600.089 609.549 593.519 611.949 587.279C617.209 573.539 622.399 559.749 626.879 545.729C635.779 517.849 639.879 489.499 641.339 460.319C642.793 432.16 642.756 403.944 641.229 375.789Z" fill="#F4F6F9"/>
<path d="M386.079 428.9C386.079 428.9 336.669 506.56 314.379 543.2C295.799 573.74 266.999 623.51 282.309 648.65C297.619 673.79 331.569 669.2 355.119 669.76C389.439 670.58 422.869 670.58 457.349 669.58C482.299 668.86 511.529 670.86 526.299 655.58C541.069 640.3 538.129 617.49 529.299 594.75C520.469 572.01 506.999 549.42 493.859 527.13C479.119 502.13 433.769 430.13 433.769 430.13" stroke="#333333" stroke-width="7" stroke-linecap="round" stroke-linejoin="round"/>
<path d="M433.769 430.16C456.439 387.81 483.629 345.37 506.829 303.32C510.829 296.11 515.52 288.14 520.03 279.8C527.78 280.51 535.49 281.39 543.39 281.8C560.56 282.72 585.22 279.99 582.39 256.8C580.71 243.3 569.77 243.8 558.24 242.8C551.75 242.21 543.71 241.3 535.87 241.21C537.058 235.995 537.539 230.644 537.299 225.3C535.299 189.37 466.069 176.57 409.399 176.57C352.729 176.57 311.719 200.57 231.479 256.13C255.719 256.32 313.929 253.13 317.219 256.02C321.839 260.02 325.219 279.79 326.719 285.85C331.429 305.03 339.13 325.75 346.07 344.1C356.81 372.54 386.13 428.88 386.13 428.88" stroke="#333333" stroke-width="7" stroke-linecap="round" stroke-linejoin="round"/>
<path d="M537.649 265.82C546.129 263.02 554.179 260.82 563.339 260.82" stroke="#333333" stroke-width="7" stroke-linecap="round" stroke-linejoin="round"/>
<path d="M448.599 286.811C439.289 295.271 427.269 294.161 418.209 287.651C406.089 278.951 398.399 275.201 384.589 284.471C372.649 292.471 365.319 290.581 352.489 285.871C342.539 282.221 338.489 282.991 330.369 289.211" stroke="#333333" stroke-width="7" stroke-linecap="round" stroke-linejoin="round"/>
<path d="M559.829 213.69C556.989 206.595 552.549 200.251 546.854 195.153C541.16 190.055 534.365 186.341 526.999 184.3C527.199 184.02 527.419 183.76 527.599 183.47C531.419 177.47 530.549 170.15 526.469 164.58C516.719 151.29 496.469 149.24 481.349 149.7C462.869 150.27 444.879 155.18 426.769 158.42C416.559 160.24 406.189 161.54 395.769 161.12C383.629 160.63 371.879 157.41 360.219 154.22C357.019 153.34 353.709 157.12 355.709 160.1C368.469 179.1 390.979 186.54 412.479 190.52C437.336 195.107 462.662 196.632 487.889 195.06C490.809 195.11 493.719 195.06 496.609 194.92C494.739 199.024 493.997 203.552 494.459 208.037C494.921 212.523 496.571 216.805 499.239 220.44C506.209 230.07 524.999 239 521.799 253C520.969 256.63 524.519 258.92 527.669 257.51C535.159 254.18 539.159 248.24 540.909 241.37C547.059 241.68 553.099 242.37 558.189 242.79L561.709 243.07C563.549 233.06 563.399 222.82 559.829 213.69Z" fill="#333333"/>
<path d="M520 279.801C515.49 288.141 510.78 296.111 506.8 303.321C505.9 305.001 505 306.701 504 308.401L504.91 308.221C521.1 305.061 535.04 294.941 544.86 281.891L543.39 281.821C535.49 281.391 527.78 280.511 520 279.801Z" fill="#333333"/>
<path d="M379.799 218.711C379.282 221.086 378.971 223.502 378.869 225.931" stroke="#333333" stroke-width="7" stroke-linecap="round" stroke-linejoin="round"/>
<path d="M436.34 220.82V226.82" stroke="#333333" stroke-width="7" stroke-linecap="round" stroke-linejoin="round"/>
<path d="M519.199 606.821C518.889 606.061 518.559 605.311 518.199 604.571C514.829 583.631 495.069 572.291 476.199 566.571C466.109 563.501 452.929 561.141 441.439 558.291C429.949 555.441 416.679 553.471 416.679 541.121V446.001C416.679 446.001 415.799 421.001 421.209 413.141C422.709 411.671 424.149 410.241 425.279 409.071C431.139 403.071 437.209 395.401 439.279 390.181C442.829 381.061 431.719 380.181 427.209 381.281C423.979 382.061 401.389 382.031 397.339 381.281C389.829 379.881 379.939 386.851 385.749 395.481C388.649 399.801 393.469 404.921 397.619 409.271C399.209 410.941 401.709 413.201 404.199 415.351C408.669 425.861 408.869 445.241 408.869 445.241V543.151C407.579 552.741 395.319 555.221 390.479 556.751C380.249 559.971 359.139 563.881 349.109 567.631C337.999 571.791 314.129 582.531 304.999 596.331C295.869 610.131 287.749 640.241 309.999 649.911C314.779 651.991 320.129 652.511 325.259 652.731C331.719 653.011 338.189 653.081 344.649 653.251L386.009 654.251C413.209 654.931 440.479 655.711 467.629 653.431C487.409 651.771 515.629 651.071 519.349 625.311C520.211 619.174 520.161 612.944 519.199 606.821Z" fill="#9ED5F0"/>
</svg>
