<svg width="250" height="250" viewBox="0 0 250 250" fill="none" xmlns="http://www.w3.org/2000/svg">
<path d="M150.8 169.27C167.8 182.27 198.8 192.39 216.91 172.65C232.45 155.73 229.91 127.1 225.09 106.59C218.73 79.2599 199.82 63.0199 170.74 61.5899C146.85 60.4099 122.74 59.7899 99.0303 62.1399C80.1303 63.9999 53.9303 70.7299 40.4003 84.9199C29.7403 96.0999 26.1103 111.26 25.4003 125.66C24.8103 137.79 30.0403 145.14 33.5103 155.66C25.6803 157.74 22.1103 169.93 21.3303 176.75C19.5803 192.06 40.1803 185.63 51.3303 186.24C74.2103 187.48 96.8703 189 119.83 189C131.05 189 140.2 192.08 145.32 181.73C148.8 174.73 150.16 161.06 170.61 159.73" stroke="#333333" stroke-width="7" stroke-linecap="round" stroke-linejoin="round"/>
<path d="M71.0001 92.9004C62.1401 92.9004 54.1401 97.1504 50.4101 105.18C47.5601 111.32 43.0701 122.66 47.4101 128.89C51.7501 135.12 63.2901 134.58 68.8701 130.26C74.0801 126.26 77.9301 117.68 79.9301 112.01C83.1601 102.75 79.8801 92.9004 71.0001 92.9004Z" stroke="#333333" stroke-width="7" stroke-linecap="round" stroke-linejoin="round"/>
<path d="M139.221 94.3095C129.881 94.3095 119.861 94.3095 114.501 102.309C109.881 109.199 107.931 120.009 108.501 128.389C109.561 142.589 121.741 145.209 135.131 143.909C151.011 142.379 157.611 128.559 158.951 114.079C160.281 100.259 154.001 93.3095 139.221 94.3095Z" stroke="#333333" stroke-width="7" stroke-linecap="round" stroke-linejoin="round"/>
<path d="M78.5703 147.47C81.3003 143.24 86.2603 137.52 90.7303 135.25C90.9003 139.11 89.7303 142.81 90.1503 146.78" stroke="#333333" stroke-width="7" stroke-linecap="round" stroke-linejoin="round"/>
<path d="M35.6299 186.31C37.2399 180 36.4699 172.69 41.7599 167.91" stroke="#333333" stroke-width="7" stroke-linecap="round" stroke-linejoin="round"/>
<path d="M57.4404 184.999C57.9004 180.109 58.7904 174.499 62.8904 171.369" stroke="#333333" stroke-width="7" stroke-linecap="round" stroke-linejoin="round"/>
<path d="M79.2506 186.31C78.5106 179.51 80.7406 174.19 84.0206 168.59" stroke="#333333" stroke-width="7" stroke-linecap="round" stroke-linejoin="round"/>
<path d="M95.6006 187.669C97.6006 183.669 95.7906 176.959 99.0106 173.359" stroke="#333333" stroke-width="7" stroke-linecap="round" stroke-linejoin="round"/>
<path d="M114.69 187.67C115.5 184.31 115.59 179.48 117.41 176.77" stroke="#333333" stroke-width="7" stroke-linecap="round" stroke-linejoin="round"/>
</svg>
