<svg width="250" height="250" viewBox="0 0 250 250" fill="none" xmlns="http://www.w3.org/2000/svg">
<path d="M225.09 106.59C218.73 79.2599 199.82 63.0199 170.74 61.5899C146.85 60.4099 122.74 59.7899 99.0303 62.1399C80.1303 63.9999 53.9303 70.7299 40.4003 84.9199C29.7403 96.0999 26.1103 111.26 25.4003 125.66C24.8103 137.79 30.0403 145.14 33.5103 155.66C25.6803 157.74 22.1103 169.93 21.3303 176.75C19.5803 192.06 40.1803 185.63 51.3303 186.24C74.2104 187.48 96.8703 189 119.83 189C131.05 189 140.2 192.08 145.32 181.73C146.89 178.56 148.04 174.05 150.69 169.92C151.493 170.356 152.346 170.692 153.23 170.92C170.64 183.07 199.64 191.43 216.95 172.57C232.45 155.73 229.86 127.1 225.09 106.59Z" fill="#FEAABC" stroke="#FEAABC" stroke-width="7" stroke-linecap="round" stroke-linejoin="round"/>
<path d="M154.78 171.36C157.72 165.09 162.85 158.65 176.57 157.73" stroke="#333333" stroke-width="7" stroke-linecap="round" stroke-linejoin="round"/>
<path d="M72.0001 93.8999C63.1401 93.0199 54.1401 97.1499 50.4101 105.18C47.5601 111.32 43.0701 122.66 47.4101 128.89C51.7501 135.12 63.2901 134.58 68.8701 130.26C74.0801 126.26 77.9401 117.68 79.9301 112.01C83.1601 102.75 80.8801 94.7799 72.0001 93.8999Z" stroke="#333333" stroke-width="7" stroke-linecap="round" stroke-linejoin="round"/>
<path d="M139.221 94.3095C129.881 94.3095 119.861 94.3095 114.501 102.309C109.881 109.199 107.931 120.009 108.501 128.389C109.561 142.589 121.741 145.209 135.131 143.909C151.011 142.379 157.611 128.559 158.951 114.079C160.281 100.259 154.001 93.3095 139.221 94.3095Z" stroke="#333333" stroke-width="7" stroke-linecap="round" stroke-linejoin="round"/>
<path d="M78.5703 147.47C81.3003 143.24 86.2603 137.52 90.7303 135.25C90.9003 139.11 89.7303 142.81 90.1503 146.78" stroke="#333333" stroke-width="7" stroke-linecap="round" stroke-linejoin="round"/>
<path d="M35.6299 186.31C37.2399 180 37.3299 174.5 41.7599 168.91" stroke="#333333" stroke-width="7" stroke-linecap="round" stroke-linejoin="round"/>
<path d="M57.4404 185.999C57.9004 181.109 59.0004 175.759 62.8904 172.369" stroke="#333333" stroke-width="7" stroke-linecap="round" stroke-linejoin="round"/>
<path d="M77.2506 187.31C76.5106 180.51 78.7406 175.19 82.0206 169.59" stroke="#333333" stroke-width="7" stroke-linecap="round" stroke-linejoin="round"/>
<path d="M94.6006 187.669C95.1506 183.269 95.8806 178.039 99.0106 174.359" stroke="#333333" stroke-width="7" stroke-linecap="round" stroke-linejoin="round"/>
<path d="M114.69 188.67C115.5 185.31 115.59 180.48 117.41 177.77" stroke="#333333" stroke-width="7" stroke-linecap="round" stroke-linejoin="round"/>
<path d="M72.0001 93.8999C63.1401 93.0199 54.1401 97.1499 50.4101 105.18C47.5601 111.32 43.0701 122.66 47.4101 128.89C51.7501 135.12 63.2901 134.58 68.8701 130.26C74.0801 126.26 77.9401 117.68 79.9301 112.01C83.1601 102.75 80.8801 94.7799 72.0001 93.8999Z" fill="#333333" stroke="#333333" stroke-width="7" stroke-linecap="round" stroke-linejoin="round"/>
<path d="M139.221 94.3095C129.881 94.3095 119.861 94.3095 114.501 102.309C109.881 109.199 107.931 120.009 108.501 128.389C109.561 142.589 121.741 145.209 135.131 143.909C151.011 142.379 157.611 128.559 158.951 114.079C160.281 100.259 154.001 93.3095 139.221 94.3095Z" fill="#333333" stroke="#333333" stroke-width="7" stroke-linecap="round" stroke-linejoin="round"/>
</svg>
