<svg width="350" height="250" viewBox="0 0 350 250" fill="none" xmlns="http://www.w3.org/2000/svg">
<path d="M187.599 156.72C210.399 164.32 244.779 163.48 259.099 156.72C275.459 148.97 275.749 127.98 255.099 124.33C269.799 125.33 283.349 120.81 291.099 111.07C298.849 101.33 295.289 84.9504 279.949 77.4604C263.409 69.3704 244.219 66.7204 224.949 68.6904C205.679 70.6604 185.109 78.3604 173.999 89.2004C173.539 74.6304 165.709 63.6004 139.169 59.9904C112.629 56.3804 84.7495 61.5804 67.6395 70.2404C50.5295 78.9004 48.6795 98.0004 65.3995 107.91C51.9395 108.74 14.3295 116.54 20.1295 137.47C25.9995 158.62 58.8595 160.89 77.3595 159.47C89.0603 158.465 100.689 156.745 112.179 154.32" stroke="#333333" stroke-width="7" stroke-linecap="round" stroke-linejoin="round"/>
<path d="M185.13 116.31C209.23 108.79 244.3 98 244.3 98" stroke="#333333" stroke-width="7" stroke-linecap="round" stroke-linejoin="round"/>
<path d="M108.569 90.1309C108.569 90.1309 119.689 102.131 129.839 112.221" stroke="#333333" stroke-width="7" stroke-linecap="round" stroke-linejoin="round"/>
<path d="M107.469 128.6C92.3093 130.06 77.3293 131.9 69.0293 133.68" stroke="#333333" stroke-width="7" stroke-linecap="round" stroke-linejoin="round"/>
<path d="M228.12 141.561C228.12 141.561 211.43 136.891 198.33 133.471" stroke="#333333" stroke-width="7" stroke-linecap="round" stroke-linejoin="round"/>
<path d="M43.2793 63.6892C51.9193 48.4892 82.9093 37.8692 99.5493 39.6892" stroke="#333333" stroke-width="7" stroke-linecap="round" stroke-linejoin="round"/>
<path d="M49.6396 39.6599C54.3396 34.6599 61.3996 31.9099 68.0196 31.1699" stroke="#333333" stroke-width="7" stroke-linecap="round" stroke-linejoin="round"/>
<path d="M252.63 51.5704C267.43 48.5104 283.49 48.8304 297.1 53.2704C310.71 57.7104 319.1 70.2704 321.31 84.5804" stroke="#333333" stroke-width="7" stroke-linecap="round" stroke-linejoin="round"/>
<path d="M294.399 35.9007C308.299 35.6807 328.459 44.1407 330.489 59.2407" stroke="#333333" stroke-width="7" stroke-linecap="round" stroke-linejoin="round"/>
<path d="M294.39 146.221C295.11 162.831 274 175.491 260.47 178.731" stroke="#333333" stroke-width="7" stroke-linecap="round" stroke-linejoin="round"/>
<path d="M312.06 166.709C309.42 170.989 305.47 174.359 301.46 177.309" stroke="#333333" stroke-width="7" stroke-linecap="round" stroke-linejoin="round"/>
<path d="M19.5098 169.539C38.5098 184.299 69.5098 187.539 87.3598 180.139" stroke="#333333" stroke-width="7" stroke-linecap="round" stroke-linejoin="round"/>
<path d="M197.59 123.36C195.37 120.13 190.3 118.69 186.89 117.12C182.091 114.845 177.106 112.984 171.99 111.56C162.886 109.017 153.362 108.336 143.99 109.56C134.63 110.83 123.15 112.96 115.25 118.56C111.16 121.45 108.31 126.18 108.17 130.91C104.84 146.86 114.26 162.69 128.75 169.65C144.43 177.18 163.88 175.44 178.17 165.56C185.047 160.83 190.564 154.378 194.17 146.85C195.887 143.296 197.151 139.54 197.93 135.67C198.62 132 199.85 126.66 197.59 123.36Z" stroke="#333333" stroke-width="7" stroke-linecap="round" stroke-linejoin="round"/>
<path d="M130.58 194.231C142.34 192.331 157.25 206.801 149.58 215.871C143.94 222.511 129.81 216.751 127.03 210.501C118.78 191.941 154.03 176.861 158.61 197.501C160.46 205.831 153.77 211.821 149.61 215.881" stroke="#333333" stroke-width="7" stroke-linecap="round" stroke-linejoin="round"/>
<path d="M150.979 187.56V167.1" stroke="#333333" stroke-width="7" stroke-linecap="round" stroke-linejoin="round"/>
<path d="M137.06 206.189L139.18 208.309" stroke="#333333" stroke-width="7" stroke-linecap="round" stroke-linejoin="round"/>
</svg>
