<svg width="350" height="250" viewBox="0 0 350 250" fill="none" xmlns="http://www.w3.org/2000/svg">
<path d="M169.849 146.22C185.249 164.22 240.009 165.74 259.099 156.7C275.459 148.95 275.749 127.96 255.099 124.31C269.799 125.31 283.349 120.79 291.099 111.05C298.849 101.31 295.289 84.9304 279.949 77.4404C263.409 69.3504 244.219 66.7004 224.949 68.6704C205.679 70.6404 185.109 78.3604 173.999 89.2004C173.539 74.6304 165.709 63.6004 139.169 59.9904C112.629 56.3804 84.7495 61.5804 67.6395 70.2404C50.5295 78.9004 48.6795 98.0004 65.3995 107.91C51.9395 108.74 14.3295 116.54 20.1295 137.47C25.9995 158.62 58.8595 160.89 77.3595 159.47C95.8595 158.05 128.729 152.19 137.059 146.19" stroke="#333333" stroke-width="7" stroke-linecap="round" stroke-linejoin="round"/>
<path d="M108.569 90.1309C108.569 90.1309 139.649 123.701 145.339 125.721C150.399 127.531 158.799 124.721 164.779 122.721C176.999 118.711 244.299 98.0009 244.299 98.0009" stroke="#333333" stroke-width="7" stroke-linecap="round" stroke-linejoin="round"/>
<path d="M228.119 141.561C228.119 141.561 195.369 132.401 185.609 130.351C175.249 128.171 164.709 127.411 154.349 125.881C147.249 124.881 88.9193 129.401 69.0293 133.681" stroke="#333333" stroke-width="7" stroke-linecap="round" stroke-linejoin="round"/>
<path d="M43.2793 63.6892C51.9193 48.4892 82.9093 37.8692 99.5493 39.6892" stroke="#333333" stroke-width="7" stroke-linecap="round" stroke-linejoin="round"/>
<path d="M49.6396 39.6599C54.3396 34.6599 61.3996 31.9099 68.0196 31.1699" stroke="#333333" stroke-width="7" stroke-linecap="round" stroke-linejoin="round"/>
<path d="M252.63 51.5704C267.43 48.5104 283.49 48.8304 297.1 53.2704C310.71 57.7104 319.1 70.2704 321.31 84.5804" stroke="#333333" stroke-width="7" stroke-linecap="round" stroke-linejoin="round"/>
<path d="M294.399 35.9007C308.299 35.6807 328.459 44.1407 330.489 59.2407" stroke="#333333" stroke-width="7" stroke-linecap="round" stroke-linejoin="round"/>
<path d="M294.39 146.221C295.11 162.831 274 175.491 260.47 178.731" stroke="#333333" stroke-width="7" stroke-linecap="round" stroke-linejoin="round"/>
<path d="M312.06 166.709C309.42 170.989 305.47 174.359 301.46 177.309" stroke="#333333" stroke-width="7" stroke-linecap="round" stroke-linejoin="round"/>
<path d="M19.5098 169.539C38.5098 184.299 69.5098 187.539 87.3598 180.139" stroke="#333333" stroke-width="7" stroke-linecap="round" stroke-linejoin="round"/>
<path d="M197.59 123.361C195.37 120.131 190.3 118.691 186.89 117.121C182.357 114.948 177.679 113.091 172.89 111.561C163.506 108.806 153.635 108.124 143.96 109.561C134.6 110.831 123.12 112.961 115.22 118.561C111.13 121.451 108.28 126.181 108.14 130.911C104.81 146.861 114.23 162.691 128.72 169.651C144.4 177.181 163.85 175.441 178.14 165.561C185.018 160.83 190.535 154.379 194.14 146.851C195.858 143.297 197.121 139.54 197.9 135.671C198.62 132.001 199.85 126.661 197.59 123.361Z" fill="#02ABF8" stroke="#02ABF8" stroke-width="7" stroke-linecap="round" stroke-linejoin="round"/>
<path d="M130.58 194.231C142.34 192.331 157.25 206.801 149.58 215.871C143.94 222.511 129.81 216.751 127.03 210.501C118.78 191.941 154.03 176.861 158.61 197.501C160.46 205.831 153.77 211.821 149.61 215.881" stroke="#333333" stroke-width="7" stroke-linecap="round" stroke-linejoin="round"/>
<path d="M150.979 187.56V167.1" stroke="#333333" stroke-width="7" stroke-linecap="round" stroke-linejoin="round"/>
<path d="M137.06 206.189L139.18 208.309" stroke="#333333" stroke-width="7" stroke-linecap="round" stroke-linejoin="round"/>
</svg>
