<svg width="250" height="250" viewBox="0 0 250 250" fill="none" xmlns="http://www.w3.org/2000/svg">
<path d="M113.76 120.13C119.83 135.13 139.18 133.13 140.54 114.59" stroke="#333333" stroke-width="7" stroke-linecap="round" stroke-linejoin="round"/>
<path d="M129.76 133.131C134.69 161.311 136.48 192.481 110.76 210.131" stroke="#333333" stroke-width="7" stroke-linecap="round" stroke-linejoin="round"/>
<path d="M124.76 188.631C114.17 176.281 101.22 173.221 86.7598 169.631" stroke="#333333" stroke-width="7" stroke-linecap="round" stroke-linejoin="round"/>
<path d="M119.76 178.63C121.3 164.63 91.87 157.55 84.21 168.13C88.68 173.53 110.76 188.63 119.76 178.63Z" stroke="#333333" stroke-width="7" stroke-linecap="round" stroke-linejoin="round"/>
<path d="M133.76 169.631C136.65 164.491 142.92 160.001 147.53 156.381C153.1 152.001 159.96 149.681 165.76 146.631" stroke="#333333" stroke-width="7" stroke-linecap="round" stroke-linejoin="round"/>
<path d="M169.76 142.629C156.44 139.129 136.25 142.789 141.35 161.549C152.05 165.379 163.2 151.079 169.76 142.629Z" stroke="#333333" stroke-width="7" stroke-linecap="round" stroke-linejoin="round"/>
<path d="M118.08 120C100.9 118 85.21 106.67 81.29 88.7702C77 69.2702 86 55.2802 102.49 46.3402C111.96 41.2102 120.66 38.5002 131.57 40.5602C139.859 42.1614 147.481 46.2006 153.46 52.1602C164.78 63.0402 168.83 80.5502 161.77 95.1602C155 109.32 135.94 120 118.08 120Z" stroke="#333333" stroke-width="7" stroke-linecap="round" stroke-linejoin="round"/>
<path d="M156.24 60.4601C139.67 58.9001 123.49 70.1201 113.24 82.1901C107.34 89.1301 99.1404 102.65 101.91 112.8" stroke="#333333" stroke-width="7" stroke-linecap="round" stroke-linejoin="round"/>
<path d="M110.91 81.8008C107.91 69.5708 99.6302 65.4308 88.2402 61.8008" stroke="#333333" stroke-width="7" stroke-linecap="round" stroke-linejoin="round"/>
<path d="M101.07 67.2312C109.22 56.6712 116.88 50.0312 128.74 43.7012" stroke="#333333" stroke-width="7" stroke-linecap="round" stroke-linejoin="round"/>
<path d="M106.57 61.4607C114.37 55.7907 123.36 59.6407 128.91 65.8007" stroke="#333333" stroke-width="7" stroke-linecap="round" stroke-linejoin="round"/>
</svg>
