<svg width="250" height="250" viewBox="0 0 250 250" fill="none" xmlns="http://www.w3.org/2000/svg">
<path d="M114 120.091C120.07 135.091 139.42 133.091 140.78 114.551" stroke="#333333" stroke-width="7" stroke-linecap="round" stroke-linejoin="round"/>
<path d="M130 133.092C134.93 161.272 136.72 192.432 111 210.092" stroke="#333333" stroke-width="7" stroke-linecap="round" stroke-linejoin="round"/>
<path d="M125 188.592C114.41 176.232 101.46 173.172 87 169.592" stroke="#333333" stroke-width="7" stroke-linecap="round" stroke-linejoin="round"/>
<path d="M120 178.592C121.54 164.592 92.1102 157.502 84.4502 168.092C88.9202 173.482 111 188.592 120 178.592Z" stroke="#333333" stroke-width="7" stroke-linecap="round" stroke-linejoin="round"/>
<path d="M134 169.592C136.89 164.442 143.16 159.952 147.77 156.332C153.34 151.962 160.2 149.632 166 146.592" stroke="#333333" stroke-width="7" stroke-linecap="round" stroke-linejoin="round"/>
<path d="M170 142.59C156.68 139.09 136.49 142.75 141.59 161.5C152.29 165.33 163.44 151 170 142.59Z" stroke="#333333" stroke-width="7" stroke-linecap="round" stroke-linejoin="round"/>
<path d="M117.84 120.001C100.66 118.001 84.97 106.661 81.05 88.7609C76.79 69.2909 85.76 55.2909 102.25 46.3609C111.72 41.2209 120.43 38.5209 131.33 40.5809C139.62 42.1781 147.243 46.2178 153.22 52.1809C164.54 63.0509 168.59 80.5609 161.53 95.1809C154.73 109.371 135.7 120.061 117.84 120.001Z" fill="#FEAABC" stroke="#FEAABC" stroke-width="7" stroke-linecap="round" stroke-linejoin="round"/>
<path d="M156 60.5109C139.43 58.9509 123.25 70.1709 113 82.2309C107.11 89.2309 98.8997 102.691 101.67 112.841" stroke="#333333" stroke-width="7" stroke-linecap="round" stroke-linejoin="round"/>
<path d="M110.67 81.8418C107.67 69.6218 99.39 65.4818 88 61.8418" stroke="#333333" stroke-width="7" stroke-linecap="round" stroke-linejoin="round"/>
<path d="M100.83 67.2802C108.98 56.7102 116.64 50.0802 128.5 43.7402" stroke="#333333" stroke-width="7" stroke-linecap="round" stroke-linejoin="round"/>
<path d="M106.34 61.5108C114.14 55.8308 123.12 59.6808 128.67 65.8408" stroke="#333333" stroke-width="7" stroke-linecap="round" stroke-linejoin="round"/>
</svg>
