<svg width="250" height="250" viewBox="0 0 250 250" fill="none" xmlns="http://www.w3.org/2000/svg">
<path d="M70.0802 68.0007C66.7828 67.8319 63.5532 68.9787 61.1007 71.1893C58.6483 73.3999 57.1735 76.4935 57.0002 79.7907C55.4502 109.851 57.3502 144.571 56.7502 155.101C56.0502 167.101 72.8802 170.761 81.9602 170.851C107.72 171.104 133.457 170.161 159.17 168.021C164.09 167.621 169.78 166.691 172.17 162.401C173.39 160.251 173.51 157.671 173.59 155.201C174.05 141.641 175.93 111.001 177.18 91.2007C177.337 88.8182 177.017 86.4284 176.238 84.1713C175.459 81.9142 174.238 79.8353 172.645 78.0564C171.052 76.2775 169.121 74.8344 166.963 73.8117C164.806 72.789 162.466 72.2073 160.08 72.1007C135.17 71.0007 91.3002 69.1107 70.0802 68.0007Z" stroke="#333333" stroke-width="7" stroke-linecap="round" stroke-linejoin="round"/>
<path d="M179 78.7497C182.28 78.541 185.509 79.6385 187.982 81.8026C190.456 83.9666 191.972 87.0214 192.2 90.2998C194.2 120.3 192.82 155.07 193.59 165.59C194.46 177.59 177.69 181.5 168.59 181.72C142.83 182.386 117.084 181.833 91.3504 180.06C86.4204 179.73 80.7204 178.89 78.2204 174.63C76.9604 172.5 76.8104 169.92 76.6904 167.46C76.0204 153.9 73.6904 123.3 72.1304 103.46C71.9539 101.081 72.2518 98.6914 73.0068 96.429C73.7618 94.1667 74.959 92.0769 76.5286 90.2812C78.0982 88.4854 80.0091 87.0195 82.1501 85.9687C84.2912 84.9178 86.6197 84.3029 89.0004 84.1598C113.91 82.7098 157.75 80.1297 179 78.7497Z" fill="#FFE945" stroke="#FFE945" stroke-width="7" stroke-linecap="round" stroke-linejoin="round"/>
<path d="M102.2 117.86C104.37 120.76 114.01 127.09 119.98 120.47C125.95 113.85 123.98 106.13 120.28 103.06C111.87 96.1598 94.6701 107.83 102.2 117.86Z" fill="#FEAABC" stroke="#FEAABC" stroke-width="7" stroke-linecap="round" stroke-linejoin="round"/>
<path d="M151.87 96.4708C154.8 94.5608 160.5 93.5308 166.77 100.341C173.04 107.151 167.77 119.101 154.88 116.581C144 114.461 143.62 101.871 151.87 96.4708Z" fill="#FEAABC" stroke="#FEAABC" stroke-width="7" stroke-linecap="round" stroke-linejoin="round"/>
<path d="M170.79 137.841C167.33 134.591 163.67 131.221 159.09 129.941C152 127.941 144.3 131.611 139.41 137.131C134.52 142.651 131.89 149.731 129.35 156.641C125.55 150.701 117.41 134.801 107.85 137.981C98.2903 141.161 91.5803 150.801 76.2803 159.761C76.4603 162.681 76.6103 165.291 76.7203 167.451C76.8403 169.921 76.9903 172.501 78.2503 174.631C80.7503 178.891 86.4503 179.731 91.3803 180.061C117.08 181.801 142.827 182.354 168.62 181.721C177.69 181.501 194.46 177.611 193.62 165.591C193.46 163.431 193.4 160.241 193.37 156.291C185.67 151.521 177.37 144.001 170.79 137.841Z" fill="#02ABF8" stroke="#02ABF8" stroke-width="7" stroke-linecap="round" stroke-linejoin="round"/>
</svg>
