<svg width="250" height="250" viewBox="0 0 250 250" fill="none" xmlns="http://www.w3.org/2000/svg">
<path d="M173.54 79.0901C171.946 77.0093 169.914 75.304 167.588 74.0945C165.262 72.8849 162.699 72.2007 160.08 72.0901C135.17 71.0101 91.3002 69.0901 70.0802 68.0301C66.7878 67.8611 63.5625 69.0038 61.1109 71.208C58.6592 73.4122 57.1811 76.4982 57.0002 79.7901C55.4502 109.85 57.3502 144.57 56.7502 155.1C56.1802 164.9 67.2502 169.1 76.2802 170.4" stroke="#333333" stroke-width="7" stroke-linecap="round" stroke-linejoin="round"/>
<path d="M179 78.7497C182.28 78.541 185.509 79.6385 187.982 81.8026C190.456 83.9666 191.972 87.0214 192.2 90.2998C194.2 120.3 192.82 155.07 193.59 165.59C194.46 177.59 177.69 181.5 168.59 181.72C142.83 182.386 117.084 181.833 91.3504 180.06C86.4204 179.73 80.7204 178.89 78.2204 174.63C76.9604 172.5 76.8104 169.92 76.6904 167.46C76.0204 153.9 73.6904 123.3 72.1304 103.46C71.9539 101.081 72.2518 98.6914 73.0068 96.429C73.7618 94.1667 74.959 92.0769 76.5286 90.2812C78.0982 88.4854 80.0091 87.0195 82.1501 85.9687C84.2912 84.9178 86.6197 84.3029 89.0004 84.1598C113.91 82.7098 157.75 80.1297 179 78.7497Z" stroke="#333333" stroke-width="7" stroke-linecap="round" stroke-linejoin="round"/>
<path d="M76.2803 159.759C92.5003 152.589 98.2803 141.159 107.85 137.979C117.42 134.799 125.55 150.699 129.36 156.639C131.89 149.729 134.53 142.639 139.36 137.129C144.19 131.619 152 127.999 159.09 129.939C163.67 131.219 167.33 134.589 170.79 137.839C177.38 144.019 185.67 151.519 193.34 156.289" stroke="#333333" stroke-width="7" stroke-linecap="round" stroke-linejoin="round"/>
<path d="M102.2 117.86C104.37 120.76 114.01 127.09 119.98 120.47C125.95 113.85 123.98 106.13 120.28 103.06C111.87 96.1598 94.6701 107.83 102.2 117.86Z" stroke="#333333" stroke-width="7" stroke-linecap="round" stroke-linejoin="round"/>
<path d="M151.87 96.4708C154.8 94.5608 160.5 93.5308 166.77 100.341C173.04 107.151 167.77 119.101 154.88 116.581C144 114.461 143.62 101.871 151.87 96.4708Z" stroke="#333333" stroke-width="7" stroke-linecap="round" stroke-linejoin="round"/>
</svg>
