<svg width="860" height="820" viewBox="0 0 860 820" fill="none" xmlns="http://www.w3.org/2000/svg">
<path d="M457.761 364.199C456.291 391.689 454.471 425.119 454.471 425.119C457.193 433.939 458.331 443.172 457.831 452.389C475.831 454.879 502.501 479.339 513.261 493.309C529.851 514.839 544.261 543.529 554.261 579.919C564.261 616.309 574.591 632.919 579.431 632.729C584.271 632.539 591.831 625.509 595.831 608.419C599.831 591.329 599.601 575.529 600.341 560.679C600.631 554.859 599.541 544.959 603.931 540.409C605.28 539.075 607.003 538.182 608.871 537.849L607.971 537.679C607.971 537.679 604.221 509.819 611.491 503.869C611.989 503.467 612.521 503.109 613.081 502.799L612.561 499.699V486.909C594.561 476.659 586.031 452.139 596.161 433.909V425.399C591.203 426.771 586.163 427.823 581.071 428.549C567.591 430.419 553.451 429.869 540.711 424.079C528.811 418.679 518.571 410.199 508.641 401.359C498.211 392.079 487.951 382.489 476.481 374.719C470.536 370.71 464.276 367.192 457.761 364.199Z" fill="#F4F6F9"/>
<path d="M242.591 435.72C242.191 435.847 241.791 435.967 241.391 436.08C243.141 445.5 244.261 454.42 244.261 454.42C257.351 453.81 265.261 469.92 252.761 489.42C265.761 491.48 272.341 507.96 275.571 524.36C283.389 506.098 295.146 489.79 310.001 476.6C317.641 469.87 326.821 465.84 335.941 461.69C346.811 456.75 366.621 452.39 366.621 452.39C375.361 441.22 377.091 426.05 379.131 411.76C380.431 402.69 380.581 393.5 381.961 384.42C382.211 382.83 382.451 380.73 382.671 378.51L382.501 378.41C382.208 378.648 381.869 378.822 381.504 378.919C381.14 379.016 380.759 379.035 380.387 378.975C380.015 378.914 379.659 378.776 379.345 378.568C379.03 378.36 378.763 378.088 378.561 377.77C376.435 373.669 374.758 369.351 373.561 364.89H373.721C368.601 363.95 363.131 361.61 361.551 356C335.881 362.93 314.391 378.2 294.231 396.48C283.341 406.36 272.661 416.59 260.921 425.27C255.221 429.55 249.291 433.56 242.591 435.72Z" fill="#F4F6F9"/>
<path d="M801.911 452.641C798.551 437.971 794.351 422.571 785.761 410.381C777.171 398.191 765.451 390.251 752.211 385.601C725.121 376.071 696.161 383.261 670.281 393.871C672.078 394.865 673.716 396.123 675.141 397.601C677.083 399.517 678.543 401.867 679.4 404.457C680.257 407.048 680.487 409.804 680.071 412.501L680.721 412.701C689.501 415.131 691.641 422.091 690.351 429.701L691.081 429.931C699.081 431.311 700.141 440.661 698.481 448.931L700.571 449.811C706.121 454.961 705.241 467.301 700.201 472.651C698.096 474.718 695.29 475.917 692.341 476.011L692.801 477.431C690.591 488.071 683.031 492.741 675.871 493.661L674.941 507.301C676.381 508.025 677.741 508.896 679.001 509.901C684.061 514.031 682.441 523.341 682.441 530.051V551.801L680.441 551.411C699.161 563.751 694.441 584.251 695.271 599.051C696.179 612.709 696.025 626.417 694.811 640.051L735.631 639.561L759.801 639.271C767.361 639.181 775.471 640.011 782.911 638.501C791.261 636.801 794.661 629.981 797.101 621.871C799.321 614.451 801.258 606.934 802.911 599.321C806.375 583.176 808.651 566.799 809.721 550.321C811.926 517.554 809.294 484.641 801.911 452.641Z" fill="#F4F6F9"/>
<path d="M163.89 616.29C161.94 602.39 155.14 589.39 154.33 575.11C153.887 564.395 154.191 553.662 155.24 542.99C156.58 527.26 158.48 513.99 167.3 500.29C169.194 497.384 171.408 494.701 173.9 492.29C173.9 492.29 160.9 448.29 165.85 445.49C164.934 445.231 164.059 444.844 163.25 444.34C155.544 447.614 148.175 451.633 141.25 456.34C117.96 472.12 99.7304 495.68 87.7204 522.45C81.6657 536.085 77.0053 550.297 73.8104 564.87C70.8104 578.51 67.8104 593.59 68.8104 607.73C69.8104 622.73 76.9304 635.54 90.7504 639.66C97.5304 641.66 104.88 641.29 111.83 641.34L136.21 641.54L160.58 641.74C162.6 632.72 165 623.92 163.89 616.29Z" fill="#F4F6F9"/>
<path d="M457.83 452.391C475.83 454.881 502.5 479.341 513.26 493.301C529.85 514.841 544.26 543.531 554.26 579.921C564.26 616.311 574.59 632.921 579.43 632.731C584.27 632.541 591.82 625.511 595.83 608.421C599.84 591.331 599.6 575.531 600.34 560.681C600.63 554.861 599.54 544.961 603.93 540.411C608.75 535.411 618.86 538.061 625.07 539.111C642.43 542.061 663.77 541.391 678.99 550.511C699.39 562.721 694.39 583.881 695.25 599.051C697.25 634.271 696.09 643.051 693.68 651.421C691.81 657.881 689.2 680.031 674.75 680.671C660.3 681.311 676.19 659.731 683.36 673.321C687.42 681.011 678.7 694.071 673.64 698.021" stroke="#333333" stroke-width="7" stroke-linecap="round" stroke-linejoin="round"/>
<path d="M160.42 672.42C152.67 654.42 166.19 632.65 163.89 616.29C161.94 602.39 155.14 589.39 154.33 575.11C153.887 564.395 154.191 553.663 155.24 542.99C156.58 527.26 158.48 513.99 167.3 500.29C175.62 487.29 189.95 480.64 202.51 472.24C214.19 464.43 231.16 455.02 244.26 454.42C257.36 453.82 265.26 469.92 252.76 489.42C277.26 493.3 278.86 548.1 278.47 557.61C278.11 566.45 277.47 590.49 267.42 594.61C258.93 598.09 259.07 591.26 259.8 584.36C261.15 571.57 265.71 558.07 268.59 545.55C274.59 519.36 289.73 494.48 310.02 476.62C317.66 469.89 326.84 465.86 335.96 461.71C346.83 456.77 366.64 452.41 366.64 452.41" stroke="#333333" stroke-width="7" stroke-linecap="round" stroke-linejoin="round"/>
<path d="M608 537.681C608 537.681 604.25 509.821 611.52 503.871C618.79 497.921 635.64 501.061 650.45 501.971C665.26 502.881 673.97 505.771 679.04 509.901C684.11 514.031 682.48 523.341 682.48 530.051V551.801" stroke="#333333" stroke-width="7" stroke-linecap="round" stroke-linejoin="round"/>
<path d="M612.56 486.911C594.22 476.451 585.66 451.101 596.81 432.781C605.67 418.231 638.66 401.831 650.09 422.591C658.71 438.271 633.71 440.101 624.71 437.031C631.77 438.361 638.71 450.121 638.71 461.141" stroke="#333333" stroke-width="7" stroke-linecap="round" stroke-linejoin="round"/>
<path d="M618.16 403.64C627.408 399.635 636.885 396.179 646.54 393.29C656.74 390.47 667.3 389.53 675.14 397.6C687.86 410.7 674.14 429.24 663.46 440.1C654.26 449.52 643.55 449.1 641.03 440.18" stroke="#333333" stroke-width="7" stroke-linecap="round" stroke-linejoin="round"/>
<path d="M596.16 431.681C596.16 400.231 596.08 369.591 604.55 339.551C606.22 333.651 609.47 313.441 623.55 320.551C631.44 324.551 626.76 348.701 626.28 356.551C625.63 367.191 625.46 389.051 625.46 399.331" stroke="#333333" stroke-width="7" stroke-linecap="round" stroke-linejoin="round"/>
<path d="M652.25 413.561C650.467 415.29 649.004 417.321 647.93 419.561" stroke="#333333" stroke-width="7" stroke-linecap="round" stroke-linejoin="round"/>
<path d="M680.72 412.701C697.22 417.271 690.27 437.821 681.18 448.781C672.09 459.741 663.12 463.001 657 460.171C652 457.861 648.13 451.881 653.31 446.491" stroke="#333333" stroke-width="7" stroke-linecap="round" stroke-linejoin="round"/>
<path d="M691.081 430C703.301 432.12 699.331 452.84 694.201 459.73C690.631 464.52 684.201 470.51 677.201 468.82C672.081 467.59 669.361 462.82 672.041 457.61" stroke="#333333" stroke-width="7" stroke-linecap="round" stroke-linejoin="round"/>
<path d="M700.57 449.801C706.12 454.951 705.24 467.291 700.2 472.641C695 478.151 682.33 477.171 685.1 467.741" stroke="#333333" stroke-width="7" stroke-linecap="round" stroke-linejoin="round"/>
<path d="M692.8 477.42C690.19 489.97 680.15 494.23 672.09 493.81" stroke="#333333" stroke-width="7" stroke-linecap="round" stroke-linejoin="round"/>
<path d="M675.86 493.811L675 506.481" stroke="#333333" stroke-width="7" stroke-linecap="round" stroke-linejoin="round"/>
<path d="M173.861 492.29C173.861 492.29 160.861 448.29 165.811 445.49C170.761 442.69 192.941 431.01 205.291 425.14C211.211 422.32 228.971 412.22 234.291 414.36C239.611 416.5 244.291 454.42 244.291 454.42" stroke="#333333" stroke-width="7" stroke-linecap="round" stroke-linejoin="round"/>
<path d="M233.76 411.841C238.51 397.921 232.34 373.291 242.06 362.751C254.53 349.231 277.76 335.131 269.87 326.571C259.92 315.761 247.32 328.271 238.26 333.081C228.34 338.351 218.76 343.881 207.47 350.581C160.33 331.361 140.54 342.001 113.83 347.781C103.72 350.001 81.0002 358.001 97.7502 367.941C111.14 375.881 132.75 377.321 140.75 391.131C145.7 399.641 149.24 411.061 151.61 420.491C153.24 426.981 156.55 442.921 165.82 445.491" stroke="#333333" stroke-width="7" stroke-linecap="round" stroke-linejoin="round"/>
<path d="M95.71 355.751C104.56 353.251 126.98 360.75 132.49 364.24" stroke="#333333" stroke-width="7" stroke-linecap="round" stroke-linejoin="round"/>
<path d="M119 347.121C128.73 348.871 139.83 354.121 147.48 357.481" stroke="#333333" stroke-width="7" stroke-linecap="round" stroke-linejoin="round"/>
<path d="M144.891 342.811C152.731 345.171 160.631 350.171 168.181 353.161" stroke="#333333" stroke-width="7" stroke-linecap="round" stroke-linejoin="round"/>
<path d="M715.81 225.72C710.47 185.77 688.45 158.32 653.81 148.42C634.75 142.98 616.18 142.561 600.12 147.191C582.12 152.391 567.74 163.51 557.34 180.25C547.023 196.734 541.353 215.699 540.93 235.14C540.55 255.42 546.25 274.51 557.41 290.33C569.14 306.97 586.41 316.681 605.99 317.691C610.66 317.931 615.37 318.101 620.1 318.101C635.1 318.101 650.22 316.391 663.57 309.851C681.84 300.851 694.34 290.061 702.9 275.761C710.62 262.801 718.09 242.85 715.81 225.72Z" fill="#FEAABC"/>
<path d="M585.48 158C585.48 158 594.93 183 598.61 193.38C602.45 204.23 615.26 233.64 615.26 233.64C615.26 233.64 659.181 242.76 670.901 245.58C682.281 248.32 694.46 250.29 704.55 253.78" stroke="#333333" stroke-width="7" stroke-linecap="round" stroke-linejoin="round"/>
<path d="M615.68 232.231C615.68 232.231 688.01 194.841 698.51 187.361" stroke="#333333" stroke-width="7" stroke-linecap="round" stroke-linejoin="round"/>
<path d="M530.569 189.51H521.939" stroke="#333333" stroke-width="7" stroke-linecap="round" stroke-linejoin="round"/>
<path d="M655.201 121.98L665.031 122.37" stroke="#333333" stroke-width="7" stroke-linecap="round" stroke-linejoin="round"/>
<path d="M732.23 217.26L742.61 216.99" stroke="#333333" stroke-width="7" stroke-linecap="round" stroke-linejoin="round"/>
<path d="M366.64 452.39C375.38 441.22 377.11 426.05 379.15 411.76C380.45 402.69 380.6 393.5 381.98 384.42C382.89 378.48 383.77 365.37 383.77 365.37C383.77 365.37 358 368 361.46 349.28C363.37 338.99 376.27 327.15 387.2 331.48C389.82 310.27 389.37 288.88 409.57 276.15C432.27 261.86 457.21 288.5 473.13 303.65C484.328 314.297 494.568 325.908 503.73 338.35C490.45 340.01 459.1 338.61 459.1 338.61C457.85 363.21 454.47 425.12 454.47 425.12C460.69 445.49 458.53 468.73 448.91 469.07C439.29 469.41 433.77 452.37 426.32 444.02C422.51 454.1 409.96 470.37 396.86 470.39C383.76 470.41 371.28 460.5 366.64 452.39Z" stroke="#333333" stroke-width="7" stroke-linecap="round" stroke-linejoin="round"/>
<path d="M378.721 418.74C394.721 436.03 432.161 433.67 451.201 423.92" stroke="#333333" stroke-width="7" stroke-linecap="round" stroke-linejoin="round"/>
<path d="M371.82 348.85C372.957 348.747 374.102 348.93 375.15 349.382C376.198 349.835 377.116 350.542 377.82 351.44" stroke="#333333" stroke-width="7" stroke-linecap="round" stroke-linejoin="round"/>
<path d="M415.24 347.58C417.71 352.02 422.82 353.02 427.32 351.03" stroke="#333333" stroke-width="7" stroke-linecap="round" stroke-linejoin="round"/>
<path d="M421 320.24V316.65" stroke="#333333" stroke-width="7" stroke-linecap="round" stroke-linejoin="round"/>
<path d="M440 317.791V313.471" stroke="#333333" stroke-width="7" stroke-linecap="round" stroke-linejoin="round"/>
<path d="M423.319 479.18C424.319 489.13 419.119 503.88 417.319 513.61C414.499 528.8 409.519 543.17 409.469 555.29C409.419 567.41 412.039 573.53 418.789 578.29C425.539 583.05 428.149 586.34 427.689 594.98C427.049 606.9 422.219 619.98 417.279 630.71C414.189 637.43 408.379 644.71 415.139 650.49C423.219 657.33 433.139 651.32 436.229 665.49C438.049 673.94 435.149 685 432.919 692.94" stroke="#333333" stroke-width="7" stroke-linecap="round" stroke-linejoin="round"/>
<path d="M460.689 538.54C473.509 538.54 484.589 537.36 496.919 539.17" stroke="#333333" stroke-width="7" stroke-linecap="round" stroke-linejoin="round"/>
<path d="M487.72 531.781L486.85 549.901" stroke="#333333" stroke-width="7" stroke-linecap="round" stroke-linejoin="round"/>
<path d="M477.36 530.051C477.36 538.051 479.01 547.631 476.5 555.051" stroke="#333333" stroke-width="7" stroke-linecap="round" stroke-linejoin="round"/>
<path d="M421.859 546.211L425.319 544.48" stroke="#333333" stroke-width="7" stroke-linecap="round" stroke-linejoin="round"/>
<path d="M438.18 603.971L441.2 603.221" stroke="#333333" stroke-width="7" stroke-linecap="round" stroke-linejoin="round"/>
<path d="M449.9 669.43L447.32 669.61" stroke="#333333" stroke-width="7" stroke-linecap="round" stroke-linejoin="round"/>
<path d="M373.601 364.891C374.798 369.352 376.475 373.67 378.601 377.771C378.814 378.106 379.099 378.391 379.436 378.603C379.773 378.815 380.152 378.95 380.547 378.998C380.942 379.046 381.343 379.005 381.721 378.879C382.098 378.754 382.443 378.546 382.731 378.271C383.331 372.271 383.791 365.371 383.791 365.371C380.387 365.649 376.963 365.488 373.601 364.891Z" fill="#333333"/>
<path d="M445.73 268.001L423.6 265.611C417.06 264.901 410.46 263.851 403.92 265.101C395.08 266.791 382.48 273.751 381.46 283.811C381.176 285.777 381.62 287.779 382.71 289.441C382.859 289.647 383.019 289.844 383.19 290.031C372.24 297.271 371.69 314.471 371 326.651C370.84 329.451 370.73 332.271 370.66 335.091C373.525 332.72 376.983 331.178 380.66 330.631C382.201 334.062 383.941 337.401 385.87 340.631C386.168 341.105 386.61 341.471 387.131 341.675C387.652 341.879 388.226 341.909 388.766 341.763C389.306 341.616 389.785 341.299 390.131 340.859C390.478 340.42 390.674 339.88 390.69 339.321C390.551 333.048 392.04 326.847 395.01 321.321C397.42 316.921 400.66 313.021 402.37 308.251C404.08 303.481 403.58 297.401 400.37 293.541C405.56 292.231 410.67 287.911 413.99 284.181C418.77 278.801 422.99 275.371 430.51 275.401C436.3 275.401 441.89 276.031 447.03 272.851C449.36 271.421 448.19 268.301 445.73 268.001Z" fill="#333333"/>
<path d="M612.561 499.7V486.91" stroke="#333333" stroke-width="7" stroke-linecap="round" stroke-linejoin="round"/>
<path d="M201 399.761C199.522 399.646 198.038 399.901 196.683 400.504C195.328 401.106 194.145 402.037 193.24 403.211" stroke="#333333" stroke-width="7" stroke-linecap="round" stroke-linejoin="round"/>
<path d="M255.53 200.7C255.48 200.06 255.44 199.36 255.39 198.61C254.69 187.52 253.53 168.95 242.6 164.22C226.1 157.08 212.72 178.41 209.01 185.12C205.59 191.31 202.77 198.61 199.8 206.35C192.49 225.35 184.93 244.94 168.2 247.82C155.54 250 151.3 241.74 145.42 228.08C141.03 217.89 136.5 207.35 125.61 204.59C111.31 200.97 90.0503 207.75 70.0303 260.59C69.8394 261.108 69.771 261.662 69.8303 262.21L79.3303 350.63C79.4217 351.49 79.8277 352.285 80.4701 352.863C81.1126 353.44 81.9462 353.76 82.8103 353.76C83.0217 353.76 83.2327 353.74 83.4403 353.7L259.44 321.46C260.28 321.308 261.036 320.854 261.564 320.184C262.093 319.513 262.358 318.673 262.31 317.82C262.28 316.88 257 221.75 255.53 200.7Z" fill="#9ED5F0"/>
<path d="M289.65 315.831C289.65 315.831 212.57 326.461 195.86 329.181C168.33 333.661 82.8004 350.271 82.8004 350.271C82.8004 350.271 67.8004 210.271 64.1604 177.891C63.1604 168.821 61.4404 146.691 61.4404 146.691" stroke="#333333" stroke-width="7" stroke-linecap="round" stroke-linejoin="round"/>
<path d="M50.7998 159.071C54.1898 154.731 61.4398 146.691 61.4398 146.691L74.8198 155.001" stroke="#333333" stroke-width="7" stroke-linecap="round" stroke-linejoin="round"/>
<path d="M282.67 306.82C285.91 309.54 289.31 311.74 292.67 314.34C290.57 318.48 287.67 322.6 286.37 326.99" stroke="#333333" stroke-width="7" stroke-linecap="round" stroke-linejoin="round"/>
<path d="M55.1403 198.99H49.5303" stroke="#333333" stroke-width="7" stroke-linecap="round" stroke-linejoin="round"/>
<path d="M65.6207 291.41H60.0107" stroke="#333333" stroke-width="7" stroke-linecap="round" stroke-linejoin="round"/>
<path d="M60.7406 241.18H55.1406" stroke="#333333" stroke-width="7" stroke-linecap="round" stroke-linejoin="round"/>
<path d="M69.4205 332.811H63.8105" stroke="#333333" stroke-width="7" stroke-linecap="round" stroke-linejoin="round"/>
</svg>
