<svg width="820" height="820" viewBox="0 0 820 820" fill="none" xmlns="http://www.w3.org/2000/svg">
<path d="M195.001 345.36C206.001 351.5 215.001 358.05 216.921 370.73C228.771 370.42 241.921 370.3 253.421 370.45C261.91 370.56 270.481 370.63 278.921 371.56C280.711 371.75 286.071 371.56 287.421 372.88C288.571 374.02 288.791 376.05 288.561 378.37H288.821C312.921 378.37 355.141 380.59 360.561 380.52C365.98 380.45 376.561 362.96 386.701 357.22C396.841 351.48 411.35 350.99 421.12 354.09C424.683 355.252 428.053 356.937 431.12 359.09L431.33 358.92C448.99 349.59 471.431 351.4 495.541 369.51C505.431 369.61 525.79 369.84 531.54 369.78C545.86 369.63 613.891 366.16 632.841 365.18L632.91 364.38C635.64 351.63 641.44 342.15 654.6 337.53C659.31 335.87 667.07 334.64 670.81 339.43C673.13 342.43 673.03 350.15 673.88 352.59C674 352.12 674.15 351.66 674.29 351.2C672.29 340.78 670.29 333.75 668.62 332.35C668.551 331.886 668.434 331.43 668.271 330.99C634.001 241.75 528.591 177.69 432.821 172.22C330.441 166.38 227.511 226.22 193.171 324.87C191.271 330.32 189.471 335.87 187.771 341.51C190.151 342.69 192.551 344 195.001 345.36Z" fill="#F4F6F9"/>
<path d="M667.181 484.419C655.111 480.849 645.311 470.899 645.311 459.279L643.591 456.689C642.609 457.394 641.518 457.931 640.361 458.279C635.931 459.649 613.881 460.219 607.451 459.819C596.801 459.149 586.021 460.329 575.261 459.739C575.631 458.879 575.961 457.999 576.261 457.119H575.691C568.881 457.759 556.021 458.339 549.191 458.759L546.681 458.879C546.555 459.772 546.378 460.657 546.151 461.529C544.331 468.499 534.001 481.999 525.681 477.999L525.731 477.539C524.85 479.808 523.673 481.95 522.231 483.909C520.051 486.839 512.781 493.549 505.331 491.579C502.111 497.869 488.111 508.239 475.781 503.579C469.781 508.909 459.031 525.989 441.521 511.679C441.521 511.679 430.331 514.469 427.451 514.289C421.191 513.879 413.221 512.629 410.211 506.289C394.491 511.289 375.531 513.859 369.211 495.979V495.929C361.281 498.759 352.271 498.669 344.941 494.929C342.361 493.599 336.091 489.989 335.821 486.529C325.821 487.369 292.521 486.409 280.061 486.309C280.601 488.469 281.061 490.569 280.681 491.069C278.401 494.499 261.401 491.989 257.331 491.759C243.531 490.989 229.711 491.109 215.881 491.149L215.511 491.699C215.621 500.119 210.791 509.189 204.511 516.329C225.511 552.849 251.211 581.619 279.191 600.809C316.001 625.999 363.471 648.169 433.001 648.169C502.531 648.169 579.381 616.999 618.571 579.069C655.101 543.669 670.661 510.359 677.221 486.519C673.818 486.124 670.457 485.421 667.181 484.419Z" fill="#F4F6F9"/>
<path d="M288.841 378.39C312.941 378.39 355.161 380.61 360.581 380.54C366.001 380.47 376.581 362.98 386.721 357.24C396.861 351.5 411.371 351.01 421.141 354.11C434.771 358.42 442.911 370.04 452.051 380.11C460.111 388.99 467.561 398.61 474.701 408.17C479.941 415.17 485.921 426.03 482.441 434.47C478.671 443.64 463.951 443.64 453.331 436.63C442.629 429.477 432.846 421.037 424.201 411.5C420.721 418.45 406.881 426.14 399.931 428.5C392.981 430.86 380.221 431.04 372.931 428.5" stroke="#333333" stroke-width="7" stroke-linecap="round" stroke-linejoin="round"/>
<path d="M326.051 436.629C326.21 439.013 325.842 441.404 324.971 443.629" stroke="#333333" stroke-width="7" stroke-linecap="round" stroke-linejoin="round"/>
<path d="M280.21 486.24C290.84 486.24 325.27 487.36 335.81 486.47" stroke="#333333" stroke-width="7" stroke-linecap="round" stroke-linejoin="round"/>
<path d="M398.3 429C390.91 437.85 382.46 445.38 373.78 453.22C363.86 462.17 353.65 468.65 343.29 477.32C340.7 479.49 335.55 483.2 335.81 486.44C336.08 489.9 342.35 493.51 344.93 494.84C354.08 499.54 365.86 498.54 374.86 493.24C383.05 488.41 415.11 460.92 415.11 460.92" stroke="#333333" stroke-width="7" stroke-linecap="round" stroke-linejoin="round"/>
<path d="M369.2 496C375.53 513.88 394.49 511.31 410.2 506.31C413.2 512.68 421.2 513.93 427.44 514.31C431.75 514.59 445.25 511.11 449 508.91" stroke="#333333" stroke-width="7" stroke-linecap="round" stroke-linejoin="round"/>
<path d="M449.55 510C454 500.16 452.65 490 455.36 479.68C456.7 474.6 458.36 470.22 464.65 471.68C468.59 472.62 472.41 476.38 473.65 480.43C475.24 485.43 474.86 502.5 474.86 502.5C476.95 491.64 473.93 474.17 477.96 462.5C479.62 457.67 481.22 452.42 486.71 452.37C492.66 452.37 497.49 458.46 499.6 463.32C502.35 469.64 502.9 481.54 502.9 481.54C502.9 481.54 499.15 460.7 502.09 448.7C503.09 444.52 505.04 439.06 509.09 437.7C515.52 435.51 522.78 440.89 525.19 446.32C530.07 457.32 529.63 474 522.19 483.93C520.01 486.86 512.74 493.57 505.29 491.6C502.07 497.89 488.07 508.26 475.74 503.6C469.74 508.93 458.99 526.01 441.48 511.7" stroke="#333333" stroke-width="7" stroke-linecap="round" stroke-linejoin="round"/>
<path d="M410.21 506.26C417.27 503.42 442.09 482.08 446.31 478.58" stroke="#333333" stroke-width="7" stroke-linecap="round" stroke-linejoin="round"/>
<path d="M431.351 358.899C449.011 349.569 471.451 351.379 495.561 369.489C505.451 369.589 525.811 369.819 531.561 369.759C548.241 369.589 637.781 364.899 637.781 364.899" stroke="#333333" stroke-width="7" stroke-linecap="round" stroke-linejoin="round"/>
<path d="M549.24 458.759C556.07 458.339 568.93 457.759 575.74 457.119" stroke="#333333" stroke-width="7" stroke-linecap="round" stroke-linejoin="round"/>
<path d="M583.911 368.059C584.841 375.439 586.151 382.409 586.531 389.919C587.071 400.319 586.121 410.759 584.911 421.019C583.351 434.259 580.361 447.889 575.261 459.739C586.021 460.329 596.801 459.149 607.451 459.819C613.881 460.219 635.931 459.649 640.361 458.279C647.721 455.989 647.991 449.189 649.011 442.479C651.09 427.711 651.292 412.739 649.611 397.919C648.251 386.969 645.851 377.789 638.031 365.439" stroke="#333333" stroke-width="7" stroke-linecap="round" stroke-linejoin="round"/>
<path d="M625.091 447.68L630.211 447.41" stroke="#333333" stroke-width="7" stroke-linecap="round" stroke-linejoin="round"/>
<path d="M645.311 459.279C645.311 470.899 655.111 480.849 667.181 484.419C673.901 486.419 682.441 487.959 688.961 485.339C696.361 482.339 699.081 475.139 702.491 468.649C705.491 475.839 708.691 481.789 717.141 483.989C724.141 485.819 734.031 484.329 732.061 473.839" stroke="#333333" stroke-width="7" stroke-linecap="round" stroke-linejoin="round"/>
<path d="M632.91 364.36C635.64 351.61 641.44 342.13 654.6 337.51C659.31 335.85 667.08 334.62 670.81 339.41C673.13 342.41 673.03 350.13 673.88 352.57C677.37 339.57 687.12 327.41 699.99 322.08C709.6 318.08 717.05 321.53 720.27 330.93" stroke="#333333" stroke-width="7" stroke-linecap="round" stroke-linejoin="round"/>
<path d="M217 370.841C229.82 370.451 240.66 370.281 253.48 370.451C261.97 370.561 270.54 370.631 278.98 371.561C280.77 371.751 286.13 371.561 287.48 372.881C290.84 376.201 286.36 386.931 285.48 391.111C282.24 406.521 279.32 422.551 277.65 438.191C275.984 452.417 276.321 466.807 278.65 480.941C278.79 481.791 281.43 489.941 280.71 491.011C278.43 494.441 261.43 491.931 257.36 491.701C241.64 490.821 225.89 491.101 210.15 491.101" stroke="#333333" stroke-width="7" stroke-linecap="round" stroke-linejoin="round"/>
<path d="M87.6904 334.79C103.15 330.79 118.57 331.46 134.61 331.47C145.96 331.436 157.284 332.522 168.42 334.71C178.42 336.71 186.18 340.41 195.02 345.36C206.16 351.59 215.32 358.23 217.02 371.27C207.39 380 205.56 413.19 205.56 437.19C205.56 461.19 205.77 475.9 208.47 490.02" stroke="#333333" stroke-width="7" stroke-linecap="round" stroke-linejoin="round"/>
<path d="M215.5 491.641C215.65 503.591 205.87 516.871 196.19 524.051C176.83 538.411 156.57 533.401 136.33 525.151C132.95 530.611 126.54 534.301 120.33 536.641C110.33 540.441 97.9502 541.121 87.7002 540.711" stroke="#333333" stroke-width="7" stroke-linecap="round" stroke-linejoin="round"/>
<path d="M338.76 567.529L329.46 577.069" stroke="#333333" stroke-width="7" stroke-linecap="round" stroke-linejoin="round"/>
<path d="M476.99 585.68L480.86 597.66" stroke="#333333" stroke-width="7" stroke-linecap="round" stroke-linejoin="round"/>
<path d="M533.301 564.09L540.771 570.66" stroke="#333333" stroke-width="7" stroke-linecap="round" stroke-linejoin="round"/>
<path d="M337.72 293.321L326.74 283.391" stroke="#333333" stroke-width="7" stroke-linecap="round" stroke-linejoin="round"/>
<path d="M430.21 257.95L432.03 248.18" stroke="#333333" stroke-width="7" stroke-linecap="round" stroke-linejoin="round"/>
<path d="M461.7 255.79L467.48 243.18" stroke="#333333" stroke-width="7" stroke-linecap="round" stroke-linejoin="round"/>
<path d="M525.551 301.769L536.881 296.379" stroke="#333333" stroke-width="7" stroke-linecap="round" stroke-linejoin="round"/>
<path d="M529.001 449.34C540.761 443.64 549.451 449.34 546.191 461.53C544.331 468.5 534.001 482 525.681 478" stroke="#333333" stroke-width="7" stroke-linecap="round" stroke-linejoin="round"/>
</svg>
