<svg width="820" height="820" viewBox="0 0 820 820" fill="none" xmlns="http://www.w3.org/2000/svg">
<path d="M228.69 506.649C233.151 503.674 238.524 502.38 243.85 502.999C245.672 503.231 247.476 503.585 249.25 504.059C249.25 504.059 281.68 473.059 300.14 459.889C307.24 454.819 314.05 452.529 320.74 452.499C329.52 445.069 342.95 430.399 350.97 421.389V420.309C347.16 402.549 339.3 385.479 331.16 369.309C326.85 360.709 310.53 335.009 329.87 335.079C337.08 335.079 347.2 345.339 353.12 354.639C346.39 337.919 341.73 322.729 334.75 305.899C331.41 297.849 319.94 264.169 341.02 264.679H344.02C343.26 260.039 344.39 255.879 350.24 253.509C361.83 248.819 367 260.399 371.56 266.679L371.62 266.749C372.74 251.599 392.03 258.409 397.5 275.639L397.58 276.009C399.43 275.279 401.85 275.379 404.92 276.829C404.4 274.459 400.92 268.089 400.04 264.169C398.04 255.379 399.71 244.319 410.5 247.319C430.5 252.889 439.88 293.099 443.8 309.319C440.5 287.019 438.8 280.489 434.14 266.369C431.46 258.239 421.51 244.429 425.83 235.689C430.83 225.559 445.29 232.689 450.33 238.439C467.33 257.659 468.48 287.439 472.83 311.289C472.692 296.353 471.469 281.447 469.17 266.689C466.91 251.969 461.43 233.819 468.31 227.389C480.5 215.999 489.83 233.999 492.47 244.109C500.41 274.519 500.17 310.999 496.84 342.879C500.43 337.149 504.21 331.599 508.23 326.339C515.05 317.419 527.41 295.339 542.23 300.279C556.49 305.029 542.23 327.439 538.37 336.469C531.67 352.089 526.43 368.229 519.72 383.759C516.43 391.399 507.18 406.389 504.81 417.319C504.81 417.319 528.47 449.019 540.28 463.319L540.72 463.439C541.37 462.159 541.94 460.919 542.4 459.749C560.4 474.459 573.14 490.099 588.85 505.339C591.39 507.809 593.39 509.549 594.85 511.149C595.54 510.299 596.22 509.439 596.85 508.579C625.85 471.259 638.68 425.099 640.55 379.369C641.392 355.094 639.686 330.798 635.46 306.879C631.83 285.639 625.83 264.729 615.89 245.299C605.628 225.263 590.559 208.083 572.03 195.299C553.29 182.299 531.08 173.859 508.71 168.199C461.78 156.319 408.53 152.009 361.71 166.559C317.41 180.319 282.9 211.249 257.11 247.019C207.82 315.359 184.17 409.349 219.11 487.959C221.953 494.362 225.152 500.602 228.69 506.649Z" fill="#F4F6F9"/>
<path d="M496.501 567.328C485.171 554.738 472.001 538.998 462.611 524.588C463.791 524.228 464.961 523.848 466.121 523.458C460.461 516.828 429.351 479.898 427.811 468.838C425.931 470.838 424.011 472.708 422.211 474.638C406.111 491.858 394.561 507.008 379.851 525.468L378.441 526.298C377.371 539.038 368.371 547.628 359.191 558.298C350.264 568.364 340.803 577.945 330.851 586.998C355.561 591.378 380.851 591.158 405.851 588.998C430.851 586.838 456.101 583.758 480.591 578.358C487.741 576.778 494.871 574.948 501.911 572.818C499.761 570.798 497.901 568.878 496.501 567.328Z" fill="#F4F6F9"/>
<path d="M102.5 587.189C105.5 573.939 120.76 558.709 131.68 550.469C136.12 547.109 143.51 541.219 149.37 543.869C156.43 547.049 155.93 560.579 161.37 565.589C162.99 550.229 175.78 528.849 187.07 518.589C194.54 511.809 203.65 513.379 211.45 519.529C222.2 512.969 229.58 501.299 243.8 503.009C255.9 504.469 268.27 512.139 277.26 520.149C290.59 532.019 301.76 542.719 309.43 559.029C314.91 570.689 316.15 583.219 318.92 596.249C322.64 613.719 315.29 624.009 296.65 623.879C296.52 630.439 291.34 639.489 287.65 644.879C281.83 653.349 275.46 652.779 268.39 657.939C263.45 661.549 260.78 667.789 257.13 672.499C251.46 679.809 245.07 686.229 240.33 694.079" stroke="#333333" stroke-width="7" stroke-linecap="round" stroke-linejoin="round"/>
<path d="M283.5 611.12C284.412 609.314 285.689 607.717 287.25 606.43" stroke="#333333" stroke-width="7" stroke-linecap="round" stroke-linejoin="round"/>
<path d="M249.24 504.06C249.24 504.06 281.67 473.06 300.13 459.89C317.62 447.4 333.32 451.75 350 465.31C366.12 478.42 375.19 498.4 378.17 518.8C380.68 535.94 370.07 545.67 359.17 558.31C350.83 568 327.81 591.31 318.95 596.31" stroke="#333333" stroke-width="7" stroke-linecap="round" stroke-linejoin="round"/>
<path d="M143.17 360C151.17 379.33 151.73 387.72 136.32 399.61C151.32 385.55 162.93 390.54 173.5 405C164.55 393.23 163.38 390.29 164.83 382C165.62 377.52 172.9 369.8 177.15 366.8C168.88 372.49 153.17 380.33 143.17 360Z" stroke="#333333" stroke-width="7" stroke-linecap="round" stroke-linejoin="round"/>
<path d="M320.73 452.5C333.94 441.33 357.68 413.74 357.68 413.74" stroke="#333333" stroke-width="7" stroke-linecap="round" stroke-linejoin="round"/>
<path d="M379.85 525.469C394.56 507.009 406.11 491.859 422.21 474.639C427.92 468.529 434.81 462.449 438.21 455.329C441.99 447.329 442.41 432.019 442.41 423.129C442.41 388.329 439.19 350.049 426.96 317.129C423.49 307.809 414.71 281.369 404.96 276.779C395.45 272.299 392.11 280.629 393.21 287.289C396.21 305.349 400.66 323.739 402.55 339.649" stroke="#333333" stroke-width="7" stroke-linecap="round" stroke-linejoin="round"/>
<path d="M241.25 247.81L216.88 245" stroke="#333333" stroke-width="7" stroke-linecap="round" stroke-linejoin="round"/>
<path d="M266.79 193.439L252.5 184.059" stroke="#333333" stroke-width="7" stroke-linecap="round" stroke-linejoin="round"/>
<path d="M397.5 275.629C391.17 255.629 366.26 249.629 372.56 275.629C374.85 285.059 375.5 298.379 377.85 307.999C380.02 316.859 382.85 333.059 382.85 333.059" stroke="#333333" stroke-width="7" stroke-linecap="round" stroke-linejoin="round"/>
<path d="M409.06 466.249C411.88 466.589 416.83 463.439 416.83 463.439" stroke="#333333" stroke-width="7" stroke-linecap="round" stroke-linejoin="round"/>
<path d="M371.56 266.67C367 260.39 361.83 248.81 350.24 253.5C339.59 257.81 344.57 268.05 348.17 276.33C355.11 292.33 364.83 330.67 364.83 330.67" stroke="#333333" stroke-width="7" stroke-linecap="round" stroke-linejoin="round"/>
<path d="M458.75 463.44C461.2 460.95 464.33 459.85 467.19 460.63" stroke="#333333" stroke-width="7" stroke-linecap="round" stroke-linejoin="round"/>
<path d="M341 264.67C319.92 264.16 331.39 297.84 334.73 305.89C341.73 322.72 346.37 337.89 353.1 354.63C355.01 359.37 359.34 370.73 359.34 370.73" stroke="#333333" stroke-width="7" stroke-linecap="round" stroke-linejoin="round"/>
<path d="M489.63 354.999C495.161 345.021 501.375 335.438 508.23 326.319C515.05 317.399 527.41 295.319 542.23 300.259C556.49 305.009 542.23 327.419 538.37 336.449C531.67 352.069 526.43 368.209 519.72 383.739C515.5 393.519 501.51 415.379 504.72 425.299" stroke="#333333" stroke-width="7" stroke-linecap="round" stroke-linejoin="round"/>
<path d="M350.94 420.31C347.13 402.55 339.27 385.48 331.13 369.31C326.82 360.71 310.5 335.01 329.84 335.08C337.05 335.08 347.17 345.34 353.09 354.64" stroke="#333333" stroke-width="7" stroke-linecap="round" stroke-linejoin="round"/>
<path d="M496.84 342.879C500.17 310.999 500.41 274.519 492.47 244.109C489.83 233.999 480.47 215.999 468.31 227.369C461.43 233.799 466.91 251.949 469.17 266.669C471.469 281.428 472.692 296.333 472.83 311.269C468.48 287.399 467.32 257.639 450.33 238.419C445.33 232.699 430.83 225.539 425.83 235.669C421.51 244.409 431.46 258.219 434.14 266.349C438.8 280.469 440.5 286.999 443.8 309.299C439.88 293.089 430.54 252.879 410.5 247.299C399.71 244.299 398.05 255.359 400.04 264.149C400.92 268.069 404.4 274.439 404.92 276.809" stroke="#333333" stroke-width="7" stroke-linecap="round" stroke-linejoin="round"/>
<path d="M504.77 417.33C504.77 417.33 528.54 449.16 540.31 463.44" stroke="#333333" stroke-width="7" stroke-linecap="round" stroke-linejoin="round"/>
<path d="M427.81 468.83C429.5 481 466 523.49 466 523.49" stroke="#333333" stroke-width="7" stroke-linecap="round" stroke-linejoin="round"/>
<path d="M506.06 502.24C492.44 511.66 478.06 519.95 462.61 524.59C472 539 485.17 554.74 496.5 567.33C501.5 572.85 512.24 583.01 519.69 584.39C528.13 585.97 539.42 579.83 545.83 575.33C560.05 565.33 569.63 556.48 582.17 544.33C587.42 539.24 594.79 529.53 596.72 522.33C599.07 513.62 596.11 512.43 588.81 505.33C573.1 490.09 560.35 474.45 542.36 459.74C537.5 472 522.16 491.1 506.06 502.24Z" stroke="#333333" stroke-width="7" stroke-linecap="round" stroke-linejoin="round"/>
<path d="M519.69 584.389C516.83 594.689 519.159 604.159 522.539 611.329C526.269 619.249 536.539 623.609 539.289 631.719C541.739 638.989 539.68 646.719 544.94 653.489C548.45 657.999 566.6 669.229 572.19 669.689" stroke="#333333" stroke-width="7" stroke-linecap="round" stroke-linejoin="round"/>
<path d="M597.5 517C631.83 520.67 656.72 552.14 674.84 578.63C674.6 569.04 684.03 565.75 691.38 566.37C707.17 567.71 708.83 581.74 717.5 591.69" stroke="#333333" stroke-width="7" stroke-linecap="round" stroke-linejoin="round"/>
<path d="M667.81 370.629C666.59 377.799 659.31 390.299 653.81 395.459C647.19 401.639 634.63 401.879 625.94 402.459C653.45 402.459 647.86 418.769 646.28 439.679C649.51 423.089 650.68 417.469 655.61 411.809C662.07 404.399 671.22 406.519 678.76 403.349C668.37 403.519 661.7 404.939 661.28 393.549C660.94 385.329 665.21 378.589 667.81 370.629Z" stroke="#333333" stroke-width="7" stroke-linecap="round" stroke-linejoin="round"/>
<path d="M610.42 225.539L626.56 213.119" stroke="#333333" stroke-width="7" stroke-linecap="round" stroke-linejoin="round"/>
<path d="M599.38 193.439L612.5 178.439" stroke="#333333" stroke-width="7" stroke-linecap="round" stroke-linejoin="round"/>
<path d="M454.06 139.059L457.81 125.939" stroke="#333333" stroke-width="7" stroke-linecap="round" stroke-linejoin="round"/>
<path d="M369.69 159L364.06 143" stroke="#333333" stroke-width="7" stroke-linecap="round" stroke-linejoin="round"/>
</svg>
