<svg width="250" height="250" viewBox="0 0 250 250" fill="none" xmlns="http://www.w3.org/2000/svg">
<path d="M180.45 109.771L127.2 57.7705C126.61 57.1987 125.821 56.8789 125 56.8789C124.178 56.8789 123.389 57.1987 122.8 57.7705L69.5498 109.771C69.2394 110.06 68.9908 110.41 68.8189 110.798C68.6471 111.187 68.5555 111.606 68.5498 112.031V189.931C68.5498 190.766 68.8817 191.567 69.4724 192.158C70.0632 192.749 70.8644 193.081 71.6998 193.081H107.7V132.081H142.14V193.081H178.14C178.975 193.081 179.776 192.749 180.367 192.158C180.958 191.567 181.29 190.766 181.29 189.931V112.001C181.313 111.176 181.011 110.375 180.45 109.771Z" fill="#02ABF8"/>
<path d="M171.33 100.87V68.9997C171.33 68.1642 170.998 67.363 170.407 66.7723C169.817 66.1815 169.016 65.8497 168.18 65.8497H153C152.585 65.847 152.173 65.9266 151.788 66.0837C151.404 66.2408 151.054 66.4724 150.76 66.7652C150.465 67.058 150.231 67.4061 150.072 67.7896C149.912 68.1731 149.83 68.5843 149.83 68.9997V79.8897L171.33 100.87Z" fill="#333333"/>
</svg>
