<svg width="250" height="250" viewBox="0 0 250 250" fill="none" xmlns="http://www.w3.org/2000/svg">
<path d="M113.54 155.22C113.05 145.22 112.22 135.29 110.94 125.44C109.852 116.215 107.598 107.166 104.23 98.5095C101.95 92.9295 92.8699 90.1295 93.6499 98.7295C94.0699 103.37 97.6499 105.49 102.3 105.8C110.41 106.35 116.07 98.1095 119.09 92.5195C119.56 96.8695 116.82 105.33 124.55 104.9C129.33 104.63 139.35 92.5995 130.91 93.8995C126.24 94.6495 125.65 102.32 128.7 105.61C135.79 113.27 152.27 109.28 154.46 99.4395C145.46 91.0795 136.13 118.15 135.31 123.08C133.67 133.08 133.36 143.75 132.7 153.83" stroke="#333333" stroke-width="7" stroke-linecap="round" stroke-linejoin="round"/>
<path d="M140.45 168C140.45 168 150.28 153.46 153.51 148.23C157.37 142 161.51 135.77 164.41 129.23C169.41 118.04 172.35 104.89 170.41 93.0805C168.61 81.9605 160.19 71.7305 143.7 67.5605C115.77 60.5005 83.2603 72.0105 76.9203 91.8305C73.3403 103.03 77.0603 113.62 82.4003 124.35C90.0403 139.7 96.0503 153.69 107.26 167.99" stroke="#333333" stroke-width="7" stroke-linecap="round" stroke-linejoin="round"/>
<path d="M104.55 175.311H143.18" stroke="#333333" stroke-width="7" stroke-linecap="round" stroke-linejoin="round"/>
<path d="M106.83 183.49C116.91 182.58 129.33 183.49 139.77 183.49" stroke="#333333" stroke-width="7" stroke-linecap="round" stroke-linejoin="round"/>
<path d="M109.101 191.67H138.631" stroke="#333333" stroke-width="7" stroke-linecap="round" stroke-linejoin="round"/>
<path d="M41.8597 174.189C39.0697 175.189 35.5297 176.299 33.2197 178.279" stroke="#333333" stroke-width="7" stroke-linecap="round" stroke-linejoin="round"/>
<path d="M29.1302 112.849C26.6502 112.429 23.9002 112.729 21.4102 111.939" stroke="#333333" stroke-width="7" stroke-linecap="round" stroke-linejoin="round"/>
<path d="M36.0006 65.5999C33.8806 64.5399 31.7806 63.4399 29.6406 62.4199" stroke="#333333" stroke-width="7" stroke-linecap="round" stroke-linejoin="round"/>
<path d="M212.23 63.7801C214.23 61.1601 218.23 60.2601 220.87 58.3301" stroke="#333333" stroke-width="7" stroke-linecap="round" stroke-linejoin="round"/>
<path d="M220.87 101.49H228.59" stroke="#333333" stroke-width="7" stroke-linecap="round" stroke-linejoin="round"/>
<path d="M206.33 166C208.83 167.67 211.67 168.67 214.05 170.09" stroke="#333333" stroke-width="7" stroke-linecap="round" stroke-linejoin="round"/>
</svg>
