<svg width="250" height="250" viewBox="0 0 250 250" fill="none" xmlns="http://www.w3.org/2000/svg">
<path d="M206.79 75.6697C196.27 55.3297 174.34 41.6697 149.66 37.4397C121.94 32.6697 93.8303 39.5197 69.6603 51.5597C68.8921 51.9106 68.2574 52.4997 67.8503 53.2397C51.4403 61.9997 40.1903 75.6897 35.0003 92.5397C23.3103 130.16 24.6603 184.76 71.3103 203.91C83.0703 208.74 96.1603 210.36 108.87 212.03C121.34 213.66 133.99 214.85 146.57 213.51C167.87 211.24 185.25 200.9 196.64 185.06C207.53 169.89 212.55 151.88 214.76 134.22C217.17 114.6 216.2 93.8897 206.79 75.6697Z" fill="#FFE945" stroke="#FFE945" stroke-width="7" stroke-linecap="round" stroke-linejoin="round"/>
<path d="M113.54 174.37C113.05 164.37 112.22 154.44 110.94 144.59C109.851 135.362 107.597 126.31 104.23 117.65C101.95 112.08 92.8699 109.28 93.6499 117.87C94.0699 122.51 97.6499 124.64 102.3 124.95C110.41 125.5 116.07 117.26 119.09 111.67C119.56 116.02 116.82 124.48 124.55 124.05C129.33 123.78 139.35 111.75 130.91 113.05C126.24 113.8 125.65 121.47 128.7 124.76C135.79 132.41 152.27 128.43 154.46 118.59C145.46 110.23 136.13 137.3 135.31 142.23C133.67 152.23 133.36 162.9 132.7 172.98" stroke="#333333" stroke-width="7" stroke-linecap="round" stroke-linejoin="round"/>
<path d="M140.45 187.19C140.45 187.19 150.28 172.65 153.51 167.42C157.37 161.18 161.51 154.96 164.41 148.42C169.41 137.22 172.35 124.08 170.41 112.26C168.61 101.15 160.19 90.9201 143.7 86.7501C115.79 79.7001 83.2799 91.2001 76.9399 111C73.3599 122.2 77.0799 132.78 82.4199 143.51C90.0599 158.87 96.0699 172.85 107.28 187.16" stroke="#333333" stroke-width="7" stroke-linecap="round" stroke-linejoin="round"/>
<path d="M104.55 194.459H143.18" stroke="#333333" stroke-width="7" stroke-linecap="round" stroke-linejoin="round"/>
<path d="M106.83 202.639C116.91 201.729 129.33 202.639 139.77 202.639" stroke="#333333" stroke-width="7" stroke-linecap="round" stroke-linejoin="round"/>
<path d="M109.101 210.811H138.631" stroke="#333333" stroke-width="7" stroke-linecap="round" stroke-linejoin="round"/>
<path d="M41.8597 193.34C39.0697 194.34 35.5297 195.45 33.2197 197.43" stroke="#333333" stroke-width="7" stroke-linecap="round" stroke-linejoin="round"/>
<path d="M29.1302 132C26.6502 131.58 23.9002 131.88 21.4102 131.09" stroke="#333333" stroke-width="7" stroke-linecap="round" stroke-linejoin="round"/>
<path d="M36.0006 84.7503C33.8806 83.6903 31.7806 82.5903 29.6406 81.5703" stroke="#333333" stroke-width="7" stroke-linecap="round" stroke-linejoin="round"/>
<path d="M212.23 82.9305C214.23 80.3005 218.23 79.4105 220.87 77.4805" stroke="#333333" stroke-width="7" stroke-linecap="round" stroke-linejoin="round"/>
<path d="M220.87 120.641H228.59" stroke="#333333" stroke-width="7" stroke-linecap="round" stroke-linejoin="round"/>
<path d="M206.33 185.16C208.83 186.83 211.67 187.83 214.05 189.25" stroke="#333333" stroke-width="7" stroke-linecap="round" stroke-linejoin="round"/>
</svg>
