<svg width="250" height="250" viewBox="0 0 250 250" fill="none" xmlns="http://www.w3.org/2000/svg">
<path d="M172.29 176.27C175.58 176.373 178.778 175.168 181.182 172.919C183.586 170.67 185.002 167.56 185.12 164.27C186.06 134.19 183.46 99.5202 183.85 88.9802C184.3 76.9802 167.4 73.6502 158.32 73.7502C132.56 74.0169 106.85 75.4769 81.1896 78.1302C76.2696 78.6402 70.6096 79.6802 68.2596 84.0202C67.0796 86.1802 66.9996 88.7602 66.9996 91.2302C66.8096 104.8 65.5596 135.47 64.6996 155.32C64.6088 157.701 64.9914 160.076 65.8253 162.307C66.6592 164.539 67.9278 166.582 69.5575 168.32C71.1872 170.058 73.1456 171.454 75.3191 172.429C77.4927 173.405 79.8382 173.938 82.2196 174C107.14 174.61 151.05 175.63 172.29 176.27Z" fill="#02ABF8" stroke="#02ABF8" stroke-width="7" stroke-linecap="round" stroke-linejoin="round"/>
<path d="M149 98.8208C140.93 96.4208 137 105.331 139 111.361C141 117.391 149.59 119.911 154.43 115.831C159.27 111.751 157 101.221 149 98.8208Z" fill="#FFE945" stroke="#FFE945" stroke-width="7" stroke-linecap="round" stroke-linejoin="round"/>
<path d="M116.65 121.771C112.36 116.881 106.65 111.511 100.32 113.041C97.5898 113.701 95.3198 115.581 93.2198 117.401L65.2898 141.251C65.0798 146.251 64.8798 151.041 64.6898 155.321C64.599 157.702 64.982 160.078 65.8165 162.31C66.651 164.542 67.9205 166.586 69.5512 168.324C71.182 170.062 73.1415 171.459 75.3162 172.433C77.491 173.407 79.8375 173.94 82.2198 174.001C104.07 174.501 140.49 175.351 163.46 176.001C147.993 157.814 132.39 139.738 116.65 121.771Z" fill="#9ED5F0" stroke="#9ED5F0" stroke-width="7" stroke-linecap="round" stroke-linejoin="round"/>
</svg>
