<svg width="250" height="250" viewBox="0 0 250 250" fill="none" xmlns="http://www.w3.org/2000/svg">
<path d="M172.29 176.27C175.58 176.373 178.778 175.168 181.182 172.919C183.586 170.67 185.002 167.56 185.12 164.27C186.06 134.19 183.46 99.5202 183.85 88.9802C184.3 76.9802 167.4 73.6502 158.32 73.7502C132.56 74.0169 106.85 75.4769 81.1896 78.1302C76.2696 78.6402 70.6096 79.6802 68.2596 84.0202C67.0796 86.1802 66.9996 88.7602 66.9996 91.2302C66.8096 104.8 65.5596 135.47 64.6996 155.32C64.6088 157.701 64.9914 160.076 65.8253 162.307C66.6592 164.539 67.9278 166.582 69.5575 168.32C71.1872 170.058 73.1456 171.454 75.3191 172.429C77.4927 173.405 79.8382 173.938 82.2196 174C107.14 174.61 151.05 175.63 172.29 176.27Z" stroke="#333333" stroke-width="7" stroke-linecap="round" stroke-linejoin="round"/>
<path d="M65.1494 141.771C74.6694 133.651 83.6994 125.531 93.2194 117.401C95.3494 115.581 97.5894 113.701 100.319 113.041C106.649 111.511 112.319 116.881 116.649 121.771C132.436 139.771 148.083 157.901 163.589 176.161" stroke="#333333" stroke-width="7" stroke-linecap="round" stroke-linejoin="round"/>
<path d="M148.999 98.8208C140.929 96.4208 136.999 105.331 138.999 111.361C140.999 117.391 149.589 119.911 154.429 115.831C159.269 111.751 156.999 101.221 148.999 98.8208Z" stroke="#333333" stroke-width="7" stroke-linecap="round" stroke-linejoin="round"/>
</svg>
