<svg width="250" height="250" viewBox="0 0 250 250" fill="none" xmlns="http://www.w3.org/2000/svg">
<path d="M119.719 58.08C114.029 59.65 108.399 66.23 108.579 72.08C108.768 75.0335 109.852 77.8594 111.687 80.1817C113.521 82.504 116.02 84.2126 118.849 85.08C121.707 85.8538 124.721 85.8453 127.574 85.0554C130.427 84.2655 133.016 82.7232 135.069 80.59C139.639 75.86 141.069 68 137.479 62.48C133.889 56.96 125.409 56.51 119.719 58.08Z" stroke="#333333" stroke-width="7" stroke-linecap="round" stroke-linejoin="round"/>
<path d="M164 87.7599C171 73.0999 167 55.5899 155.69 44.7599C149.71 38.7996 142.088 34.7574 133.8 33.1499C122.89 31.0899 114.19 33.7999 104.72 38.9399C88.2298 47.8699 79.2598 61.8599 83.5198 81.3399C86.9198 96.8999 99.2298 107.52 113.68 111.34C113.78 121.44 113.88 131.34 113.97 141.21C114.19 162.67 114.4 184.13 114.61 207.73C114.633 210.366 115.698 212.887 117.57 214.743C119.443 216.599 121.973 217.64 124.61 217.64H124.7C126.013 217.628 127.311 217.358 128.52 216.844C129.729 216.331 130.824 215.584 131.745 214.647C132.665 213.711 133.392 212.601 133.883 211.384C134.375 210.166 134.622 208.863 134.61 207.55C134.61 206.48 134.61 205.43 134.61 204.37C140.603 203.979 146.614 203.959 152.61 204.31C153.923 204.386 155.238 204.203 156.481 203.771C157.723 203.338 158.868 202.666 159.851 201.791C160.833 200.916 161.634 199.857 162.207 198.673C162.78 197.488 163.114 196.203 163.19 194.89C163.266 193.577 163.083 192.261 162.651 191.019C162.218 189.777 161.546 188.631 160.671 187.649C159.796 186.667 158.737 185.866 157.552 185.293C156.368 184.72 155.083 184.386 153.77 184.31C147.335 183.94 140.884 183.94 134.45 184.31C134.45 183.45 134.45 179.58 134.45 178.73L143.06 178.32C145.712 178.195 148.206 177.022 149.993 175.059C151.78 173.095 152.714 170.502 152.59 167.85C152.465 165.198 151.292 162.704 149.328 160.917C147.365 159.129 144.772 158.195 142.12 158.32L134.26 158.69C134.19 151.74 134.12 147.84 134.05 140.95C133.95 130.95 133.85 120.95 133.76 110.67C146.91 107 158.91 98.3599 164 87.7599Z" stroke="#333333" stroke-width="7" stroke-linecap="round" stroke-linejoin="round"/>
</svg>
