<svg width="820" height="820" viewBox="0 0 820 820" fill="none" xmlns="http://www.w3.org/2000/svg">
<path d="M229.321 471.68C244.771 507.34 258.221 545.68 293.321 566.27C307.791 574.77 322.931 575.54 339.321 573.01C360.051 569.81 376.171 564.63 394.111 555.01C413.661 544.52 429.371 528.19 446.251 513.81C460.501 501.66 473.991 487.73 487.721 474.81C501.031 462.29 514.081 450.15 523.141 434.49L525.301 432C525.801 432.27 526.301 432.52 526.831 432.78V432C526.831 415.79 524.631 361 524.001 335.9C491.443 337.221 459.452 344.849 429.801 358.36C407.901 368.36 388.491 381.88 370.071 397.25C353.461 411.1 336.511 427.05 315.641 434.14C291.801 442.23 268.751 433.61 245.291 428.52C232.361 425.72 219.201 424.52 206.551 426.2C217.001 439.54 222.081 455 229.321 471.68Z" fill="#F4F6F9"/>
<path d="M726.23 383.529C699.8 357.059 661.01 359.129 634.15 353.689C634.2 362.759 634.33 371.839 634.77 380.899C635.22 390.259 635.52 403.509 635.52 413.109L635.58 413.729C638.58 412.909 641.18 412.809 642.83 414.039C651.24 420.339 650.64 432.039 650.83 453.039C663.3 466.859 673.96 481.919 687.07 495.229C697.6 505.919 703.32 518.229 711.18 530.929C711.92 532.129 712.86 533.689 713.85 535.399C729.31 525.059 747.54 505.629 753.85 471.909C760.16 438.189 752.65 409.999 726.23 383.529Z" fill="#F4F6F9"/>
<path d="M112.17 304.57C115.34 309.23 118.63 314.62 122.17 319.44C114.9 310.53 105.3 318.32 105.4 327.82C105.52 339.44 116.86 341.29 125.68 342.06C136.68 343.06 146.61 341.6 154.04 332.15C160.2 324.32 163.75 317.41 157.17 309.15C150.59 300.89 141.86 291.3 134 285" stroke="#333333" stroke-width="7" stroke-linecap="round" stroke-linejoin="round"/>
<path d="M83.6805 354.06C77.0605 346.3 71.2105 338.06 68.0905 327.43C64.7005 315.94 63.6005 309.23 64.1905 297.04C65.2505 275.04 88.7705 264.99 103.78 251.13C111.62 243.89 120.52 238.13 129.01 231.85C135.01 227.43 146.26 219.85 153.37 219.85C163.7 219.79 170.47 231.51 176.37 238.35C183.83 247.02 190.17 254.35 196.62 263.75C201.2 270.45 208.18 279.18 204.49 287.81C201.49 294.81 190.59 299.22 183.4 298.62" stroke="#333333" stroke-width="7" stroke-linecap="round" stroke-linejoin="round"/>
<path d="M155.66 258.84C163.24 262.13 177.35 282.34 180.42 290.31C186.91 307.11 169.5 308.45 160.2 314.72" stroke="#333333" stroke-width="7" stroke-linecap="round" stroke-linejoin="round"/>
<path d="M88.9307 383.3C102.131 383.86 115.831 379.96 128.591 376.53C138.212 373.981 147.354 369.884 155.661 364.4C155.661 364.4 173.941 398.93 171.751 404.32C168.581 412.14 145.571 418.2 139.171 419.79C126.101 423.03 110.681 426.69 95.0407 426.69C91.8807 412.64 88.2507 397.41 85.2607 383.45C86.6007 382.88 87.0807 383.5 88.9307 383.3Z" stroke="#333333" stroke-width="7" stroke-linecap="round" stroke-linejoin="round"/>
<path d="M194.65 297.08C204.55 310.45 194.29 316.02 182.65 324.81C176.59 329.39 161.31 337.92 157.25 327.2" stroke="#333333" stroke-width="7" stroke-linecap="round" stroke-linejoin="round"/>
<path d="M88.9303 383.3C88.9303 383.3 77.8803 355.23 77.0703 345.6" stroke="#333333" stroke-width="7" stroke-linecap="round" stroke-linejoin="round"/>
<path d="M174.411 331.57C170.411 345.57 152.201 360.68 137.671 357.81" stroke="#333333" stroke-width="7" stroke-linecap="round" stroke-linejoin="round"/>
<path d="M148.91 357.059L152.66 365.309" stroke="#333333" stroke-width="7" stroke-linecap="round" stroke-linejoin="round"/>
<path d="M95.6803 425.289C87.3503 445.099 82.5803 465.959 101.52 483.719C89.0603 482.529 88.9303 515.719 94.2403 525.059" stroke="#333333" stroke-width="7" stroke-linecap="round" stroke-linejoin="round"/>
<path d="M171.75 404.319C179.18 403.369 190.1 410.239 196.15 415.419C214.22 430.869 220.02 450.199 229.32 471.679C244.77 507.339 258.22 545.679 293.32 566.269C307.79 574.769 322.93 575.539 339.32 573.009C360.05 569.809 376.17 564.629 394.11 555.009C413.66 544.519 429.37 528.189 446.25 513.809C460.5 501.659 473.99 487.729 487.72 474.809C501.03 462.289 514.08 450.149 523.14 434.489" stroke="#333333" stroke-width="7" stroke-linecap="round" stroke-linejoin="round"/>
<path d="M166.91 226.86C188.15 224.37 215.02 227.13 227.77 227.72C238.71 228.23 249.83 229.33 260.83 228.85C265.77 228.63 275.07 225.85 278.94 232.96C290.08 253.42 237.18 252.89 231.37 253.42C218.31 254.62 187.37 253.88 189.15 253.58" stroke="#333333" stroke-width="7" stroke-linecap="round" stroke-linejoin="round"/>
<path d="M249.53 252.359C249.45 259.849 251.13 281.579 255.68 300.029" stroke="#333333" stroke-width="7" stroke-linecap="round" stroke-linejoin="round"/>
<path d="M635.52 413.11C635.52 403.51 635.22 390.26 634.77 380.9C633.7 358.9 634.46 336.9 633.77 314.9C639.92 313.74 649.77 313.25 654.26 312.81C662.02 312.06 669.7 311.93 673 303.46C675.87 296.11 673.67 286.61 667 282.07C657.35 275.5 643.5 280.28 631.64 282.22C629.9 265.85 626.49 248.75 618.26 236.22C610.58 224.47 588.04 219.1 574.66 220.48C558.66 222.12 545.72 226.66 531.66 234.17C506.03 247.82 481.86 267.71 461.66 288.7C469.82 291.62 523.78 300.14 523.78 300.14C523.64 307.44 523.78 317.77 523.78 326.21C523.78 341.61 526.78 413.21 526.78 432.1" stroke="#333333" stroke-width="7" stroke-linecap="round" stroke-linejoin="round"/>
<path d="M559 324.109C570.41 324.819 578.76 318.179 580.37 313.699" stroke="#333333" stroke-width="7" stroke-linecap="round" stroke-linejoin="round"/>
<path d="M557.54 264.84L556.04 271.58" stroke="#333333" stroke-width="7" stroke-linecap="round" stroke-linejoin="round"/>
<path d="M579.07 269.25L577.25 274.66" stroke="#333333" stroke-width="7" stroke-linecap="round" stroke-linejoin="round"/>
<path d="M525.301 432C542.081 441.18 562.411 441.681 581.531 436.701C592.651 433.801 602.261 428.03 613.401 423.83C620.651 421.1 637.191 409.78 642.831 414C651.241 420.3 650.641 432 650.831 453C663.301 466.82 673.961 481.88 687.071 495.19C697.601 505.88 703.321 518.191 711.181 530.891C713.891 535.261 719.101 544.33 720.241 548.22" stroke="#333333" stroke-width="7" stroke-linecap="round" stroke-linejoin="round"/>
<path d="M527.55 449.279C526.97 458.029 531.23 475.809 539.17 480.769C552.75 489.259 571.62 457.989 578.6 449.489C578.9 461.489 590.09 484.779 598.49 493.119C603.89 498.489 608.25 496.339 614.28 492.049C619.61 488.259 641.33 466.469 641.33 466.469" stroke="#333333" stroke-width="7" stroke-linecap="round" stroke-linejoin="round"/>
<path d="M576.281 489C576.281 516.74 571.781 546.73 565.771 573.54C566.061 565.54 557.491 554.93 549.091 557.25C535.311 561.07 531.211 586.99 526.841 597.69C520.051 588 502.061 588 491.561 621" stroke="#333333" stroke-width="7" stroke-linecap="round" stroke-linejoin="round"/>
<path d="M635.521 577.219C635.521 577.219 664.021 571.079 685.521 572.409" stroke="#333333" stroke-width="7" stroke-linecap="round" stroke-linejoin="round"/>
<path d="M668.511 561C671.821 569.43 674.031 577.22 673.751 586.49" stroke="#333333" stroke-width="7" stroke-linecap="round" stroke-linejoin="round"/>
<path d="M656.511 557.25C663.261 572.91 664.701 591.5 665.511 608.25" stroke="#333333" stroke-width="7" stroke-linecap="round" stroke-linejoin="round"/>
<path d="M579.28 555L584.53 555.75" stroke="#333333" stroke-width="7" stroke-linecap="round" stroke-linejoin="round"/>
<path d="M541.79 586.49C542.451 587.096 543.195 587.605 544 588" stroke="#333333" stroke-width="7" stroke-linecap="round" stroke-linejoin="round"/>
<path d="M634.101 336.849C639.827 330.062 643.93 322.06 646.101 313.449C641.881 313.789 637.211 314.229 633.721 314.889C634.001 322.199 634.071 329.529 634.101 336.849Z" fill="#333333"/>
<path d="M648.791 279.1C648.561 274.96 648.201 270.86 647.791 266.83C646.631 255.61 644.791 243.54 637.121 234.74C636.771 234.33 636.391 233.93 636.011 233.54C634.455 230.704 632.256 228.272 629.591 226.44C627.651 225.056 625.452 224.077 623.126 223.562C620.8 223.046 618.393 223.005 616.051 223.44C614.661 209.65 599.731 197.81 586.191 199.11C577.761 199.92 570.191 204.32 563.061 208.47C554.931 213.19 545.571 218.14 536.061 214.91C533.131 213.91 531.161 217.91 533.151 219.91C551.951 239.37 581.461 245.91 606.771 237.21C604.815 247.154 605.206 257.417 607.913 267.183C610.619 276.95 615.566 285.95 622.361 293.47C622.685 293.794 623.08 294.039 623.514 294.187C623.948 294.334 624.411 294.381 624.866 294.322C625.321 294.263 625.756 294.1 626.138 293.847C626.52 293.593 626.839 293.256 627.071 292.86C628.901 289.37 630.551 285.78 632.071 282.13C637.381 281.25 643.171 279.79 648.791 279.1Z" fill="#333333"/>
<path d="M643.761 297.83C647.421 296.83 651.111 295.58 655.011 295.58" stroke="#333333" stroke-width="7" stroke-linecap="round" stroke-linejoin="round"/>
<path d="M263.76 289.83H248.12C244.378 289.833 240.789 291.32 238.142 293.965C235.495 296.61 234.005 300.198 234 303.94V305.28C234.003 309.022 235.49 312.611 238.135 315.258C240.78 317.905 244.368 319.395 248.11 319.4H250.86C250.86 321.11 250.86 323.21 250.86 325.62C250.71 350.95 250.58 378.37 250.92 383.12C251.003 384.255 251.512 385.316 252.345 386.091C253.178 386.866 254.272 387.298 255.41 387.3H255.74C256.33 387.257 256.905 387.098 257.434 386.833C257.962 386.567 258.433 386.2 258.819 385.752C259.205 385.305 259.5 384.785 259.685 384.224C259.871 383.662 259.944 383.07 259.9 382.48C259.9 382.07 259.84 381.41 259.82 380.56H268.16C269.353 380.56 270.498 380.086 271.342 379.242C272.186 378.398 272.66 377.254 272.66 376.06C272.66 374.867 272.186 373.722 271.342 372.878C270.498 372.034 269.353 371.56 268.16 371.56H265.16C266.353 371.56 267.498 371.086 268.342 370.242C269.186 369.398 269.66 368.254 269.66 367.06C269.66 365.867 269.186 364.722 268.342 363.878C267.498 363.034 266.353 362.56 265.16 362.56H259.71C259.71 350.22 259.8 335.11 259.86 325.68C259.86 323.26 259.86 321.14 259.86 319.41H263.75C267.493 319.405 271.082 317.915 273.729 315.269C276.375 312.622 277.865 309.033 277.87 305.29V303.95C277.867 300.208 276.38 296.619 273.735 293.972C271.09 291.325 267.502 289.835 263.76 289.83ZM268.88 305.28C268.877 306.637 268.337 307.938 267.377 308.898C266.418 309.857 265.117 310.397 263.76 310.4H248.12C246.764 310.397 245.464 309.857 244.506 308.897C243.548 307.937 243.01 306.636 243.01 305.28V303.94C243.01 302.585 243.548 301.285 244.507 300.327C245.465 299.368 246.765 298.83 248.12 298.83H263.76C265.116 298.83 266.417 299.368 267.377 300.326C268.337 301.284 268.877 302.584 268.88 303.94V305.28Z" fill="#FFE945"/>
<path d="M255.68 299.999C259.58 284.999 262.49 271.129 262.85 257.579C262.99 251.909 265.41 230.049 261.2 225.889C257.42 222.159 254.81 224.679 253.08 228.639" stroke="#333333" stroke-width="7" stroke-linecap="round" stroke-linejoin="round"/>
</svg>
