<svg width="250" height="250" viewBox="0 0 250 250" fill="none" xmlns="http://www.w3.org/2000/svg">
<path d="M97.2005 120.88C97.8205 105.52 98.4605 90 99.0005 79.46C99.8705 62.84 113.701 56.32 129.461 57.13C145.221 57.94 151.271 66.86 153.121 75.4C154.971 83.94 155.121 96.1 154.881 104.84C154.701 112 154.341 119.26 154.341 126.32C154.341 133.38 169.271 135.59 169.341 126.32L169.491 101.14C169.561 90.28 169.021 75.14 165.951 64.47C162.881 53.8 153.491 42.52 129.621 41C105.751 39.48 85.0605 47.2 84.2405 67.84C83.7205 81.26 83.2405 101.26 82.7205 120.84C82.4505 131.42 96.8405 129.79 97.2005 120.88Z" stroke="#333333" stroke-width="7" stroke-linecap="round" stroke-linejoin="round"/>
<path d="M100.5 209.15C100.5 209.15 77.7505 207.42 72.1505 207C63.3505 206.37 62.4205 199.61 62.2705 190.7C62.0705 179.27 62.2705 158.52 63.1405 147.11C63.7005 139.58 62.6105 119.94 69.9005 115.9C72.5705 114.41 90.9905 115.82 90.9905 115.82L121.61 115.29C121.61 115.29 167.81 115.04 173.82 115.17C177.61 115.24 182.61 114.77 184.95 118.03C187.84 122.03 187.95 146.94 187.69 168.61C187.43 190.28 184.79 204.38 182.21 206.47C179.63 208.56 166.68 208.02 161.14 207.9C159.63 207.9 151.59 208.01 141.84 208.21L100.5 209.15Z" fill="#FFE945" stroke="#FFE945" stroke-width="7" stroke-linecap="round" stroke-linejoin="round"/>
<path d="M127.781 138.829C122.911 138.029 118.331 139.969 116.781 144.069C115.977 145.959 115.946 148.088 116.693 150.001C117.441 151.913 118.908 153.456 120.781 154.299C122.515 155.013 124.366 155.402 126.241 155.449C128.881 155.659 131.801 155.719 133.841 154.039C135.881 152.359 136.611 148.169 135.841 145.439C135.071 142.709 132.651 139.639 127.781 138.829Z" fill="#333333" stroke="#333333" stroke-width="7" stroke-linecap="round" stroke-linejoin="round"/>
<path d="M135.67 183.89C128.518 184.349 121.345 184.372 114.19 183.96C118.979 173.128 123.152 162.033 126.69 150.73C131.39 161.17 135.67 183.89 135.67 183.89Z" fill="#333333" stroke="#333333" stroke-width="7" stroke-linecap="round" stroke-linejoin="round"/>
</svg>
