<svg width="250" height="250" viewBox="0 0 250 250" fill="none" xmlns="http://www.w3.org/2000/svg">
<path d="M82.8809 114.441C83.3209 96.991 83.7709 79.821 84.2409 67.871C85.0609 47.231 105.761 39.541 129.621 41.031C153.481 42.521 162.881 53.791 166.001 64.461C169.121 75.131 169.611 90.271 169.541 101.131L169.461 115.131" stroke="#333333" stroke-width="7" stroke-linecap="round" stroke-linejoin="round"/>
<path d="M97.4307 115.151C98.0007 101.731 98.5307 88.6711 99.0007 79.4611C99.8707 62.8411 113.701 56.3211 129.461 57.1311C145.221 57.9411 151.271 66.8611 153.121 75.4011C154.971 83.9411 155.121 96.1011 154.881 104.841L154.621 115.161" stroke="#333333" stroke-width="7" stroke-linecap="round" stroke-linejoin="round"/>
<path d="M100.5 209.15C100.5 209.15 77.7505 207.42 72.1505 207C63.3505 206.37 62.4205 199.61 62.2705 190.7C62.0705 179.27 62.2705 158.52 63.1405 147.11C63.7005 139.58 62.6105 119.94 69.9005 115.9C72.5705 114.41 90.9905 115.82 90.9905 115.82L121.61 115.29C121.61 115.29 167.81 115.04 173.82 115.17C177.61 115.24 182.61 114.77 184.95 118.03C187.84 122.03 187.95 146.94 187.69 168.61C187.43 190.28 184.79 204.38 182.21 206.47C179.63 208.56 166.68 208.02 161.14 207.9C159.63 207.9 151.59 208.01 141.84 208.21L100.5 209.15Z" stroke="#333333" stroke-width="7" stroke-linecap="round" stroke-linejoin="round"/>
<path d="M127.781 138.831C122.911 138.031 118.331 139.971 116.781 144.071C115.977 145.961 115.946 148.09 116.693 150.002C117.441 151.915 118.908 153.458 120.781 154.301C122.515 155.015 124.366 155.404 126.241 155.451C128.881 155.661 131.801 155.721 133.841 154.041C135.881 152.361 136.611 148.171 135.841 145.441C135.071 142.711 132.651 139.641 127.781 138.831Z" fill="#333333" stroke="#333333" stroke-width="7" stroke-linecap="round" stroke-linejoin="round"/>
<path d="M135.67 183.89C128.518 184.349 121.345 184.372 114.19 183.96C118.979 173.128 123.152 162.033 126.69 150.73C131.39 161.17 135.67 183.89 135.67 183.89Z" fill="#333333" stroke="#333333" stroke-width="7" stroke-linecap="round" stroke-linejoin="round"/>
</svg>
