<svg width="1000" height="1000" viewBox="0 0 1000 1000" fill="none" xmlns="http://www.w3.org/2000/svg">
<path d="M61.2772 405.146L172.18 907.129C175.217 920.872 187.399 930.657 201.474 930.657H799.526C813.601 930.657 825.783 920.872 828.82 907.129L939.723 405.146C942.317 393.405 937.65 381.25 927.866 374.262L517.937 81.4551C507.506 74.0044 493.494 74.0044 483.063 81.4551L73.1336 374.262C63.3497 381.25 58.6834 393.405 61.2772 405.146Z" fill="#0D64E6"/>
<g clip-path="url(#clip0)">
<path d="M61.2772 405.146L172.18 907.129C175.217 920.872 187.399 930.657 201.474 930.657H799.526C813.601 930.657 825.783 920.872 828.82 907.129L939.723 405.146C942.317 393.405 937.65 381.25 927.866 374.262L517.937 81.4551C507.506 74.0044 493.494 74.0044 483.063 81.4551L73.1336 374.262C63.3497 381.25 58.6834 393.405 61.2772 405.146Z" fill="#0E264C"/>
</g>
<path d="M527.432 563.337C524.616 559.873 524.438 554.961 526.995 551.302L652.116 372.259C661.38 359.002 651.896 340.803 635.722 340.803H578.871C572.253 340.803 566.063 344.076 562.339 349.547L455.779 506.056C453.01 510.124 446.647 508.164 446.647 503.242V360.803C446.647 349.757 437.692 340.803 426.647 340.803H378.58C367.534 340.803 358.58 349.757 358.58 360.803V757.333C358.58 768.379 367.534 777.333 378.58 777.333H426.647C437.692 777.333 446.647 768.379 446.647 757.333V616.068C446.647 611.344 452.594 609.255 455.548 612.941L581.295 769.841C585.09 774.577 590.832 777.333 596.901 777.333H659.317C676.159 777.333 685.46 757.79 674.838 744.72L527.432 563.337Z" fill="white"/>
<defs>
<clipPath id="clip0">
<rect width="443.5" height="861.657" fill="white" transform="translate(500.5 69)"/>
</clipPath>
</defs>
</svg>
