<svg width="1000" height="1000" viewBox="0 0 1000 1000" fill="none" xmlns="http://www.w3.org/2000/svg">
<path d="M153.077 393.464L220.822 799.932C223.233 814.398 235.749 825 250.414 825H749.586C764.251 825 776.767 814.398 779.178 799.932L846.923 393.464C848.806 382.164 844.09 370.778 834.768 364.12L517.437 137.455C507.006 130.004 492.994 130.004 482.563 137.455L165.232 364.12C155.91 370.778 151.194 382.164 153.077 393.464Z" fill="#0D64E6"/>
<g clip-path="url(#clip0)">
<path d="M153.077 393.464L220.822 799.932C223.233 814.398 235.749 825 250.414 825H749.586C764.251 825 776.767 814.398 779.178 799.932L846.923 393.464C848.806 382.164 844.09 370.778 834.768 364.12L517.437 137.455C507.006 130.004 492.994 130.004 482.563 137.455L165.232 364.12C155.91 370.778 151.194 382.164 153.077 393.464Z" fill="#0E264C"/>
</g>
<path d="M522.257 531.353C519.441 527.888 519.263 522.977 521.82 519.318L615.017 385.956C624.282 372.699 614.797 354.5 598.624 354.5H564.079C557.461 354.5 551.271 357.774 547.547 363.244L466.633 482.086C463.863 486.154 457.5 484.194 457.5 479.272V374.5C457.5 363.454 448.546 354.5 437.5 354.5H408C396.954 354.5 388 363.454 388 374.5V679C388 690.046 396.954 699 408 699H437.5C448.546 699 457.5 690.046 457.5 679V574.734C457.5 570.01 463.447 567.921 466.402 571.607L562.495 691.508C566.291 696.244 572.032 699 578.102 699H616.475C633.316 699 642.617 679.456 631.996 666.386L522.257 531.353Z" fill="white"/>
<defs>
<clipPath id="clip0">
<rect width="350" height="750" fill="white" transform="translate(500 125)"/>
</clipPath>
</defs>
</svg>
