<svg width="1160" height="820" viewBox="0 0 1160 820" fill="none" xmlns="http://www.w3.org/2000/svg">
<path d="M156.14 475.33C166.48 465.11 175.81 456.78 180.02 454.38C180.52 454.1 181.02 453.82 181.63 453.54C186.26 439.61 199.63 399.15 204.8 379.54C203.915 379.621 203.031 379.379 202.31 378.859C201.589 378.339 201.082 377.575 200.88 376.71C198.834 369.43 197.679 361.928 197.44 354.37C186.96 353.37 177.73 350.63 179.15 339.06C180.32 329.59 190.08 326.46 201.15 325.67C201.83 323.42 202.6 321.19 203.46 319C209.11 304.69 220.36 289.09 237.19 291.21C239.9 278 252.82 270.65 264.97 266.16C272.774 263.319 280.917 261.513 289.19 260.79C296.53 260.11 303.99 260.28 310.19 255.79C313.6 253.3 317.45 258.03 315.66 261.27C313.8 264.56 311.565 267.624 309 270.4C316.8 271 324.8 272.85 333.6 275.4C352.25 280.75 375.6 289.61 395.31 300.89C386.9 308.1 318.86 328.12 318.86 328.12C318.86 328.12 296.86 398.51 296.13 434.39L295.69 438.77C299.28 438.77 302.86 438.92 306.4 439.11C306.53 441.64 306.9 445.16 307.16 449.03C307.16 449.03 412.1 428.84 436.47 424.19C479.21 416.04 522.68 407.81 565.75 399.52C590.68 394.73 616.02 390.3 641.32 385.65C658.24 357.35 669.96 326.31 670.79 292.65C671.39 268.24 665.41 242.44 651.49 222.13C644.242 211.339 634.732 202.255 623.62 195.51C610.92 187.94 596.42 183.71 582.01 180.83C532.15 170.83 477.01 174.83 432.57 201.14C422.79 206.92 397.95 227.88 389.13 235.05C365.13 208.11 329.27 182.61 271.62 168.94C213.97 155.27 134.07 167.81 93.81 209.1C53.81 250.1 57.48 312.57 76.98 362.34C94 405.73 122.12 443.77 156.14 475.33Z" fill="#F4F6F9"/>
<path d="M36.1797 656.359C44.7097 630.039 59.7897 601.039 75.8497 578.359C90.5097 557.659 105.29 535.709 120.18 515.359C134.38 495.959 170.44 459.839 180.02 454.359C189.6 448.879 212.11 445.279 230.18 443.269C254.97 440.519 281.47 437.669 306.44 439.069C306.87 447.449 309.89 466.869 303.37 473.419C289.07 487.779 266.57 464.419 256.23 456.669C257.18 472.539 246.56 497.789 232.08 503.149C216.47 508.919 189.08 488.579 186.68 473.789" stroke="#333333" stroke-width="7" stroke-linecap="round" stroke-linejoin="round"/>
<path d="M296.17 434.37C296.94 398.49 318.9 328.1 318.9 328.1C318.9 328.1 386.9 308.1 395.35 300.87C375.67 289.59 352.29 280.73 333.64 275.38C311.82 269.11 294.88 266.96 273.64 278C257.57 286.38 239.64 298.6 228.97 313.21C226.102 317.228 223.624 321.511 221.57 326C205.64 325.07 181.06 323.72 179.16 339.11C177.16 355.75 197.09 354.06 211.16 355.42C208.84 363.69 206.85 371.81 204.98 378.94C198.8 402.44 181.03 454.38 181.03 454.38" stroke="#333333" stroke-width="7" stroke-linecap="round" stroke-linejoin="round"/>
<path d="M258.85 355.52C265.55 361.18 275.43 361.63 284.46 357.26" stroke="#333333" stroke-width="7" stroke-linecap="round" stroke-linejoin="round"/>
<path d="M270.67 318.869L273.67 324.869" stroke="#333333" stroke-width="7" stroke-linecap="round" stroke-linejoin="round"/>
<path d="M285.68 312.869L288.68 318.869" stroke="#333333" stroke-width="7" stroke-linecap="round" stroke-linejoin="round"/>
<path d="M267.67 501.859C266.03 519.379 252.03 537.519 257.17 556.269C262.31 575.019 277.96 562.819 294.54 561.659C335.78 558.789 301.04 608.399 302.4 629.129" stroke="#333333" stroke-width="7" stroke-linecap="round" stroke-linejoin="round"/>
<path d="M373.17 503.359C373.17 503.359 381.17 523.569 383.17 533.359" stroke="#333333" stroke-width="7" stroke-linecap="round" stroke-linejoin="round"/>
<path d="M357.67 504.859C365.17 519.079 370.33 541.749 375.67 557.359" stroke="#333333" stroke-width="7" stroke-linecap="round" stroke-linejoin="round"/>
<path d="M389.17 510.859C376.79 509.709 348.65 522.209 341.17 527.359" stroke="#333333" stroke-width="7" stroke-linecap="round" stroke-linejoin="round"/>
<path d="M307.199 449C307.199 449 412.139 428.81 436.509 424.16C479.249 416.01 522.719 407.78 565.789 399.49C631.209 386.91 699.429 376.92 762.309 358.49C787.089 351.23 839.249 332.93 839.249 332.93C841.559 357.86 852.539 378.59 849.389 401.1C847.169 400.95 847.679 401.89 846.639 402.86C836.819 412.05 791.009 418.03 786.259 428.58C766.139 473.28 691.839 459.33 656.919 477.8C636.919 488.39 622.129 506.75 607.109 523.1C591.679 539.89 573.059 549.78 551.019 555.92C537.669 559.64 525.349 558.37 513.959 566.76C493.579 581.76 478.959 605.23 458.159 618.85" stroke="#333333" stroke-width="7" stroke-linecap="round" stroke-linejoin="round"/>
<path d="M772.559 357.859C769.809 375.389 781.619 410.559 789.389 423.859" stroke="#333333" stroke-width="7" stroke-linecap="round" stroke-linejoin="round"/>
<path d="M839.79 337.659C839.79 337.659 870.11 328.659 883.79 324.399C895.81 320.634 908.467 319.338 921 320.589C926.716 320.983 932.257 322.729 937.165 325.685C942.073 328.641 946.208 332.721 949.23 337.589C954.36 345.459 959.63 359.879 951.88 368.229C941.15 379.789 929.08 356.309 926.62 348.109C922.55 357.299 921.84 363.219 910.48 366.649C903.09 368.889 893.59 369.649 887.75 366.099" stroke="#333333" stroke-width="7" stroke-linecap="round" stroke-linejoin="round"/>
<path d="M892.759 372.089C890.459 378.479 887.379 382.339 886.759 389.529C886.159 396.459 887.759 399.839 892.759 404.529C901.269 412.529 917.76 417.029 929.27 413.219C941.13 409.289 951.68 397.429 958.77 387.609C964.15 380.149 969.769 370.179 967.329 360.609C965.479 353.199 959.12 346.939 953.4 342.459C953.887 342.789 954.345 343.161 954.77 343.569" stroke="#333333" stroke-width="7" stroke-linecap="round" stroke-linejoin="round"/>
<path d="M867.26 375.59C868.047 376.978 868.557 378.507 868.76 380.09" stroke="#333333" stroke-width="7" stroke-linecap="round" stroke-linejoin="round"/>
<path d="M850.76 400.09C856.61 396.79 866.14 397.09 872.76 395.48C876.1 394.69 882.23 391.99 883.76 391.59" stroke="#333333" stroke-width="7" stroke-linecap="round" stroke-linejoin="round"/>
<path d="M949.87 338.349C954.36 334.569 958.81 330.749 963.23 326.839C971.47 319.559 978.75 312.459 986.41 304.539C990.03 300.789 996.26 295.089 1000.76 289.539" stroke="#333333" stroke-width="7" stroke-linecap="round" stroke-linejoin="round"/>
<path d="M856.759 481.09C857.039 476.77 855.929 472.37 856.059 468C856.449 454.76 860.609 439.83 865.329 427.53C869.945 415.979 876.439 405.271 884.549 395.84" stroke="#333333" stroke-width="7" stroke-linecap="round" stroke-linejoin="round"/>
<path d="M859.76 446.591C863.52 442.381 897.44 424.981 891.28 439.701C888 447.551 877 447.001 870 448.001C866.22 448.541 862.24 450.001 858.77 448.001C858.93 447.211 859.29 448.001 859.76 446.591Z" stroke="#333333" stroke-width="7" stroke-linecap="round" stroke-linejoin="round"/>
<path d="M958.759 330.589C959.379 319.789 973.019 293.209 958.329 286.129C950.799 282.509 950.089 296.669 950.259 302.129C950.469 308.609 953.239 326.269 958.759 330.589Z" stroke="#333333" stroke-width="7" stroke-linecap="round" stroke-linejoin="round"/>
<path d="M998.259 278.59C991.509 278.29 986.409 280.11 985.009 284.09C982.149 292.23 996.009 289.99 1000.19 290.17C999.979 294.04 998.389 297.54 998.759 301.65C999.209 306.65 1005.27 322.44 1013.34 318.57C1021.73 314.57 1025.93 303.57 1025.93 296.34" stroke="#333333" stroke-width="7" stroke-linecap="round" stroke-linejoin="round"/>
<path d="M1118.76 231.54C1118.15 230.29 1117.69 229.54 1117.35 228.95C1116.83 228.164 1116.54 227.25 1116.51 226.31C1116.4 225.246 1116.4 224.174 1116.51 223.11C1116.69 221.446 1116.66 219.767 1116.43 218.11C1115.18 210.87 1110.16 200.48 1093.29 192.04C1084.92 187.86 1070.74 181.52 1062.04 181.74C1059.86 177.49 1055.46 172.26 1052.25 170.52C1041.67 164.75 1027.18 165.45 1017.99 167.8C1005.1 171.1 996.59 179.05 989.32 187.15C979.8 197.76 978.23 211.51 977.44 224.68C976.15 246.16 988.56 276.3 1002.99 286.68C1018.09 297.56 1030.72 300.85 1038.91 302.37C1050.47 304.496 1062.31 304.6 1073.91 302.68C1088.12 300.31 1098.2 295.98 1106.6 288.68C1123.91 273.63 1128.55 251.74 1118.76 231.54Z" fill="#FEAABC"/>
<path d="M1001.88 182C1008.27 183.138 1014.54 184.844 1020.63 187.1C1029.43 190.83 1040.85 198.99 1046.63 206.64C1053.75 216.09 1056.76 229.9 1058.75 241.33C1060.76 253.676 1059.99 266.314 1056.52 278.33" stroke="#333333" stroke-width="7" stroke-linecap="round" stroke-linejoin="round"/>
<path d="M1058.91 235.309C1069.91 226.699 1090.55 231.849 1101.67 238.199C1113.43 244.919 1117.48 257.249 1116.74 270.109" stroke="#333333" stroke-width="7" stroke-linecap="round" stroke-linejoin="round"/>
<path d="M1113.51 229.469C1106.51 219.189 1095.15 210.919 1084.18 206.789C1072.36 202.339 1058.91 204.409 1046.62 206.619" stroke="#333333" stroke-width="7" stroke-linecap="round" stroke-linejoin="round"/>
<path d="M1059.83 185.59C1063.76 192.09 1063.2 197.77 1063.76 202.59" stroke="#333333" stroke-width="7" stroke-linecap="round" stroke-linejoin="round"/>
<path d="M1091.76 233.83C1090.2 225.28 1080.66 217.02 1074.05 212.46C1069.46 209.341 1064.4 206.996 1059.05 205.52" stroke="#333333" stroke-width="7" stroke-linecap="round" stroke-linejoin="round"/>
<path d="M912.76 369.59C914.86 372.87 920.9 374.96 924.38 376.84C928.459 378.921 932.788 380.473 937.26 381.46C941.98 382.68 960.55 385.99 962.58 381.83" stroke="#333333" stroke-width="7" stroke-linecap="round" stroke-linejoin="round"/>
<path d="M893.26 375.09C894.26 387 911.99 393.72 921.61 396.58C930.45 399.2 942.61 401.22 951.12 397.18" stroke="#333333" stroke-width="7" stroke-linecap="round" stroke-linejoin="round"/>
<path d="M753.08 444.719C754.039 443.958 754.841 443.017 755.44 441.949" stroke="#333333" stroke-width="7" stroke-linecap="round" stroke-linejoin="round"/>
<path d="M200.879 376.76C201.081 377.625 201.589 378.389 202.31 378.909C203.03 379.429 203.914 379.671 204.799 379.59C204.859 379.37 204.909 379.15 204.969 378.94C206.839 371.81 208.829 363.69 211.149 355.42C206.859 355.01 202.029 354.87 197.439 354.42C197.678 361.978 198.833 369.48 200.879 376.76Z" fill="#333333"/>
<path d="M310.19 255.79C303.98 260.33 296.52 260.16 289.19 260.79C280.924 261.533 272.792 263.355 265 266.21C252.85 270.7 239.93 278.05 237.22 291.26C220.39 289.14 209.14 304.74 203.49 319.05C202.63 321.24 201.86 323.47 201.18 325.72C205.481 325.452 209.794 325.419 214.1 325.62C213.789 332.764 215.098 339.885 217.93 346.45C219.22 349.5 223.31 348.56 224.84 346.45C230.47 338.64 236.78 331.01 241.67 322.71C245.29 316.56 246.36 310.27 246.06 303.54C251.263 304.539 256.617 304.44 261.78 303.25C269.54 301.45 275.71 296.76 281.98 292.1C293.98 283.16 308.26 274.74 315.7 261.27C317.45 258 313.6 253.3 310.19 255.79Z" fill="#333333"/>
<path d="M975.359 319.531C980.539 319.361 989.259 321.151 993.359 324.361C996.699 326.971 1001.88 335.921 994.999 337.541C988.449 339.101 977.519 323.921 975.359 319.531Z" stroke="#333333" stroke-width="7" stroke-linecap="round" stroke-linejoin="round"/>
</svg>
