<svg width="250" height="250" viewBox="0 0 250 250" fill="none" xmlns="http://www.w3.org/2000/svg">
<path d="M166.46 95.5497C165.59 73.3997 151.9 67.6997 139.73 63.6197C127.56 59.5397 113.92 62.4097 102.2 67.7897C90.4804 73.1697 83.8004 85.1297 83.4904 99.3297C83.2104 112.41 89.5804 128.51 95.2504 139.87C102.17 153.743 109.107 167.61 116.06 181.47C118.4 186.15 125.76 187.02 129.21 183.17C149.26 160.79 167.69 127.13 166.46 95.5497ZM123.08 84.3897C138.88 79.9997 144 94.8597 144.54 100.07C145.33 107.95 136.94 115.07 128.77 117.77C121.21 120.25 110.14 114.84 107.84 107.65C106.1 102.22 107.28 88.7997 123.08 84.3897Z" fill="#02ABF8" stroke="#02ABF8" stroke-width="7" stroke-linecap="round" stroke-linejoin="round"/>
<path d="M106.19 188.299H140.73" stroke="#333333" stroke-width="7" stroke-linecap="round" stroke-linejoin="round"/>
</svg>
