<svg width="250" height="250" viewBox="0 0 250 250" fill="none" xmlns="http://www.w3.org/2000/svg">
<path d="M160.16 68.7491C153.41 66.2591 147.07 67.7491 141.45 71.0591C139.078 68.5938 136.226 66.6404 133.07 65.3191C124.42 61.6491 114.55 62.0091 105.41 63.2491C97.1599 64.3591 88.0699 65.6591 81.8099 71.6791C74.4199 78.7791 72.6899 89.3591 71.9999 99.1291C71.7396 101.883 71.7396 104.655 71.9999 107.409C65.3199 112.809 60.8799 120.059 61.9999 129.899C62.9399 138.489 67.8199 145.979 72.3799 153.079C78.1799 162.079 84.4399 171.369 93.0299 178.019C99.8699 183.309 108.03 187.019 116.78 187.569C126.31 188.099 134.56 184.049 142.54 179.279C159.03 169.439 181.54 160.519 186.54 140.049C189.91 126.339 188.73 105.969 179.41 93.9191C175.5 83.5091 171.35 72.8891 160.16 68.7491Z" fill="#9ED5F0" stroke="#9ED5F0" stroke-width="7" stroke-linecap="round" stroke-linejoin="round"/>
<path d="M74.3299 118.688C71.6499 119.558 68.8799 120.578 66.8699 122.838C62.1699 128.108 63.9799 138.238 69.1999 142.778C74.4199 147.318 81.6199 147.308 87.8899 145.348C93.6053 143.505 98.8268 140.386 103.16 136.228C109.97 129.788 114.93 120.918 121.93 114.778C128.93 108.638 139.55 105.958 146.01 112.878L120.94 136.298C116.94 140.068 112.46 144.018 107.3 144.178C101.99 144.338 97.0999 140.258 94.0999 135.088C91.0999 129.918 89.6399 123.758 88.2299 117.718C86.2999 109.478 83.4399 106.718 82.4599 92.9982C81.4799 79.2782 92.0499 71.7482 102.12 74.8082C112.19 77.8682 115.34 85.3782 116.38 92.5282C117.42 99.6782 116.23 107.008 116.25 114.258C116.25 131.258 123.37 148.018 134.84 158.308C136.5 159.788 138.41 161.208 140.48 161.038C143.01 160.828 144.93 158.378 146.57 156.098L167.8 126.638C171.41 121.638 176.87 116.088 181.86 119.038C185.02 120.908 186.29 125.688 185.71 129.798C185.13 133.908 183.12 137.518 181.14 140.968C178.47 145.598 175.66 150.328 171.64 153.328C167.62 156.328 162.07 157.158 158.23 153.868C152.51 148.958 153.63 138.418 156.8 130.958C159.97 123.498 164.7 116.268 164.39 107.958C164.209 104.582 163.248 101.293 161.582 98.3504C159.917 95.4077 157.592 92.8912 154.79 90.9982C149.56 87.4982 143.36 86.5182 137.35 86.7082C127.7 87.0182 117.8 90.4182 110.76 98.1982C103.72 105.978 100.17 118.628 103.65 129.248C105.93 136.248 111.06 142.828 109.5 150.078C107.73 158.298 98.5799 160.708 91.4999 159.078C80.0299 156.378 69.3099 145.488 68.5799 131.728C68.1399 123.338 71.5799 114.798 77.4199 109.938C84.7399 103.828 94.5199 103.788 102.61 99.2082C111.25 94.3182 117.19 84.7582 124.48 77.4282C131.77 70.0982 142.48 64.9082 150.78 70.6182C153.38 72.3839 155.225 75.0598 155.95 78.1182C157.95 86.9382 149.48 96.1182 152.54 104.498C154.54 109.868 164.48 109.048 168 104.938C171.52 100.828 169.92 92.2182 165.19 90.4982C161.87 89.2882 157.47 94.4982 156.88 95.9482C150.517 111.548 146.988 128.159 146.46 144.998C146.35 148.338 146.33 151.818 145 154.758C144.172 156.412 143.115 157.94 141.86 159.298C136.97 165.078 131.86 170.828 125.51 174.178C119.16 177.528 111.42 178.108 105.58 173.718C99.7399 169.328 96.9999 159.138 101 152.458C104.37 146.818 110.83 145.388 116.62 144.458C123.32 143.338 130.68 142.378 136.34 146.738C147.72 155.498 149.86 178.428 168.12 168.738C178.89 163.008 181.6 147.418 175.9 135.868C160.23 104.078 98.8599 110.798 74.3299 118.688Z" stroke="#333333" stroke-width="7" stroke-linecap="round" stroke-linejoin="round"/>
</svg>
