<svg width="250" height="250" viewBox="0 0 250 250" fill="none" xmlns="http://www.w3.org/2000/svg">
<path d="M74.3299 121.219C71.6499 122.079 68.8799 123.099 66.8699 125.359C62.1699 130.639 63.9799 140.759 69.1999 145.299C74.4199 149.839 81.6199 149.829 87.8899 147.869C93.6053 146.026 98.8268 142.907 103.16 138.749C109.97 132.309 114.93 123.439 121.93 117.299C128.93 111.159 139.55 108.489 146.01 115.399L120.94 138.819C116.94 142.589 112.46 146.549 107.3 146.699C101.99 146.859 97.0999 142.779 94.0999 137.619C91.0999 132.459 89.6399 126.279 88.2299 120.239C86.2999 111.999 83.4399 109.239 82.4599 95.5192C81.4799 81.7992 92.0499 74.2692 102.12 77.3292C112.19 80.3892 115.34 87.8992 116.38 95.0492C117.42 102.199 116.23 109.529 116.25 116.779C116.25 133.779 123.37 150.539 134.84 160.829C136.5 162.319 138.41 163.729 140.48 163.559C143.01 163.359 144.93 160.899 146.57 158.619L167.8 129.159C171.41 124.159 176.87 118.609 181.86 121.559C185.02 123.429 186.29 128.209 185.71 132.319C185.13 136.429 183.12 140.039 181.14 143.489C178.47 148.129 175.66 152.859 171.64 155.849C167.62 158.839 162.07 159.689 158.23 156.389C152.51 151.479 153.63 140.939 156.8 133.479C159.97 126.019 164.7 118.789 164.39 110.479C164.206 107.106 163.244 103.821 161.578 100.883C159.913 97.9436 157.589 95.4302 154.79 93.5392C149.56 90.0392 143.36 89.0592 137.35 89.2492C127.7 89.5592 117.8 92.9592 110.76 100.739C103.72 108.519 100.17 121.179 103.65 131.789C105.93 138.789 111.06 145.369 109.5 152.619C107.73 160.839 98.5799 163.259 91.4999 161.619C80.0299 158.919 69.3099 148.029 68.5799 134.269C68.1399 125.879 71.5799 117.339 77.4199 112.479C84.7399 106.369 94.5199 106.329 102.61 101.759C111.25 96.8692 117.19 87.2992 124.48 79.9692C131.77 72.6392 142.48 67.4492 150.78 73.1592C153.387 74.9014 155.249 77.555 156 80.5992C158 89.4192 149.53 98.5992 152.59 106.979C154.59 112.349 164.53 111.539 168.05 107.429C171.57 103.319 170 94.6992 165.22 92.9992C161.9 91.7992 157.5 96.9992 156.91 98.4492C150.542 114.032 147.004 130.625 146.46 147.449C146.35 150.789 146.33 154.269 145 157.209C144.172 158.863 143.115 160.391 141.86 161.749C136.97 167.539 131.86 173.279 125.51 176.629C119.16 179.979 111.42 180.559 105.58 176.179C99.7399 171.799 96.9999 161.659 101 154.999C104.37 149.359 110.83 147.929 116.62 146.999C123.32 145.879 130.68 144.919 136.34 149.279C147.72 158.039 149.86 180.969 168.12 171.279C178.89 165.549 181.6 149.959 175.9 138.419C160.23 106.599 98.8599 113.319 74.3299 121.219Z" stroke="#333333" stroke-width="7" stroke-linecap="round" stroke-linejoin="round"/>
</svg>
