<svg width="820" height="820" viewBox="0 0 820 820" fill="none" xmlns="http://www.w3.org/2000/svg">
<path d="M521.349 464.11C512.589 443.51 505.419 407.84 496.469 387.58C486.859 365.82 486.559 343.81 490.019 320.9C493.549 297.56 499.869 274.13 498.549 250.44C497.229 226.75 487.329 204.59 467.549 188.18C448.649 172.47 420.389 156.86 396.279 149.13C367.279 139.84 328.169 139.34 274.799 139.34C221.429 139.34 181.659 153.14 153.129 171.13C124.909 189 104.349 221.9 98.7991 247.59C92.9491 274.59 96.589 303.78 103.799 330.31C107.309 343.22 111.799 356.11 111.659 369.51C111.519 382.91 107.049 396.08 102.429 408.82C93.309 433.93 84.109 459.61 88.509 486.3C90.609 499 96.639 510.11 104.099 521C111.349 531.54 117.199 541.77 118.569 554.26C118.939 557.56 119.109 560.87 119.159 564.18C123.299 559.18 127.569 554.18 131.899 549.18C149.659 528.47 169.399 509.41 188.899 490.29C197.079 482.29 195.779 474.48 196.239 455.21C196.699 435.94 199.329 401.53 200.479 375C200.549 373.36 200.609 371.71 200.679 370C185.529 370.28 178.529 369.6 168.609 369.77C157.429 369.97 154.549 365.25 151.379 356.62C148.209 347.99 147.129 336.3 147.309 310.87C147.489 285.44 145.379 275.72 152.809 264.38C158.209 256.15 164.809 254.14 185.489 253.38C185.589 252.78 185.709 252.19 185.839 251.6C188.299 240.854 194.5 231.333 203.333 224.738C212.167 218.143 223.057 214.904 234.059 215.6C239.059 208.67 246.929 204.07 255.499 201.75C268.929 198.12 285.399 196.47 299.069 199.64C311.289 202.47 320.959 210.18 330.429 218.01C339.549 225.55 348.929 233.47 361.199 234.5C365.029 234.82 365.929 241.02 362.129 242.16C357.769 243.493 353.366 244.617 348.919 245.53C361.469 254.66 372.789 264.44 386.589 274.83C400.389 285.22 419.779 299.89 463.309 331.07C448.439 331.38 432.259 331.41 416.379 332.92C400.189 334.45 382.889 336.64 366.799 336.29C365.479 360.09 364.849 465.84 364.849 465.84C364.849 465.84 383.999 487.58 392.699 496.13C409.189 512.38 427.509 538.93 430.339 562.34C442.159 564.71 450.819 566.55 460.049 575.48C469.941 585.18 477.958 596.621 483.699 609.23C484.645 611.449 485.446 613.727 486.099 616.05C495.949 611.05 504.159 605.23 509.029 599.19C525.029 579.36 535.909 555.82 536.839 530.77C537.689 507.89 530.509 485.66 521.349 464.11Z" fill="#F4F6F9"/>
<path d="M270.38 167.629C290.28 168.949 293.5 199.799 292.5 212.819" stroke="#333333" stroke-width="7" stroke-linecap="round" stroke-linejoin="round"/>
<path d="M321.27 219.999C321.27 219.999 322.86 192.419 314.1 179.539C306.1 167.779 289.43 165.179 257.85 168.139" stroke="#333333" stroke-width="7" stroke-linecap="round" stroke-linejoin="round"/>
<path d="M78.5195 635.769C80.9995 623.199 88.5195 609.339 94.8095 598.349C105.17 580.159 118.23 565.079 131.9 549.139C149.66 528.429 169.4 509.369 188.9 490.249C197.08 482.249 195.78 474.439 196.24 455.169C196.7 435.899 199.33 401.489 200.48 374.959C202.2 334.959 201.87 284.959 219.94 248.339C239.6 208.469 290.82 211.619 324.4 229.919C348.85 243.229 364.57 258.249 386.59 274.839C400.46 285.299 419.78 299.899 463.31 331.079C448.44 331.389 432.26 331.419 416.38 332.929C400.19 334.459 382.89 336.649 366.8 336.299C365.48 360.099 364.85 465.849 364.85 465.849C364.85 465.849 384 487.579 392.7 496.129C409.2 512.379 427.51 538.929 430.34 562.339C442.16 564.709 450.82 566.549 460.05 575.479C469.941 585.179 477.959 596.621 483.7 609.229C487 616.719 489.65 630.149 489.88 638.569" stroke="#333333" stroke-width="7" stroke-linecap="round" stroke-linejoin="round"/>
<path d="M336.57 553.389C340.51 561.389 347.38 584.679 347.71 593.389C348.31 609.489 339.16 614.389 326.71 622.249C342.52 621.729 358.11 626.249 358.09 644.069C358.09 657.449 347.26 668.229 343.47 680.689" stroke="#333333" stroke-width="7" stroke-linecap="round" stroke-linejoin="round"/>
<path d="M365.989 667.119L370.229 667.279" stroke="#333333" stroke-width="7" stroke-linecap="round" stroke-linejoin="round"/>
<path d="M358.81 592.75L362.41 593" stroke="#333333" stroke-width="7" stroke-linecap="round" stroke-linejoin="round"/>
<path d="M214.939 515.698C228.519 523.828 262.699 543.278 278.319 548.048C306.729 556.718 322.649 536.358 326.159 512.148C329.429 521.448 346.369 540.228 360.819 536.328C370.819 533.628 379.249 511.708 378.039 499.068" stroke="#333333" stroke-width="7" stroke-linecap="round" stroke-linejoin="round"/>
<path d="M195.39 476.08C226.68 480.58 261.78 487.79 293.93 487.26C320.22 486.82 342.43 477.26 364.93 465.85" stroke="#333333" stroke-width="7" stroke-linecap="round" stroke-linejoin="round"/>
<path d="M337.189 390.909C332.999 387.999 334.999 369.719 341.169 371.999C347.339 374.279 345.279 396.459 337.189 390.909Z" stroke="#333333" stroke-width="7" stroke-linecap="round" stroke-linejoin="round"/>
<path d="M270.439 289C277.359 300.87 290.489 297.33 294.199 285.35" stroke="#333333" stroke-width="7" stroke-linecap="round" stroke-linejoin="round"/>
<path d="M325 281.648C330.32 294.528 347.7 290.578 349.9 277.148" stroke="#333333" stroke-width="7" stroke-linecap="round" stroke-linejoin="round"/>
<path d="M361.24 234.51C348.97 233.51 339.59 225.56 330.47 218.02C321 210.19 311.33 202.48 299.11 199.65C285.44 196.48 268.97 198.13 255.54 201.76C246.97 204.08 239.08 208.68 234.1 215.61C223.098 214.914 212.208 218.153 203.374 224.748C194.541 231.343 188.34 240.864 185.88 251.61C183.23 263.18 185.88 275.61 189.34 286.73C192.8 297.85 198.48 308.19 206.87 316.5C208.87 318.45 211.97 317.04 213.03 314.97C221.32 298.85 234.78 285.71 241.38 268.65C245.88 257.01 246.66 243.55 240.87 232.52C278.669 250.805 321.949 254.259 362.17 242.2C366 241 365.07 234.83 361.24 234.51Z" fill="#333333"/>
<path d="M250.44 296.059C250.14 293.229 249.9 290.399 249.68 287.659C248.15 268.759 246.56 249.219 216.83 249.219H215.62L208.53 249.339C167.68 250.009 157.98 250.169 149.93 262.449C143.45 272.339 143.56 281.079 143.77 296.959C143.83 300.959 143.89 305.599 143.85 310.829C143.67 336.769 144.75 348.629 148.13 357.829C151.35 366.569 154.88 373.279 168 373.279H168.71C173.06 373.209 176.71 373.279 181.05 373.399C184.72 373.479 188.65 373.579 193.5 373.579C197.42 373.579 201.93 373.519 207.37 373.339C210.74 373.229 213.77 373.189 216.44 373.159C229.65 372.999 236.93 372.909 244.89 363.879C255.29 352.079 252.24 312.519 250.44 296.059Z" fill="#9ED5F0"/>
<path d="M212.579 254.809C221.689 256.119 224.649 272.729 225.439 282.759C226.589 297.469 226.299 318.949 225.899 333.549C225.499 348.149 224.659 362.639 214.779 367.689" stroke="#333333" stroke-width="7" stroke-linecap="round" stroke-linejoin="round"/>
<path d="M257.849 168.129C218.589 171.629 200.519 169.469 182.929 184.589C169.279 196.329 168.209 223.319 167.059 239.889C165.279 265.579 166.499 285.679 166.799 313.229L199.239 312.529C198.579 289.359 197.819 269.669 198.709 246.459C199.299 231.029 203.969 199.839 207.709 191.279C211.449 182.719 222.339 171.039 242.949 169.279" stroke="#333333" stroke-width="7" stroke-linecap="round" stroke-linejoin="round"/>
<path d="M168.56 330.318L200.2 330.948" stroke="#333333" stroke-width="7" stroke-linecap="round" stroke-linejoin="round"/>
<path d="M699.17 268.279C706.592 269.626 713.616 272.627 719.72 277.059" stroke="#9ED5F0" stroke-width="7" stroke-linecap="round" stroke-linejoin="round"/>
<path d="M549.319 363.449C553.399 365.979 556.509 368.319 561.409 369.679C602.239 380.959 591.409 328.809 596.059 307.479C598.349 297.099 600.769 285.999 614.059 280.369C626.299 275.199 633.059 280.659 637.989 289.849C637.989 289.849 647.329 310.089 655.519 309.049C663.709 308.009 664.859 293.879 667.139 285.629C668.402 280.804 670.748 276.331 673.999 272.549" stroke="#9ED5F0" stroke-width="7" stroke-linecap="round" stroke-linejoin="round"/>
<path d="M459.27 416.119C463.65 394.359 482.71 369.269 501.85 358.849C509.5 354.679 518.02 353.849 526.93 355.049" stroke="#9ED5F0" stroke-width="7" stroke-linecap="round" stroke-linejoin="round"/>
<path d="M628.52 330.999C629.363 330.055 630.287 329.185 631.28 328.399C642.34 319.579 655.19 326.649 665.14 333.399C670.92 337.299 676.22 343.839 688.93 345.169C701.64 346.499 710.41 341.839 717.15 329.989" stroke="#9ED5F0" stroke-width="7" stroke-linecap="round" stroke-linejoin="round"/>
<path d="M498.06 417.999C512 400.419 536.16 385.349 560.62 389.269C576.28 391.779 606.68 410.649 617.34 390.549C623.69 378.549 620.2 361.689 621.91 347.549" stroke="#9ED5F0" stroke-width="7" stroke-linecap="round" stroke-linejoin="round"/>
<path d="M509.189 457.709C520.039 439.709 540.189 425.899 559.119 417.109C580.509 407.179 597.179 415.779 617.979 423.249C637.079 430.109 653.359 435.009 666.849 415.699C673.429 406.279 676.509 383.229 691.219 383.799" stroke="#9ED5F0" stroke-width="7" stroke-linecap="round" stroke-linejoin="round"/>
<path d="M548.659 359.929C544.339 354.879 538.069 347.159 530.749 352.229C529.293 353.246 528.251 354.754 527.816 356.477C527.381 358.2 527.581 360.022 528.379 361.609C530.229 365.369 534.049 366.769 537.939 367.399C538.823 367.553 539.733 367.463 540.569 367.139C542.69 367.149 544.808 366.975 546.899 366.619C550.109 366.049 550.429 361.999 548.659 359.929Z" fill="#333333"/>
<path d="M639 331.629C632.18 330.859 618.86 331.029 618.37 340.719C618.14 345.229 622.08 347.289 626.06 347.109C630.874 346.829 635.441 344.885 638.98 341.609C639.586 341.096 639.996 340.389 640.14 339.609C644.07 338.939 643.66 332.159 639 331.629Z" fill="#333333"/>
<path d="M698.08 264.578C698.044 264.5 698.004 264.423 697.96 264.348C697.975 263.655 697.828 262.968 697.529 262.342C697.23 261.716 696.789 261.169 696.24 260.745C695.692 260.321 695.051 260.031 694.37 259.9C693.689 259.768 692.987 259.799 692.32 259.988C690.568 259.432 688.737 259.172 686.9 259.218C685.721 259.018 684.518 259.018 683.34 259.218C679.68 259.828 673.53 262.748 672.63 266.788C671.63 271.118 676.13 276.618 679.95 278.188C684.52 280.068 688.95 276.918 692.86 274.858C696.77 272.798 700.21 269.238 698.08 264.578Z" fill="#333333"/>
<path d="M732.249 309.799C728.819 307.129 725.249 302.439 720.739 302.209C716.739 301.999 712.999 305.839 710.959 309.289C710.443 310.21 710.305 311.295 710.574 312.315C710.842 313.336 711.497 314.212 712.399 314.759C714.788 316.214 717.471 317.116 720.253 317.402C723.034 317.687 725.845 317.348 728.479 316.409C729.139 316.603 729.839 316.613 730.504 316.436C731.169 316.26 731.772 315.905 732.249 315.409C733.649 314.079 733.999 311.119 732.249 309.799Z" fill="#333333"/>
<path d="M549.059 360.668C543.059 349.528 529.309 345.508 526.219 358.558C524.449 365.988 539.469 370.408 545.029 367.678C555.389 362.578 545.819 318.878 544.459 309.328C554.179 310.428 568.349 309.528 575.609 309.588" stroke="#333333" stroke-width="7" stroke-linecap="round" stroke-linejoin="round"/>
<path d="M643.32 337.869C641.13 326.249 616.17 329.699 617.16 341.489C618.16 353.809 638.35 345.549 643.32 337.869ZM643.32 337.869C640.25 356.819 636.27 375.369 633.07 394.279C639.02 390.959 649.58 391.649 654.07 389.559" stroke="#333333" stroke-width="7" stroke-linecap="round" stroke-linejoin="round"/>
<path d="M699.78 263.818C693.54 258.488 683.78 254.678 676.29 262.438C668.11 270.968 677.04 278.718 686.58 279.068C707.58 279.828 702.69 217.238 702.69 217.238C712.69 218.978 725.38 219.758 734.44 224.378C742.6 228.528 741.95 226.058 740.8 237.288C738.2 262.618 734.05 289.468 733.85 314.488C732.73 322.278 699.23 318.228 710.72 305.998C717.78 298.478 726.94 299.348 733.92 310.728" stroke="#333333" stroke-width="7" stroke-linecap="round" stroke-linejoin="round"/>
</svg>
