<svg width="250" height="250" viewBox="0 0 250 250" fill="none" xmlns="http://www.w3.org/2000/svg">
<path d="M90.1104 161.83C99.8204 171.54 111.93 175.72 125.72 173.99C133.36 172.99 141.6 172.69 147.79 168.2C153.68 163.95 159.79 160.09 164.66 154.54C171.56 146.69 174.66 137.15 174.98 126.79C175.155 119.978 173.795 113.215 171 107C167.567 98.9122 161.964 91.9315 154.81 86.8301C133.39 71.2101 105.32 71.4301 87.5504 92.1901C79.2004 101.96 73.1904 113.48 73.6704 126.73C74.1604 139.15 80.5204 150.39 90.1104 161.83Z" stroke="#333333" stroke-width="7" stroke-linecap="round" stroke-linejoin="round"/>
<path d="M105.73 103.451C119.399 116.716 131.89 131.144 143.06 146.571" stroke="#333333" stroke-width="7" stroke-linecap="round" stroke-linejoin="round"/>
<path d="M147.17 103.41L125.47 121.12C121.827 124.001 118.332 127.065 115 130.3C110.135 135.376 105.681 140.83 101.68 146.61" stroke="#333333" stroke-width="7" stroke-linecap="round" stroke-linejoin="round"/>
<path d="M188.11 122C187.92 104.58 180.65 90.0004 166.59 79.3704C158.81 73.4704 151 66.4604 141.44 65.0004C132.33 63.6404 123.36 61.7204 114.01 62.4204C100.79 63.4204 89.5201 69.3404 80.0101 78.4204C73.6201 84.6004 69.4001 91.4204 66.0001 100C61.9363 110.382 60.8253 121.686 62.7901 132.66C68.3501 165.84 94.0101 190.55 128.56 187.49C144.8 186.05 160.49 180.93 171.8 168.49C182.45 156.74 186.65 140.89 188.11 122Z" stroke="#333333" stroke-width="7" stroke-linecap="round" stroke-linejoin="round"/>
</svg>
