<svg width="820" height="820" viewBox="0 0 820 820" fill="none" xmlns="http://www.w3.org/2000/svg">
<path d="M342.41 605.67C355.74 590.95 372.41 572.15 378.6 553.31C383.13 539.54 381.6 523.58 380.81 508.96C379.49 484.89 379.15 460.45 377.81 436.37C377.05 422.29 375.87 408.47 374.86 394.59C374.715 395.018 374.452 395.396 374.102 395.681C373.752 395.966 373.329 396.146 372.881 396.202C372.433 396.257 371.979 396.185 371.57 395.994C371.161 395.802 370.814 395.5 370.57 395.12C367.437 389.871 365.035 384.219 363.43 378.32C351.11 378.32 337.27 376.97 330.29 367.13C318.65 350.74 331.14 336.73 346.14 329.93C350.911 327.933 355.979 326.737 361.14 326.39C361.54 320.8 361.89 315.19 362.3 309.59C336.6 317.71 308.5 317.59 281.3 314.48C273.648 312.085 266.309 308.785 259.44 304.65C247.71 297.48 238.13 287.41 228.7 277.54L219.8 268.2C218.8 262.01 217.04 255.97 213.55 250.7C207.37 241.38 197.96 236.03 186.96 234.7C166.34 232.15 146.13 242.47 128.49 251.84C106.74 263.39 87.9497 278.29 78.8397 301.84C70.3897 323.73 71.4997 348.26 75.3397 371C79.1797 393.74 86.8697 416.45 98.7297 436.44C112.87 460.26 133.87 480 158.37 491.77C148.683 493.77 139.05 496.03 129.47 498.55C122.3 500.44 114.75 502.88 109.68 508.63C104.61 514.38 102.68 521.45 102.34 528.89C101.79 542.57 106.66 556.81 113.65 568.4C129 593.85 155.36 609.18 183.05 618C213.79 627.82 246.58 631.87 278.57 635.13C289.823 636.284 301.086 637.307 312.36 638.2C322.49 627.48 332.52 616.59 342.41 605.67Z" fill="#F4F6F9"/>
<path d="M703.64 288.28C693.509 276.257 681.804 265.655 668.84 256.76C643.11 238.87 612.84 228.12 581.84 224.58C549.09 220.84 516.79 227 486.76 240.18C485.2 240.87 483.66 241.58 482.12 242.3C485.511 244.14 489.268 245.205 493.12 245.42C493.629 245.434 494.12 245.611 494.521 245.926C494.921 246.241 495.209 246.676 495.343 247.168C495.476 247.659 495.448 248.181 495.262 248.655C495.076 249.129 494.742 249.53 494.31 249.8C490.206 252.827 485.578 255.071 480.66 256.42C494.18 261.88 507.19 270.49 520.18 277.23C535.4 285.12 548.74 295.86 563.01 304.96C575.36 312.85 588.01 320.6 600.14 328.8C605.14 332.15 611.84 335.38 615.85 339.7C610.52 346.45 602 345.9 594.21 346.76C583.961 347.957 573.816 349.919 563.86 352.63C550.32 356.27 529.72 359.63 515.97 364C515.97 363.72 517.83 435.52 523.1 473.65C525.01 487.48 529.23 509.89 536.86 521.79C539.37 525.661 542.872 528.79 547 530.85C562.54 539.44 574.74 545.78 587.15 559.29C595.68 568.58 603.08 578.49 610.64 588.57C613.43 592.27 615.76 596.06 618.75 598.82C625.267 594.666 631.55 590.156 637.57 585.31C658.82 568.16 675.91 545.68 684.57 519.62C692.88 494.56 693.39 465.93 683.25 441.32C681.505 437.036 679.463 432.88 677.14 428.88C686.836 416.901 695.327 403.995 702.49 390.35C710.68 374.61 718.71 356.94 721.38 339.27C724.39 319.33 716.07 303.24 703.64 288.28Z" fill="#F4F6F9"/>
<path d="M287.87 663.691C306.37 644.901 324.6 625.331 342.41 605.691C355.74 590.971 372.41 572.171 378.6 553.331C383.13 539.561 381.6 523.601 380.81 508.981C379.49 484.911 379.15 460.471 377.81 436.391C376.75 416.771 374.87 397.661 373.81 378.201C359.97 378.361 339.36 379.911 330.3 367.151C318.66 350.761 331.15 336.751 346.15 329.951C357.2 324.951 369.94 326.951 381.63 323.951C382.53 308.181 378.63 289.771 384.28 274.951C390.81 257.761 404.08 251.131 421.67 247.771C441.02 244.091 458.81 248.551 477.03 255.041C491.86 260.321 506.03 269.901 520.17 277.241C535.39 285.131 548.73 295.871 563 304.971C575.36 312.861 588 320.611 600.13 328.811C605.13 332.161 611.83 335.391 615.84 339.711C610.51 346.461 601.99 345.911 594.2 346.771C583.951 347.967 573.806 349.93 563.85 352.641C550.31 356.281 529.71 359.641 515.96 364.011C515.96 363.731 517.82 435.531 523.09 473.661C525 487.491 529.22 509.901 536.85 521.801C539.364 525.67 542.869 528.795 547 530.851C562.54 539.441 574.74 545.781 587.15 559.291C595.68 568.581 603.08 578.491 610.64 588.571C614.51 593.711 617.51 599.041 622.58 601.501C626.15 603.231 630.8 604.501 634.64 606.371C641.26 609.641 648.32 617.471 652.86 622.951C657.95 629.101 662.69 644.071 669.72 647.251" stroke="#333333" stroke-width="7" stroke-linecap="round" stroke-linejoin="round"/>
<path d="M325 285.381C323.79 287.636 322.744 289.976 321.87 292.381" stroke="#333333" stroke-width="7" stroke-linecap="round" stroke-linejoin="round"/>
<path d="M287.869 204.34H278.479" stroke="#333333" stroke-width="7" stroke-linecap="round" stroke-linejoin="round"/>
<path d="M298.04 183.211L293.35 179.301" stroke="#333333" stroke-width="7" stroke-linecap="round" stroke-linejoin="round"/>
<path d="M413.069 140.17C416.209 137.61 416.959 133.58 418.549 130" stroke="#333333" stroke-width="7" stroke-linecap="round" stroke-linejoin="round"/>
<path d="M452.199 183.99L467.069 178.52" stroke="#333333" stroke-width="7" stroke-linecap="round" stroke-linejoin="round"/>
<path d="M458.46 207.471L467.07 210.601" stroke="#333333" stroke-width="7" stroke-linecap="round" stroke-linejoin="round"/>
<path d="M429.979 308.631V300.811" stroke="#333333" stroke-width="7" stroke-linecap="round" stroke-linejoin="round"/>
<path d="M463.31 307.631V299.811" stroke="#333333" stroke-width="7" stroke-linecap="round" stroke-linejoin="round"/>
<path d="M416.13 291.199C430.66 290.509 475.98 289.199 475.98 289.199" stroke="#333333" stroke-width="7" stroke-linecap="round" stroke-linejoin="round"/>
<path d="M488.199 408.58L489.759 396.84" stroke="#333333" stroke-width="7" stroke-linecap="round" stroke-linejoin="round"/>
<path d="M353.6 349.109C358.02 351.019 363.04 352.679 367.69 354.589" stroke="#333333" stroke-width="7" stroke-linecap="round" stroke-linejoin="round"/>
<path d="M389.81 551.09C395.98 551.33 409.47 564.59 417.06 572.95C423.5 580.03 430.06 591.02 437.83 596.15C461.55 611.77 479.95 547.43 480.51 533.15C489.73 544.48 498.42 584.829 521.68 571.349C535.45 563.349 535.55 541.13 537.49 527.52" stroke="#333333" stroke-width="7" stroke-linecap="round" stroke-linejoin="round"/>
<path d="M381 508.74C408.09 521.03 439.17 520.96 468.38 518.13C482.865 516.749 497.091 513.384 510.66 508.13C514.19 506.79 526.71 500.64 527.33 500.89" stroke="#333333" stroke-width="7" stroke-linecap="round" stroke-linejoin="round"/>
<path d="M487.41 595.609C488.23 604.689 483.89 613.829 483.52 623.059C483.17 631.829 480.25 658.839 489.65 664.299C495.54 667.719 503.52 661.459 509.12 668.299C512.62 672.589 512.83 683.969 512.44 689.539C512.26 690.779 512.9 689.039 513.24 688.709" stroke="#333333" stroke-width="7" stroke-linecap="round" stroke-linejoin="round"/>
<path d="M615.749 634.73C602.939 645.62 581.849 651.91 565.879 656.06C565.809 657.19 566.459 656.2 567.229 655.86" stroke="#333333" stroke-width="7" stroke-linecap="round" stroke-linejoin="round"/>
<path d="M602.439 630C607.029 634.52 607.099 645.59 607.919 651.91" stroke="#333333" stroke-width="7" stroke-linecap="round" stroke-linejoin="round"/>
<path d="M363.46 378.32C365.065 384.218 367.467 389.87 370.6 395.12C370.845 395.499 371.191 395.802 371.6 395.993C372.009 396.184 372.463 396.256 372.911 396.201C373.359 396.146 373.783 395.965 374.133 395.68C374.483 395.395 374.745 395.017 374.89 394.59C374.5 389.14 374.13 383.67 373.83 378.18C370.65 378.22 367.12 378.33 363.46 378.32Z" fill="#333333"/>
<path d="M493.13 245.42C482.94 245.06 475.13 237.53 466.74 232.68C458.552 228.006 449.277 225.571 439.85 225.62C423.94 225.62 402.21 233.7 398.05 250.91C397.692 250.676 397.277 250.545 396.85 250.53C396.4 250.53 395.95 250.53 395.5 250.53C391.17 249.61 386.04 251.23 382.57 253.87C381.943 254.355 381.342 254.872 380.77 255.42C378.13 257.274 375.772 259.501 373.77 262.03C367.24 270.26 365.04 280.76 363.92 290.98C362.64 302.74 361.97 314.61 361.14 326.41C366.46 325.88 371.87 325.69 377.14 324.85C378.364 329.173 379.991 333.371 382 337.39C382.86 339.1 386 338.83 386.29 336.83C387.65 328.46 389.01 320.06 391.4 311.91C393.74 303.91 397.5 296.57 400.62 288.91C403.39 282.09 405.51 274.73 404.98 267.29C404.859 265.519 404.598 263.76 404.2 262.03C408.281 264.216 412.812 265.427 417.44 265.57C426.36 265.86 432.74 261.26 440.44 257.66C450.1 253.16 459.79 257.72 469.79 257.84C478.596 257.903 487.183 255.094 494.25 249.84C494.696 249.581 495.046 249.185 495.246 248.709C495.446 248.234 495.486 247.707 495.359 247.207C495.233 246.707 494.947 246.262 494.544 245.939C494.142 245.617 493.645 245.435 493.13 245.42Z" fill="#333333"/>
<path d="M412.35 216.87C409.29 199.05 394.79 184.29 376.25 183.59C366.04 183.2 356.83 188.21 348.68 193.88C340.53 199.55 335.14 206.88 333.18 216.71C331.18 226.81 331.47 238.58 336.55 247.78C338.437 251.214 341.101 254.159 344.33 256.38C348.294 261.388 353.901 264.834 360.16 266.11C367.107 267.349 374.258 266.732 380.89 264.32C383.775 263.871 386.604 263.116 389.33 262.07C397.77 258.79 405.07 252.78 408.96 244.5C412.859 235.845 414.041 226.211 412.35 216.87Z" fill="#FFE945"/>
<path d="M361.43 221C365.7 215.61 372.36 211.62 377.63 207.1C377.63 214.15 375.92 221.19 374.51 228C373.98 230.57 371.41 238.4 372.9 238.22" stroke="#333333" stroke-width="7" stroke-linecap="round" stroke-linejoin="round"/>
<path d="M362.47 240.821C368.55 240.241 374.57 238.201 380.73 238.211" stroke="#333333" stroke-width="7" stroke-linecap="round" stroke-linejoin="round"/>
<path d="M136.87 413.341C136.854 412.422 136.479 411.546 135.824 410.901C135.17 410.256 134.289 409.893 133.37 409.891H133.31C132.85 409.898 132.396 409.997 131.975 410.18C131.553 410.363 131.172 410.627 130.852 410.958C130.533 411.289 130.282 411.679 130.113 412.107C129.944 412.534 129.862 412.991 129.87 413.451C129.97 420.282 130.542 427.098 131.58 433.851C131.702 434.68 132.116 435.439 132.749 435.989C133.382 436.54 134.191 436.845 135.03 436.851C135.209 436.866 135.39 436.866 135.57 436.851C136.024 436.78 136.46 436.62 136.853 436.381C137.246 436.142 137.588 435.827 137.859 435.456C138.13 435.084 138.325 434.663 138.433 434.216C138.542 433.769 138.561 433.305 138.49 432.851C137.498 426.393 136.957 419.874 136.87 413.341Z" fill="#333333"/>
<path d="M606.79 508.681C606.537 509.065 606.362 509.495 606.276 509.947C606.189 510.398 606.192 510.863 606.285 511.313C606.378 511.764 606.559 512.191 606.817 512.572C607.075 512.952 607.406 513.278 607.79 513.531C613.652 517.343 619.99 520.369 626.64 522.531C627.08 522.686 627.546 522.752 628.012 522.724C628.477 522.697 628.932 522.577 629.351 522.371C629.769 522.165 630.142 521.878 630.448 521.526C630.754 521.174 630.986 520.764 631.131 520.321C631.276 519.878 631.332 519.41 631.294 518.945C631.256 518.481 631.125 518.028 630.91 517.615C630.695 517.201 630.399 516.834 630.04 516.537C629.681 516.239 629.266 516.016 628.82 515.881C622.765 513.925 616.995 511.178 611.66 507.711C611.277 507.453 610.847 507.274 610.394 507.183C609.942 507.093 609.476 507.093 609.023 507.183C608.571 507.273 608.14 507.452 607.757 507.709C607.374 507.966 607.045 508.296 606.79 508.681Z" fill="#333333"/>
<path d="M222.64 461.391C223.281 461.388 223.91 461.211 224.46 460.881C229.775 457.518 235.611 455.058 241.73 453.601C242.192 453.517 242.632 453.342 243.025 453.085C243.417 452.828 243.754 452.494 244.016 452.104C244.277 451.714 244.457 451.276 244.545 450.815C244.633 450.354 244.628 449.88 244.53 449.421C244.431 448.962 244.241 448.528 243.971 448.144C243.701 447.76 243.357 447.434 242.958 447.186C242.56 446.937 242.116 446.772 241.652 446.699C241.189 446.626 240.715 446.647 240.26 446.761C233.371 448.381 226.799 451.131 220.81 454.901C220.157 455.298 219.651 455.898 219.372 456.61C219.092 457.321 219.053 458.105 219.26 458.84C219.468 459.576 219.91 460.224 220.521 460.684C221.131 461.145 221.875 461.393 222.64 461.391Z" fill="#333333"/>
<path d="M186.24 497.64C186.642 497.863 187.084 498.005 187.541 498.058C187.997 498.11 188.46 498.072 188.902 497.946C189.344 497.82 189.757 497.608 190.117 497.322C190.477 497.036 190.777 496.682 191 496.28C194.142 490.664 197.844 485.381 202.05 480.51C202.357 480.162 202.593 479.757 202.742 479.318C202.891 478.879 202.952 478.414 202.92 477.952C202.888 477.489 202.765 477.037 202.557 476.622C202.349 476.208 202.06 475.838 201.708 475.536C201.357 475.234 200.948 475.005 200.507 474.862C200.065 474.719 199.6 474.665 199.138 474.703C198.675 474.742 198.225 474.872 197.814 475.086C197.402 475.3 197.037 475.594 196.74 475.95C192.224 481.177 188.251 486.85 184.88 492.88C184.657 493.282 184.515 493.724 184.462 494.18C184.41 494.637 184.448 495.1 184.574 495.542C184.7 495.984 184.913 496.396 185.198 496.756C185.484 497.117 185.838 497.417 186.24 497.64Z" fill="#333333"/>
<path d="M146.669 461.74C146.512 461.292 146.264 460.88 145.942 460.53C145.62 460.181 145.23 459.901 144.796 459.707C144.362 459.513 143.893 459.409 143.418 459.403C142.942 459.396 142.471 459.486 142.031 459.668C141.592 459.849 141.194 460.118 140.862 460.459C140.53 460.799 140.271 461.203 140.101 461.647C139.93 462.091 139.852 462.565 139.871 463.04C139.89 463.515 140.005 463.981 140.21 464.41C142.813 470.768 145.951 476.893 149.589 482.72C149.906 483.228 150.349 483.646 150.874 483.934C151.4 484.221 151.991 484.368 152.589 484.36C153.248 484.362 153.894 484.175 154.449 483.82C154.839 483.576 155.176 483.258 155.442 482.884C155.708 482.509 155.898 482.086 156 481.638C156.102 481.19 156.115 480.727 156.038 480.274C155.96 479.821 155.795 479.388 155.549 479C152.112 473.505 149.142 467.731 146.669 461.74Z" fill="#333333"/>
<path d="M141.999 359.849C141.562 359.71 141.101 359.657 140.644 359.696C140.186 359.734 139.741 359.863 139.333 360.074C138.925 360.284 138.563 360.574 138.267 360.925C137.972 361.276 137.748 361.682 137.609 362.119C135.575 368.616 133.929 375.228 132.679 381.919C132.594 382.371 132.598 382.835 132.692 383.285C132.786 383.735 132.968 384.163 133.227 384.542C133.486 384.922 133.817 385.247 134.202 385.499C134.587 385.751 135.017 385.924 135.469 386.009C135.687 386.052 135.908 386.076 136.129 386.079C136.943 386.077 137.731 385.792 138.357 385.271C138.983 384.751 139.408 384.029 139.559 383.229C140.754 376.808 142.33 370.464 144.279 364.229C144.417 363.792 144.468 363.332 144.428 362.875C144.388 362.418 144.259 361.974 144.047 361.567C143.835 361.16 143.545 360.799 143.194 360.504C142.843 360.21 142.437 359.987 141.999 359.849Z" fill="#333333"/>
<path d="M163.519 317C158.889 322.052 154.7 327.492 150.999 333.26C150.492 334.035 150.312 334.979 150.499 335.887C150.687 336.794 151.226 337.59 151.999 338.1C152.782 338.599 153.731 338.768 154.638 338.57C155.546 338.371 156.337 337.821 156.839 337.04C160.342 331.602 164.303 326.473 168.679 321.71C169.305 321.024 169.633 320.118 169.591 319.191C169.549 318.263 169.14 317.391 168.454 316.765C167.769 316.139 166.863 315.811 165.935 315.853C165.008 315.895 164.135 316.304 163.509 316.99L163.519 317Z" fill="#333333"/>
<path d="M616.71 554.341C616.346 554.621 616.04 554.971 615.811 555.369C615.581 555.768 615.433 556.208 615.373 556.663C615.314 557.119 615.345 557.583 615.464 558.027C615.584 558.47 615.79 558.887 616.07 559.251C616.35 559.615 616.7 559.921 617.098 560.15C617.497 560.38 617.937 560.528 618.392 560.588C618.848 560.647 619.312 560.616 619.756 560.497C620.2 560.377 620.616 560.171 620.98 559.891C623.77 557.741 626.43 555.541 628.87 553.361C631.31 551.181 633.87 548.681 636.26 546.241C636.628 545.924 636.926 545.534 637.135 545.095C637.343 544.657 637.459 544.18 637.473 543.695C637.488 543.209 637.401 542.726 637.219 542.276C637.037 541.826 636.763 541.419 636.414 541.08C636.066 540.742 635.651 540.479 635.196 540.31C634.741 540.14 634.256 540.067 633.771 540.096C633.286 540.124 632.813 540.253 632.38 540.474C631.948 540.696 631.566 541.004 631.26 541.381C629.02 543.691 626.66 545.971 624.26 548.141C621.86 550.311 619.37 552.301 616.71 554.341Z" fill="#333333"/>
<path d="M665.46 459.729V460.319C665.46 463.829 665.29 467.379 664.94 470.879C664.854 471.803 665.137 472.723 665.727 473.439C666.317 474.155 667.167 474.608 668.09 474.699H668.43C669.299 474.698 670.136 474.374 670.78 473.79C671.423 473.206 671.826 472.404 671.91 471.539C672.27 467.819 672.46 464.039 672.46 460.299V459.669C672.439 456.656 672.202 453.648 671.75 450.669C671.608 449.752 671.108 448.928 670.358 448.379C669.609 447.831 668.673 447.602 667.755 447.744C666.838 447.886 666.014 448.387 665.465 449.136C664.917 449.885 664.688 450.822 664.83 451.739C665.232 454.384 665.442 457.054 665.46 459.729Z" fill="#333333"/>
<path d="M636.13 419.08C641.465 420.077 646.513 422.246 650.91 425.43C651.43 425.83 651.91 426.25 652.42 426.67C652.762 426.984 653.164 427.226 653.601 427.382C654.038 427.539 654.502 427.607 654.966 427.583C655.43 427.558 655.884 427.442 656.302 427.24C656.721 427.039 657.095 426.756 657.402 426.408C657.71 426.06 657.946 425.655 658.095 425.215C658.245 424.776 658.306 424.311 658.274 423.847C658.242 423.384 658.118 422.932 657.91 422.517C657.701 422.102 657.412 421.732 657.06 421.43C656.45 420.89 655.81 420.36 655.15 419.87C649.923 416.04 643.906 413.426 637.54 412.22C637.089 412.128 636.625 412.125 636.173 412.211C635.722 412.298 635.292 412.473 634.908 412.726C634.524 412.979 634.194 413.305 633.936 413.686C633.678 414.067 633.497 414.495 633.405 414.945C633.312 415.396 633.309 415.86 633.396 416.311C633.483 416.763 633.658 417.193 633.911 417.577C634.164 417.961 634.49 418.291 634.871 418.549C635.251 418.807 635.679 418.988 636.13 419.08Z" fill="#333333"/>
<path d="M610.129 419.001C609.855 418.631 609.511 418.32 609.116 418.084C608.721 417.848 608.284 417.692 607.828 417.625C607.373 417.558 606.91 417.582 606.464 417.694C606.018 417.807 605.598 418.006 605.229 418.281C599.458 422.688 594.837 428.424 591.759 435.001C591.556 435.413 591.436 435.861 591.407 436.32C591.377 436.778 591.438 437.238 591.587 437.673C591.736 438.108 591.969 438.509 592.273 438.854C592.577 439.198 592.946 439.479 593.359 439.681C593.837 439.921 594.365 440.044 594.899 440.041C595.552 440.04 596.192 439.857 596.747 439.513C597.301 439.168 597.749 438.676 598.039 438.091C600.637 432.529 604.533 427.673 609.399 423.931C609.774 423.657 610.09 423.312 610.329 422.915C610.569 422.518 610.727 422.077 610.795 421.618C610.863 421.16 610.839 420.692 610.725 420.243C610.611 419.793 610.408 419.371 610.129 419.001Z" fill="#333333"/>
<path d="M585.05 466.62C585.123 473.64 586.211 480.612 588.28 487.32C588.503 488.029 588.946 488.649 589.545 489.09C590.143 489.53 590.867 489.768 591.61 489.77C591.97 489.768 592.327 489.71 592.67 489.6C593.554 489.32 594.291 488.7 594.718 487.877C595.146 487.054 595.229 486.095 594.95 485.21C593.089 479.156 592.112 472.864 592.05 466.53C592.04 465.609 591.666 464.729 591.011 464.081C590.356 463.433 589.471 463.07 588.55 463.07C588.087 463.072 587.628 463.165 587.201 463.344C586.773 463.524 586.386 463.786 586.06 464.116C585.735 464.446 585.478 464.837 585.305 465.267C585.131 465.697 585.045 466.157 585.05 466.62Z" fill="#333333"/>
<path d="M714.69 483.351C712.09 486.451 709.33 489.451 706.5 492.251C704.71 494.031 702.9 495.721 701.12 497.251C700.583 497.719 700.203 498.339 700.029 499.03C699.856 499.72 699.897 500.447 700.149 501.113C700.4 501.779 700.849 502.352 701.436 502.756C702.022 503.159 702.718 503.374 703.43 503.371C704.281 503.375 705.103 503.066 705.74 502.501C707.62 500.841 709.53 499.061 711.42 497.191C714.42 494.191 717.31 491.081 720.05 487.811C720.356 487.46 720.59 487.052 720.737 486.61C720.884 486.168 720.941 485.702 720.905 485.237C720.87 484.773 720.742 484.321 720.529 483.906C720.316 483.492 720.023 483.125 719.666 482.825C719.309 482.526 718.897 482.301 718.452 482.163C718.007 482.025 717.539 481.977 717.076 482.022C716.613 482.068 716.163 482.205 715.753 482.426C715.343 482.647 714.982 482.948 714.69 483.311V483.351Z" fill="#333333"/>
<path d="M297.09 627.71C298.018 627.788 298.939 627.494 299.651 626.893C300.363 626.292 300.806 625.433 300.885 624.505C300.963 623.576 300.669 622.655 300.068 621.943C299.467 621.232 298.608 620.788 297.68 620.71C292.68 619.86 287.76 618.86 283.12 617.71C281.55 617.33 279.98 616.94 278.43 616.53C277.984 616.413 277.521 616.386 277.065 616.449C276.609 616.512 276.17 616.664 275.773 616.897C275.376 617.129 275.029 617.438 274.751 617.805C274.474 618.171 274.271 618.589 274.155 619.035C274.038 619.48 274.011 619.943 274.074 620.399C274.137 620.855 274.289 621.294 274.522 621.691C274.754 622.088 275.063 622.435 275.43 622.713C275.797 622.991 276.214 623.193 276.66 623.31C278.26 623.72 279.87 624.13 281.48 624.52C286.27 625.67 291.32 626.7 296.48 627.58C296.678 627.644 296.882 627.688 297.09 627.71Z" fill="#333333"/>
<path d="M281.419 255.23C280.625 255.479 279.945 256.003 279.501 256.708C279.058 257.413 278.881 258.253 279.001 259.077C279.122 259.901 279.532 260.655 280.159 261.203C280.785 261.752 281.587 262.059 282.419 262.07C282.758 262.066 283.095 262.016 283.419 261.92L301.669 256.28C295.155 263.524 288.184 270.345 280.799 276.7C280.265 277.169 279.886 277.791 279.713 278.481C279.541 279.172 279.583 279.898 279.834 280.564C280.085 281.23 280.532 281.804 281.118 282.208C281.703 282.613 282.398 282.83 283.109 282.83C283.96 282.835 284.783 282.525 285.419 281.96C315.249 255.73 313.019 251.25 311.949 249.09C310.799 246.78 308.199 244.55 289.239 242.77C279.959 241.89 270.819 241.54 270.729 241.53C270.27 241.512 269.811 241.585 269.38 241.745C268.948 241.904 268.553 242.147 268.215 242.46C267.877 242.772 267.605 243.148 267.412 243.566C267.22 243.984 267.112 244.435 267.094 244.895C267.077 245.355 267.15 245.813 267.309 246.245C267.469 246.676 267.712 247.072 268.024 247.409C268.337 247.747 268.712 248.02 269.13 248.212C269.548 248.404 270 248.512 270.459 248.53C280.959 248.93 289.949 249.72 296.329 250.61L281.419 255.23Z" fill="#333333"/>
<path d="M263.77 460.101C263.314 460.17 262.877 460.329 262.482 460.568C262.088 460.806 261.745 461.12 261.472 461.492C261.199 461.863 261.001 462.285 260.891 462.732C260.781 463.18 260.76 463.645 260.83 464.101C261.748 470.035 260.801 476.108 258.12 481.481C257.729 482.313 257.682 483.265 257.987 484.132C258.293 484.999 258.927 485.711 259.753 486.114C260.579 486.517 261.53 486.579 262.402 486.287C263.273 485.994 263.995 485.371 264.41 484.551C266.874 479.576 268.161 474.102 268.17 468.551C268.169 466.706 268.029 464.864 267.75 463.041C267.683 462.586 267.526 462.149 267.29 461.754C267.053 461.36 266.741 461.017 266.371 460.743C266.001 460.47 265.581 460.273 265.135 460.162C264.688 460.052 264.225 460.031 263.77 460.101Z" fill="#333333"/>
<path d="M190.9 516.46C191.734 516.463 192.543 516.168 193.179 515.627C193.815 515.086 194.237 514.336 194.368 513.512C194.5 512.688 194.333 511.843 193.896 511.131C193.46 510.42 192.784 509.887 191.99 509.63C186.019 507.595 180.415 504.613 175.39 500.8C174.642 500.25 173.706 500.019 172.788 500.159C171.87 500.299 171.045 500.797 170.495 501.545C169.944 502.293 169.714 503.229 169.853 504.147C169.993 505.065 170.492 505.89 171.24 506.44C176.865 510.69 183.134 514.012 189.81 516.28C190.161 516.398 190.529 516.459 190.9 516.46Z" fill="#333333"/>
<path d="M251.68 264.349C245.21 266.429 238.8 268.759 232.63 271.259C231.875 271.567 231.252 272.129 230.867 272.848C230.482 273.567 230.361 274.398 230.523 275.197C230.686 275.996 231.122 276.713 231.757 277.224C232.391 277.736 233.185 278.01 234 277.999C234.452 278 234.9 277.915 235.32 277.749C241.32 275.309 247.56 273.039 253.87 271.019C254.755 270.735 255.49 270.112 255.915 269.286C256.34 268.46 256.419 267.499 256.135 266.614C255.851 265.73 255.228 264.994 254.402 264.569C253.576 264.145 252.615 264.065 251.73 264.349H251.68Z" fill="#333333"/>
<path d="M745.539 439.13C745.124 438.932 744.674 438.817 744.215 438.792C743.756 438.768 743.296 438.834 742.862 438.987C742.429 439.14 742.029 439.378 741.687 439.685C741.345 439.993 741.067 440.365 740.869 440.78C737.669 447.43 734.699 453.17 731.789 458.33C731.541 458.731 731.377 459.178 731.306 459.644C731.235 460.11 731.258 460.585 731.375 461.042C731.493 461.499 731.701 461.927 731.988 462.301C732.274 462.675 732.634 462.988 733.044 463.219C733.455 463.451 733.908 463.598 734.376 463.65C734.845 463.703 735.319 463.66 735.77 463.525C736.222 463.389 736.642 463.164 737.004 462.863C737.366 462.561 737.664 462.189 737.879 461.77C740.879 456.48 743.879 450.6 747.179 443.77C747.569 442.936 747.616 441.982 747.309 441.115C747.002 440.247 746.367 439.534 745.539 439.13Z" fill="#333333"/>
<path d="M676.08 513.29C670.163 515.751 663.987 517.535 657.67 518.611C657.361 518.66 657.061 518.754 656.78 518.891C659.746 513.632 662.332 508.168 664.52 502.541C664.827 501.682 664.787 500.738 664.409 499.909C664.031 499.08 663.344 498.431 662.495 498.1C661.646 497.769 660.701 497.783 659.861 498.138C659.022 498.492 658.354 499.161 658 500.001C655.655 506.037 652.822 511.873 649.53 517.451C649.111 518.159 648.956 518.993 649.092 519.805C649.227 520.617 649.644 521.355 650.27 521.89C650.895 522.425 651.689 522.722 652.512 522.729C653.335 522.737 654.135 522.454 654.77 521.931C654.75 522.167 654.75 522.404 654.77 522.641C654.911 523.454 655.334 524.191 655.965 524.724C656.596 525.256 657.394 525.549 658.22 525.551C658.419 525.565 658.62 525.565 658.82 525.551C665.655 524.384 672.337 522.452 678.74 519.79C679.164 519.613 679.549 519.354 679.873 519.028C680.197 518.702 680.454 518.315 680.628 517.89C680.803 517.465 680.892 517.009 680.891 516.549C680.889 516.09 680.797 515.635 680.62 515.211C680.442 514.786 680.183 514.401 679.857 514.077C679.531 513.753 679.144 513.497 678.719 513.322C678.294 513.147 677.838 513.058 677.379 513.06C676.919 513.061 676.464 513.153 676.04 513.331L676.08 513.29Z" fill="#333333"/>
<path d="M205.27 583.999C200.261 580.107 195.836 575.517 192.13 570.369C191.566 569.702 190.773 569.269 189.906 569.156C189.04 569.044 188.163 569.259 187.447 569.76C186.731 570.262 186.229 571.013 186.039 571.865C185.849 572.718 185.985 573.611 186.42 574.369C190.514 580.064 195.404 585.142 200.94 589.449C201.669 590.018 202.595 590.275 203.513 590.164C204.432 590.052 205.269 589.581 205.842 588.854C206.414 588.127 206.675 587.203 206.568 586.284C206.461 585.364 205.994 584.525 205.27 583.949V583.999Z" fill="#333333"/>
<path d="M181.09 536.689C181.03 535.579 181.01 534.449 181.01 533.329C181.012 530.29 181.209 527.253 181.6 524.239C181.719 523.318 181.467 522.386 180.9 521.65C180.333 520.914 179.496 520.434 178.575 520.314C177.653 520.195 176.722 520.446 175.986 521.014C175.25 521.581 174.769 522.418 174.65 523.339C174.222 526.655 174.009 529.996 174.01 533.339C174.01 534.569 174.01 535.809 174.1 537.039C174.21 539.469 174.43 541.879 174.75 544.209C174.87 545.042 175.286 545.803 175.921 546.354C176.556 546.905 177.369 547.208 178.21 547.209H178.69C179.146 547.148 179.585 546.997 179.982 546.766C180.38 546.534 180.728 546.227 181.006 545.861C181.285 545.495 181.489 545.078 181.606 544.633C181.723 544.188 181.752 543.725 181.69 543.269C181.4 541.129 181.2 538.919 181.09 536.689Z" fill="#333333"/>
<path d="M204.32 285C198.417 288.358 192.699 292.03 187.19 296C186.798 296.262 186.464 296.6 186.206 296.994C185.948 297.389 185.773 297.831 185.69 298.294C185.607 298.758 185.619 299.233 185.725 299.692C185.83 300.151 186.027 300.584 186.304 300.966C186.58 301.347 186.931 301.668 187.335 301.91C187.739 302.153 188.187 302.311 188.654 302.376C189.12 302.441 189.595 302.411 190.05 302.288C190.504 302.165 190.929 301.951 191.3 301.66C196.606 297.816 202.114 294.257 207.8 291C208.575 290.524 209.134 289.764 209.359 288.883C209.584 288.001 209.457 287.066 209.004 286.277C208.552 285.487 207.809 284.905 206.935 284.654C206.06 284.402 205.122 284.501 204.32 284.93V285Z" fill="#333333"/>
<path d="M249.319 607.19C243.049 604.76 236.959 602.13 231.219 599.36C230.393 599.028 229.47 599.023 228.64 599.347C227.81 599.671 227.135 600.3 226.752 601.105C226.37 601.909 226.308 602.83 226.581 603.678C226.854 604.527 227.44 605.239 228.219 605.67C234.129 608.52 240.389 611.22 246.839 613.72C247.702 614.04 248.656 614.007 249.495 613.629C250.334 613.251 250.99 612.557 251.321 611.699C251.653 610.84 251.632 609.886 251.265 609.042C250.898 608.198 250.213 607.533 249.359 607.19H249.319Z" fill="#333333"/>
<path d="M242.65 502.811C242.18 502.01 241.413 501.428 240.515 501.192C239.617 500.956 238.663 501.085 237.86 501.551C232.3 504.753 226.404 507.335 220.28 509.251C219.488 509.507 218.814 510.037 218.377 510.745C217.941 511.454 217.771 512.295 217.899 513.117C218.026 513.94 218.443 514.69 219.074 515.233C219.704 515.776 220.508 516.076 221.34 516.081C221.699 516.081 222.057 516.027 222.4 515.921C229.017 513.847 235.388 511.057 241.4 507.601C242.199 507.129 242.779 506.361 243.013 505.464C243.247 504.566 243.117 503.612 242.65 502.811Z" fill="#333333"/>
</svg>
