<svg width="250" height="250" viewBox="0 0 250 250" fill="none" xmlns="http://www.w3.org/2000/svg">
<path d="M179.17 105.8C172.48 85.6098 153.44 69.2198 132.26 67.3198C125.36 66.6998 118.35 66.4298 111.65 68.1898C100.93 70.9998 90.9299 75.7798 83.3799 83.8998C77.6699 90.0398 71.6399 99.8998 70.2099 108.15C66.4499 129.85 69.2099 152.08 84.3399 168.06C103.63 188.42 137.02 189.65 128.13 162.66C123.78 149.46 144.95 138.98 158.47 140.15C175.61 141.64 186 126.52 179.17 105.8Z" stroke="#333333" stroke-width="7" stroke-linecap="round" stroke-linejoin="round"/>
<path d="M88.6703 128.79C93.442 128.79 97.3103 124.922 97.3103 120.15C97.3103 115.378 93.442 111.51 88.6703 111.51C83.8985 111.51 80.0303 115.378 80.0303 120.15C80.0303 124.922 83.8985 128.79 88.6703 128.79Z" stroke="#333333" stroke-width="7" stroke-linecap="round" stroke-linejoin="round"/>
<path d="M105 102.909C109.772 102.909 113.64 99.0406 113.64 94.2689C113.64 89.4972 109.772 85.6289 105 85.6289C100.229 85.6289 96.3604 89.4972 96.3604 94.2689C96.3604 99.0406 100.229 102.909 105 102.909Z" stroke="#333333" stroke-width="7" stroke-linecap="round" stroke-linejoin="round"/>
<path d="M135.04 97.5788C139.812 97.5788 143.68 93.7106 143.68 88.9388C143.68 84.1671 139.812 80.2988 135.04 80.2988C130.269 80.2988 126.4 84.1671 126.4 88.9388C126.4 93.7106 130.269 97.5788 135.04 97.5788Z" stroke="#333333" stroke-width="7" stroke-linecap="round" stroke-linejoin="round"/>
<path d="M156.77 117.399C161.542 117.399 165.41 113.531 165.41 108.759C165.41 103.987 161.542 100.119 156.77 100.119C151.998 100.119 148.13 103.987 148.13 108.759C148.13 113.531 151.998 117.399 156.77 117.399Z" stroke="#333333" stroke-width="7" stroke-linecap="round" stroke-linejoin="round"/>
</svg>
