<svg width="250" height="250" viewBox="0 0 250 250" fill="none" xmlns="http://www.w3.org/2000/svg">
<path d="M164.07 122.61L183.17 103.38M144.37 66.0801L124.54 85.9101L144.37 66.0801Z" stroke="#333333" stroke-width="7" stroke-linecap="round" stroke-linejoin="round"/>
<path d="M100.68 187.411C104.36 183.731 164.07 122.611 164.07 122.611C167.07 119.611 163.92 115.091 160.54 109.791C157.16 104.491 140.91 89.6611 136.3 86.7911C131.69 83.9211 127.64 82.7911 124.54 85.8711L61.8701 148.591L100.68 187.411Z" fill="#FFE945" stroke="#FFE945" stroke-width="7" stroke-linecap="round" stroke-linejoin="round"/>
<path d="M193.07 77.261C189.69 71.961 173.43 57.141 168.83 54.261C164.23 51.381 160.17 50.261 157.07 53.341L144.37 66.031C159.289 76.2185 172.403 88.8251 183.17 103.331C191.06 95.461 196.59 90.031 196.59 90.031C199.64 87.001 196.44 82.561 193.07 77.261Z" fill="#FEAABC" stroke="#FEAABC" stroke-width="7" stroke-linecap="round" stroke-linejoin="round"/>
<path d="M141.67 93.5801L73.6699 161.58" stroke="#333333" stroke-width="7" stroke-linecap="round" stroke-linejoin="round"/>
<path d="M156.09 107.25C131.32 132.33 113.5 150.47 88.7305 175.55" stroke="#333333" stroke-width="7" stroke-linecap="round" stroke-linejoin="round"/>
<path d="M61.1602 149.301C57.2902 162.601 54.8502 184.851 52.1602 198.451C52.1602 198.451 93.3802 190.271 99.9502 188.111" stroke="#333333" stroke-width="7" stroke-linecap="round" stroke-linejoin="round"/>
<path d="M55.8899 176.611L72.9999 193.741C67.3299 194.501 52.1699 198.451 52.1699 198.451L55.8899 176.611Z" fill="#333333" stroke="#333333" stroke-width="7" stroke-linecap="round" stroke-linejoin="round"/>
</svg>
