<svg width="250" height="250" viewBox="0 0 250 250" fill="none" xmlns="http://www.w3.org/2000/svg">
<path d="M105.32 182.769C109 179.089 163.71 122.999 163.71 122.999C166.71 119.999 163.56 115.479 160.19 110.179C156.82 104.879 140.55 90.0589 135.94 87.1789C131.33 84.2989 127.29 83.1789 124.19 86.2589L63.6295 146.819C62.2922 148.074 61.4929 149.798 61.3995 151.629C61.3101 152.349 61.3782 153.079 61.5992 153.77C61.8202 154.461 62.1889 155.095 62.6795 155.629C71.6735 167.643 82.4671 178.197 94.6795 186.919C98.4395 189.639 101.64 186.449 105.32 182.769Z" stroke="#333333" stroke-width="7" stroke-linecap="round" stroke-linejoin="round"/>
<path d="M61.5 150.689C57.63 163.999 55.21 184.499 52.5 198.089C52.5 198.089 90.11 190.019 96.68 187.859" stroke="#333333" stroke-width="7" stroke-linecap="round" stroke-linejoin="round"/>
<path d="M56.24 176.26L73.36 193.38C67.69 194.15 52.54 198.09 52.54 198.09L56.24 176.26Z" fill="#333333" stroke="#333333" stroke-width="7" stroke-linecap="round" stroke-linejoin="round"/>
<path d="M192.71 77.6193C189.34 72.3193 173.08 57.4892 168.47 54.6192C163.86 51.7492 159.82 50.6192 156.72 53.6992L144 66.4392C158.918 76.6242 172.029 89.2313 182.79 103.739C190.69 95.8692 196.22 90.4393 196.22 90.4393C199.28 87.3893 196.09 82.9193 192.71 77.6193Z" stroke="#333333" stroke-width="7" stroke-linecap="round" stroke-linejoin="round"/>
<path d="M141.31 93.9395L71.9004 163.349" stroke="#333333" stroke-width="7" stroke-linecap="round" stroke-linejoin="round"/>
<path d="M155.74 107.6C130.97 132.68 111.74 152.24 86.96 177.32" stroke="#333333" stroke-width="7" stroke-linecap="round" stroke-linejoin="round"/>
<path d="M163.71 122.999L182.81 103.779M144 66.4395L124.19 86.2694L144 66.4395Z" stroke="#333333" stroke-width="7" stroke-linecap="round" stroke-linejoin="round"/>
</svg>
