<svg width="820" height="820" viewBox="0 0 820 820" fill="none" xmlns="http://www.w3.org/2000/svg">
<path d="M449.419 174.65C450.819 175.92 450.229 178.83 448.229 179.15C445.911 179.524 443.574 179.774 441.229 179.9C445.95 188.387 450.021 197.219 453.409 206.32C456.229 213.65 462.979 233.24 462.979 233.24C458.889 232.66 454.109 230.24 449.979 228.82C444.05 226.849 438.249 224.511 432.609 221.82L446.929 310.89L446.869 312.22C447.799 311.74 448.609 311.33 449.209 311.08C452.909 309.49 456.799 343.4 456.799 343.4C456.799 343.4 477.669 351.06 487.709 355.51C502.219 361.94 515.279 367.35 528.759 375.72C555.069 392.07 579.649 408.72 600.609 432.06C603.119 434.85 605.709 437.62 608.229 440.45C614.549 428.45 617.879 414.25 620.229 401.75C623.777 382.808 624.492 363.443 622.349 344.29C618.159 306.56 603.459 269.62 579.709 239.92C556.199 210.52 524.599 187.92 489.569 174.22C473.293 167.863 456.369 163.313 439.099 160.65C441.999 166 445.249 170.87 449.419 174.65Z" fill="#F4F6F9"/>
<path d="M214.349 449.48C243.48 411.84 281.501 382.021 324.999 362.7C332.339 359.43 346.779 353.65 350.719 347.43C350.719 347.17 354.499 334.59 356.599 327.58C358.379 321.64 360.119 319.75 363.099 319.45V319.39C363.099 319.39 362.169 283.47 361.749 274.3C361.229 263.01 360.479 251.69 360.419 240.3H360.349C357.209 239.38 355.349 234.82 354.039 232.18C352.464 229.048 351.153 225.79 350.119 222.44C349.689 221.05 349.319 219.65 348.979 218.24H349.469C340.829 217.78 334.669 216.79 332.139 215.32C328.447 212.858 325.819 209.094 324.779 204.78C323.329 197.55 328.689 190.9 335.079 189.3C338.61 188.471 342.234 188.112 345.859 188.23C345.779 184.13 345.779 180.02 345.859 175.93C345.859 172.74 345.999 169.52 346.279 166.32C317.109 175.19 290.929 191.24 270.449 215.08C257.319 230.37 246.599 247.66 236.759 265.19C226.349 283.74 217.089 302.95 210.349 323.19C197.489 361.7 194.299 405.09 211.259 442.96C212.179 445.17 213.239 447.34 214.349 449.48Z" fill="#F4F6F9"/>
<path d="M292 654.8C282.87 646.52 278.68 633.8 273.85 622.23C269.3 611.38 263.08 588.88 263.08 588.88C263.08 588.88 235.85 606.64 233.48 616.68C225.38 610.75 203.94 617.75 195.84 623.08C204.73 620.98 220.07 605.49 211.78 595.15C209.01 591.7 191.63 580.65 185.9 584.7C177.43 590.7 193.01 595.7 197.22 595.58C220.66 595.02 208.08 560.3 194.08 553.91C201.46 558.67 205.97 564.46 215.58 563.41C226.37 562.23 233.71 552.41 235.89 542.67" stroke="#333333" stroke-width="7" stroke-linecap="round" stroke-linejoin="round"/>
<path d="M233.469 616.68C232.859 620.32 234.529 631.8 235.639 635.98C237.72 643.553 240.839 650.802 244.909 657.52C247.452 661.787 250.842 665.487 254.87 668.394C258.898 671.301 263.478 673.351 268.329 674.42C268.889 684.03 266.939 690.96 263.739 699.86" stroke="#333333" stroke-width="7" stroke-linecap="round" stroke-linejoin="round"/>
<path d="M291.999 655.471C291.349 659.361 272.589 671.271 267.789 674.301" stroke="#333333" stroke-width="7" stroke-linecap="round" stroke-linejoin="round"/>
<path d="M393.37 548.48C386.87 547.56 381 544.01 373.71 543.82C369.13 543.7 360.38 550.46 361.24 554.97" stroke="#333333" stroke-width="7" stroke-linecap="round" stroke-linejoin="round"/>
<path d="M264 592.001C264 592.001 272.36 581.331 276.53 575.411C283.99 564.821 291.96 554.111 300.36 544.191C312.61 529.741 326.64 514.671 345.9 511.661C362.08 509.141 376.77 512.951 390.9 520.461" stroke="#333333" stroke-width="7" stroke-linecap="round" stroke-linejoin="round"/>
<path d="M347.819 549.201C359.999 553.481 367.999 558.001 377.709 566.881C382.259 571.021 386.149 578.341 386.149 585.181C386.149 592.021 381.339 598.891 375.459 600.901" stroke="#333333" stroke-width="7" stroke-linecap="round" stroke-linejoin="round"/>
<path d="M344.449 568.701C367.309 576.851 398.719 623.281 359.189 633.281" stroke="#333333" stroke-width="7" stroke-linecap="round" stroke-linejoin="round"/>
<path d="M291.319 653.451C310.489 655.451 355.259 609.681 332.259 611.171C309.259 612.661 311.649 646.171 332.069 650.431C351.839 654.601 366.279 628.481 361.879 611.431C359.959 603.951 350.209 596.431 343.779 596.291" stroke="#333333" stroke-width="7" stroke-linecap="round" stroke-linejoin="round"/>
<path d="M403.639 371C404.249 380.46 380.029 428.36 391.009 433.41C394.889 435.2 397.399 428.91 401.269 429.41C404.589 429.87 407.649 435.46 407.859 438.34C408.729 450.47 385.009 473.57 395.669 474.46C406.329 475.35 414.619 479.79 408.939 494.53" stroke="#333333" stroke-width="7" stroke-linecap="round" stroke-linejoin="round"/>
<path d="M491.079 577.451C502.179 582.301 503.399 588.451 506.219 596.281C510.759 608.931 512.499 626.131 531.439 624.531" stroke="#333333" stroke-width="7" stroke-linecap="round" stroke-linejoin="round"/>
<path d="M488.94 522.581C488.68 516.661 488.52 510.651 487.84 504.761C487.34 500.411 485.95 496.051 481.99 493.651C478.03 491.251 473.38 491.571 469.09 491.651C462.343 491.764 455.6 492.098 448.86 492.651C436.98 493.651 424.63 494.941 413.08 498.001C402.72 500.741 395.46 506.941 395.08 518.141C394.88 526.187 395.103 534.238 395.75 542.261C395.56 549.111 399.28 591.261 398.68 605.521L405.3 609.021C423.92 619.301 449.24 619.841 465.25 616.861C481.26 613.881 490.5 610.251 490.5 610.251C490.052 607.273 489.935 604.255 490.15 601.251C491.34 588.181 489.08 575.061 489.39 561.931C489.7 548.801 489.51 535.701 488.94 522.581Z" fill="#9ED5F0" stroke="#9ED5F0" stroke-width="7" stroke-linecap="round" stroke-linejoin="round"/>
<path d="M206.789 459.771C236.674 417.306 277.532 383.755 324.999 362.701C332.349 359.431 346.809 353.641 350.729 347.421C350.469 348.061 354.429 334.841 356.599 327.581C359.759 317.031 362.799 319.241 372.889 320.511C390.279 322.691 409.839 325.971 427.219 321.351C434.669 319.351 445.529 312.641 449.219 311.061C452.909 309.481 456.809 343.381 456.809 343.381C456.809 343.381 477.679 351.041 487.719 355.491C502.229 361.921 515.289 367.331 528.769 375.701C555.079 392.051 579.659 408.701 600.619 432.041C606.419 438.491 612.619 444.831 617.559 451.931C624.557 462.056 630.922 472.602 636.619 483.511" stroke="#333333" stroke-width="7" stroke-linecap="round" stroke-linejoin="round"/>
<path d="M357.229 350.78C360.909 356.55 374.089 371.94 381.809 369.31C392.809 365.57 398.139 344.58 400.969 334.84C403.489 346 410.869 364.84 422.139 369.84C433.869 375.12 449.139 358.27 452.139 347.56C452.024 348.648 451.782 349.718 451.419 350.75" stroke="#333333" stroke-width="7" stroke-linecap="round" stroke-linejoin="round"/>
<path d="M529.1 439.291C521.72 438.701 491.76 443.061 485.26 445.881" stroke="#333333" stroke-width="7" stroke-linecap="round" stroke-linejoin="round"/>
<path d="M517.609 429.441C520.499 435.761 522.759 453.441 522.759 453.441" stroke="#333333" stroke-width="7" stroke-linecap="round" stroke-linejoin="round"/>
<path d="M507.52 425.4C509.711 432.383 511.31 439.539 512.3 446.79C512.88 450.71 514.92 466.88 514.92 466.88" stroke="#333333" stroke-width="7" stroke-linecap="round" stroke-linejoin="round"/>
<path d="M533 699.86C535.74 694.28 538.36 687.04 538.43 679.07C538.52 667.93 538.78 660.53 537.81 649.46C537.18 642.27 537.3 628.38 531.55 623.32C531.55 623.32 552.8 611.52 564.43 606.32C575.22 614.44 576.12 630.1 578.71 647.51C581.3 664.92 579.45 682.12 576.1 686.9C572.75 691.68 546.8 699.87 533 699.86Z" stroke="#333333" stroke-width="7" stroke-linecap="round" stroke-linejoin="round"/>
<path d="M567.09 607.72C567.98 596.28 580.09 570.29 596.73 591.32C588.37 582 586.89 568.15 586.05 555.32C585.33 544.24 595.74 536.68 600.35 550.19C604.35 561.79 596.51 566.85 585.69 563.03C574.87 559.21 569.69 549.03 566.05 538.75C563.65 531.9 560.28 512.16 561.12 505.75" stroke="#333333" stroke-width="7" stroke-linecap="round" stroke-linejoin="round"/>
<path d="M534.469 696.551C515.179 699.861 504.699 699.171 492.259 698.641C474.399 697.891 453.959 697.211 438.179 687.991C428.249 682.191 415.179 678.051 407.009 669.631C404.629 667.191 394.009 654.561 396.689 652.111" stroke="#333333" stroke-width="7" stroke-linecap="round" stroke-linejoin="round"/>
<path d="M432.999 669.15C424.059 666.33 387.879 655.87 393.099 640" stroke="#333333" stroke-width="7" stroke-linecap="round" stroke-linejoin="round"/>
<path d="M433.46 653.001C420.46 651.001 400.98 646.161 390.46 637.541C386.62 634.421 378.14 623.231 386.46 620.711" stroke="#333333" stroke-width="7" stroke-linecap="round" stroke-linejoin="round"/>
<path d="M437.5 640.45C431.93 637.69 375.64 625.93 389.5 610.05C395.12 603.61 407.4 612.12 413.76 613.99C429.28 618.58 445.67 621.73 461.82 618.48C472.23 616.39 488.08 613.4 495.82 606.82" stroke="#333333" stroke-width="7" stroke-linecap="round" stroke-linejoin="round"/>
<path d="M363.06 319.39C363.06 319.39 362.13 283.47 361.71 274.3C361.17 262.48 360.36 250.63 360.37 238.75C360.37 232.9 359.84 218.58 359.84 218.58C345.76 218.5 335.55 217.38 332.1 215.37C328.408 212.907 325.78 209.144 324.74 204.83C323.29 197.6 328.66 190.95 335.04 189.35C343.04 187.35 351.42 188.62 359.41 189.35C359.41 189.35 358.97 168.41 362.35 158.59C366.27 147.22 378.86 139.84 390.61 138.72C404.76 137.36 419.61 151.54 428.17 161.31C439.59 174.31 447.24 190.2 453.41 206.31C456.23 213.64 462.98 233.23 462.98 233.23C458.89 232.65 454.11 230.23 449.98 228.81C444.05 226.839 438.249 224.501 432.61 221.81L446.93 310.88" stroke="#333333" stroke-width="7" stroke-linecap="round" stroke-linejoin="round"/>
<path d="M387.869 221.291C389.659 225.941 395.359 231.751 399.679 230.931" stroke="#333333" stroke-width="7" stroke-linecap="round" stroke-linejoin="round"/>
<path d="M395.35 197.65V202.36" stroke="#333333" stroke-width="7" stroke-linecap="round" stroke-linejoin="round"/>
<path d="M414.18 198.99V204.37" stroke="#333333" stroke-width="7" stroke-linecap="round" stroke-linejoin="round"/>
<path d="M343.329 202.361C345.999 203.041 349.069 204.041 351.849 204.151" stroke="#333333" stroke-width="7" stroke-linecap="round" stroke-linejoin="round"/>
<path d="M359.839 218.581C355.839 218.581 352.219 218.451 348.939 218.271C349.279 219.681 349.649 221.081 350.079 222.471C351.113 225.821 352.425 229.079 353.999 232.211C355.349 234.851 357.169 239.411 360.309 240.331H360.379C360.379 239.801 360.379 239.261 360.379 238.731C360.379 232.901 359.839 218.581 359.839 218.581Z" fill="#333333"/>
<path d="M449.42 174.651C432.13 158.951 430.69 123.941 403.11 120.331C397.576 119.694 391.987 120.892 387.2 123.741C384.746 125.166 382.47 126.878 380.42 128.841C378.67 130.491 377.3 132.261 375.49 133.541C373.128 132.784 370.633 132.539 368.17 132.82C365.706 133.101 363.33 133.902 361.2 135.171C355.2 138.691 351.49 145.021 349.2 151.431C346.43 159.271 345.86 167.731 345.77 175.981C345.72 180.071 345.72 184.181 345.77 188.281C349.53 188.351 353.28 188.751 356.97 189.121C358.141 193.075 359.646 196.922 361.47 200.621C362.57 202.841 365.7 202.011 366.39 199.981C370.31 188.421 374.44 176.921 378.13 165.281C379.95 159.541 381.39 153.471 381.13 147.551C387.788 158.999 397.769 168.152 409.75 173.795C421.73 179.439 435.143 181.307 448.21 179.151C450.23 178.831 450.82 175.921 449.42 174.651Z" fill="#333333"/>
<path d="M424.029 512.91L423.579 514.25" stroke="#333333" stroke-width="7" stroke-linecap="round" stroke-linejoin="round"/>
<path d="M410.779 515.271V515.721" stroke="#333333" stroke-width="7" stroke-linecap="round" stroke-linejoin="round"/>
<path d="M437.579 511.721H439.579" stroke="#333333" stroke-width="7" stroke-linecap="round" stroke-linejoin="round"/>
</svg>
