<svg width="250" height="250" viewBox="0 0 250 250" fill="none" xmlns="http://www.w3.org/2000/svg">
<path d="M121.939 96.1596C101.199 95.1596 33.9395 89.5596 29.9395 91.3996C38.8995 102.85 51.3195 113 62.9995 123.06C62.9995 123.06 61.9995 145.96 63.9995 158.39C63.9995 158.39 80.5594 149.06 88.1994 146.54C94.6594 152.94 100.649 158.97 100.649 158.97C100.649 158.97 146.559 141.57 160.069 133.91C175.439 125.21 216.419 103.91 220.069 99.1696C208.689 97.6096 142.509 97.1496 121.939 96.1596Z" fill="#9ED5F0" stroke="#9ED5F0" stroke-width="7" stroke-linecap="round" stroke-linejoin="round"/>
<path d="M100.65 159C100.65 159 94.6496 153 88.1996 146.57C83.4796 141.88 78.4997 136.98 75.4397 134.1C71.5397 130.42 67.3296 126.76 63.0396 123.1C51.3196 113 38.8996 102.84 29.8896 91.4004" stroke="#333333" stroke-width="7" stroke-linecap="round" stroke-linejoin="round"/>
<path d="M177.93 108.389C177.93 108.389 105.83 119.389 95.55 120.599C88.85 121.409 69.49 123.869 63.04 123.059C63.04 123.059 62.04 145.959 64.04 158.389" stroke="#333333" stroke-width="7" stroke-linecap="round" stroke-linejoin="round"/>
</svg>
