<svg width="250" height="250" viewBox="0 0 250 250" fill="none" xmlns="http://www.w3.org/2000/svg">
<path d="M121.94 96.1596C101.2 95.1596 33.9404 89.5596 29.9404 91.3996C38.9004 102.85 51.3204 113 63.0004 123.06C63.0004 123.06 62.0004 145.96 64.0004 158.39C64.0004 158.39 80.5604 149.06 88.2004 146.54C94.6604 152.94 100.65 158.97 100.65 158.97C100.65 158.97 146.56 141.57 160.07 133.91C175.44 125.21 216.42 103.91 220.07 99.1696C208.69 97.6096 142.51 97.1496 121.94 96.1596Z" stroke="#333333" stroke-width="7" stroke-linecap="round" stroke-linejoin="round"/>
<path d="M88.2 146.54C83.48 141.85 78.5 136.95 75.44 134.07C71.54 130.39 67.33 126.73 63.04 123.07" stroke="#333333" stroke-width="7" stroke-linecap="round" stroke-linejoin="round"/>
<path d="M177.93 108.389C177.93 108.389 105.83 119.389 95.55 120.599C88.85 121.409 69.49 123.869 63.04 123.059" stroke="#333333" stroke-width="7" stroke-linecap="round" stroke-linejoin="round"/>
</svg>
