<svg width="250" height="250" viewBox="0 0 250 250" fill="none" xmlns="http://www.w3.org/2000/svg">
<path d="M138.54 95.2705C138.54 80.5105 138.46 55.9405 138.42 41.1805C138.42 34.0405 139.1 25.5705 145.27 21.9805C146.215 21.3792 147.301 21.0346 148.42 20.9805C149.863 21.0548 151.245 21.5912 152.36 22.5105C157.36 26.2405 158.94 32.9705 159.95 39.1405C167.18 83.3905 164.42 122.59 161.64 167.34" stroke="#333333" stroke-width="7" stroke-linecap="round" stroke-linejoin="round"/>
<path d="M164.53 91.2012C172.53 92.0612 175.08 98.2012 175.13 106.201C175.18 114.201 169.31 128.681 163.37 137.691" stroke="#333333" stroke-width="7" stroke-linecap="round" stroke-linejoin="round"/>
<path d="M135.839 72.2911C131.729 69.3711 125.649 71.2911 122.379 75.1511C119.109 79.0111 117.939 84.1511 116.879 89.0711C116.059 92.8711 115.719 97.4811 115.279 101.351" stroke="#333333" stroke-width="7" stroke-linecap="round" stroke-linejoin="round"/>
<path d="M118.61 77.1695C105 74.2495 91.1601 83.9095 84.6801 96.2495C78.2001 108.59 79.14 123.44 79.35 137.38C79.59 153.67 80.0001 178 80.0001 178" stroke="#333333" stroke-width="7" stroke-linecap="round" stroke-linejoin="round"/>
<path d="M98.7397 105.05C98.6626 96.5306 99.9178 88.0516 102.46 79.9199" stroke="#333333" stroke-width="7" stroke-linecap="round" stroke-linejoin="round"/>
<path d="M163.49 167.381C169.02 167.381 166.9 199.831 164.87 215.931C138.87 224.641 102.99 228.931 82.3697 228.931C76.1597 228.931 74.8997 224.751 74.8697 216.931C74.8397 209.111 75.2697 194.361 75.2697 185.331C75.2697 176.301 83.3997 177.491 90.5097 176.401C96.7297 175.441 158 167.381 163.49 167.381Z" stroke="#333333" stroke-width="7" stroke-linecap="round" stroke-linejoin="round"/>
<path d="M85.6602 213.65V218.57" stroke="#333333" stroke-width="7" stroke-linecap="round" stroke-linejoin="round"/>
</svg>
