<svg width="250" height="250" viewBox="0 0 250 250" fill="none" xmlns="http://www.w3.org/2000/svg">
<path d="M163.49 168.381C169.02 168.381 166.9 200.831 164.87 216.931C138.87 225.641 102.99 229.931 82.3697 229.931C76.1597 229.931 74.8997 225.751 74.8697 217.931C74.8397 210.111 75.2697 195.361 75.2697 186.331C75.2697 177.301 83.3997 178.491 90.5097 177.401C96.7297 176.441 158 168.381 163.49 168.381Z" fill="#9ED5F0" stroke="#9ED5F0" stroke-width="7" stroke-linecap="round" stroke-linejoin="round"/>
<path d="M85.6602 214.65V219.57" stroke="#333333" stroke-width="7" stroke-linecap="round" stroke-linejoin="round"/>
<path d="M138.54 94.2705C138.54 79.5105 138.46 54.9405 138.42 40.1805C138.42 33.0405 139.1 24.5705 145.27 20.9805C146.215 20.3792 147.301 20.0346 148.42 19.9805C149.863 20.0548 151.245 20.5912 152.36 21.5105C157.36 25.2405 158.94 31.9705 159.95 38.1405C167.18 82.3905 164.42 121.59 161.64 166.34" stroke="#333333" stroke-width="7" stroke-linecap="round" stroke-linejoin="round"/>
<path d="M164.53 90.2012C172.53 91.0612 175.08 97.2012 175.13 105.201C175.18 113.201 169.31 127.681 163.37 136.691" stroke="#333333" stroke-width="7" stroke-linecap="round" stroke-linejoin="round"/>
<path d="M135.839 71.2911C131.729 68.3711 125.649 70.2911 122.379 74.1511C119.109 78.0111 117.939 83.1511 116.879 88.0711C116.059 91.8711 115.719 96.4811 115.279 100.351" stroke="#333333" stroke-width="7" stroke-linecap="round" stroke-linejoin="round"/>
<path d="M118.61 76.1695C105 73.2495 91.1601 82.9095 84.6801 95.2495C78.2001 107.59 79.14 122.44 79.35 136.38C79.59 152.67 80.0001 177 80.0001 177" stroke="#333333" stroke-width="7" stroke-linecap="round" stroke-linejoin="round"/>
<path d="M98.7397 104.05C98.6626 95.5306 99.9178 87.0516 102.46 78.9199" stroke="#333333" stroke-width="7" stroke-linecap="round" stroke-linejoin="round"/>
</svg>
