<svg width="250" height="250" viewBox="0 0 250 250" fill="none" xmlns="http://www.w3.org/2000/svg">
<path d="M107.86 172.161C120.6 177.271 133.38 176.351 145.38 169.331C152.03 165.441 159.47 161.891 163.38 155.331C167.11 149.101 171.21 143.151 173.51 136.131C176.77 126.211 175.86 116.221 172.09 106.561C169.578 100.225 165.679 94.5329 160.68 89.9007C154.346 83.8165 146.451 79.6043 137.87 77.7307C112 71.7907 86.3099 83.0007 78.1399 109.111C74.2899 121.371 73.2999 134.331 78.9599 146.321C84.2699 157.581 94.5499 165.411 107.86 172.161Z" stroke="#333333" stroke-width="7" stroke-linecap="round" stroke-linejoin="round"/>
<path d="M115.4 62.0503C98.08 64.0003 84.32 72.6203 75.08 87.6503C70 96.0003 63.76 104.4 63.28 114.09C62.82 123.29 61.78 132.41 63.4 141.64C65.69 154.69 72.68 165.34 82.68 173.9C89.4 179.66 96.6 183.19 105.42 185.72C116.151 188.745 127.509 188.745 138.24 185.72C170.72 176.93 192.79 148.97 186.36 114.89C183.36 98.8903 176.7 83.7603 163.2 73.7203C150.52 64.2803 134.33 61.6503 115.4 62.0503Z" stroke="#333333" stroke-width="7" stroke-linecap="round" stroke-linejoin="round"/>
<path d="M99.2002 126.21L117.2 144.33C124.91 136.33 131.69 127.99 140.12 120.76C143.83 117.59 147.44 114.3 151.05 111.01" stroke="#333333" stroke-width="7" stroke-linecap="round" stroke-linejoin="round"/>
</svg>
