<svg width="300" height="250" viewBox="0 0 300 250" fill="none" xmlns="http://www.w3.org/2000/svg">
<path d="M259.68 142.671C231.83 140.931 203.58 144.031 175.55 144.031C137.86 144.031 100.25 142.671 62.6798 142.671C52.7998 142.671 43.1698 142.781 33.5198 144.131C31.5198 151.211 31.1598 159.251 30.0398 166.861C28.7098 175.921 27.6498 185.121 28.0398 194.351C43.9698 197.261 61.7098 196.351 77.9798 196.501C105.91 196.761 133.98 195.701 161.83 196.841C186.7 197.841 212.01 197.641 236.83 196.451C247.57 195.931 260.83 197.371 271.11 194.361C271.59 186.591 276 144.001 259.68 142.671Z" stroke="#333333" stroke-width="7" stroke-linecap="round" stroke-linejoin="round"/>
<path d="M135.65 144C134.74 151.14 134.29 159.29 133.6 166.61C132.75 175.8 132.92 185.12 132.92 194.43" stroke="#333333" stroke-width="7" stroke-linecap="round" stroke-linejoin="round"/>
<path d="M172.92 144C176.26 159 173.64 196.47 173.64 196.47" stroke="#333333" stroke-width="7" stroke-linecap="round" stroke-linejoin="round"/>
<path d="M109.109 125C96.6794 120.78 83.3094 117.2 72.5794 109.32C64.9994 103.66 57.8594 93.9995 60.8294 84.2095C65.2194 69.7295 87.5594 56.2095 102.829 57.8295C110.965 58.7137 118.775 61.5136 125.619 65.9995C132.859 70.8095 140.349 83.2795 143.689 90.9195C150.079 105.55 151.689 119.22 153.099 134.92C135.779 134.88 120.889 129 109.109 125Z" stroke="#333333" stroke-width="7" stroke-linecap="round" stroke-linejoin="round"/>
<path d="M86.4594 61.3613C53.8094 94.8013 132.459 120.991 152.689 133.121" stroke="#333333" stroke-width="7" stroke-linecap="round" stroke-linejoin="round"/>
<path d="M81.8096 85.5612C88.6496 82.7012 96.7096 79.3212 105.15 80.5012C116 82.0012 124.12 87.1912 131.52 95.0012C141.39 105.351 146.99 118.061 150.64 131.121" stroke="#333333" stroke-width="7" stroke-linecap="round" stroke-linejoin="round"/>
<path d="M153.1 134.88C153.1 125.22 155.4 118.35 156.81 110.6C158.63 100.6 164.16 91.2405 170.74 83.3905C182.65 69.1905 201.19 51.4605 220.65 52.5605C236.65 53.4605 256.94 64.1305 257.65 82.6905C258.36 101.69 241.65 109.42 226.93 116.37C214.035 122.616 200.544 127.544 186.66 131.08C176.9 133.48 168.65 134.88 153.1 134.88Z" stroke="#333333" stroke-width="7" stroke-linecap="round" stroke-linejoin="round"/>
<path d="M158.14 133.81C163.49 128.22 167.47 120.2 172.14 113.7C177.59 106.15 184.38 99.8895 191.33 93.6995C205.11 81.5195 217.33 71.9595 236.09 71.0595C240.17 70.7818 244.252 71.585 247.923 73.3881C251.594 75.1912 254.725 77.9304 257 81.3295" stroke="#333333" stroke-width="7" stroke-linecap="round" stroke-linejoin="round"/>
<path d="M230.38 73.1504C236.32 89.3404 223.38 99.4304 211.38 107.15C203.6 112.15 195.84 116.78 187.03 119.84C178.22 122.9 163.96 126.33 163.96 126.33" stroke="#333333" stroke-width="7" stroke-linecap="round" stroke-linejoin="round"/>
</svg>
