<svg width="300" height="250" viewBox="0 0 300 250" fill="none" xmlns="http://www.w3.org/2000/svg">
<path d="M259.68 140.161C231.83 138.431 203.58 141.521 175.55 141.521C137.86 141.521 100.25 140.161 62.6798 140.161C52.7998 140.161 43.1698 140.271 33.5198 141.621C31.5198 148.711 31.1598 156.751 30.0398 164.361C28.7098 173.361 27.6498 182.611 28.0398 191.851C43.9698 194.751 61.7098 193.851 77.9798 194.001C105.91 194.261 133.98 193.191 161.83 194.341C186.7 195.341 212.01 195.131 236.83 193.941C247.57 193.431 260.83 194.871 271.11 191.851C271.59 184.081 276 141.521 259.68 140.161Z" stroke="#333333" stroke-width="7" stroke-linecap="round" stroke-linejoin="round"/>
<path d="M261.13 84.061C260.32 62.471 237.13 51.471 220.85 50.561C204.57 49.651 186.69 60.431 168.06 82.641C160.06 92.171 155.12 101.871 153.37 111.471C153.37 111.471 153.37 111.531 153.37 111.561C151.952 104.497 149.783 97.6043 146.9 91.001C144.01 84.381 136.24 70.331 127.56 64.561C120.245 59.7711 111.895 56.7891 103.2 55.861C85.7802 54.001 62.2802 68.841 57.4802 84.691C55.1702 92.331 57.3802 103.941 70.4802 113.581C79.9902 120.581 91.2602 124.261 102.15 127.831C104.1 128.471 106.04 129.111 107.95 129.761C109.27 130.201 110.62 130.671 112.01 131.151C118.534 133.535 125.18 135.571 131.92 137.251C131.46 141.771 131.13 146.811 130.8 151.711C130.56 155.181 130.34 158.461 130.09 161.491C129.34 170.401 129.36 181.561 129.39 191.401V196.001C129.39 196.929 129.759 197.819 130.415 198.476C131.072 199.132 131.962 199.501 132.89 199.501L173.61 199.551C174.502 199.55 175.361 199.21 176.011 198.598C176.661 197.987 177.054 197.151 177.11 196.261C177.21 194.561 179.43 156.811 176.86 138.261C180.43 137.671 183.86 136.921 187.46 136.031C201.585 132.424 215.306 127.388 228.41 121.001L228.7 120.861C243.51 113.921 261.93 105.251 261.13 84.061ZM145.13 126.721C142.9 125.641 140.48 124.491 137.94 123.281C120.24 114.881 94.9402 102.861 85.6502 89.281C91.5702 86.861 98.0802 84.581 104.65 85.501C113.86 86.791 121.36 90.931 128.97 98.911C136 106.201 141.19 115.171 145.16 126.721H145.13ZM209.41 105.721C201.07 111.091 193.87 115.241 185.81 118.041C181.61 119.501 176.13 121.041 171.6 122.261C172.72 120.501 173.82 118.821 174.97 117.261C180.27 109.931 187.11 103.661 193.65 97.881C204.65 88.1209 214.54 80.231 227.54 77.291C230.15 85.761 227.63 94.001 209.44 105.741L209.41 105.721Z" fill="#FEAABC"/>
</svg>
