<svg width="820" height="820" viewBox="0 0 820 820" fill="none" xmlns="http://www.w3.org/2000/svg">
<path d="M654 470.9L652.54 471.9C650.05 478.62 649.69 495.99 649.69 495.99L649.41 497.2C650.68 497.33 651.85 497.47 652.88 497.62C653.54 509.62 655.09 538.57 655.09 538.57L655.52 540.95C661.929 543.76 666.963 548.996 669.52 555.51C671.971 561.184 673.289 567.281 673.4 573.46C685.14 559.03 694.4 543.89 700.29 528.59C708.41 507.39 710.6 479.47 708.96 449.33C693 457.31 670 464.21 654 470.9Z" fill="#F4F6F9"/>
<path d="M106.23 545.31C112.54 539.38 119.23 533.72 126.16 528.25C146.69 512.13 174 496.71 193.38 480C204.66 470.29 204.95 450.67 211.09 437.25C211.75 437.56 212.44 437.83 213.09 438.13V436.81C213.09 415.35 214.22 382.16 215.3 355.47C213.14 356.73 210.16 356.25 209.3 353.2C206.04 340.96 202.79 328.53 200.36 315.99C182.01 316.73 159.73 309.9 167.91 289.43C172.31 278.43 184.09 274.01 196.54 272.09C196.81 266.074 197.512 260.085 198.64 254.17C201.44 239.67 207.2 224.46 217.31 213.42C225.62 204.35 237.94 199.3 249.64 202.89C253.73 196.13 258.54 189.89 266.06 186.66C273.58 183.43 282.48 183.38 290.49 185.34C311.12 190.34 326.75 209.27 348.74 209.54C349.46 209.551 350.164 209.749 350.784 210.114C351.404 210.48 351.918 211 352.276 211.625C352.634 212.249 352.824 212.956 352.826 213.675C352.829 214.395 352.644 215.103 352.29 215.73C350.4 218.92 347.11 220.73 343.39 221.85C345.23 222.79 347.06 223.74 348.85 224.69C365.22 233.32 379.57 243.69 394.39 254.32C405.15 262.06 426.58 279.88 426.58 279.88C411.25 282.61 393.5 285.76 379.58 290.08C365.66 294.4 350.78 299.08 350.78 299.08C350.78 299.08 352.84 352.6 352.84 376.13V446.2C355.43 445.52 356.84 445.33 356.95 446.04C358.95 463.67 352.07 476.24 367.57 490.15C382.63 503.67 402.03 515.84 419.4 527.23C439.4 540.36 465.69 562.86 478.9 582.95C481.33 586.65 489.34 595.71 496.35 606.15C496.64 605.88 496.93 605.6 497.24 605.34C503.12 600.34 524.99 595.34 538.91 597.95C539.47 596.08 540.08 594.35 540.55 592.95C545.43 578.09 553.62 557.11 565.31 546.44C567.527 544.496 570.042 542.923 572.76 541.78V540.56C572.76 540.56 574.94 512.22 576 499.67C577.07 499.46 578.12 499.29 579.16 499.11C579.4 492.2 580.16 467.92 578.76 462.17C576.29 451.08 568 448.4 557.79 443C547.58 437.6 539.11 431.2 534.85 422.2C530.08 412.12 541.06 404.73 550.85 408.7C560.28 412.53 570.19 418.29 580.07 422.1C590.41 426.1 606.73 427.9 617.75 427.98C627.867 428.179 637.984 427.557 648 426.12C659.15 421.66 683.64 403.06 702.62 395.43C696.508 360.123 687.412 325.399 675.43 291.63C651.43 225.11 629.5 204.63 584.15 164.63C538.8 124.63 454.61 115.13 405.7 117.63C356.79 120.13 305.82 120.11 248.48 154.54C193 187.89 135.8 227.77 109.94 282.09C84.44 335.66 85.16 394.87 88.85 451.51C90.89 482.82 95 515.19 106.23 545.31Z" fill="#F4F6F9"/>
<path d="M74.0898 582.94C88.2998 561.56 105.93 544.13 126.16 528.25C146.69 512.13 174 496.71 193.38 480C204.66 470.29 204.95 450.67 211.09 437.25C237.62 449.34 273.64 454.37 304.72 454.37C335.8 454.37 356.72 443.26 357.05 446.06C359.05 463.69 352.17 476.26 367.67 490.17C382.73 503.69 402.13 515.86 419.5 527.25C439.5 540.38 465.79 562.88 479 582.97C484.89 591.92 523.31 632.17 501.61 647.6C493.26 653.53 488.09 643.12 486.69 636.28C484.45 625.35 488.85 612.57 497.34 605.36C506.25 597.8 551.74 590.23 550.94 609.01C550.67 615.29 543.34 618.86 539.4 614.01C534.93 608.49 538.83 598.51 540.65 592.95C545.53 578.09 553.72 557.11 565.41 546.44C576.35 536.44 601.16 535.96 616.14 536.74C635.56 537.74 660.23 533.54 669.53 555.5C677.27 573.78 672.81 591.63 661.86 597.56C684.86 597.56 688.28 636.87 688.28 702.8" stroke="#333333" stroke-width="7" stroke-linecap="round" stroke-linejoin="round"/>
<path d="M207 471.719C212.66 484.249 232.24 508.559 246.93 510.719C258.93 512.509 284.06 491.219 301.81 466.869C306.94 481.869 314.81 495.179 322.05 506.129C332.33 521.689 349.46 496.919 353.8 485.049C353.28 486.749 352.54 488.459 351.91 490.189" stroke="#333333" stroke-width="7" stroke-linecap="round" stroke-linejoin="round"/>
<path d="M298.47 491.25C293.33 525.51 272.96 537.51 265.78 564.32C262.85 575.23 259.03 590.75 272.62 595.09C282.35 598.19 311.83 581.09 299.47 577.6C283.53 577.6 270.28 605.21 268.08 617.6C265.82 630.37 269.08 644.16 272.78 656.54" stroke="#333333" stroke-width="7" stroke-linecap="round" stroke-linejoin="round"/>
<path d="M353.75 597.52C353.75 597.52 405.32 595.93 421.35 591.59" stroke="#333333" stroke-width="7" stroke-linecap="round" stroke-linejoin="round"/>
<path d="M406.91 581.5C412.65 591.11 413.91 615.93 413.91 615.93" stroke="#333333" stroke-width="7" stroke-linecap="round" stroke-linejoin="round"/>
<path d="M392.49 581.129C400.97 598.439 402.59 636.829 402.59 636.829" stroke="#333333" stroke-width="7" stroke-linecap="round" stroke-linejoin="round"/>
<path d="M213.17 436.78C213.17 395.9 217.28 312.43 217.28 312.43C202.38 319.87 156.87 317.32 168.03 289.43C175.94 269.64 207.66 271.15 224.32 270.17C224.15 245.09 234.75 215.25 260.17 206.62C290.11 196.44 322.17 210.55 348.96 224.69C365.33 233.32 379.68 243.69 394.5 254.32C405.26 262.06 426.69 279.88 426.69 279.88C411.36 282.61 393.61 285.76 379.69 290.08C365.77 294.4 350.89 299.08 350.89 299.08C350.89 299.08 352.95 352.6 352.95 376.13V444" stroke="#333333" stroke-width="7" stroke-linecap="round" stroke-linejoin="round"/>
<path d="M297.53 252.1L298.46 262.28" stroke="#333333" stroke-width="7" stroke-linecap="round" stroke-linejoin="round"/>
<path d="M320.609 250.77L321.539 260.95" stroke="#333333" stroke-width="7" stroke-linecap="round" stroke-linejoin="round"/>
<path d="M188.51 292.909C195.35 292.699 199.7 293.449 204.95 297.019" stroke="#333333" stroke-width="7" stroke-linecap="round" stroke-linejoin="round"/>
<path d="M299.47 305.389C301.444 307.467 303.844 309.093 306.506 310.158C309.167 311.223 312.027 311.701 314.89 311.559" stroke="#333333" stroke-width="7" stroke-linecap="round" stroke-linejoin="round"/>
<path d="M579.2 498.929C579.2 498.929 580.43 468.849 578.86 462.129C576.29 451.079 568 448.399 557.79 442.999C547.58 437.599 539.11 431.199 534.85 422.199C530.08 412.119 541.06 404.729 550.85 408.699C560.28 412.529 570.19 418.289 580.07 422.099C590.41 426.099 606.73 427.899 617.75 427.979C650 428.229 665.53 423.789 694.66 411.089C705.17 406.517 715.927 402.534 726.88 399.159C742.79 394.449 753.75 401.889 738.88 416.089" stroke="#333333" stroke-width="7" stroke-linecap="round" stroke-linejoin="round"/>
<path d="M649.669 495.94C649.669 495.94 649.03 479.57 651.52 472.85" stroke="#333333" stroke-width="7" stroke-linecap="round" stroke-linejoin="round"/>
<path d="M646.17 474.47C663.53 465.64 697.46 456.76 715.58 445.63C719.25 443.38 733.72 433.99 727.4 428.4C723.83 425.24 714.72 431.46 705.1 435.2C695.48 438.94 685.61 442.82 685.61 442.82" stroke="#333333" stroke-width="7" stroke-linecap="round" stroke-linejoin="round"/>
<path d="M684.859 429.589C699.009 425.589 708.159 419.839 722.219 414.859C727.769 412.859 736.389 411.169 739.369 417.629C742.349 424.089 735.639 429.249 728.999 431.999" stroke="#333333" stroke-width="7" stroke-linecap="round" stroke-linejoin="round"/>
<path d="M648 426.119C665.87 418.969 718.07 375.469 726.82 399.119" stroke="#333333" stroke-width="7" stroke-linecap="round" stroke-linejoin="round"/>
<path d="M572.859 540.52C572.859 540.52 575.039 512.18 576.099 499.63C587.189 497.52 596.399 496.96 607.729 496.39C618.339 495.85 642.379 496.02 652.859 497.57C653.519 509.57 655.069 538.52 655.069 538.52" stroke="#333333" stroke-width="7" stroke-linecap="round" stroke-linejoin="round"/>
<path d="M209.42 353.169C210.24 356.219 213.22 356.699 215.42 355.439C216.42 331.279 217.32 312.439 217.32 312.439C213.32 314.439 207.19 315.699 200.52 315.969C202.91 328.499 206.16 340.929 209.42 353.169Z" fill="#333333"/>
<path d="M348.849 209.509C326.849 209.239 311.229 190.349 290.599 185.309C282.599 183.309 273.829 183.309 266.169 186.629C258.509 189.949 253.839 196.099 249.749 202.859C238.049 199.269 225.749 204.319 217.419 213.389C207.309 224.389 201.549 239.639 198.749 254.139C197.621 260.055 196.919 266.043 196.649 272.059C202.895 271.188 209.185 270.671 215.489 270.509C216.299 280.609 218.749 290.399 224.169 298.439C225.929 301.049 231.089 301.239 231.679 297.439C234.38 280.762 240.144 264.729 248.679 250.149C254.429 240.149 259.789 229.369 259.099 218.149C271.669 224.689 286.039 227.289 300.229 227.209C309.938 227.036 319.615 226.052 329.159 224.269C336.569 222.989 348.089 222.909 352.379 215.649C352.721 215.026 352.896 214.325 352.888 213.614C352.881 212.903 352.691 212.206 352.336 211.589C351.982 210.973 351.475 210.458 350.865 210.094C350.254 209.73 349.56 209.528 348.849 209.509Z" fill="#333333"/>
<path d="M609.859 460.76C610.392 460.651 610.942 460.656 611.473 460.775C612.004 460.894 612.504 461.124 612.939 461.45" stroke="#333333" stroke-width="7" stroke-linecap="round" stroke-linejoin="round"/>
<path d="M621.8 245.799C602.69 245.019 584.8 249.069 572.73 262.159C560.91 274.999 557.28 285.479 553.17 302.999C550.35 314.999 553.17 325.899 555.92 337.619C559.08 350.839 568.28 359.929 580.69 368.689C593.1 377.449 616.24 380.689 626.31 380.279C637.57 379.839 646.95 379.409 657.81 375.779C666 372.999 678.87 365.149 683.7 357.999C694.388 341.984 698.439 322.444 695 303.499C691.73 286.379 683.41 270.139 669.78 258.869C659.76 250.619 640.91 246.589 621.8 245.799Z" fill="#FFE945" stroke="#FFE945" stroke-width="7" stroke-linecap="round" stroke-linejoin="round"/>
<path d="M608.74 246.099C618.28 245.709 633.84 248.849 640.43 252.819C647.02 256.789 656.23 263.289 662.98 272.539C668.54 280.159 674.42 294.639 675.21 303.789C676.35 316.859 672.69 335.789 665.9 347.059C662.77 352.259 653.68 363.329 643.48 370.309C633.28 377.289 624.09 379.609 612.48 379.309" stroke="#333333" stroke-width="7" stroke-linecap="round" stroke-linejoin="round"/>
<path d="M589.66 302.819C593.47 300.819 597.29 298.749 600.92 296.469C600.74 307.629 599.19 318.809 599.2 330.079" stroke="#333333" stroke-width="7" stroke-linecap="round" stroke-linejoin="round"/>
<path d="M589.66 329.398C592.39 331.398 598.66 331.008 602 331.398C604.43 331.658 606.55 332.338 609.08 332.158" stroke="#333333" stroke-width="7" stroke-linecap="round" stroke-linejoin="round"/>
<path d="M634 295.999C628.61 292.159 622 295.129 621.74 301.789C621.45 307.919 628.36 314.589 633.66 308.609" stroke="#333333" stroke-width="7" stroke-linecap="round" stroke-linejoin="round"/>
<path d="M620 323.609C624.68 323.609 630.38 323.609 635 324.609" stroke="#333333" stroke-width="7" stroke-linecap="round" stroke-linejoin="round"/>
<path d="M567.51 320.199C564.1 308.299 567.65 295.879 574.31 285.879C577.97 280.389 583.31 273.579 589.38 270.789C594.71 268.359 600.38 267.789 606.01 267.389" stroke="#333333" stroke-width="7" stroke-linecap="round" stroke-linejoin="round"/>
<path d="M626.8 267.729C633.401 268.412 639.658 271.012 644.8 275.208C651.13 280.108 655.11 288.129 657.34 295.749C659.666 303.863 660.184 312.39 658.857 320.726C657.53 329.063 654.39 337.007 649.66 343.999C646.6 348.469 639.87 353.999 634.98 355.999" stroke="#333333" stroke-width="7" stroke-linecap="round" stroke-linejoin="round"/>
<path d="M617 360.089C613.1 361.019 608.84 359.949 605 359.029" stroke="#333333" stroke-width="7" stroke-linecap="round" stroke-linejoin="round"/>
<path d="M588.78 352C581.04 347.44 576.35 342.34 573.3 334.17" stroke="#333333" stroke-width="7" stroke-linecap="round" stroke-linejoin="round"/>
<path d="M649.63 257.5C655.83 257.5 661.87 257.84 668.03 257.84" stroke="#333333" stroke-width="7" stroke-linecap="round" stroke-linejoin="round"/>
<path d="M674.16 291.24C677.77 292.33 687.37 292.83 691.16 291.24" stroke="#333333" stroke-width="7" stroke-linecap="round" stroke-linejoin="round"/>
<path d="M675.18 324.29C681.57 324.29 688.18 324.02 694.27 324.29" stroke="#333333" stroke-width="7" stroke-linecap="round" stroke-linejoin="round"/>
<path d="M661.92 354.91C666.43 356.3 671.5 355.41 676.23 355.59C678.99 355.7 682.53 354.98 685.09 355.94" stroke="#333333" stroke-width="7" stroke-linecap="round" stroke-linejoin="round"/>
<path d="M649.29 366.879C656.59 366.879 663.98 367.349 671.1 367.569" stroke="#333333" stroke-width="7" stroke-linecap="round" stroke-linejoin="round"/>
</svg>
