<svg width="850" height="820" viewBox="0 0 850 820" fill="none" xmlns="http://www.w3.org/2000/svg">
<path d="M82.66 425.2C71.16 343.39 60.42 214.72 153.66 173.28C155.32 172.54 156.96 171.9 158.58 171.33C158.658 170.705 158.796 170.089 158.99 169.49C158.52 168.81 157.99 168.13 157.59 167.44C151.97 158.89 147.19 146.32 155.72 137.92L155.83 137.83C150.57 124.47 157.25 114.67 170.42 113.37C184.47 111.97 194.98 110.89 203.42 103.6C205.42 101.9 207.85 103.6 207.5 105.98C207.039 109.384 205.388 112.516 202.84 114.82C219.04 114.3 235.95 117.98 250.75 120.82C260.75 122.73 271.9 127.32 283.7 132.33C274.21 138.8 252 151.08 252 151.08C252 151.08 261.54 168.15 268 180.48C273.96 192.182 279.073 204.296 283.3 216.73L283.38 216.89C286.9 215.13 291.18 216.08 295.56 222.15C296.99 224.15 297.91 228.22 297.74 232.15C305.98 232.28 311.74 239.71 319.67 244.15C328.77 249.3 335.47 253.54 343.41 260.72C351.76 268.28 357.01 278.72 362.15 288.53C365.25 294.44 365.81 295.46 372.06 297.43C380.57 300.13 386.58 300.76 388.9 305.81C391.22 310.86 390.9 316.06 390.9 319.42C390.9 319.42 397.24 318.56 401.65 321.42C406.95 324.91 406.9 329.02 404.65 336.68C409.2 330.68 417.65 326.9 424.55 324.52C433.18 321.52 445.04 319.3 454.32 321.23C458.559 322.299 462.518 324.267 465.93 327C468.77 324.58 478.47 318.66 486.76 316.83C495.05 315 507.58 311.83 511.58 321.11L533.24 325.11C533.338 325.695 533.398 326.287 533.42 326.88C545.9 319.14 563.01 320.71 575.71 321.88C586.17 291.11 584.07 256.44 572.42 225.15C554.37 176.73 524.42 142.15 477.06 108.24C429.7 74.33 357.64 50 315.07 50C272.5 50 189.81 53.61 163.07 60.3C137.8 66.57 114.54 78 94.81 95C77.17 110.25 62.81 129.52 52.14 150.17C26.79 199.17 21.85 255.38 23.19 309.68C23.86 336.62 25.88 363.47 39.92 387.16C50.92 405.75 66.85 420.62 83.92 433.67C83.42 430.57 83 427.7 82.66 425.2Z" fill="#F4F6F9"/>
<path d="M405.42 453.469C405.42 453.919 405.47 454.379 405.49 454.859L409.22 453.109L405.42 453.469Z" fill="#F4F6F9"/>
<path d="M615.35 609.061C624.224 620.275 632.326 632.078 639.6 644.391C646.83 656.581 678.92 702.191 678.92 702.191" stroke="#333333" stroke-width="7" stroke-linecap="round" stroke-linejoin="round"/>
<path d="M202.49 626.932C202.49 626.932 170.97 669.682 159.49 684.482C147.62 699.812 135.61 714.922 124.27 730.572C118.13 739.042 99.1599 761.572 96.4199 764.862" stroke="#333333" stroke-width="7" stroke-linecap="round" stroke-linejoin="round"/>
<path d="M301 617.49C301 617.49 275.14 651.82 266.58 664.91C258.02 678 246.87 689.27 238.32 702.37C233 710.58 209 741.28 209 741.28" stroke="#333333" stroke-width="7" stroke-linecap="round" stroke-linejoin="round"/>
<path d="M399.73 610.061C399.73 610.061 416.24 630.061 422.48 639.421C434.85 658.001 448.48 674.941 460.24 694.101C474.38 717.261 490 743.731 505.3 765.001" stroke="#333333" stroke-width="7" stroke-linecap="round" stroke-linejoin="round"/>
<path d="M501.4 534.881C499 523.881 496.29 512.961 494.87 501.741C494.202 497.266 494.088 492.725 494.53 488.221C492.83 493.451 490.59 497.661 487.78 497.171C485.54 496.771 482.72 491.901 480.61 485.701C480.114 486.766 479.5 487.773 478.78 488.701C473.68 494.781 446.31 493.491 446.31 493.491L440.81 475.661C437.55 477.661 433.22 477.391 432.02 472.711C431.609 473.566 430.99 474.305 430.219 474.859C429.449 475.412 428.552 475.764 427.61 475.881C422.01 476.791 417.92 471.141 417.92 468.471C417.396 469.181 416.726 469.769 415.955 470.197C415.183 470.625 414.329 470.882 413.45 470.951C405.35 471.641 405.69 463.951 405.52 455.471C405.35 446.991 402.92 443.161 400.57 437.271C386.93 440.901 379.89 429.181 385.28 415.491C376.77 415.491 367.03 416.791 362.28 412.751C361.94 413.571 361.63 414.391 361.35 415.231C361.35 415.231 325.7 417.751 308.26 417.551C289.97 417.351 264.26 417.751 245.99 417.961C231.53 418.121 218.36 421.861 204.26 423.861C195.91 425.041 185.26 425.421 181.93 416.551C178.09 406.411 179.7 389.181 179.71 378.241C179.71 350.011 180.09 320.571 177.29 292.511C176.45 284.071 173.73 266.401 177.29 257.991C181.16 248.931 189.94 245.201 196.4 243.401L199 229.001C199.52 228.881 200.06 228.741 200.61 228.581C197.96 219.911 193.61 207.371 190.25 200.071C188.11 195.481 185.96 187.611 182.34 183.391C183.322 185.097 184.117 186.904 184.71 188.781C184.815 189.196 184.81 189.631 184.697 190.043C184.583 190.455 184.364 190.831 184.062 191.133C183.76 191.436 183.384 191.654 182.972 191.768C182.559 191.881 182.125 191.886 181.71 191.781C177.13 190.311 173.59 187.461 170.4 184.041C163.03 183.381 157.79 177.421 158.57 171.281C156.95 171.851 155.3 172.501 153.64 173.281C60.4302 214.721 71.1702 343.391 82.6402 425.201C85.5002 445.531 92.3602 490.351 92.3602 490.351C86.9902 496.151 84.8502 508.121 84.8502 517.841C84.8502 531.111 87.1802 550.341 92.9902 573.261C98.8002 596.181 107.1 611.011 116.92 623.621C126.74 636.231 148.26 643.021 160.21 643.311C210.33 644.521 258.59 634.311 308.21 629.501C358.29 624.611 408.73 627.361 458.87 622.651C474.57 621.171 503.59 621.471 522.72 615.961C521.79 612.711 520.92 609.621 520.13 606.771C513.53 582.911 506.68 559.111 501.4 534.881Z" fill="#FEAABC" stroke="#FEAABC" stroke-width="7" stroke-linecap="round" stroke-linejoin="round"/>
<path d="M632.1 437.001C627.86 407.511 620.52 376.061 592.69 360.471C590.15 359.041 587.53 357.741 584.86 356.471C581.754 356.568 578.67 355.927 575.86 354.601C570.11 352.091 562.86 348.731 554.3 347.831C546.2 347.022 538.06 346.668 529.92 346.771C528.98 348.451 527.92 347.961 523.07 348.831C514.56 350.341 504.82 350.451 496.35 351.831C476.26 355.121 454.06 355.201 434.63 360.171C427.73 361.941 404.34 366.231 404.34 366.231H404.08C406.65 372.901 405.43 381.891 407.92 389.231L407.58 389.691C408.58 390.241 409.58 390.791 410.5 391.371L411 391.001C422.95 386.001 433.37 380.301 446.36 375.861C462.1 370.481 483.86 366.861 498.7 377.531C500.83 379.061 509.94 385.631 521.57 394.331C530.13 394.651 538.28 397.871 545.62 401.531C557.2 407.301 563.77 419.081 568.56 431.461L570.15 432.841C580.3 441.721 604.71 461.071 631.51 482.261C634.51 467.421 634.23 451.831 632.1 437.001Z" fill="#FEAABC" stroke="#FEAABC" stroke-width="7" stroke-linecap="round" stroke-linejoin="round"/>
<path d="M450.89 575.15C456.06 566.41 465.23 539.45 462.33 529.44C459.56 519.91 451.08 517.66 445.15 525.18C447.34 508.81 448.65 493.59 440.49 477.84" stroke="#333333" stroke-width="7" stroke-linecap="round" stroke-linejoin="round"/>
<path d="M188.52 423.182C170.39 424.492 162.24 433.592 158.34 438.482C153.06 445.102 148.34 455.482 151.06 466.712C144.68 460.322 137.78 462.352 132.68 467.812C127.11 473.762 123.18 487.702 122.34 496.152" stroke="#333333" stroke-width="7" stroke-linecap="round" stroke-linejoin="round"/>
<path d="M127.46 244.57C133.56 241.2 141.03 236.57 148.77 243.86C152.77 247.63 157.01 262.72 156.89 268.69C156.6 259.31 171.13 254.34 175.49 264.05" stroke="#333333" stroke-width="7" stroke-linecap="round" stroke-linejoin="round"/>
<path d="M247.29 299.061C253.98 308.601 257.05 322.371 258.89 333.881C260.98 347.011 258.54 351.791 252.89 363.151C256.82 354.881 261.66 351.151 267.5 354.531C273.66 356.531 266.86 365.011 257.92 371.531C266.27 364.801 275.01 358.821 286.36 359.361C296.3 359.841 305.69 362.281 315.66 361.781C324.93 361.321 332.72 357.641 341.74 357.731C354.04 357.861 362.74 363.091 369.18 369.171C348.6 367.641 333.49 396.341 335 416.831" stroke="#333333" stroke-width="7" stroke-linecap="round" stroke-linejoin="round"/>
<path d="M196.42 243.41C189.96 245.21 181.18 248.94 177.31 258C173.71 266.41 176.43 284.08 177.31 292.52C180.11 320.58 179.76 350.02 179.73 378.25C179.73 389.19 178.11 406.42 181.95 416.56C185.32 425.43 195.95 425.05 204.28 423.87C218.38 421.87 231.55 418.13 246.01 417.97C264.32 417.76 290.01 417.36 308.28 417.56C325.72 417.76 361.37 415.24 361.37 415.24C366.23 400.81 379.89 387.94 397.29 383.64C390 378.17 377.97 371.17 369.24 369.14" stroke="#333333" stroke-width="7" stroke-linecap="round" stroke-linejoin="round"/>
<path d="M260.31 223.722C249.76 215.062 216.82 225.002 199 229.002L196.42 243.382C209.15 243.382 221.04 249.122 233.49 246.452C249.49 243.012 245.76 223.532 257.79 222.932C264.79 222.582 276.06 246.572 279.79 254.312C275.29 243.382 272.37 231.122 277.37 227.452C282.37 223.782 286.46 242.232 292.37 241.212C299.37 240.002 298.62 226.302 295.6 222.122C285.6 208.232 276.09 221.122 274.94 232.122" stroke="#333333" stroke-width="7" stroke-linecap="round" stroke-linejoin="round"/>
<path d="M279.76 254.34C286.37 265.81 281.06 275.67 289.01 284.06C293.51 288.81 301.33 287.15 305.26 288.31C312.44 290.44 318 298.55 319.56 305.31C321.17 312.31 320.19 316.64 323.84 321.02C325.96 323.56 329.78 325.31 332.76 328.53C336.76 332.88 341.21 342.28 340.51 356.9" stroke="#333333" stroke-width="7" stroke-linecap="round" stroke-linejoin="round"/>
<path d="M322.21 264.051C335.534 277.113 347.538 291.455 358.05 306.871C363.43 314.761 363.77 323.031 367.98 330.871C371.36 337.161 377.06 338.051 382.31 342.411C385.54 345.091 387.08 348.941 389.6 352.001C392.95 356.051 396.9 357.671 400.68 361.161C407.63 367.601 404.68 379.811 407.88 389.251" stroke="#333333" stroke-width="7" stroke-linecap="round" stroke-linejoin="round"/>
<path d="M394.24 384.49C411.51 388.56 425.49 398.49 432.51 412.76C440.51 429.12 443.42 441.54 444.91 459.65C445.24 463.72 445.69 469.47 443.52 472.99C440.76 477.46 433.61 478.99 432.02 472.74" stroke="#333333" stroke-width="7" stroke-linecap="round" stroke-linejoin="round"/>
<path d="M362.26 412.762C367.01 416.762 376.76 415.502 385.26 415.502C379.87 429.192 386.91 440.912 400.55 437.282C402.9 443.172 405.33 446.992 405.5 455.482C405.67 463.972 405.33 471.652 413.43 470.962C424.31 470.042 420.91 444.962 418 438.962" stroke="#333333" stroke-width="7" stroke-linecap="round" stroke-linejoin="round"/>
<path d="M417.92 468.49C417.92 471.16 422 476.81 427.6 475.9C433.2 474.99 433.29 469 433.18 464.15C432.95 454.42 431.43 440.21 428.01 431.98" stroke="#333333" stroke-width="7" stroke-linecap="round" stroke-linejoin="round"/>
<path d="M422.381 399.09C428.241 403.86 447.281 417.31 446.131 426.37C444.891 431.11 439.781 427.55 439.781 427.55" stroke="#333333" stroke-width="7" stroke-linecap="round" stroke-linejoin="round"/>
<path d="M297.75 232.121C305.99 232.251 311.75 239.681 319.68 244.121C328.78 249.271 335.48 253.511 343.42 260.691C351.77 268.251 357.02 278.691 362.16 288.501C365.26 294.411 365.82 295.431 372.07 297.401C380.58 300.101 386.59 300.731 388.91 305.781C391.23 310.831 390.91 316.031 390.91 319.391C390.91 319.391 397.25 318.531 401.66 321.391C406.96 324.881 406.91 328.991 404.66 336.651C409.21 330.651 417.66 326.871 424.56 324.491C433.19 321.491 445.05 319.271 454.33 321.201C458.568 322.28 462.524 324.258 465.93 327.001C468.77 324.581 478.47 318.661 486.76 316.831C495.05 315.001 507.58 311.831 511.58 321.111C509.51 326.831 506.7 346.021 505.45 351.211" stroke="#333333" stroke-width="7" stroke-linecap="round" stroke-linejoin="round"/>
<path d="M511.581 321.09L533.241 325.09C533.931 328.97 532.841 339.16 531.521 342.68C529.061 349.23 530.201 347.58 523.031 348.85C514.521 350.36 504.781 350.47 496.311 351.85C476.221 355.14 454.021 355.22 434.591 360.19C427.691 361.96 404.301 366.25 404.301 366.25" stroke="#333333" stroke-width="7" stroke-linecap="round" stroke-linejoin="round"/>
<path d="M529.881 346.751C538.021 346.648 546.16 347.002 554.261 347.811C562.841 348.711 570.071 352.071 575.821 354.581C581.571 357.091 588.431 357.741 590.471 352.771C592.511 347.801 586.831 343.071 582.261 341.411C572.721 337.951 569.511 336.531 562.461 336.531" stroke="#333333" stroke-width="7" stroke-linecap="round" stroke-linejoin="round"/>
<path d="M533.461 326.811C546.761 318.561 565.311 320.891 578.191 322.011C586.881 322.761 596.401 329.521 598.711 338.521C600.071 343.771 598.561 359.071 593.261 359.311" stroke="#333333" stroke-width="7" stroke-linecap="round" stroke-linejoin="round"/>
<path d="M577.43 333.42C578.88 334.37 579.43 336.24 579.43 338.52" stroke="#333333" stroke-width="7" stroke-linecap="round" stroke-linejoin="round"/>
<path d="M596.39 356.93C596.76 361.31 598.66 363.75 602.99 363.77C607.32 363.79 610.99 354.52 609.51 342.98C608.03 331.44 598.51 321.09 582.15 322.75" stroke="#333333" stroke-width="7" stroke-linecap="round" stroke-linejoin="round"/>
<path d="M445.189 421.57C445.189 421.57 497.189 399.77 509.919 395.79C522.649 391.81 534.989 396.19 545.599 401.48C564.029 410.67 569.779 435.07 575.829 452.9C581.679 470.17 584.719 488.61 589.419 506.19C594.419 524.79 599.079 543.54 603.199 562.35C607.999 584.3 628.129 652.18 626.199 660.48C624.539 667.48 608.799 672.72 586.049 681.15C572.81 686.123 559.084 689.693 545.099 691.8C545.099 691.8 528.339 636.41 520.099 606.8C513.499 582.94 506.649 559.14 501.369 534.91C498.969 523.91 496.259 512.99 494.839 501.77C493.319 489.86 494.699 484.32 498.159 472.69C496.869 479.39 493.519 498.22 487.749 497.2C481.979 496.18 472.309 465.51 481.049 458.6C491.979 449.84 483.839 482.67 478.749 488.76C473.659 494.85 450.279 493.55 450.279 493.55" stroke="#333333" stroke-width="7" stroke-linecap="round" stroke-linejoin="round"/>
<path d="M570.131 432.791C594.641 454.241 702.331 536.791 725.971 558.791C728.901 561.521 732.301 564.031 731.911 567.971C731.531 571.711 724.521 577.971 722.181 580.881C712.361 593.241 701.181 610.731 693.341 624.121C688.341 632.621 686.511 629.701 676.841 622.381C665.431 613.751 656.241 606.381 645.011 597.451C631.471 586.651 619.201 578.101 604.201 566.961" stroke="#333333" stroke-width="7" stroke-linecap="round" stroke-linejoin="round"/>
<path d="M411 391C422.95 386 433.37 380.3 446.36 375.86C462.1 370.48 483.86 366.86 498.7 377.53C500.83 379.06 509.94 385.63 521.57 394.33" stroke="#333333" stroke-width="7" stroke-linecap="round" stroke-linejoin="round"/>
<path d="M623.541 665.641C623.541 665.641 632.611 698.551 636.361 712.561C639.661 724.851 646.361 750.961 646.361 750.961" stroke="#333333" stroke-width="7" stroke-linecap="round" stroke-linejoin="round"/>
<path d="M558.939 690.801C561.759 701.661 577.119 755.131 577.119 755.131" stroke="#333333" stroke-width="7" stroke-linecap="round" stroke-linejoin="round"/>
<path d="M649.76 751.771C652.92 742.771 649.76 720.141 665.09 720.141C671.68 721.481 662.84 736.921 658.48 743.061C659.08 737.171 673.99 727.921 676.4 735.821C680.32 748.711 655.46 747.281 649.76 751.771Z" stroke="#333333" stroke-width="7" stroke-linecap="round" stroke-linejoin="round"/>
<path d="M793.001 617.48C788.061 612.62 776.461 590.23 784.111 583.55C793.751 575.14 796.701 599.18 796.401 604.8C791.711 596.41 804.471 573.68 808.971 589.3C810.911 596.16 795.811 617.89 793.001 617.48Z" stroke="#333333" stroke-width="7" stroke-linecap="round" stroke-linejoin="round"/>
<path d="M731.041 570.262L787.991 619.562" stroke="#333333" stroke-width="7" stroke-linecap="round" stroke-linejoin="round"/>
<path d="M697.41 617.32L738.01 650.48" stroke="#333333" stroke-width="7" stroke-linecap="round" stroke-linejoin="round"/>
<path d="M200.34 227.002C197.601 217.803 194.23 208.805 190.25 200.072C187.78 194.752 185.25 185.072 180.5 181.682C163.5 191.222 148.31 170.332 167.17 161.242C155.85 142.912 161.45 125.042 182.95 118.022C204.45 111.002 229.67 116.762 250.68 120.782C260.68 122.692 271.83 127.282 283.63 132.292C274.21 138.802 252 151.082 252 151.082C252 151.082 261.54 168.152 268 180.482C273.96 192.184 279.073 204.298 283.3 216.732" stroke="#333333" stroke-width="7" stroke-linecap="round" stroke-linejoin="round"/>
<path d="M223.76 168.7C228.12 172.22 233.85 170.38 237.87 166.91" stroke="#333333" stroke-width="7" stroke-linecap="round" stroke-linejoin="round"/>
<path d="M209.15 151.58C207.54 156.42 204.15 159.1 198 156.65" stroke="#333333" stroke-width="7" stroke-linecap="round" stroke-linejoin="round"/>
<path d="M221.32 142.451C225.59 144.891 233.04 144.121 233.49 137.381" stroke="#333333" stroke-width="7" stroke-linecap="round" stroke-linejoin="round"/>
<path d="M684.33 760.641C672.18 748.911 653.93 750.641 638.41 751.291C617.95 752.081 575.69 752.701 574.66 753.011C567.42 755.171 566.21 765.081 573.07 768.581C577.07 770.581 582.17 769.971 586.47 769.911L606.47 769.651C632.1 769.311 657.22 768.651 682.84 766.001C684.66 765.821 685.59 761.861 684.33 760.641Z" fill="#333333"/>
<path d="M826.3 610.261C821.09 605.261 813.82 606.471 807.61 608.741C798.877 612.034 790.346 615.837 782.06 620.131C765.66 628.451 750.066 638.273 735.48 649.471C734.224 650.021 733.139 650.898 732.34 652.011C730.34 654.821 730.34 658.761 733.23 661.011C735.99 663.081 739.75 662.271 742.68 661.011C748.16 658.631 753.35 655.191 758.56 652.271C781.04 639.684 803.456 626.981 825.81 614.161C826.139 613.97 826.419 613.706 826.629 613.388C826.839 613.071 826.973 612.71 827.021 612.332C827.068 611.955 827.028 611.571 826.903 611.212C826.778 610.853 826.571 610.527 826.3 610.261Z" fill="#333333"/>
<path d="M182.341 183.421C181.801 182.777 181.183 182.202 180.501 181.711C177.449 183.509 173.923 184.335 170.391 184.081C173.581 187.501 177.121 190.351 181.701 191.821C182.115 191.926 182.55 191.921 182.962 191.807C183.374 191.694 183.75 191.475 184.053 191.173C184.355 190.87 184.574 190.495 184.687 190.082C184.801 189.67 184.805 189.236 184.701 188.821C184.111 186.941 183.32 185.131 182.341 183.421Z" fill="#333333"/>
<path d="M203.351 103.601C194.951 110.891 184.441 111.971 170.351 113.371C157.181 114.671 150.501 124.471 155.761 137.831L155.651 137.921C147.121 146.321 151.901 158.921 157.521 167.441C157.971 168.131 158.451 168.811 158.921 169.491C160.001 166.602 162.051 164.177 164.721 162.631C167.686 163.757 170.804 164.432 173.971 164.631C175.671 164.761 176.601 162.971 176.321 161.541C175.561 157.471 174.831 153.391 174.021 149.331C173.481 146.651 172.881 144.001 171.191 141.781C170.436 140.784 169.516 139.925 168.471 139.241C169.87 138.298 171.072 137.093 172.011 135.691C173.731 133.131 174.571 131.231 176.811 129.021C179.116 126.61 181.871 124.674 184.921 123.321C193.861 119.931 205.751 117.201 207.391 105.941C207.781 103.591 205.301 101.901 203.351 103.601Z" fill="#333333"/>
</svg>
