<svg width="820" height="820" viewBox="0 0 820 820" fill="none" xmlns="http://www.w3.org/2000/svg">
<path d="M138.39 382.249L195.21 383.939C204.43 384.209 213.82 383.939 223.01 384.799C224.83 384.959 226.19 384.799 226.93 386.369C227.93 388.509 226.93 392.559 226.64 394.779C222.93 420.269 208.73 442.529 194.57 463.669C214.5 459.889 234.51 455.019 253.43 450.899C249.19 462.659 237.7 471.429 230.91 481.949C226.71 488.459 213.75 502.129 214.61 509.329C215.47 516.529 224.61 528.219 233.76 542.679C249.53 524.039 264.76 506.989 268.82 502.429C279.26 490.749 298.1 474.719 308.55 464.359C318.43 454.569 321.34 430.959 338.96 433.259C339.96 424.619 345.96 419.009 352.13 413.359C359.67 406.429 366.2 404.169 373.69 404.169C373.69 404.169 391.28 382.269 397.28 372.489L400.28 373.759C399.8 348.969 376.04 326.529 382.44 316.139C389.19 305.199 411.71 334.529 419 341.639L402.53 323.079C398.44 311.449 394.28 299.899 392.14 290.449C391.93 290.559 391.71 290.659 391.49 290.799C381 297.289 366.93 295.569 357.26 287.619C351.77 283.119 349.26 278.189 347.78 271.449C345.78 262.289 344.17 252.999 336.78 246.449C324.95 235.869 309.45 238.709 295.68 233.299C294.022 232.546 292.514 231.499 291.23 230.209C289.64 228.209 288.97 225.439 288.09 222.119C286.21 214.979 284.84 207.429 279.84 201.689C271.75 192.379 260.26 194.359 250.04 198.519L219 211.139C199.846 215.724 180.991 221.474 162.54 228.359C158.77 229.769 155.88 232.479 155.38 236.679C154.95 240.329 156.54 244.949 160.16 246.679L213.16 271.349C217.28 273.269 221.43 275.139 225.53 277.109C226.26 277.439 226.97 277.809 227.68 278.179C227.49 278.429 227.24 278.809 226.89 279.369C222.78 285.979 216.6 291.789 211.34 297.489C188.134 322.643 161.94 344.865 133.34 363.659C125.09 368.999 128.24 381.999 138.39 382.249Z" fill="#F4F6F9"/>
<path d="M435.05 437.259L435.75 437.109C440.223 428.075 444.71 418.939 449.21 409.699C450.21 407.699 452.21 404.699 454.21 403.699C455.58 403.309 456.94 402.969 458.31 402.649C458.67 400.969 460.95 390.649 464.86 377.569C460.301 376.886 455.95 375.202 452.12 372.639C449.206 381.135 444.554 388.931 438.46 395.529L433.36 393.169C435.676 395.136 437.879 397.233 439.96 399.449C439.96 399.449 418.46 436.699 410.12 452.919C399.12 474.349 388.65 496.179 377.37 517.529C363.25 544.229 347.37 575.449 329.27 616.089C331.143 617.229 333.01 618.385 334.87 619.559C373.13 559.999 404 501.369 435.65 437.309L435.05 437.259Z" fill="#F4F6F9"/>
<path d="M755.92 269.739C736.92 247.089 700.22 245.919 677.79 263.909C666.79 272.709 661.79 286.149 654.56 297.779C653.3 299.953 651.823 301.994 650.15 303.869C649.299 304.835 648.373 305.731 647.38 306.549C648.25 305.869 644.22 308.209 645.5 307.699C643.4 308.529 642.17 308.609 639.06 307.949C634.17 306.949 629.53 305.639 624.49 306.319C615.71 307.499 609.03 313.319 603.28 319.659C598.12 325.359 592.93 330.659 586.39 334.779C574.208 342.449 560.018 346.317 545.63 345.889C529.3 363.639 516.16 383.749 507.94 406.589L505.94 406.439C508.16 408.569 509.24 411.609 508.21 415.699C506.21 424.699 502.21 432.699 503.21 442.699L503.34 443.189H503.42H503.34C505.42 451.939 510.23 458.839 511.21 467.669V475.669C510.21 482.669 506.21 489.669 505.21 496.669C503.58 504.279 504.02 511.589 504.6 518.769C511.901 523.567 518.53 529.318 524.31 535.869C538.51 551.639 548.77 570.629 558.6 589.289C560.6 593.179 565.77 595.019 569.9 593.889C574.45 592.639 576.76 588.669 577.24 584.239C579.32 565.072 581.396 545.902 583.47 526.729C585.47 508.429 586.47 489.679 589.63 471.539C590.82 464.739 592.63 457.789 598.12 453.149C603.61 448.509 610.9 446.299 617.62 444.149C634.919 438.592 652.689 434.626 670.71 432.299C691.182 429.757 711.856 429.241 732.43 430.759C743.13 431.529 744.93 417.279 737.48 412.119C725.32 403.719 712.57 390.589 711.89 374.909C711.4 363.439 721.29 347.309 734.38 349.849C741.06 351.139 749.69 345.269 746.68 337.539C739.62 319.429 742.68 298.389 755.92 283.839C759.79 279.629 759.53 274.049 755.92 269.739Z" fill="#F4F6F9"/>
<path d="M499 355.701C505.21 351.871 535.31 334.701 535.31 350.981C535.31 361.201 508.39 366.211 505.39 375.311" stroke="#333333" stroke-width="7" stroke-linecap="round" stroke-linejoin="round"/>
<path d="M399.41 374.309C401.71 347.949 375.74 327.089 382.48 316.139C389.22 305.189 411.75 334.529 419.04 341.639" stroke="#333333" stroke-width="7" stroke-linecap="round" stroke-linejoin="round"/>
<path d="M458.26 402.89C458.26 402.89 477 313.72 506.21 315C506.21 315 498.84 326.22 497.42 331.51C501.65 321.24 518.42 300.37 533.42 302C540.67 304 519.73 318.88 515.08 327.25C519.53 323.73 553.55 289.08 558.86 303.2C562.24 312.2 541.17 321.61 528.17 334.5C544.09 321.33 553 313.72 560 315C576.28 319.4 555 336.18 549.53 341.82C531.39 360.57 516.82 382.01 507.96 406.64" stroke="#333333" stroke-width="7" stroke-linecap="round" stroke-linejoin="round"/>
<path d="M402.57 323.079C394.57 300.319 386.3 277.819 393.41 270.849C407.08 257.419 412.84 303.309 414.96 308.699C414.41 303.259 404.53 273.309 414.19 274.359C421.43 275.139 426.09 306.139 428.58 311.879C428.33 306.179 424.58 289.199 427.71 289.199C437.71 289.199 439.2 315.869 439.46 318.719C439.61 317.319 436.2 299.199 436.2 299.199C448.2 300.319 453.81 341.809 454.66 351.629C456.05 367.889 449.66 383.129 438.46 395.529" stroke="#333333" stroke-width="7" stroke-linecap="round" stroke-linejoin="round"/>
<path d="M314.56 650.331C366.21 573.701 408.21 493.701 449.21 409.701C450.21 407.701 452.21 404.701 454.21 403.701C468.21 399.701 482.21 399.701 497.21 402.701C504.21 403.701 510.21 407.701 508.21 415.701C506.21 424.701 502.21 432.701 503.21 442.701C505.21 451.701 510.21 458.701 511.21 467.701V475.701C510.21 482.701 506.21 489.701 505.21 496.701C502.21 510.701 506.21 523.701 505.21 536.701C502.21 554.701 495.21 569.701 493.21 587.701C492.21 593.701 493.21 600.701 494.21 606.701C498.339 628.585 501.067 650.71 502.38 672.941" stroke="#333333" stroke-width="7" stroke-linecap="round" stroke-linejoin="round"/>
<path d="M234.149 543.31C251.149 523.03 264.439 507.31 268.819 502.43C279.259 490.75 298.099 474.72 308.549 464.36C318.429 454.57 321.339 430.96 338.959 433.26C339.959 424.62 345.959 419.01 352.129 413.36C359.669 406.43 366.199 404.17 373.689 404.17C373.689 404.17 391.279 382.27 397.279 372.49C411.209 378.2 427.209 385.87 439.959 399.49C439.959 399.49 418.459 436.74 410.119 452.96C399.119 474.39 388.649 496.22 377.369 517.57C359.179 551.98 338.089 593.88 312.989 653.82" stroke="#333333" stroke-width="7" stroke-linecap="round" stroke-linejoin="round"/>
<path d="M373.689 404.17C392.609 407.57 405.779 415.97 419.039 433.59" stroke="#333333" stroke-width="7" stroke-linecap="round" stroke-linejoin="round"/>
<path d="M435.05 437.259C450.21 433.589 487.71 436.319 503.42 443.259" stroke="#333333" stroke-width="7" stroke-linecap="round" stroke-linejoin="round"/>
<path d="M170.239 586.111C176.649 605.361 148.509 617.231 137.849 600.111C131.439 589.831 135.299 557.491 152.629 558.551" stroke="#333333" stroke-width="7" stroke-linecap="round" stroke-linejoin="round"/>
<path d="M146.73 687.06C133.66 637.85 104.84 590.66 96.7296 540.15C90.1296 498.59 141.57 472 177 466.69C202.62 462.84 229 456.23 253.45 450.9C249.21 462.66 237.72 471.43 230.93 481.95C226.73 488.46 213.77 502.13 214.63 509.33C215.63 518.13 229.14 533.73 239.89 552.86C250.64 571.99 263.64 599.6 268.84 619.86" stroke="#333333" stroke-width="7" stroke-linecap="round" stroke-linejoin="round"/>
<path d="M61.2695 754.84C80.2095 727.7 99.2095 699.7 123.8 677.9" stroke="#333333" stroke-width="7" stroke-linecap="round" stroke-linejoin="round"/>
<path d="M138.369 691C166.369 691 192.769 683.08 216.809 668.64C236.939 656.54 266.309 633.47 273.039 609.74" stroke="#333333" stroke-width="7" stroke-linecap="round" stroke-linejoin="round"/>
<path d="M143.67 739.459C133.47 737.399 123.82 733.839 119.13 727.699C110.13 715.949 119.88 672.939 138.37 660.699" stroke="#333333" stroke-width="7" stroke-linecap="round" stroke-linejoin="round"/>
<path d="M263.619 599.6C275.209 595.7 289.619 603.5 294.709 609.7C298.419 614.17 310.209 627.2 281.209 616.2C309.709 627.2 314.659 641.01 312.989 653.78C310.279 674.49 297.759 693 268.819 714.7" stroke="#333333" stroke-width="7" stroke-linecap="round" stroke-linejoin="round"/>
<path d="M182.799 451.8C183.609 449.33 180.419 447.9 178.699 449.42C161.329 464.8 136.289 464.18 115.849 473.12C99.2194 480.4 83.1394 498.24 89.9394 517.52C89.6167 517.562 89.3047 517.663 89.0194 517.82C77.0794 524.35 73.0194 538.82 74.2694 551.59C75.6994 566.54 83.2694 579.87 92.2094 591.59C96.7694 597.59 101.659 603.38 106.689 609C111.289 614.14 116.689 619.48 123.789 620.58C129.159 621.41 141.879 617 143.209 608.35C143.209 608.35 137.549 601.35 136.669 595.15C135.953 590.001 135.836 584.786 136.319 579.61C136.769 574.81 137.449 568.61 140.079 564.44C145.349 556.08 157.079 562.74 163.079 566.61C165.279 568.04 167.439 565.3 166.429 563.25C161.126 552.577 153.699 543.098 144.605 535.395C135.511 527.692 124.94 521.926 113.539 518.45C144.919 507.54 172.319 484 182.799 451.8Z" fill="#333333"/>
<path d="M532.059 158.21C550.239 155.07 574.769 142.38 587.709 138.4C607.109 132.4 641.209 118.3 647.499 127.76C653.499 143.86 587.579 154.67 577.879 158.03C588.719 154.87 619.019 146.97 623.679 157.36C627.859 166.7 582.069 174.15 555.209 180.03C580.209 176.36 597.529 167.57 606.349 176.03C612.549 182.03 604.519 188.91 597.549 190.67C576.399 195.98 552.469 202.52 530.689 203.67" stroke="#333333" stroke-width="7" stroke-linecap="round" stroke-linejoin="round"/>
<path d="M530.689 203.7C532.829 213.45 535.259 224.07 534.459 234.45C532.789 256.45 522.209 238.7 518.339 227.94C526.949 247.2 512.959 257.7 508.289 236.61C508.959 249.86 498.569 271.86 489.179 272.39C475.289 273.17 492.089 236.78 495.599 231.39C492.599 235.83 478.909 245.98 473.159 242.45C464.769 237.3 475.459 226.68 484.059 220.45C473.709 225.52 468.319 226.15 467.209 220.65C466.099 215.15 483.949 200.2 491.879 195.31C468.689 189.06 451.049 183.31 437.469 176.8C423.889 170.29 417.689 166.89 418.979 158.1C420.269 149.31 432.329 152.1 439.879 153.65C447.429 155.2 463.879 163.07 473.209 166.98C458.589 157.12 436.349 147.98 422.149 137.39C417.479 133.91 401.869 123.33 404.999 115.39C411.729 98.45 458.259 133.25 477.549 149.26C460.399 131.82 447.399 117.17 428.879 101.52C416.529 91.18 401.259 77.7 407.999 67.41C416.239 55.7 452.399 93.1 463.239 104.03C477.079 117.97 488.039 134.03 504.049 148.03" stroke="#333333" stroke-width="7" stroke-linecap="round" stroke-linejoin="round"/>
<path d="M337.329 112.381L322.409 114.011" stroke="#333333" stroke-width="7" stroke-linecap="round" stroke-linejoin="round"/>
<path d="M337.74 185.881L322 192.331" stroke="#333333" stroke-width="7" stroke-linecap="round" stroke-linejoin="round"/>
<path d="M352.469 200.98L345.579 208.74" stroke="#333333" stroke-width="7" stroke-linecap="round" stroke-linejoin="round"/>
<path d="M623.68 250.859L632.04 262.479" stroke="#333333" stroke-width="7" stroke-linecap="round" stroke-linejoin="round"/>
<path d="M656.489 222.99L665.809 228.14" stroke="#333333" stroke-width="7" stroke-linecap="round" stroke-linejoin="round"/>
<path d="M503 155.071C506.53 140.701 517.33 120.591 530.93 118.511C549.66 115.631 547.04 143.431 542.24 153.711" stroke="#333333" stroke-width="7" stroke-linecap="round" stroke-linejoin="round"/>
<path d="M532.06 117.789L549.63 101.619L545.28 130.279" stroke="#333333" stroke-width="7" stroke-linecap="round" stroke-linejoin="round"/>
<path d="M173.63 513.05C172.534 509.58 171.715 506.029 171.18 502.43" stroke="#333333" stroke-width="7" stroke-linecap="round" stroke-linejoin="round"/>
<path d="M192.21 494.98L198.63 497.12" stroke="#333333" stroke-width="7" stroke-linecap="round" stroke-linejoin="round"/>
<path d="M208.409 547C212.819 544.14 214.559 539.69 215.759 534.74" stroke="#333333" stroke-width="7" stroke-linecap="round" stroke-linejoin="round"/>
<path d="M198.63 509.38L192.21 507.74" stroke="#333333" stroke-width="7" stroke-linecap="round" stroke-linejoin="round"/>
<path d="M172.88 486.699C174.15 484.959 175.67 482.819 176.88 481.029" stroke="#333333" stroke-width="7" stroke-linecap="round" stroke-linejoin="round"/>
<path d="M155.21 577.699C153.61 580.529 151.8 583.239 151.21 586.359" stroke="#333333" stroke-width="7" stroke-linecap="round" stroke-linejoin="round"/>
</svg>
