<svg width="1100" height="820" viewBox="0 0 1100 820" fill="none" xmlns="http://www.w3.org/2000/svg">
<path d="M927.71 349.361C922.01 352.671 916.53 354.361 913.03 354.291C917.09 360.151 914.08 362.481 907.65 369.711C902.65 375.361 889.5 390.791 889.5 390.791C886.17 409.551 872.22 429.441 864.27 447.791C856.429 465.559 847.546 482.849 837.67 499.571C834.18 505.571 830.53 511.481 826.56 517.261C823.34 521.951 800.56 564.261 785.32 592.611C819.68 588.911 854.38 581.751 884.57 564.211C911.19 548.741 933.57 525.791 944.91 496.871C958.01 463.381 952.15 424.411 943.6 390.511C940.06 376.179 934.721 362.353 927.71 349.361Z" fill="#F4F6F9"/>
<path d="M223.76 315.591L225.02 316.661L225.29 316.411C233.06 310.781 238.11 315.411 243.19 319.921C250.71 326.651 252.45 331.431 261.78 336.751C267.54 340.031 272.62 340.221 277.78 346.421C282.35 351.911 285.97 358.641 290.05 364.551C297.11 374.741 306.42 382.491 315.32 391.161C339.88 415.111 370.1 454.361 397.71 480.841C425.32 507.321 452.16 522.111 457.24 522.261C462.32 522.411 468 511.851 468 511.851C468.084 511.975 468.174 512.096 468.27 512.211C468.804 511.62 469.416 511.105 470.09 510.681C471.36 493.681 471.96 481.731 470.39 471.341C469.56 465.781 468.68 460.211 467.51 454.711C467.343 454.658 467.179 454.594 467.02 454.521C466.38 457.031 454.6 449.751 450.74 446.711C444.56 451.221 437.74 453.511 428.12 450.531C413.94 446.131 421.06 431.601 430.41 421.291C430.41 421.131 430.32 420.981 430.28 420.831C430.15 420.971 430 421.101 429.87 421.241C426.106 413.486 424.27 404.937 424.52 396.321C422.95 387.261 424.25 372.601 434.65 371.981C430.92 357.501 441.04 351.171 451.08 346.391C458.28 342.961 468.83 343.051 476.74 342.181C484.65 341.311 495.42 339.831 499.46 331.591C500.98 328.501 505.71 330.931 504.79 334.031C503.05 340.125 500.429 345.933 497.01 351.271C506.66 349.401 516.41 347.711 525.29 346.181C544.69 342.851 579.44 341.111 579.44 341.111C570.44 352.311 557.44 374.961 552.44 384.781C573.29 419.611 583.53 461.911 588.17 488.051C588.971 488.387 589.716 488.842 590.38 489.401C590.59 489.151 590.8 488.911 590.99 488.661L601.26 502.161C612.02 499.161 635.65 490.011 669.26 471.441C702.87 452.871 725.35 426.331 736.85 416.121C754.67 400.301 771.08 386.121 781.67 380.981C791.05 376.401 793.31 379.071 798.48 367.981C808.01 347.551 828.48 346.871 838.42 349.521L838.77 348.521C846 340.311 857.42 322.401 869 321.001C869.316 321.034 869.63 321.084 869.94 321.151L870 321.001C872.076 312.401 875.607 304.22 880.44 296.811C858.66 281.131 834.23 269.591 809.38 259.451C743.05 232.381 673.08 214.111 601.77 206.741C531.13 199.441 458.88 203.621 390.22 222.331C332.764 238.091 278.521 263.814 229.96 298.331C225.113 300.997 220.39 303.837 215.79 306.851C220.29 311.651 223.76 315.591 223.76 315.591Z" fill="#F4F6F9"/>
<path d="M242 492C228.45 465.93 215.88 439 199.8 414.4C192.88 403.83 178.92 389.4 181.21 376.67C181.33 375.98 181.49 375.28 181.67 374.57C174.87 368.18 169.32 362.63 165.44 357.67C161.841 363.594 158.696 369.781 156.03 376.18C144.88 403.02 142.03 434.25 150.51 462.26C154.745 476.44 161.998 489.536 171.77 500.65C183.62 514.06 199.13 523.82 214.01 533.48C229.12 543.29 244.49 552.86 260.96 560.24C268.16 563.451 275.539 566.242 283.06 568.6C265.83 536.27 246.61 500.81 242 492Z" fill="#F4F6F9"/>
<path d="M470 511.911C471.33 494.241 472 481.981 470.39 471.341C468.62 459.501 466.71 447.601 461.99 436.461C451.99 446.361 443.66 455.361 428.12 450.531C407.38 444.091 432.22 415.971 442.94 411.081C435.28 405.081 437.94 389.741 440.71 381.851C445.26 369.071 459.11 360.001 471.59 356.851C488.13 352.651 508.31 349.121 525.29 346.201C544.69 342.871 579.44 341.131 579.44 341.131C570.44 352.331 557.44 374.981 552.44 384.801C574.16 421.081 584.37 465.481 588.73 491.271" stroke="#333333" stroke-width="7" stroke-linecap="round" stroke-linejoin="round"/>
<path d="M482.82 403.149C482.366 401.752 482.3 400.258 482.629 398.826C482.958 397.394 483.67 396.079 484.689 395.02C485.707 393.962 486.994 393.199 488.412 392.815C489.83 392.431 491.326 392.439 492.74 392.839" stroke="#333333" stroke-width="7" stroke-linecap="round" stroke-linejoin="round"/>
<path d="M512 384.35C514.58 377.5 519.64 375.56 525.21 379.48" stroke="#333333" stroke-width="7" stroke-linecap="round" stroke-linejoin="round"/>
<path d="M506.58 430C514.68 437 535.11 434.24 535.58 418.48" stroke="#333333" stroke-width="7" stroke-linecap="round" stroke-linejoin="round"/>
<path d="M838.39 349.56C828.44 346.91 807.98 347.56 798.45 368.02C793.28 379.07 791.02 376.4 781.64 381.02C771.05 386.19 754.64 400.34 736.82 416.16C725.32 426.37 702.82 452.92 669.23 471.48C635.64 490.04 612.02 499.21 601.23 502.2L591 488.66C585.45 495.86 572.34 504.05 564 507.92C551.322 513.94 537.729 517.807 523.78 519.36C513.07 520.59 501.67 522.74 490.67 520.73C485.01 519.73 470.39 515.59 468.05 511.85C468.05 511.85 462.32 522.41 457.24 522.26C452.16 522.11 425.32 507.32 397.71 480.84C370.1 454.36 339.88 415.11 315.32 391.16C306.42 382.49 297.11 374.74 290.05 364.55C285.97 358.64 282.35 351.91 277.78 346.42C272.63 340.22 267.55 340.03 261.78 336.75C252.45 331.43 250.71 326.65 243.19 319.92C238.11 315.38 233.06 310.78 225.29 316.41C211.92 328.5 184.71 357.41 181.29 376.7C179 389.4 192.96 403.86 199.88 414.43C215.92 439 228.49 466 242 492C250.16 507.69 305 608.45 312.11 624.63" stroke="#333333" stroke-width="7" stroke-linecap="round" stroke-linejoin="round"/>
<path d="M469 533.58C475.1 544.31 482.05 558.43 506.83 559.16C525.68 559.72 535.29 546.06 541.97 528.75C550.74 539.01 562.97 545.14 577.06 543.18C587.92 541.67 595.5 528.31 595.96 512.82" stroke="#333333" stroke-width="7" stroke-linecap="round" stroke-linejoin="round"/>
<path d="M546.361 551.49C552.811 558.67 540.921 587.06 539.821 595.84C538.671 605.01 533.451 632.94 547.261 635.56C557.401 637.47 565.051 622.99 562.661 641.92C562.051 646.78 558.331 654.85 563.401 657.92C568.471 660.99 575.051 653.98 580.511 657.86C591.511 665.69 587.591 693.63 587.241 705.63" stroke="#333333" stroke-width="7" stroke-linecap="round" stroke-linejoin="round"/>
<path d="M633.66 599.91C645.85 600.26 664.27 600.75 676.44 601.16" stroke="#333333" stroke-width="7" stroke-linecap="round" stroke-linejoin="round"/>
<path d="M548.891 608.711L550.691 604.561" stroke="#333333" stroke-width="7" stroke-linecap="round" stroke-linejoin="round"/>
<path d="M601.68 671.61L602.67 666.6" stroke="#333333" stroke-width="7" stroke-linecap="round" stroke-linejoin="round"/>
<path d="M838.74 348.57C846 340.31 857.42 322.4 869 321C879.57 322 907.33 345.15 913.06 354.32C917.12 360.18 914.11 362.51 907.68 369.74C902.68 375.39 889.53 390.82 889.53 390.82C886.2 409.58 872.25 429.47 864.3 447.82C856.458 465.588 847.576 482.878 837.7 499.6C834.21 505.6 830.56 511.51 826.59 517.29C821.7 524.41 771.59 618.29 771.59 618.29" stroke="#333333" stroke-width="7" stroke-linecap="round" stroke-linejoin="round"/>
<path d="M181.71 374.59C166.22 360.03 157.21 349.8 159.71 341.21C163.094 329.6 168.252 318.584 175 308.55C182.84 297.15 191 291.55 195.74 290.38C200.48 289.21 223.74 315.59 223.74 315.59" stroke="#333333" stroke-width="7" stroke-linecap="round" stroke-linejoin="round"/>
<path d="M838.391 349.561C848.861 349.871 859.391 358.251 865.541 363.001C871.691 367.751 883.541 378.921 889.541 390.791" stroke="#333333" stroke-width="7" stroke-linecap="round" stroke-linejoin="round"/>
<path d="M356.75 194.56C355.42 193.56 352.75 191.62 323.62 201.1C320.72 171.67 316.97 169.79 315.52 169.1C314.866 168.766 314.136 168.607 313.402 168.639C312.668 168.67 311.954 168.891 311.33 169.28C309.92 170.14 307.56 171.59 301.4 191.6C299.29 198.47 297.4 205.22 296.6 208.36C254.79 222.8 254.75 226.92 254.73 229.36C254.73 234.65 261.3 235.56 269.73 236.71C273.813 237.14 277.854 237.906 281.81 239C280.32 243.78 277.59 250 275.14 255.57C269.14 269.29 267.34 274 269.41 277.2C269.821 277.821 270.38 278.329 271.036 278.678C271.693 279.027 272.427 279.207 273.17 279.2H273.36C275.47 279.2 278.71 278.58 295.98 256.82C301.56 249.82 306.89 242.69 309.82 238.75C312.82 241.47 317.91 245.94 323.09 250.26C337.65 262.39 342.56 265.04 345.9 262.56C348.26 260.81 349.64 257.92 342.7 240.16C339.96 233.16 336.64 225.75 334.51 221.54C336.16 220.1 338.44 218.21 340.81 216.24C354.41 204.97 358.36 201.17 358.4 197.76C358.4 197.134 358.25 196.517 357.963 195.96C357.676 195.403 357.261 194.923 356.75 194.56Z" fill="#FFE945"/>
<path d="M441.51 166.89L439.67 167.66C438.19 163.12 436.92 157.4 435.78 152.23C432.93 139.38 431.36 132.31 426.16 132.23C423.36 132.23 419.16 132.16 412.09 172.12C408.32 172.33 401.29 172.78 394.32 173.52C374.53 175.64 370.82 178.3 370.9 182.46C370.9 184.84 371.05 190.29 403.84 193.63C402.61 198.09 400.57 205.63 398.66 213.3C392.28 238.91 393.46 240.48 394.66 242.14C395.012 242.619 395.471 243.01 396.001 243.28C396.53 243.551 397.115 243.695 397.71 243.7H397.76C400.76 243.7 403.14 240.91 413.53 226.93C418.75 219.93 427.38 208.31 430.46 206.47C433.27 207.47 440.85 215.29 444.99 219.57C452.65 227.48 455.47 230.22 458.36 230.14C458.915 230.127 459.461 229.999 459.964 229.763C460.467 229.527 460.915 229.189 461.28 228.77C463.82 225.86 462.15 221.77 453.22 203.97C450.49 198.51 447.46 192.47 446.05 188.84C449.99 186.27 457.32 181.48 463.59 176.76C474.26 168.76 477.4 164.54 475.59 160.7C472.92 154.93 463.35 157.8 441.51 166.89Z" fill="#FFE945"/>
<path d="M573.91 144.64C567.657 144.093 561.371 144.04 555.11 144.48C554.48 141.54 553.44 136.86 552.23 132.14C548.65 118.21 546.51 114.2 542.63 114.36C538.75 114.52 536.27 118.36 530.32 139.8C530.27 139.97 530.23 140.15 530.18 140.32C524.399 140.13 518.611 140.233 512.84 140.63C495.03 141.78 491.75 144.36 490.66 145.21C490.035 145.657 489.519 146.241 489.152 146.916C488.785 147.592 488.575 148.342 488.54 149.11C488.34 155.31 497.66 157.85 513.05 161.29L515.33 161.81C510.895 167.62 506.907 173.757 503.4 180.17C498.9 188.23 493.67 198.83 494.31 203.55C494.382 204.324 494.648 205.066 495.086 205.708C495.523 206.35 496.117 206.871 496.81 207.22C499.49 208.53 502.41 207.14 508.81 201.51C512.45 198.32 517.2 193.74 522.92 187.89C529.06 181.61 535.05 175.18 538.62 171.29C540.75 175.29 544.08 181.35 547.52 187.41C559.35 208.29 561.38 209.52 563.61 209.52H564.06C564.697 209.492 565.319 209.314 565.875 209.001C566.431 208.689 566.905 208.25 567.26 207.72C570.53 203.01 566.38 179.47 562.99 167.2C572.77 164.36 586.75 157.72 588.77 153.07C589.062 152.445 589.195 151.758 589.158 151.069C589.121 150.38 588.916 149.711 588.56 149.12C587.88 147.94 586.55 145.76 573.91 144.64Z" fill="#FFE945"/>
<path d="M697.3 182.769C693 179.139 677.02 175.769 668.04 175.269C668.22 173.149 668.44 170.809 668.67 168.389C670.79 146.219 670.91 138.889 667.58 136.239C667 135.773 666.311 135.463 665.578 135.337C664.845 135.211 664.092 135.274 663.39 135.519C659.65 136.759 656.26 142.519 650.1 153.519C647.1 158.779 643.84 164.649 640.61 169.329C636.61 168.059 630.46 166.699 627.03 166.029C612.34 163.159 610.59 164.569 609.44 165.499C608.816 165.985 608.354 166.648 608.115 167.401C607.876 168.155 607.871 168.963 608.1 169.719C608.4 170.719 609.28 173.719 626.83 186.249C623.91 189.419 619.06 194.749 614.31 200.249C597.97 219.049 598.65 220.949 599.43 223.149C599.673 223.835 600.102 224.441 600.669 224.898C601.236 225.355 601.918 225.646 602.64 225.739C605.85 226.179 610.73 223.279 623.88 214.889C630.66 210.559 639.61 204.889 644.04 203.139C646.85 206.879 650.51 213.259 653.8 218.979C661.24 231.979 664 236.439 667.47 236.439C667.807 236.436 668.142 236.396 668.47 236.319C672.41 235.429 673.09 231.069 671.63 216.049C670.94 209.049 669.84 200.909 668.88 194.639C671.62 194.279 675.07 193.999 678.45 193.719C692.02 192.599 699.45 191.989 699.2 186.379C699.161 185.676 698.971 184.99 698.643 184.367C698.316 183.744 697.857 183.199 697.3 182.769Z" fill="#FFE945"/>
<path d="M783.64 216C784.39 212.2 785.64 205.59 786.69 198.81C789.89 178.15 788.46 174.41 786.88 172.53C786.445 172.006 785.897 171.587 785.277 171.307C784.656 171.026 783.98 170.89 783.3 170.91C781.1 170.99 778.1 171.1 763.82 193.29C759.18 200.51 754.82 207.78 752.62 211.51C722.11 200.27 719.42 203.96 718.1 205.76C717.717 206.294 717.444 206.899 717.298 207.539C717.152 208.18 717.136 208.843 717.25 209.49C717.91 213.61 723.58 217.91 732.82 224.49C734 225.34 735.15 226.15 736.18 226.91C709.02 252.01 709.18 255.99 709.18 257.52C709.198 258.204 709.391 258.873 709.741 259.461C710.091 260.049 710.587 260.538 711.18 260.88C714.18 262.63 718.18 260.83 735.72 251.66C743.38 247.66 751.95 243.16 758.24 240.66C762.1 246.47 765.64 255.71 768.55 263.3C773.14 275.25 775.16 280.13 779.03 280.71C779.246 280.725 779.463 280.725 779.68 280.71C780.769 280.706 781.817 280.296 782.62 279.56C785.29 277.12 785.22 271.99 784.33 256.73C783.97 250.57 783.57 243.73 783.72 238.25C787.01 238.09 790.97 238.11 794.84 238.13C807.08 238.2 813.61 238.13 816.41 235.21C816.869 234.749 817.228 234.199 817.466 233.594C817.703 232.988 817.813 232.34 817.79 231.69C817.75 229.52 817.58 224.93 783.64 216Z" fill="#FFE945"/>
<path d="M870 320.999C872.8 309.309 878.84 296.999 887.2 288.279C894.202 280.881 902.8 275.18 912.34 271.609C919.51 269.059 934.08 266.199 940.7 271.539C946.5 276.209 944 283.789 938.7 287.049C932.9 290.609 926.12 291.419 919.7 292.819C913.28 294.219 901.41 298.659 900.89 307.899" stroke="#333333" stroke-width="7" stroke-linecap="round" stroke-linejoin="round"/>
<path d="M983.67 235.879C988.43 235.819 993.59 236.929 994.05 242.819C994.51 248.709 991.63 252.539 987.34 254.819" stroke="#333333" stroke-width="7" stroke-linecap="round" stroke-linejoin="round"/>
<path d="M975.28 274.811C968.4 271.811 972.97 261.111 976.43 258.061C980.6 254.381 989.33 252.721 992.72 258.581C994.72 261.991 995.09 266.461 990.94 270.301C986.79 274.141 978.65 276.271 975.28 274.811Z" stroke="#333333" stroke-width="7" stroke-linecap="round" stroke-linejoin="round"/>
<path d="M993.18 268.15C994.86 269.5 995.69 271.8 995.61 275.24C995.582 277.51 995.008 279.739 993.935 281.739C992.863 283.739 991.324 285.451 989.45 286.73C985.52 289.45 977.6 293.01 973.53 288.98C970.34 285.82 970.66 277.63 973.53 273.67" stroke="#333333" stroke-width="7" stroke-linecap="round" stroke-linejoin="round"/>
<path d="M988.07 287.609C993.16 287.869 993.68 294.859 991.36 300.299C989.04 305.739 982.47 311.039 976.46 308.359" stroke="#333333" stroke-width="7" stroke-linecap="round" stroke-linejoin="round"/>
<path d="M909.28 270.34C909.28 270.34 913.19 227.16 913.82 221.55C914.23 218.01 914.28 213.31 917.19 211.33C920.78 208.89 934.19 208.48 952.14 210.14C970.09 211.8 981.59 215.14 983.14 217.68C984.69 220.22 983.05 232.3 982.45 237.46C982.29 238.87 981.69 246.39 980.99 255.52" stroke="#333333" stroke-width="7" stroke-linecap="round" stroke-linejoin="round"/>
<path d="M907 299.001C907 299.001 904.19 316.121 905.19 318.711C907.9 325.791 924.43 325.191 930.63 326.201C940.03 327.731 949.82 328.201 959.33 328.761C966.75 329.191 972.44 328.761 973.75 320.571C974.59 315.371 978.04 294.221 978.04 294.221" stroke="#333333" stroke-width="7" stroke-linecap="round" stroke-linejoin="round"/>
<path d="M947 329.279C939.29 345.279 921 354.519 913 354.279" stroke="#333333" stroke-width="7" stroke-linecap="round" stroke-linejoin="round"/>
<path d="M891.26 235.731L883.58 233.631" stroke="#333333" stroke-width="7" stroke-linecap="round" stroke-linejoin="round"/>
<path d="M897.851 190.541L894.601 186.301" stroke="#333333" stroke-width="7" stroke-linecap="round" stroke-linejoin="round"/>
<path d="M905.11 182.35L903.54 177.73" stroke="#333333" stroke-width="7" stroke-linecap="round" stroke-linejoin="round"/>
<path d="M993.44 185.069L999.99 178.539" stroke="#333333" stroke-width="7" stroke-linecap="round" stroke-linejoin="round"/>
<path d="M1013.45 227.81L1020.91 226.07" stroke="#333333" stroke-width="7" stroke-linecap="round" stroke-linejoin="round"/>
<path d="M1014.05 242.27L1019.33 243.56" stroke="#333333" stroke-width="7" stroke-linecap="round" stroke-linejoin="round"/>
<path d="M153.44 256.93C143.34 244.35 117.44 241.78 106.07 253.26C103.823 255.521 102.137 258.278 101.147 261.308C100.158 264.338 99.8914 267.558 100.37 270.71C101.21 275.71 106.8 284.83 112.93 281.71" stroke="#333333" stroke-width="7" stroke-linecap="round" stroke-linejoin="round"/>
<path d="M121.92 261.1C121.92 262.68 122.81 264.24 122.7 265.99C123.27 266.09 123.94 265.89 124.47 265.99" stroke="#333333" stroke-width="7" stroke-linecap="round" stroke-linejoin="round"/>
<path d="M101 257.93C87.9102 264.57 79.8002 278.86 86.6602 292C90.021 297.92 94.9662 302.786 100.94 306.05C108.01 309.54 118.94 308 116.94 299.34" stroke="#333333" stroke-width="7" stroke-linecap="round" stroke-linejoin="round"/>
<path d="M82.0002 285.84C73.8502 296.34 84.4102 311.89 92.7602 317.94C97.9602 321.71 104.98 325.11 110.89 320.72C115.46 317.33 116.97 308.56 109.19 307.5" stroke="#333333" stroke-width="7" stroke-linecap="round" stroke-linejoin="round"/>
<path d="M81.7407 308.76C76.6107 315.84 80.8907 325.21 89.2207 329.35C97.5507 333.49 104.841 331.3 107.351 324.11" stroke="#333333" stroke-width="7" stroke-linecap="round" stroke-linejoin="round"/>
<path d="M107.37 325.11C121.76 340.5 144.96 339.42 156.84 319.85" stroke="#333333" stroke-width="7" stroke-linecap="round" stroke-linejoin="round"/>
<path d="M157.12 339.249C151.91 335.249 146.71 330.689 146.71 330.689" stroke="#333333" stroke-width="7" stroke-linecap="round" stroke-linejoin="round"/>
<path d="M134.44 303.711C129.77 294.561 143.89 281.221 143.89 281.221C137.47 286.561 128.68 298.961 119.37 298.921C107.57 298.861 113.79 281.491 117.79 275.411C129.93 257.001 162.24 249.001 176.52 269.001C181.11 275.431 190.47 290.491 190.47 290.491" stroke="#333333" stroke-width="7" stroke-linecap="round" stroke-linejoin="round"/>
<path d="M450.54 446.521C454.2 449.521 466.94 457.421 467.09 454.351C467.09 453.811 467.09 453.281 467.09 452.751C465.88 447.18 464.173 441.728 461.99 436.461C458.494 440.162 454.661 443.53 450.54 446.521Z" fill="#333333"/>
<path d="M499.5 331.59C495.5 339.83 484.81 341.3 476.78 342.18C468.75 343.06 458.32 342.96 451.12 346.39C441.12 351.17 430.96 357.5 434.69 371.98C424.29 372.6 422.99 387.26 424.56 396.32C424.31 404.936 426.145 413.485 429.91 421.24C431.908 419.203 434.025 417.287 436.25 415.5C441.277 419.412 447.282 421.868 453.61 422.6C456.47 422.95 457.17 419.44 455.84 417.6C449.62 409.04 449.7 400.5 450.38 390.47C450.714 387.022 450.051 383.552 448.47 380.47C448.688 380.362 448.915 380.275 449.15 380.21C460.93 378.21 470.15 373.38 478.15 368.82C491.9 361.02 500.2 349.55 504.81 334.04C505.75 330.93 501 328.5 499.5 331.59Z" fill="#333333"/>
<path d="M436.641 436.14L442.221 432.1" stroke="#333333" stroke-width="7" stroke-linecap="round" stroke-linejoin="round"/>
<path d="M666.57 592.73C666.57 592.73 668.85 607.98 668.33 615.57" stroke="#333333" stroke-width="7" stroke-linecap="round" stroke-linejoin="round"/>
<path d="M656.84 589.051C657.21 600.901 659.84 613.311 657.67 625.191" stroke="#333333" stroke-width="7" stroke-linecap="round" stroke-linejoin="round"/>
</svg>
