<svg width="300" height="350" viewBox="0 0 300 350" fill="none" xmlns="http://www.w3.org/2000/svg">
<path d="M193.09 94.6198H153.61C139.94 94.6198 110.31 93.7598 110.31 93.7598C110.31 93.7598 101.94 152.89 107.2 182.91C110.07 199.3 120.33 211.81 140.34 215.04C152.48 217.04 167.94 217.82 176.5 209.2C185.977 199.588 192.454 187.428 195.14 174.2C197.64 161.73 196.71 148.98 196.25 136.35C195.97 128.92 195.25 121.64 194.39 114.27C193.71 108.58 194.35 101.43 193.09 94.6198Z" fill="#FFE945" stroke="#FFE945" stroke-width="7" stroke-linecap="round" stroke-linejoin="round"/>
<path d="M95.54 278.1C99.09 263.1 147.39 248.1 151.13 248.1C154.87 248.1 202.39 266.36 204.31 278.1" fill="#FFE945"/>
<path d="M95.54 278.1C99.09 263.1 147.39 248.1 151.13 248.1C154.87 248.1 202.39 266.36 204.31 278.1" stroke="#FFE945" stroke-width="7" stroke-linecap="round" stroke-linejoin="round"/>
<path d="M151.13 216.629V248.089" stroke="#FFE945" stroke-width="7" stroke-linecap="round" stroke-linejoin="round"/>
<path d="M210.13 278.1H90.1299V317.89H210.13V278.1Z" stroke="#333333" stroke-width="7" stroke-linecap="round" stroke-linejoin="round"/>
<path d="M28 134.199C30.5453 134.2 33.0888 134.066 35.62 133.799" stroke="#333333" stroke-width="7" stroke-linecap="round" stroke-linejoin="round"/>
<path d="M79 57.8691C81.84 60.9191 84.57 63.8691 87.3 66.8091" stroke="#333333" stroke-width="7" stroke-linecap="round" stroke-linejoin="round"/>
<path d="M100.88 41.0488C102.524 45.1604 103.959 49.3524 105.18 53.6088" stroke="#333333" stroke-width="7" stroke-linecap="round" stroke-linejoin="round"/>
<path d="M236.94 70.5589C239.38 68.0789 242.04 64.8789 244.87 63.1289" stroke="#333333" stroke-width="7" stroke-linecap="round" stroke-linejoin="round"/>
<path d="M260.61 128.739C264.41 128.739 268.39 128.388 271.98 129.368" stroke="#333333" stroke-width="7" stroke-linecap="round" stroke-linejoin="round"/>
<path d="M263.77 149C266.24 149.69 268.82 150.86 271.35 151.53" stroke="#333333" stroke-width="7" stroke-linecap="round" stroke-linejoin="round"/>
<path d="M182 45.3694C182.16 40.7094 184.53 36.6094 185.79 32.1094" stroke="#333333" stroke-width="7" stroke-linecap="round" stroke-linejoin="round"/>
<path d="M198.46 48.5296C199.92 46.6396 201.57 44.8296 202.88 42.8496" stroke="#333333" stroke-width="7" stroke-linecap="round" stroke-linejoin="round"/>
<path d="M149 131.179C138.71 129.769 138.59 147.439 142.85 151.699C145.97 154.809 152.26 155.699 155.71 152.829C159.35 149.829 160.27 144.469 160.29 140.329C160.34 135.089 157.94 130.559 149 131.179Z" stroke="#333333" stroke-width="7" stroke-linecap="round" stroke-linejoin="round"/>
<path d="M131.58 298.589C140.13 295.589 153.07 297.589 162.58 297.589" stroke="#333333" stroke-width="7" stroke-linecap="round" stroke-linejoin="round"/>
<path d="M105.46 133.169C98.2204 116.629 79.7604 118.239 76.1504 130.009C72.5404 141.779 76.1004 153.939 82.0004 166.329C87.9004 178.719 95.1004 188.749 109.48 194.419" stroke="#FFE945" stroke-width="7" stroke-linecap="round" stroke-linejoin="round"/>
<path d="M197 131.099C198.88 119.989 219.86 120.389 223.52 128.099C227.18 135.809 226.84 148.099 221.44 161.849C216.04 175.599 202.84 190.909 186.85 196.359" stroke="#FFE945" stroke-width="7" stroke-linecap="round" stroke-linejoin="round"/>
</svg>
