<svg width="250" height="250" viewBox="0 0 250 250" fill="none" xmlns="http://www.w3.org/2000/svg">
<path d="M103.29 72.1398C97.0001 78.9998 83.7901 81.7498 75.3801 85.5998C66.9701 89.4498 62.2701 105.78 64.8201 114.6C66.4301 120.22 70.5801 125.16 70.6801 131C70.8001 137.73 65.5301 143.39 64.3401 150C62.7801 158.67 69.6901 167.91 78.4401 168.86C81.8601 169.23 85.3601 168.51 88.7301 169.2C99.8101 171.46 103.48 186.93 114.14 190.72C121.31 193.26 129.2 189.6 135.26 185C141.32 180.4 146.79 174.65 153.97 172.13C160.7 169.76 168.4 170.46 174.65 167.02C177.319 165.511 179.551 163.336 181.129 160.707C182.706 158.078 183.575 155.085 183.65 152.02C183.77 142.49 176.14 133.47 178.51 124.23C179.63 119.9 182.79 116.41 184.51 112.29C186.111 108.156 186.262 103.601 184.937 99.3702C183.613 95.1394 180.892 91.4833 177.22 88.9998C172.56 85.9998 166.82 85.2198 161.94 82.6098C153.79 78.2398 149.76 68.5198 141.99 63.4798C125.62 52.8798 114 60.4498 103.29 72.1398Z" stroke="#333333" stroke-width="7" stroke-linecap="round" stroke-linejoin="round"/>
<path d="M108.88 117.52C113.652 117.52 117.52 113.652 117.52 108.88C117.52 104.108 113.652 100.24 108.88 100.24C104.108 100.24 100.24 104.108 100.24 108.88C100.24 113.652 104.108 117.52 108.88 117.52Z" stroke="#333333" stroke-width="7" stroke-linecap="round" stroke-linejoin="round"/>
<path d="M141.12 149.76C145.892 149.76 149.76 145.892 149.76 141.12C149.76 136.349 145.892 132.48 141.12 132.48C136.349 132.48 132.48 136.349 132.48 141.12C132.48 145.892 136.349 149.76 141.12 149.76Z" stroke="#333333" stroke-width="7" stroke-linecap="round" stroke-linejoin="round"/>
<path d="M143.36 105.32C131.57 120.32 116.07 131.17 105.36 147.02" stroke="#333333" stroke-width="7" stroke-linecap="round" stroke-linejoin="round"/>
</svg>
