<svg width="250" height="250" viewBox="0 0 250 250" fill="none" xmlns="http://www.w3.org/2000/svg">
<path d="M78.7396 163.351C70.5296 157.111 64.1196 142.291 65.2696 127.811C66.2696 115.461 77.8796 99.1207 90.0096 95.5207C97.5996 93.2707 106.51 91.4307 114.4 91.9107C126.4 92.6407 133.89 99.4707 139.6 109.701C148.34 125.371 148.8 144.151 136.45 158.251C128 167.901 118.9 171.191 106.15 172.531C99.9996 173.171 86.9996 169.591 78.7396 163.351Z" stroke="#333333" stroke-width="7" stroke-linecap="round" stroke-linejoin="round"/>
<path d="M134.529 161.861C147.623 175.628 160.989 189.121 174.629 202.341" stroke="#333333" stroke-width="7" stroke-linecap="round" stroke-linejoin="round"/>
<path d="M79.8301 124.941C80.9705 121.262 82.8525 117.856 85.3601 114.932C87.8677 112.008 90.9477 109.629 94.4101 107.941" stroke="#333333" stroke-width="7" stroke-linecap="round" stroke-linejoin="round"/>
<path d="M104.81 104.941L107.64 103.941" stroke="#333333" stroke-width="7" stroke-linecap="round" stroke-linejoin="round"/>
<path d="M131.89 65.7109L139.58 47.7109" stroke="#333333" stroke-width="7" stroke-linecap="round" stroke-linejoin="round"/>
<path d="M161.63 84.1415L176.42 74.2715" stroke="#333333" stroke-width="7" stroke-linecap="round" stroke-linejoin="round"/>
<path d="M172.29 118.901L184.87 118.771" stroke="#333333" stroke-width="7" stroke-linecap="round" stroke-linejoin="round"/>
</svg>
