<svg width="1000" height="820" viewBox="0 0 1000 820" fill="none" xmlns="http://www.w3.org/2000/svg">
<path d="M82.19 517.271L86.48 512.131C95.82 500.861 130.92 459.131 139.96 448.681C152.66 433.981 163.71 424.301 176.46 410.181C182.54 403.461 191.84 397.621 194.66 388.871C197.56 379.871 201.05 366.731 205.96 359.011C206.77 358.988 207.579 359.086 208.36 359.301L212.15 335.721C212.15 335.721 213.7 323.121 215.15 314.451C211.27 313.331 210.28 307.011 210.05 302.831C209.75 297.121 209.48 291.401 209.37 285.681C199.85 285.571 188.22 284.471 182.21 276.681C173.86 265.871 181.21 252.011 189.95 246.681C195.77 243.101 204.1 241.941 214.28 242.221C216.173 235.7 218.86 229.436 222.28 223.571C228.64 212.831 239.46 201.461 252.21 203.131C253.315 202.784 254.351 202.246 255.27 201.541C279.83 182.641 307.91 203.821 334.09 205.081C337.84 205.261 339.8 210.591 336.09 212.531C332.45 214.443 328.7 216.139 324.86 217.611C332.29 220.611 339.58 223.781 346.66 226.531C356.92 230.531 391.4 248.381 391.4 248.381L336.9 250.381C336.9 250.381 335.9 270.991 335.57 279.051C335.12 290.731 334.14 301.881 333.57 313.541C332.73 331.361 326.22 383.711 326.22 383.711L326.15 387.121H326.78C330.49 397.771 334.37 411.401 335.5 422.671C335.686 424.692 335.706 426.726 335.56 428.751C348.92 440.211 370.4 469.571 380.39 480.671C393.482 495.501 405.156 511.524 415.26 528.531C417.88 514.531 421.48 499.231 425.56 487.261C429.51 475.681 435.56 461.971 443.06 452.261C445.29 449.361 452.26 444.021 457.54 442.491V442.351C467.4 428.051 476.54 411.181 484.87 396.041C493.12 381.101 501.21 364.041 512.15 349.941C503.92 350.405 495.729 351.407 487.63 352.941C485.703 353.301 483.783 353.701 481.87 354.141C498.235 336.449 517.208 321.362 538.13 309.401C543.6 306.261 544.83 298.111 540.13 293.691C530.61 284.691 518.32 287.691 507.61 292.621C494.61 298.621 481.7 304.881 468.75 311.011L457.63 316.271C493.839 290.676 532.443 268.65 572.9 250.501C577.38 248.501 578.81 242.141 576.99 238.011C574.88 233.211 570.24 231.301 565.19 232.221C523.026 239.949 481.722 251.792 441.87 267.581C446.18 264.211 450.53 260.901 454.97 257.701C465.817 249.881 477.007 242.547 488.54 235.701C491.54 233.921 494.563 232.177 497.61 230.471C500.22 229.001 503.61 227.671 505.75 225.531C512.09 219.181 508.75 209.421 502.34 204.811C497 201.001 490.42 200.271 484.11 199.001L460.85 194.351L416.26 185.461C386.71 179.561 357.21 173.231 327.5 168.201C273.81 159.111 217.09 155.381 165.7 176.731C143.7 185.871 123.13 198.841 107.13 216.661C89.3899 236.411 78.5999 260.811 72.1999 286.361C58.2599 342.001 57.65 401.361 67 457.711C70.26 477.291 74 498.501 82.19 517.271Z" fill="#F4F6F9"/>
<path d="M304.14 444.352C304.83 459.262 303.27 476.122 298.97 490.352C296.11 499.802 293.82 509.582 290.58 518.902C288.06 526.142 282.92 533.002 281.06 540.122C291.5 530.932 318.8 520.242 325.74 540.392C333.39 562.612 309.56 593.192 297.65 608.832C302.1 605.662 310.96 596.662 316.51 601.152C319.51 603.602 320.02 609.392 319.96 612.842C319.85 619.742 316.4 625.202 313.33 631.362C310.26 637.522 303.42 651.592 304.33 659.032" stroke="#333333" stroke-width="7" stroke-linecap="round" stroke-linejoin="round"/>
<path d="M60 545.591C68.1 533.701 77.3 523.181 86.47 512.131C95.81 500.861 130.91 459.131 139.95 448.681C152.65 433.981 163.7 424.301 176.45 410.181C182.53 403.461 191.83 397.621 194.65 388.871C197.56 379.871 201.04 366.731 205.95 359.011C210.57 358.711 218.78 364.561 230.29 368.681C241.8 372.801 261.05 376.001 275 379.521C291.998 383.79 309.382 386.339 326.89 387.131C330.6 397.781 334.48 411.411 335.61 422.681C337.08 437.281 327.97 458.851 323 459.181C318.03 459.511 310 423.001 304.41 411.771C299.21 418.771 287.28 457.591 281.06 458.181C274.84 458.771 263.88 451.491 256.68 446.081C249.48 440.671 222.46 417.681 206.48 398.981" stroke="#333333" stroke-width="7" stroke-linecap="round" stroke-linejoin="round"/>
<path d="M335.6 428.73C348.96 440.18 370.46 469.57 380.46 480.68C393.977 495.988 405.98 512.568 416.3 530.19C423.81 543.19 433.14 556.34 434.96 565.68C436.78 575.02 432.15 586.85 424.05 587.15C415.95 587.45 410.21 575.15 410.96 560.35C411.71 545.55 417.78 510.27 425.63 487.27C429.58 475.69 435.63 461.98 443.13 452.27C446.05 448.47 452.88 440.49 457.63 442.36" stroke="#333333" stroke-width="7" stroke-linecap="round" stroke-linejoin="round"/>
<path d="M208.3 359.682L212.15 335.682C212.15 335.682 214.15 319.112 215.8 310.902C216.98 304.902 220.7 296.112 220.13 290.302C219.7 285.952 221.42 288.182 217.63 286.302C215.22 285.132 212.25 285.622 209.63 285.602C200.07 285.512 188.29 284.462 182.23 276.602C173.88 265.792 181.23 251.932 189.97 246.602C199.68 240.602 216.31 241.352 236.97 244.332C239.42 242.332 240.51 235.142 242.32 231.982C244.78 227.692 246.99 224.062 250.61 220.622C258.02 213.622 265.27 210.502 274.97 208.752C299.52 204.312 324.16 217.702 346.73 226.452C356.99 230.452 391.47 248.302 391.47 248.302L336.97 250.302C336.97 250.302 335.97 270.912 335.64 278.972C335.19 290.652 334.21 301.802 333.64 313.462C332.8 331.282 326.3 383.632 326.3 383.632" stroke="#333333" stroke-width="7" stroke-linecap="round" stroke-linejoin="round"/>
<path d="M272.3 269.002C274.14 273.672 286.02 283.742 290.3 279.002" stroke="#333333" stroke-width="7" stroke-linecap="round" stroke-linejoin="round"/>
<path d="M303.63 233.682C303.609 236.624 304.058 239.551 304.96 242.352" stroke="#333333" stroke-width="7" stroke-linecap="round" stroke-linejoin="round"/>
<path d="M316.3 231.682C317.288 233.796 317.962 236.043 318.3 238.352" stroke="#333333" stroke-width="7" stroke-linecap="round" stroke-linejoin="round"/>
<path d="M201.63 265.001C206.2 264.321 211.85 268.001 216.3 269.001" stroke="#333333" stroke-width="7" stroke-linecap="round" stroke-linejoin="round"/>
<path d="M217.63 286.381C215.22 285.211 212.25 285.701 209.63 285.681H209.39C209.5 291.401 209.77 297.121 210.07 302.831C210.3 307.011 211.29 313.331 215.17 314.451C215.39 313.181 215.6 311.991 215.81 310.941C216.99 304.941 220.71 296.151 220.14 290.341C219.7 286.001 221.42 288.221 217.63 286.381Z" fill="#333333"/>
<path d="M334.13 205.081C307.95 203.821 279.87 182.641 255.31 201.541C254.394 202.244 253.362 202.782 252.26 203.131C239.5 201.461 228.68 212.831 222.32 223.571C218.9 229.437 216.213 235.7 214.32 242.221C219.2 242.351 224.5 242.811 230.16 243.501C230.156 243.541 230.156 243.581 230.16 243.621C232.16 249.911 235.54 256.341 233.44 263.011C232.3 266.631 237.59 270.091 240.12 266.901C251.077 253.249 257.846 236.717 259.61 219.301C268.53 224.191 281.08 224.511 290.21 224.371C306.239 224.094 321.975 220.037 336.14 212.531C339.84 210.591 337.88 205.261 334.13 205.081Z" fill="#333333"/>
<path d="M458.3 442.352C470.074 446.599 481.37 452.072 492 458.682C505.512 467.517 517.724 478.197 528.28 490.412C537.44 501.172 539.6 505.042 540.28 519.412C540.96 533.782 540.12 550.212 525.02 557.212C533.77 565.742 540.02 592.972 523.69 597.872C526.23 600.872 529.6 603.352 531.98 606.502C537.74 614.152 541.73 622.262 542.98 631.022" stroke="#333333" stroke-width="7" stroke-linecap="round" stroke-linejoin="round"/>
<path d="M457.63 442.351C467.49 428.051 476.63 411.181 484.96 396.041C497.51 373.311 509.68 345.701 532.11 330.961C559.2 313.161 596.86 317.281 626.86 327.311C657.86 337.681 668.81 354.211 654.55 360.311C648.55 362.841 636.55 355.371 629.96 354.051C621.45 352.361 612.3 349.721 604.32 350.951" stroke="#333333" stroke-width="7" stroke-linecap="round" stroke-linejoin="round"/>
<path d="M480.3 405.002C496.46 408.672 507.3 416.162 519.96 425.672C526.38 430.492 543.36 441.782 544.24 449.332C545.08 456.472 531.63 492.332 531.63 492.332" stroke="#333333" stroke-width="7" stroke-linecap="round" stroke-linejoin="round"/>
<path d="M547.63 344.351C555.14 341.681 562.04 342.011 570.3 344.851C579.358 348.135 587.475 353.587 593.94 360.731C598.09 365.561 603.94 382.081 592.26 383.121C588.97 383.421 582.32 376.711 579.16 375.181C574.39 372.871 567.05 370.251 561.83 371.681C573.38 376.181 576.96 387.181 569.46 397.681" stroke="#333333" stroke-width="7" stroke-linecap="round" stroke-linejoin="round"/>
<path d="M547 414.352C549.51 423.632 559.51 423.882 567.74 424.352C577.74 424.952 595.32 415.912 596.99 405.552C605.93 411.212 609.17 421.432 611.93 431.012C613.26 435.662 616.68 445.172 623.52 441.722C630.92 437.982 629.32 425.022 627.67 419.662C624.75 410.192 620.79 402.242 610.4 393.952C625.67 401.362 643.56 436.022 653.01 420.362C662.36 404.882 625.65 378.432 614.41 374.872C614.309 374.706 614.256 374.516 614.256 374.322C614.256 374.128 614.309 373.938 614.41 373.772C632.36 377.332 641.75 390.622 656.63 393.962C673.36 397.722 677.02 373.962 654.63 360.252" stroke="#333333" stroke-width="7" stroke-linecap="round" stroke-linejoin="round"/>
<path d="M554.3 423.002C554.3 429.912 545.11 438.002 544.3 445.672" stroke="#333333" stroke-width="7" stroke-linecap="round" stroke-linejoin="round"/>
<path d="M559.63 293.181C574.89 283.751 596.94 275.651 614.18 271.711C632.04 267.631 649.73 262.711 667.71 259.371C683.17 256.461 719.96 252.371 747.46 252.371" stroke="#333333" stroke-width="7" stroke-linecap="round" stroke-linejoin="round"/>
<path d="M671 305.68C678.11 303.56 686 301.23 693.08 299.68C701.63 297.84 710.25 296.79 718.84 295.16C732.03 292.65 745.68 291.53 759 290.33" stroke="#333333" stroke-width="7" stroke-linecap="round" stroke-linejoin="round"/>
<path d="M903.76 249.621C883.3 248.051 862.93 244.441 842.55 241.491C822.01 238.491 755.55 226.491 751.37 227.951C759.25 240.201 770.64 251.531 781.37 262.631C781.37 262.631 778.2 285.341 778.94 297.891C778.94 297.891 796.32 290.181 804.17 288.411C809.99 295.411 815.38 301.971 815.38 301.971C815.38 301.971 862.72 289.001 876.9 282.711C893.03 275.521 909.3 269.451 925.74 263.261C931.183 261.331 936.074 258.105 939.99 253.861C928.76 251.221 915.31 250.501 903.76 249.621Z" fill="#9ED5F0" stroke="#9ED5F0" stroke-width="7" stroke-linecap="round" stroke-linejoin="round"/>
<path d="M815.36 302C815.36 302 809.97 295.43 804.15 288.44C799.9 283.32 795.41 277.97 792.64 274.81C789.11 270.81 785.27 266.73 781.35 262.66C770.64 251.56 759.25 240.23 751.35 227.98" stroke="#333333" stroke-width="7" stroke-linecap="round" stroke-linejoin="round"/>
<path d="M899.12 259.002C895.39 261.482 892.41 259.142 888.39 259.292C882.57 259.522 878.16 263.012 872.01 262.562C860.87 261.742 824.3 263.022 813.94 263.282C807.2 263.442 787.69 264.052 781.35 262.622C781.35 262.622 778.18 285.332 778.92 297.882" stroke="#333333" stroke-width="7" stroke-linecap="round" stroke-linejoin="round"/>
</svg>
