<svg width="250" height="250" viewBox="0 0 250 250" fill="none" xmlns="http://www.w3.org/2000/svg">
<path d="M187.61 142C184.38 139.08 180.19 136.72 176.18 134.5C176.973 128.021 176.525 121.451 174.86 115.14C178.55 112.89 181.86 110.2 185.79 108.14C189.52 106.14 192.16 103.88 190.63 99.3496C188.71 93.6996 184.56 88.0396 181.46 82.9696C179.28 79.3896 177.01 76.8796 172.56 78.3196C167.01 80.1196 161.48 83.8996 156.44 86.7896L156.11 86.9696C151.973 83.5456 147.358 80.7459 142.41 78.6596C142.67 73.3296 141.64 68.2096 141.8 62.8196C141.92 58.5796 141.29 55.1696 136.6 54.2396C130.75 53.0696 123.77 53.8396 117.83 53.9796C113.64 54.0796 110.34 54.7896 109.36 59.3596C108.14 65.0696 108.65 71.7496 108.62 77.5596C108.62 78.2696 108.62 79.0496 108.55 79.8696C103.646 81.6298 99.0847 84.2285 95.0699 87.5496C90.4099 84.4096 85.2199 82.7196 80.4099 79.7496C76.8099 77.5296 73.5399 76.3696 70.4099 79.9596C66.4699 84.4496 63.6499 90.8696 60.8099 96.0996C58.8099 99.7696 57.7599 102.99 61.2299 106.1C65.5599 110.01 71.5999 112.91 76.6199 115.83C77.0699 116.09 77.5399 116.38 78.0199 116.69C76.8928 121.946 76.3794 127.315 76.4899 132.69C72.5899 135 69.1199 137.84 65.0499 140.04C61.3199 142.04 58.6799 144.3 60.2199 148.83C62.1399 154.48 66.2899 160.14 69.3899 165.21C71.5699 168.79 73.8299 171.3 78.2799 169.86C82.0763 168.482 85.7111 166.695 89.1199 164.53C90.449 165.678 91.878 166.705 93.3899 167.6C98.2037 170.419 103.311 172.706 108.62 174.42C108.92 177.39 109.063 180.374 109.05 183.36C108.93 187.6 109.55 195.01 114.24 195.94C120.1 197.11 127.07 196.34 133.02 196.2C137.2 196.1 140.51 195.39 141.49 190.82C142.23 187.35 142.33 179.52 142.3 175.74C148.552 173.963 154.35 170.863 159.3 166.65C160.02 166.05 160.7 165.41 161.38 164.77C163.779 165.859 166.116 167.081 168.38 168.43C171.99 170.65 175.26 171.81 178.38 168.22C182.32 163.73 185.14 157.31 187.99 152.08C190 148.31 191.08 145.09 187.61 142ZM128.2 159.18C112.51 160.77 93.9199 149.28 93.9199 129.86C93.9199 114.37 99.7499 105.86 104.46 100.98C109.17 96.0996 119.12 93.0796 126.46 92.6996C144.83 91.6996 157.46 107.26 158.22 123.42C158.94 139.74 146.8 157.29 128.2 159.18Z" fill="#333333"/>
<path d="M140.61 113.28C130.61 100.28 109.92 105.92 106.24 121.28C102.39 137.47 119.79 152.04 134.59 143.28C137.438 141.667 139.814 139.337 141.484 136.521C143.154 133.706 144.059 130.503 144.11 127.23C144.481 124.789 144.363 122.298 143.763 119.903C143.162 117.508 142.09 115.257 140.61 113.28Z" fill="#333333"/>
</svg>
