<svg width="250" height="250" viewBox="0 0 250 250" fill="none" xmlns="http://www.w3.org/2000/svg">
<path d="M37.5701 171.85C36.9701 154.51 39.2401 125.44 41.6401 108.31C43.7501 93.3102 48.1501 74.1902 58.0101 61.7902C75.9401 39.2402 107.4 31.7902 134.82 31.4602C147.58 31.3102 162.6 32.9702 172.66 41.1602C183.1 49.6502 194.92 61.6202 201.28 73.5002C216.94 102.74 212 139.6 212 171.85" stroke="#333333" stroke-width="7" stroke-linecap="round" stroke-linejoin="round"/>
<path d="M34.6104 171.85C44.6104 173.51 55.4004 175.64 65.5004 176.18C87.0904 177.35 109.69 177.88 131.22 177.07C150.64 176.34 169.61 177.34 188.9 175.07C197.28 174.07 207.67 174.2 215.44 170.75" stroke="#333333" stroke-width="7" stroke-linecap="round" stroke-linejoin="round"/>
<path d="M36.4304 164.809C34.3604 164.809 28.0904 166.419 26.6204 167.869C24.6204 169.869 25.2704 175.529 25.1604 178.209C24.8604 186.129 24.3604 198.049 26.0604 205.809C27.4904 212.289 49.9904 215.389 59.2404 215.939C96.9904 218.219 134.84 220.179 172.61 216.479C185.19 215.239 198.08 214.479 210.44 211.959C215.9 210.859 220.44 209.109 223.16 205.959C225.88 202.809 225.28 175.219 224.45 170.139C223.62 165.059 220.25 164.969 213.17 163.699" stroke="#333333" stroke-width="7" stroke-linecap="round" stroke-linejoin="round"/>
<path d="M111.69 155.479C111.69 155.479 110.43 143.859 112.25 138.939C113.99 134.249 117.97 133.419 122.58 133.139C119.98 131.079 116.09 124.619 117.81 120.599C118.89 118.079 123.09 117.129 125.5 116.969C123.61 114.629 123.5 112.139 123.27 110.209C122.64 105.499 123.94 100.149 128.18 97.6893C132.42 95.2293 139 96.9992 142 101.169C145.87 106.599 143.05 111.749 140.52 117.329C143.86 117.609 150.14 116.329 151.85 123.089C153.42 129.309 146.85 134.939 143.25 137.669C153.69 133.899 159.95 143.969 159.12 155.079C145.09 156.999 111.69 155.479 111.69 155.479Z" stroke="#333333" stroke-width="7" stroke-linecap="round" stroke-linejoin="round"/>
<path d="M138.2 107.709L154.09 107.279" stroke="#333333" stroke-width="7" stroke-linecap="round" stroke-linejoin="round"/>
<path d="M46.3809 165.06C50.3309 162.23 51.4609 159.13 55.8709 156.52C60.7709 153.61 74.6109 149.68 79.6009 153.75C89.1572 148.914 99.3172 145.376 109.811 143.23" stroke="#333333" stroke-width="7" stroke-linecap="round" stroke-linejoin="round"/>
<path d="M157.511 141.52C166.891 141.52 178.131 142.89 185.821 148.68C192.251 153.52 196.651 157.74 200.821 164.36" stroke="#333333" stroke-width="7" stroke-linecap="round" stroke-linejoin="round"/>
<path d="M153.42 169.47C156.32 164.04 161.7 163.01 167.01 166.7C162.01 158.57 175.16 154.2 181.01 156.18" stroke="#333333" stroke-width="7" stroke-linecap="round" stroke-linejoin="round"/>
<path d="M78.46 165.001C82.97 162.501 87.24 160.451 92.59 160.591C96.71 160.711 105.27 162.931 105.78 168.031C111.63 162.951 120.3 161.821 126.84 165.681" stroke="#333333" stroke-width="7" stroke-linecap="round" stroke-linejoin="round"/>
<path d="M92.4307 105.41C92.8808 105.602 93.2393 105.96 93.4307 106.41" stroke="#333333" stroke-width="7" stroke-linecap="round" stroke-linejoin="round"/>
<path d="M108.78 76.0996L108.44 76.7796" stroke="#333333" stroke-width="7" stroke-linecap="round" stroke-linejoin="round"/>
<path d="M122.07 62.4707C122.4 62.7007 122.75 62.9407 123.07 63.1507" stroke="#333333" stroke-width="7" stroke-linecap="round" stroke-linejoin="round"/>
<path d="M158.531 65.541L157.851 66.221" stroke="#333333" stroke-width="7" stroke-linecap="round" stroke-linejoin="round"/>
<path d="M153.42 52.5895C153.784 52.5721 154.142 52.6936 154.42 52.9295" stroke="#333333" stroke-width="7" stroke-linecap="round" stroke-linejoin="round"/>
<path d="M177.62 82.5703C177.241 82.9916 176.906 83.4507 176.62 83.9403" stroke="#333333" stroke-width="7" stroke-linecap="round" stroke-linejoin="round"/>
<path d="M151 83.2598C151.19 83.4093 151.409 83.5169 151.644 83.5755C151.878 83.6341 152.122 83.6424 152.36 83.5998" stroke="#333333" stroke-width="7" stroke-linecap="round" stroke-linejoin="round"/>
<path d="M167.73 106.43V108.81" stroke="#333333" stroke-width="7" stroke-linecap="round" stroke-linejoin="round"/>
<path d="M175.57 66.9006C176.383 67.0107 177.21 66.8929 177.96 66.5605" stroke="#333333" stroke-width="7" stroke-linecap="round" stroke-linejoin="round"/>
<path d="M125.82 47.8192V46.4492" stroke="#333333" stroke-width="7" stroke-linecap="round" stroke-linejoin="round"/>
<path d="M134.341 68.9395C135.031 68.6546 135.699 68.3204 136.341 67.9395" stroke="#333333" stroke-width="7" stroke-linecap="round" stroke-linejoin="round"/>
<path d="M96.5205 55C96.7204 55.2741 96.9744 55.5043 97.2668 55.6763C97.5592 55.8483 97.8838 55.9585 98.2205 56" stroke="#333333" stroke-width="7" stroke-linecap="round" stroke-linejoin="round"/>
<path d="M81.5205 74.4004H83.2305" stroke="#333333" stroke-width="7" stroke-linecap="round" stroke-linejoin="round"/>
<path d="M74.71 59.4004C74.741 59.7516 74.894 60.0809 75.1424 60.3311C75.3908 60.5813 75.719 60.7367 76.07 60.7704" stroke="#333333" stroke-width="7" stroke-linecap="round" stroke-linejoin="round"/>
<path d="M74.71 97.5692C74.84 97.0892 74.94 96.6992 75.05 96.1992" stroke="#333333" stroke-width="7" stroke-linecap="round" stroke-linejoin="round"/>
<path d="M108.78 91.7793H110.15" stroke="#333333" stroke-width="7" stroke-linecap="round" stroke-linejoin="round"/>
<path d="M93.79 85.2996C94.1598 84.8012 94.3941 84.2155 94.47 83.5996" stroke="#333333" stroke-width="7" stroke-linecap="round" stroke-linejoin="round"/>
<path d="M108.44 62.8105C108.585 62.6922 108.693 62.5358 108.753 62.3591C108.813 62.1824 108.823 61.9924 108.78 61.8105" stroke="#333333" stroke-width="7" stroke-linecap="round" stroke-linejoin="round"/>
<path d="M137.41 56.6798C137.89 56.5398 138.28 56.4398 138.77 56.3398" stroke="#333333" stroke-width="7" stroke-linecap="round" stroke-linejoin="round"/>
<path d="M166.71 54V55" stroke="#333333" stroke-width="7" stroke-linecap="round" stroke-linejoin="round"/>
<path d="M136.73 43.7308C136.953 43.7692 137.181 43.7198 137.368 43.5929C137.555 43.4661 137.684 43.2717 137.73 43.0508" stroke="#333333" stroke-width="7" stroke-linecap="round" stroke-linejoin="round"/>
<path d="M108.101 47.1406C108.385 47.2024 108.653 47.3234 108.887 47.4957C109.121 47.668 109.317 47.8877 109.461 48.1406" stroke="#333333" stroke-width="7" stroke-linecap="round" stroke-linejoin="round"/>
<path d="M122.07 83.9395C122.309 83.6628 122.431 83.3042 122.41 82.9395" stroke="#333333" stroke-width="7" stroke-linecap="round" stroke-linejoin="round"/>
<path d="M52.9004 111.541C53.106 111.981 53.46 112.335 53.9004 112.541" stroke="#333333" stroke-width="7" stroke-linecap="round" stroke-linejoin="round"/>
<path d="M63.4603 85.3008C63.3203 84.8308 63.3903 84.4308 63.8003 84.3008" stroke="#333333" stroke-width="7" stroke-linecap="round" stroke-linejoin="round"/>
<path d="M195 109.491C195.032 109.32 195.115 109.164 195.239 109.043C195.362 108.921 195.519 108.84 195.69 108.811" stroke="#333333" stroke-width="7" stroke-linecap="round" stroke-linejoin="round"/>
<path d="M183.07 129.939L183.75 130.279" stroke="#333333" stroke-width="7" stroke-linecap="round" stroke-linejoin="round"/>
<path d="M77.0908 134.369C77.1446 134.212 77.2339 134.068 77.3518 133.95C77.4697 133.833 77.613 133.743 77.7708 133.689" stroke="#333333" stroke-width="7" stroke-linecap="round" stroke-linejoin="round"/>
<path d="M56.6504 120.4C56.6504 120.65 56.7304 120.77 56.9904 120.74" stroke="#333333" stroke-width="7" stroke-linecap="round" stroke-linejoin="round"/>
</svg>
