<svg width="250" height="250" viewBox="0 0 250 250" fill="none" xmlns="http://www.w3.org/2000/svg">
<path d="M227.9 167.8C226.74 160.72 221.57 159.8 215.58 158.8L213.78 158.49C213.324 158.4 212.854 158.402 212.399 158.496C211.944 158.589 211.512 158.773 211.128 159.035C210.745 159.298 210.417 159.634 210.165 160.024C209.913 160.414 209.741 160.851 209.659 161.309C209.577 161.766 209.588 162.236 209.689 162.689C209.791 163.143 209.982 163.571 210.251 163.95C210.52 164.329 210.862 164.651 211.257 164.896C211.651 165.142 212.091 165.306 212.55 165.38L214.39 165.7L214.95 165.8C214.916 165.868 214.886 165.938 214.86 166.01L213.76 169.22C183.88 176.17 153.94 175.29 123.45 174.58C94.1198 173.9 64.7698 172.65 35.6098 169.29L34.9798 167.49C34.8927 167.262 34.7891 167.042 34.6698 166.83C35.2724 166.697 35.8841 166.61 36.4998 166.57C36.9594 166.56 37.4126 166.459 37.8335 166.274C38.2544 166.089 38.6347 165.823 38.9527 165.491C39.2708 165.159 39.5203 164.768 39.6871 164.34C39.8539 163.911 39.9347 163.454 39.9248 162.995C39.915 162.535 39.8147 162.082 39.6297 161.661C39.4447 161.24 39.1786 160.86 38.8466 160.542C38.5147 160.224 38.1233 159.974 37.6949 159.807C37.2665 159.641 36.8094 159.56 36.3498 159.57C34.2998 159.57 26.7098 161.12 24.1598 163.63C21.6098 166.14 21.5898 170.8 21.6598 174.47C21.6598 175.17 21.6598 175.82 21.6598 176.34V176.8C21.3598 184.8 20.8898 196.8 22.6598 204.8C24.9298 215.11 53.3698 217.33 59.0398 217.68C82.7498 219.11 105.1 220.29 127.04 220.29C142.47 220.29 157.68 219.7 173.04 218.2C175.66 217.94 178.3 217.7 180.95 217.46C190.95 216.56 201.25 215.62 211.21 213.63C218.21 212.22 222.91 209.94 225.91 206.44C230.16 201.39 228.33 170.46 227.9 167.8Z" fill="#02ABF8"/>
<path d="M37.5597 170.099C36.9697 152.759 39.2297 123.689 41.6397 106.559C43.7397 91.5192 48.1497 72.4292 57.9997 59.9992C75.9297 37.4392 107.39 29.9992 134.82 29.6692C147.58 29.5192 162.6 31.1792 172.65 39.3692C183.09 47.8592 194.91 59.8292 201.28 71.6992C216.94 100.999 212 137.849 212 170.099" stroke="#333333" stroke-width="7" stroke-linecap="round" stroke-linejoin="round"/>
<path d="M34.6094 170.1C44.6094 171.76 55.3894 173.88 65.4994 174.43C87.0794 175.59 109.679 176.13 131.219 175.32C150.629 174.59 169.609 175.59 188.899 173.32C197.279 172.32 207.669 172.45 215.439 169" stroke="#333333" stroke-width="7" stroke-linecap="round" stroke-linejoin="round"/>
<path d="M111.689 153.73C111.689 153.73 110.429 142.1 112.249 137.19C113.979 132.5 117.969 131.67 122.579 131.39C119.969 129.33 116.089 122.87 117.809 118.85C118.889 116.32 123.089 115.38 125.499 115.21C123.599 112.88 123.499 110.39 123.259 108.46C122.639 103.74 123.929 98.4 128.179 95.93C132.429 93.46 138.999 95.24 141.999 99.41C145.869 104.85 142.999 110 140.519 115.58C143.859 115.86 150.139 114.58 151.839 121.34C153.419 127.56 146.839 133.18 143.239 135.92C153.679 132.15 159.949 142.22 159.119 153.33C145.089 155.23 111.689 153.73 111.689 153.73Z" stroke="#333333" stroke-width="7" stroke-linecap="round" stroke-linejoin="round"/>
<path d="M138.2 105.949L154.09 105.529" stroke="#333333" stroke-width="7" stroke-linecap="round" stroke-linejoin="round"/>
<path d="M46.3799 163.309C50.3199 160.479 51.4599 157.379 55.8599 154.769C60.7599 151.859 74.6099 147.929 79.5899 151.999C89.1469 147.163 99.3066 143.625 109.8 141.479" stroke="#333333" stroke-width="7" stroke-linecap="round" stroke-linejoin="round"/>
<path d="M157.51 139.77C166.89 139.77 178.12 141.14 185.82 146.93C192.25 151.77 196.64 155.99 200.82 162.6" stroke="#333333" stroke-width="7" stroke-linecap="round" stroke-linejoin="round"/>
<path d="M153.42 167.708C156.31 162.288 161.69 161.258 167 164.938C162 156.818 175.15 152.448 181 154.428" stroke="#333333" stroke-width="7" stroke-linecap="round" stroke-linejoin="round"/>
<path d="M78.4502 163.29C82.9702 160.79 87.2402 158.74 92.5902 158.88C96.7002 158.99 105.26 161.22 105.78 166.32C111.62 161.24 120.29 160.1 126.84 163.97" stroke="#333333" stroke-width="7" stroke-linecap="round" stroke-linejoin="round"/>
<path d="M92.4199 103.648C92.8683 103.842 93.226 104.2 93.4199 104.648" stroke="#333333" stroke-width="7" stroke-linecap="round" stroke-linejoin="round"/>
<path d="M108.779 74.3496L108.439 75.0296" stroke="#333333" stroke-width="7" stroke-linecap="round" stroke-linejoin="round"/>
<path d="M122.069 60.7188L123.069 61.3988" stroke="#333333" stroke-width="7" stroke-linecap="round" stroke-linejoin="round"/>
<path d="M158.53 63.7891L157.85 64.4691" stroke="#333333" stroke-width="7" stroke-linecap="round" stroke-linejoin="round"/>
<path d="M153.42 50.8394C153.784 50.8229 154.141 50.9443 154.42 51.1794" stroke="#333333" stroke-width="7" stroke-linecap="round" stroke-linejoin="round"/>
<path d="M177.609 80.8184C177.233 81.242 176.898 81.7008 176.609 82.1884" stroke="#333333" stroke-width="7" stroke-linecap="round" stroke-linejoin="round"/>
<path d="M151 81.5C151.19 81.6532 151.41 81.7638 151.647 81.8242C151.883 81.8846 152.13 81.8934 152.37 81.85" stroke="#333333" stroke-width="7" stroke-linecap="round" stroke-linejoin="round"/>
<path d="M167.729 104.68V107.06" stroke="#333333" stroke-width="7" stroke-linecap="round" stroke-linejoin="round"/>
<path d="M175.569 65.1486C176.379 65.2537 177.202 65.1362 177.949 64.8086" stroke="#333333" stroke-width="7" stroke-linecap="round" stroke-linejoin="round"/>
<path d="M125.819 46.0692V44.6992" stroke="#333333" stroke-width="7" stroke-linecap="round" stroke-linejoin="round"/>
<path d="M134.34 67.1895C135.027 66.8988 135.695 66.5647 136.34 66.1895" stroke="#333333" stroke-width="7" stroke-linecap="round" stroke-linejoin="round"/>
<path d="M96.5098 53.2188C96.712 53.4927 96.968 53.7227 97.2619 53.8946C97.5559 54.0665 97.8818 54.1768 98.2198 54.2188" stroke="#333333" stroke-width="7" stroke-linecap="round" stroke-linejoin="round"/>
<path d="M81.5195 72.6387H83.2195" stroke="#333333" stroke-width="7" stroke-linecap="round" stroke-linejoin="round"/>
<path d="M74.7002 57.6484C74.736 57.9976 74.8924 58.3234 75.1424 58.5698C75.3925 58.8162 75.7205 58.9677 76.0702 58.9984" stroke="#333333" stroke-width="7" stroke-linecap="round" stroke-linejoin="round"/>
<path d="M74.7002 95.8192C74.8402 95.3392 74.9402 94.9492 75.0502 94.4492" stroke="#333333" stroke-width="7" stroke-linecap="round" stroke-linejoin="round"/>
<path d="M108.78 90H110.14" stroke="#333333" stroke-width="7" stroke-linecap="round" stroke-linejoin="round"/>
<path d="M93.79 83.5496C94.1519 83.0468 94.3853 82.4632 94.47 81.8496" stroke="#333333" stroke-width="7" stroke-linecap="round" stroke-linejoin="round"/>
<path d="M108.439 61.0586C108.584 60.9403 108.692 60.7839 108.752 60.6071C108.812 60.4304 108.822 60.2404 108.779 60.0586" stroke="#333333" stroke-width="7" stroke-linecap="round" stroke-linejoin="round"/>
<path d="M137.399 54.9301C137.879 54.7901 138.269 54.6901 138.769 54.5801" stroke="#333333" stroke-width="7" stroke-linecap="round" stroke-linejoin="round"/>
<path d="M166.71 52.1992V53.1992" stroke="#333333" stroke-width="7" stroke-linecap="round" stroke-linejoin="round"/>
<path d="M136.72 41.9984C136.942 42.0395 137.172 41.9911 137.359 41.8638C137.547 41.7365 137.676 41.5405 137.72 41.3184" stroke="#333333" stroke-width="7" stroke-linecap="round" stroke-linejoin="round"/>
<path d="M108.1 45.3789C108.383 45.443 108.65 45.5649 108.884 45.737C109.118 45.909 109.314 46.1276 109.46 46.3789" stroke="#333333" stroke-width="7" stroke-linecap="round" stroke-linejoin="round"/>
<path d="M122.069 82.1895C122.302 81.9093 122.423 81.5533 122.409 81.1895" stroke="#333333" stroke-width="7" stroke-linecap="round" stroke-linejoin="round"/>
<path d="M52.8994 109.789C53.0998 110.233 53.4554 110.589 53.8994 110.789" stroke="#333333" stroke-width="7" stroke-linecap="round" stroke-linejoin="round"/>
<path d="M63.4594 83.5488C63.3194 83.0788 63.3794 82.6788 63.7994 82.5488" stroke="#333333" stroke-width="7" stroke-linecap="round" stroke-linejoin="round"/>
<path d="M195 107.739C195.031 107.57 195.113 107.415 195.235 107.293C195.356 107.172 195.511 107.09 195.68 107.059" stroke="#333333" stroke-width="7" stroke-linecap="round" stroke-linejoin="round"/>
<path d="M183.06 128.189L183.75 128.529" stroke="#333333" stroke-width="7" stroke-linecap="round" stroke-linejoin="round"/>
<path d="M77.0898 132.619C77.1369 132.458 77.2239 132.311 77.3427 132.192C77.4616 132.073 77.6085 131.987 77.7698 131.939" stroke="#333333" stroke-width="7" stroke-linecap="round" stroke-linejoin="round"/>
<path d="M56.6396 118.648C56.6396 118.898 56.7297 119.008 56.9897 118.988" stroke="#333333" stroke-width="7" stroke-linecap="round" stroke-linejoin="round"/>
</svg>
