<svg width="250" height="250" viewBox="0 0 250 250" fill="none" xmlns="http://www.w3.org/2000/svg">
<path d="M72.2699 114.999L44.6999 103.049C44.6999 103.049 59.9299 120.159 66.3699 125.999L33.1699 139.359C33.1699 139.359 61.7199 140.259 66.7499 139.549" stroke="#333333" stroke-width="7" stroke-linecap="round" stroke-linejoin="round"/>
<path d="M100.7 166.08C101.52 173.67 97.7695 208.84 97.7695 208.84" stroke="#333333" stroke-width="7" stroke-linecap="round" stroke-linejoin="round"/>
<path d="M112.69 167.76C112.37 182.14 110.34 208.84 110.34 208.84" stroke="#333333" stroke-width="7" stroke-linecap="round" stroke-linejoin="round"/>
<path d="M130.5 121.659C132.39 119.449 134.38 117.319 136.23 115.309C146.68 103.909 161.58 95.1592 174.23 86.5192C186.69 77.9992 197.55 71.9292 216.86 65.9192C195.75 54.4492 169.63 56.1992 149.6 69.2592C140.03 75.5092 127.26 89.5092 118.19 105.779C117.99 105.419 117.77 105.079 117.55 104.779C116.93 97.121 117.644 89.4132 119.66 81.9992C122.76 70.5392 139.66 54.5592 155.84 41.1992C137.73 41.6392 127.74 46.1992 121.15 50.0092C111.27 55.7492 100.36 67.0692 96.6501 80.8092C93.9801 90.7392 96.5701 101.559 98.7901 110.939L99.1801 110.839C99.0801 111.329 98.9901 111.839 98.9101 112.319C87.6301 110.959 78.1901 112.379 73.0701 118.819C65.8301 127.949 68.6201 140.379 74.5901 149.329C80.1939 157.483 88.6873 163.203 98.3501 165.329C107.01 167.329 117.66 167.329 126.08 164.329C132.099 162.259 137.187 158.12 140.44 152.649C150.36 158.419 165.22 166.919 171.64 169.899C173.9 165.719 175.64 160.039 177.03 155.299C178.59 150.119 181.92 143.749 182.19 138.549C169.34 137.919 156.45 137.699 143.67 136.669C142.54 130.519 137.64 125.559 130.5 121.659Z" fill="#9ED5F0" stroke="#9ED5F0" stroke-width="7" stroke-linecap="round" stroke-linejoin="round"/>
<path d="M88.5996 126.279V127.619" stroke="#333333" stroke-width="7" stroke-linecap="round" stroke-linejoin="round"/>
<path d="M174.6 69.3984C180.6 69.9184 189.24 71.7984 194.53 74.2284" stroke="#333333" stroke-width="7" stroke-linecap="round" stroke-linejoin="round"/>
<path d="M163 78.4297C167.755 79.6627 172.385 81.3366 176.83 83.4297" stroke="#333333" stroke-width="7" stroke-linecap="round" stroke-linejoin="round"/>
<path d="M147.229 85C154.349 85 160.919 88.17 167.859 90" stroke="#333333" stroke-width="7" stroke-linecap="round" stroke-linejoin="round"/>
<path d="M140.41 99.3984C143.638 100.061 146.815 100.946 149.92 102.048" stroke="#333333" stroke-width="7" stroke-linecap="round" stroke-linejoin="round"/>
<path d="M110 88.9997C112.11 87.8597 114.64 87.5897 117 86.6797" stroke="#333333" stroke-width="7" stroke-linecap="round" stroke-linejoin="round"/>
<path d="M112.05 71.4694C115.99 70.9994 122.11 69.8894 126.05 69.8594" stroke="#333333" stroke-width="7" stroke-linecap="round" stroke-linejoin="round"/>
<path d="M120.28 60.3885C125.367 59.6668 130.503 59.3524 135.64 59.4485" stroke="#333333" stroke-width="7" stroke-linecap="round" stroke-linejoin="round"/>
</svg>
