<svg width="250" height="250" viewBox="0 0 250 250" fill="none" xmlns="http://www.w3.org/2000/svg">
<path d="M73.2699 114.999L45.6999 103.049C45.6999 103.049 60.9299 120.159 67.3699 125.999L34.1699 139.359C34.1699 139.359 62.7199 140.259 67.7499 139.549" stroke="#333333" stroke-width="7" stroke-linecap="round" stroke-linejoin="round"/>
<path d="M87.5996 126.279V127.619" stroke="#333333" stroke-width="7" stroke-linecap="round" stroke-linejoin="round"/>
<path d="M99.6995 166.08C100.52 173.67 96.7695 208.84 96.7695 208.84" stroke="#333333" stroke-width="7" stroke-linecap="round" stroke-linejoin="round"/>
<path d="M111.69 167.76C111.37 182.14 109.34 208.84 109.34 208.84" stroke="#333333" stroke-width="7" stroke-linecap="round" stroke-linejoin="round"/>
<path d="M129.5 121.659C131.39 119.449 133.38 117.319 135.23 115.309C145.68 103.909 160.58 95.1585 173.23 86.5185C185.69 77.9985 196.55 71.9285 215.86 65.9185C194.75 54.4485 168.63 56.1985 148.6 69.2585C137.22 76.6885 121.32 95.0585 112.49 115.189H112.3C94.9601 110.639 79.3001 109.789 72.1001 118.829C64.9001 127.869 67.6501 140.389 73.6201 149.339C79.2238 157.493 87.7173 163.212 97.3801 165.339C106.04 167.339 116.69 167.339 125.11 164.339C131.129 162.268 136.217 158.129 139.47 152.659C149.39 158.429 164.25 166.929 170.67 169.909C172.93 165.729 174.67 160.049 176.06 155.309C177.62 150.129 180.95 143.759 181.22 138.559C168.37 137.929 155.48 137.709 142.7 136.679C141.54 130.519 136.64 125.559 129.5 121.659Z" stroke="#333333" stroke-width="7" stroke-linecap="round" stroke-linejoin="round"/>
<path d="M173.6 69.4004C179.6 69.9204 188.24 71.8004 193.53 74.2304" stroke="#333333" stroke-width="7" stroke-linecap="round" stroke-linejoin="round"/>
<path d="M160 77.4297C164.755 78.6627 169.385 80.3366 173.83 82.4297" stroke="#333333" stroke-width="7" stroke-linecap="round" stroke-linejoin="round"/>
<path d="M146.229 85C153.349 85 159.919 88.17 166.859 90" stroke="#333333" stroke-width="7" stroke-linecap="round" stroke-linejoin="round"/>
<path d="M139.41 99.4004C142.638 100.063 145.815 100.948 148.92 102.05" stroke="#333333" stroke-width="7" stroke-linecap="round" stroke-linejoin="round"/>
<path d="M97.7895 110.899C95.5695 101.519 92.9795 90.6995 95.6495 80.7695C99.3595 66.9995 110.27 55.7095 120.15 49.9995C126.74 46.1595 136.73 41.6295 154.84 41.1895C138.68 54.5195 121.76 70.4995 118.66 81.9995C116.545 89.8122 115.847 97.9406 116.6 105.999" stroke="#333333" stroke-width="7" stroke-linecap="round" stroke-linejoin="round"/>
<path d="M107 89.9997C109.11 88.8597 111.64 88.5897 114 87.6797" stroke="#333333" stroke-width="7" stroke-linecap="round" stroke-linejoin="round"/>
<path d="M111.05 71.4694C114.99 70.9994 121.11 69.8894 125.05 69.8594" stroke="#333333" stroke-width="7" stroke-linecap="round" stroke-linejoin="round"/>
<path d="M119.28 60.3885C124.367 59.6668 129.503 59.3524 134.64 59.4485" stroke="#333333" stroke-width="7" stroke-linecap="round" stroke-linejoin="round"/>
</svg>
