<svg width="820" height="820" viewBox="0 0 820 820" fill="none" xmlns="http://www.w3.org/2000/svg">
<path d="M684.25 445.65C677.94 432.79 668.891 421.17 658.891 410.98C649.281 401.2 638.211 393.41 627.631 384.78C617.721 376.7 608.471 367.36 607.001 354C605.351 339.26 610.551 324.51 613.35 310.24C616.359 295.51 616.388 280.328 613.436 265.587C610.483 250.846 604.609 236.845 596.16 224.41C579.641 199.92 555.16 181.87 528.22 170.21C501.86 158.8 471.961 154.8 447.401 139.45C434.401 131.34 424.581 119.21 411.971 110.54C399.851 102.22 385.621 98.04 371.141 96.46C342.971 93.39 310.781 101.12 286.421 115.46C273.901 122.81 264.051 133.07 256.421 145.32C249.601 156.2 244.541 168.05 238.351 179.32C232.351 190.17 225.351 200.03 214.851 206.95C203.991 214.14 191.851 219.03 180.801 225.95C168.941 233.41 158.871 243.25 153.171 256.22C147.664 269.19 145.428 283.314 146.661 297.35C149.081 329.12 165.721 356.62 173.921 386.87C177.521 400.17 179.621 414.6 176.611 428.23C173.261 443.36 162.141 454.52 157.041 468.94C154.222 477.155 152.948 485.821 153.281 494.5C161.211 492.39 170.461 499.07 174.201 502.08C189.421 514.31 197.691 534.4 202.951 551.9C201.081 545.9 201.361 539.63 199.891 533.53C198.009 526.172 195.326 519.043 191.891 512.27C188.511 505.27 181.411 495.19 179.351 487.42C177.991 482.29 181.011 477.42 184.231 476.8C192.231 475.34 196.731 480.69 199.691 483.46C208.691 491.83 213.821 502.13 219.691 512.79C225.001 522.38 226.691 529.79 231.341 541.79L231.401 542.02C232.151 540.439 233.347 539.112 234.841 538.2C238.171 536.29 240.841 537.05 242.951 538.99L243.871 537.47C248.201 522.28 252.871 508.8 264.401 487.47C275.931 466.14 293.961 440.96 303.961 427.96C306.161 417.21 307.461 396.15 322.631 387.71C323.291 388.18 324.031 388.71 324.801 389.17L324.631 388.71C317.801 365.47 306.321 307.71 303.481 286.05C298.701 286.45 277.611 294.18 271.351 295.93C264.031 297.93 243.521 302.84 233.711 305.1C223.901 307.36 253.641 258.79 262.121 246.48C276.881 225.07 293.971 201.95 314.261 185.48C315.681 184.32 317.061 183.08 318.441 181.83C312.478 181.092 306.7 179.272 301.391 176.46C298.441 174.98 299.76 171.4 302.831 171.13C325.161 169.13 338.251 153.03 360.191 149.18C371.991 147.1 386.191 149.09 397.331 153.35C406.061 156.68 413.431 163.12 415.441 172.23C437.191 171.07 444.441 203.84 446.981 220.31C447.471 223.44 447.861 226.58 448.171 229.72C449.829 229.122 451.518 228.611 453.231 228.19C467.521 224.71 485.831 229.52 482.021 247.55C478.88 262.39 462.821 266.74 448.451 268.36C447.821 277.89 446.811 287.36 445.681 296.85C445.61 297.281 445.453 297.694 445.219 298.064C444.986 298.433 444.681 298.752 444.321 299.001C443.962 299.25 443.557 299.424 443.129 299.514C442.701 299.603 442.259 299.605 441.831 299.52C442.521 302.85 443.181 306.18 443.781 309.52C445.191 317.37 450.281 349.72 450.281 349.72L450.461 350.47C450.611 350.38 450.771 350.28 450.911 350.21C454.651 348.35 461.231 355.8 462.761 358.01C471.181 370.12 475.76 383.6 476.901 394.9C491.23 396.13 516.991 406.7 526.901 412.9C552.901 429.24 572.851 445.14 593.561 468.02C617.701 494.7 639.881 523.76 655.771 555.96C656.041 556.51 656.29 557.05 656.551 557.59C667.12 548.53 676.4 538.07 683.22 525.96C697.46 500.57 697 471.52 684.25 445.65Z" fill="#F4F6F9"/>
<path d="M220.92 589C225.967 580.993 228.733 571.762 228.92 562.3C229 556.07 227.99 542.05 234.79 538.16C243.09 533.42 247.23 545.16 249.05 550.6C253.2 563.05 250.96 579.86 249.5 592.73C248.93 597.81 243.1 616.62 245.31 619.13" stroke="#333333" stroke-width="7" stroke-linecap="round" stroke-linejoin="round"/>
<path d="M370 700.001C370 700.001 354.54 689.001 349 684.781C343.46 680.561 338 675.071 333 670.191C322.53 660.061 321.63 646.001 321 632.001C320.16 614.121 320.45 596.441 324.42 578.881C326.31 570.511 330.54 551.881 333.8 544.591C337.06 537.301 338.56 529.591 348.01 527.211C365.19 522.881 349.75 558.211 352.92 569.581" stroke="#333333" stroke-width="7" stroke-linecap="round" stroke-linejoin="round"/>
<path d="M347 577.15C355.63 567 362.09 555 371.23 545C380.02 535.39 389.06 524.85 398.58 515.85C405.89 508.93 414.43 501.68 423.39 496.5C428.04 493.81 439.25 488.68 439.44 500.56C439.61 510.98 420.54 523.06 411.44 532.88" stroke="#333333" stroke-width="7" stroke-linecap="round" stroke-linejoin="round"/>
<path d="M393.41 550.68C410.81 533.81 425.97 516.77 447.29 504.59C451.89 501.97 463.98 496.96 466.76 504.7C469.62 512.65 458.23 518.7 453.22 522.43C448.37 526.08 430.29 541.63 425.94 545.84" stroke="#333333" stroke-width="7" stroke-linecap="round" stroke-linejoin="round"/>
<path d="M417.48 552.001C433.74 540.541 443.64 530.851 461.59 524.611C468.16 522.331 475.36 521.611 475.59 530.001C475.85 539.461 466.1 545.001 458.64 549.361C451.59 553.491 442.16 560.851 435.08 565.001" stroke="#333333" stroke-width="7" stroke-linecap="round" stroke-linejoin="round"/>
<path d="M427.3 569.721C436.47 563.921 446.91 557.991 457.3 555.391C462 554.221 478 549.001 475.6 560.441C474.79 564.371 470.03 568.111 467.21 570.661C462.21 575.151 456.7 579.661 451.99 584.601C447.54 589.301 442.99 593.111 438.92 598.271C435.52 602.561 432.11 606.701 428.79 611.061C422.03 619.931 417.94 630.581 412.45 640.291" stroke="#333333" stroke-width="7" stroke-linecap="round" stroke-linejoin="round"/>
<path d="M231.27 541.74C226.65 529.74 224.93 522.34 219.62 512.74C213.73 502.08 208.57 491.74 199.62 483.41C196.62 480.64 192.19 475.29 184.16 476.75C180.94 477.34 177.92 482.24 179.28 487.37C181.34 495.14 188.44 505.23 191.82 512.22C195.256 518.993 197.938 526.122 199.82 533.48C201.29 539.58 201.01 545.9 202.88 551.85C197.62 534.35 189.35 514.26 174.13 502.03C169.8 498.55 158.13 490.13 149.58 496.15C141.74 501.7 155.46 510.45 158.05 513.6C167.77 525.42 176.49 537.77 181.94 552.19C179.03 542.19 167.84 529.66 159.41 523.84C154.56 520.5 145.52 513.2 139.23 515.84C124.3 522.08 146.57 539.49 150.23 542.84C154.301 546.572 157.967 550.721 161.17 555.22C163.01 557.77 166.48 561.73 167.24 564.79C161.46 557.89 155.45 549 147.71 542.23C139.97 535.46 132.21 537.42 128.71 541.23C118.71 552.23 140.71 564.97 146.71 571.17C155.49 580.24 158.38 592 163.07 603.52C167.29 613.88 166.79 625.65 168.62 636.52C171.45 653.39 175.98 666.79 192.27 674.08C201.21 678.08 210.4 681.8 220.11 683.32C224.29 683.98 237.68 687 237.68 687C241.984 683.269 245.319 678.551 247.4 673.25C251.49 663.43 253.5 652.63 255.17 642.11C256.6 633.18 258.45 624.2 257.95 615.11C257.7 610.6 257.31 609.9 254.5 607.91C252.83 606.73 249.07 605.69 249.3 605.19" stroke="#333333" stroke-width="7" stroke-linecap="round" stroke-linejoin="round"/>
<path d="M444.481 642.611C443.481 642.851 438.141 656.611 436.221 659.351C427.511 671.791 415.881 683.621 402.671 691.241C389.811 698.661 374.061 703.241 362.391 700.041C366.391 703.881 371.391 710.281 375.491 713.501C380.951 717.831 386.391 722.151 390.721 724.181" stroke="#333333" stroke-width="7" stroke-linecap="round" stroke-linejoin="round"/>
<path d="M419 627.531C419 627.531 437 638.881 444.53 642.071C452.53 638.211 467.72 651.221 474.59 657.071C480.01 661.711 484.59 662.961 482.39 670.891C480.12 679.151 475.65 686.631 471.25 693.831C466.782 700.62 461.559 706.88 455.68 712.491" stroke="#333333" stroke-width="7" stroke-linecap="round" stroke-linejoin="round"/>
<path d="M255.24 606.681C256.24 596.841 271.37 599.161 275.06 601.241" stroke="#333333" stroke-width="7" stroke-linecap="round" stroke-linejoin="round"/>
<path d="M371.23 545C376.39 535.08 377.14 526 377.64 520.7C378.2 514.8 378.47 507.56 376.11 502.06C374.11 497.45 370.06 494 368.83 488.96C366.7 480.2 371.83 470.42 372.22 461.58C372.79 449.72 372.22 435.66 367.88 424.52" stroke="#333333" stroke-width="7" stroke-linecap="round" stroke-linejoin="round"/>
<path d="M311.55 433.38C311.55 433.38 313.55 438.67 315.88 444.99C317.54 449.51 321.52 457.85 325.88 460.32C338.28 467.32 349.63 440.32 352.3 432.47C355.38 423.42 358.7 413.53 361.03 404.8C376.76 416.56 383.24 439.49 399.45 451.13C422.67 467.8 437.66 448.13 451.45 429.84C456.84 422.68 468.38 407.13 468.79 399.18" stroke="#333333" stroke-width="7" stroke-linecap="round" stroke-linejoin="round"/>
<path d="M243.8 537.421C248.13 522.231 252.8 508.751 264.33 487.421C275.86 466.091 293.89 440.911 303.89 427.911C306.09 417.161 307.39 396.101 322.56 387.661C329.25 392.381 341.76 398.861 351.56 399.351C365.236 400.15 378.936 398.268 391.89 393.811C406.5 388.631 424.75 377.811 434.76 366.211C439.11 361.161 447.12 352.041 450.85 350.211C454.58 348.381 461.17 355.801 462.7 358.011C471.12 370.121 475.7 383.601 476.84 394.901C491.17 396.131 516.93 406.701 526.84 412.901C552.84 429.241 572.79 445.141 593.5 468.021C617.64 494.701 639.82 523.761 655.71 555.961C667.65 580.141 673.52 604.021 681.38 629.471" stroke="#333333" stroke-width="7" stroke-linecap="round" stroke-linejoin="round"/>
<path d="M378.4 488.321V486.461" stroke="#333333" stroke-width="7" stroke-linecap="round" stroke-linejoin="round"/>
<path d="M450.21 349.66C450.21 349.66 445.12 317.31 443.71 309.46C441.3 296.09 437.78 282.54 436.05 269.28C451.69 268.4 477.85 266.91 481.95 247.52C485.76 229.52 467.45 224.68 453.16 228.16C445.23 230.08 438.68 233.94 431.11 236.77C431.35 229.22 426.39 218.52 423.82 211.4C420.394 202.509 415.491 194.26 409.32 187C396.72 172 375 165.74 356.1 166.43C348.274 166.705 340.547 168.269 333.23 171.06C325.69 173.87 320.35 180.46 314.23 185.45C293.94 201.87 276.85 224.99 262.09 246.45C253.61 258.76 223.87 307.34 233.68 305.07C243.49 302.8 264 297.94 271.32 295.9C277.58 294.15 298.67 286.42 303.45 286.02C306.29 307.65 317.77 365.44 324.6 388.68" stroke="#333333" stroke-width="7" stroke-linecap="round" stroke-linejoin="round"/>
<path d="M353.021 237.751V232.041" stroke="#333333" stroke-width="7" stroke-linecap="round" stroke-linejoin="round"/>
<path d="M323.77 242.391L322.34 236.861" stroke="#333333" stroke-width="7" stroke-linecap="round" stroke-linejoin="round"/>
<path d="M349.21 207.591C352.78 206.801 357.85 207.871 360.65 209.301" stroke="#333333" stroke-width="7" stroke-linecap="round" stroke-linejoin="round"/>
<path d="M307 219.781C308.513 217.228 310.664 215.113 313.24 213.641" stroke="#333333" stroke-width="7" stroke-linecap="round" stroke-linejoin="round"/>
<path d="M395.501 229.85L395.071 229.09C394.704 228.437 394.138 227.918 393.454 227.611C392.771 227.304 392.008 227.223 391.276 227.382C390.544 227.541 389.882 227.931 389.388 228.494C388.894 229.057 388.593 229.764 388.531 230.51C388.174 232.623 387.693 234.713 387.091 236.77C384.611 246.16 381.521 257.85 386.581 263.86C387.54 264.96 388.738 265.828 390.082 266.398C391.426 266.968 392.882 267.225 394.341 267.15C394.771 267.15 395.211 267.15 395.671 267.15C400.721 266.71 403.091 264.15 404.191 262.02C408.261 254.22 401.691 240.73 395.501 229.85Z" fill="#9ED5F0"/>
<path d="M335.72 292.38C344.43 291.81 348.13 291.12 354.57 283.95C357.82 280.32 362.19 273.29 370.48 280.54C378.77 287.79 364.18 311.12 347.55 313.92C340.6 315.09 330.32 311.56 328.35 303.92C326.38 296.28 331.21 291.54 335.72 292.38Z" stroke="#333333" stroke-width="7" stroke-linecap="round" stroke-linejoin="round"/>
<path d="M339.74 313.48C342.17 307.27 344.64 302.68 350.38 299.16C353.38 297.33 370.68 289.29 372.21 290.83" stroke="#333333" stroke-width="7" stroke-linecap="round" stroke-linejoin="round"/>
<path d="M436.05 269.28C437.35 279.28 439.67 289.39 441.76 299.49C442.189 299.575 442.63 299.573 443.058 299.484C443.486 299.394 443.891 299.22 444.251 298.971C444.61 298.722 444.915 298.403 445.149 298.034C445.382 297.664 445.539 297.251 445.61 296.82C446.74 287.37 447.75 277.82 448.38 268.33C444 268.83 439.72 269.07 436.05 269.28Z" fill="#333333"/>
<path d="M448.101 229.69C447.791 226.55 447.401 223.41 446.911 220.28C444.351 203.81 437.121 171.04 415.371 172.2C413.371 163.09 405.991 156.65 397.261 153.32C386.091 149.06 371.921 147.07 360.121 149.15C338.181 153 325.121 169.15 302.761 171.1C299.691 171.37 298.371 174.95 301.321 176.43C310.111 180.85 317.751 182.62 327.431 181.95C338.271 181.19 348.431 180.89 359.071 183.61C368.261 185.96 377.441 189.15 387.071 188.83C394.351 188.59 394.371 188.54 400.641 184.99C397.101 194.64 398.591 200.45 404.101 209.26C411.831 221.63 420.411 233.9 428.421 248.81C429.421 250.69 433.101 250.71 433.511 248.15C434.19 243.88 434.648 239.578 434.881 235.26C439.321 233.38 443.561 231.3 448.101 229.69Z" fill="#333333"/>
<path d="M457.02 243.801L450.21 248.751" stroke="#333333" stroke-width="7" stroke-linecap="round" stroke-linejoin="round"/>
<path d="M483.891 666.881C488.741 663.261 500.891 663.721 506.891 664.941C518.521 667.321 525.471 677.021 530.831 686.741C530.191 680.741 528.531 676.291 534.561 672.351C539.371 669.211 545.881 669.451 551.271 670.491C554.891 671.191 569.951 674.871 569.851 680.411C569.741 687.051 558.471 683.021 555.491 680.891C549.491 676.591 546.921 667.971 546.881 660.891C546.821 652.301 550.381 637.081 558.391 632.981C538.581 633.291 529.631 597.161 533.391 582.371" stroke="#333333" stroke-width="7" stroke-linecap="round" stroke-linejoin="round"/>
<path d="M373 286.08C373.149 285.082 372.936 284.064 372.4 283.21C371.4 281.43 368.61 279.88 366.23 279.09C365.132 278.461 363.894 278.118 362.629 278.091C361.364 278.065 360.113 278.357 358.99 278.94C355.89 280.65 353.41 283.77 350.99 286.21C348.14 289.03 344.7 290.21 341.04 291.61C339.585 290.867 337.92 290.641 336.32 290.97C332.66 291.45 330.15 294.72 329.53 298.19C328.96 301.32 329.41 306.73 332.76 308.19C333.366 308.481 334.041 308.598 334.71 308.53C335.54 310.77 338.81 311.9 339.96 309.21C340.16 308.76 340.38 308.21 340.61 307.65C343.949 304.439 347.776 301.779 351.95 299.77C352.431 299.569 352.836 299.221 353.108 298.775C353.379 298.33 353.502 297.81 353.46 297.29C354.74 296.41 356.02 295.54 357.32 294.71C360.928 293.282 364.706 292.331 368.56 291.88C372.48 291.47 374.15 289.17 373 286.08Z" fill="#333333"/>
<path d="M352.061 654.881C355.481 655.321 358.341 653.631 361.391 652.881" stroke="#333333" stroke-width="7" stroke-linecap="round" stroke-linejoin="round"/>
</svg>
