<svg width="820" height="820" viewBox="0 0 820 820" fill="none" xmlns="http://www.w3.org/2000/svg">
<path d="M626 350.431C619 337.231 605.541 325.681 592.841 317.741C596.841 304.261 593.43 280.681 579.93 261.301C566.43 241.921 532.67 234.821 503.31 238.601C473.951 242.381 468.581 246.601 449.141 253.141C439.574 256.361 430.074 259.771 420.64 263.371C411.79 266.741 402.64 270.721 393.09 271.611C383.54 272.501 374.47 269.941 365.37 267.661C355.57 265.211 345.66 263.321 335.52 263.221C296.31 262.811 260.63 284.221 228.69 304.621C212.35 315.071 194.86 326.571 187.41 345.351C181.63 359.901 183.41 376.411 193.15 388.021C182.47 419.551 192.5 455.341 215.77 479.111C227.85 491.451 243.46 499.871 260.7 501.731C271.604 502.898 282.618 501.047 292.54 496.381C297 531.714 303.177 566.741 311.07 601.461C315.695 599.466 320.559 598.081 325.54 597.341L331.26 571.811C339.43 573.471 347.55 575.741 356.26 576.411C371.6 577.571 384.42 578.501 399.76 577.591C420.22 576.381 434.66 571.741 453.01 563.101C453.01 563.101 458.831 580.441 462.38 589.691C465.68 591.341 470.641 594.691 476.48 599.141C478.48 582.141 479.74 565.051 482.56 548.141C484.354 536.604 487.292 525.275 491.33 514.321C493.249 509.288 495.591 504.428 498.33 499.791C500.42 496.261 502.19 492.791 506.57 494.281C512.68 496.391 517.921 498.961 524.57 498.781C530.599 498.57 536.487 496.903 541.73 493.921C549.483 489.613 555.405 482.632 558.391 474.281C589.1 474.851 603.14 467.991 621.18 443.281C641.1 416.131 641.5 379.701 626 350.431Z" fill="#F4F6F9"/>
<path d="M198.721 756.86C205.771 741.69 210.611 725.86 219.151 711.25C229.681 693.25 238.601 675.08 251.491 658.44C269.721 634.89 293.491 601.97 325.571 597.34L331.291 571.81C339.461 573.47 347.581 575.74 356.291 576.41C371.631 577.57 384.451 578.5 399.791 577.59C420.251 576.38 434.691 571.74 453.041 563.1C453.041 563.1 458.861 580.44 462.411 589.69C476.271 596.61 519.561 634.28 534.561 650.32C551.051 667.95 568.901 684.49 582.901 704.32C587.441 710.75 593.981 719.59 597.221 726.45" stroke="#333333" stroke-width="7" stroke-linecap="round" stroke-linejoin="round"/>
<path d="M407.391 624.699C411.771 643.049 403.251 664.489 394.511 674.999C385.771 685.509 373.001 706.399 379.401 714.429C385.801 722.459 401.651 709.189 404.931 723.949C407.721 736.549 395.931 753.159 392.331 764.889C389.581 773.889 393.821 788.549 408.531 788.389" stroke="#333333" stroke-width="7" stroke-linecap="round" stroke-linejoin="round"/>
<path d="M411.211 747.58C412.387 747.808 413.544 748.125 414.671 748.53" stroke="#333333" stroke-width="7" stroke-linecap="round" stroke-linejoin="round"/>
<path d="M400.941 693.51C399.241 693.36 397.561 693.27 395.881 693.26" stroke="#333333" stroke-width="7" stroke-linecap="round" stroke-linejoin="round"/>
<path d="M469.871 715.211C480.461 716.721 491.811 717.401 502.341 719.591C506.151 720.371 517.481 721.821 517.481 721.821" stroke="#333333" stroke-width="7" stroke-linecap="round" stroke-linejoin="round"/>
<path d="M509.121 712.811V736.841" stroke="#333333" stroke-width="7" stroke-linecap="round" stroke-linejoin="round"/>
<path d="M494.9 707.801C494.9 707.801 493.9 737.681 493.9 748.051" stroke="#333333" stroke-width="7" stroke-linecap="round" stroke-linejoin="round"/>
<path d="M333.701 600.611C341.961 611.251 357.701 627.451 373.641 624.701C389.581 621.951 399.831 596.011 403.411 587.291C409.301 599.511 414.171 616.731 428.221 623.141C443.631 630.141 459.441 601.371 462.421 589.691" stroke="#333333" stroke-width="7" stroke-linecap="round" stroke-linejoin="round"/>
<path d="M333.701 572.629C333.701 555.969 332.311 534.469 332.101 515.819C331.901 498.929 329.691 481.179 326.731 464.529C324.731 453.529 324.091 434.679 315.911 420.609" stroke="#333333" stroke-width="7" stroke-linecap="round" stroke-linejoin="round"/>
<path d="M450.65 563.219C453.05 521.569 455.8 506.159 457.93 491.719C460.24 476.079 463.43 460.719 467.09 445.429C469.09 437.109 471.89 424.829 476.28 418.029" stroke="#333333" stroke-width="7" stroke-linecap="round" stroke-linejoin="round"/>
<path d="M323.291 441.851C316.881 456.431 293.511 448.851 287.401 446.851C272.281 441.961 261.451 430.201 255.661 415.241C250.521 401.941 247.401 372.411 259.201 361.241C267.711 353.191 276.321 362.931 281.291 369.871C276.841 346.121 298.001 319.471 318.921 311.131C327.921 307.531 348.741 303.481 357.491 309.661C364.731 314.781 361.071 323.491 357.671 330.481C360.031 319.171 376.921 312.571 394.981 306.091C413.041 299.611 427.911 295.691 446.981 294.091C457.581 293.201 468.981 296.481 476.281 303.091C482.141 308.431 481.211 320.531 474.961 327.581C488.481 317.091 504.411 318.021 517.961 318.091C533.651 318.171 547.111 330.611 551.061 345.751C554.141 357.531 552.941 368.821 544.351 377.751C534.491 388.021 512.461 397.871 497.931 396.181C508.461 397.061 515.491 402.441 516.461 410.081C517.901 421.541 502.381 425.611 493.461 424.421C493.761 430.491 485.621 442.731 478.941 439.831C471.721 436.721 471.061 427.571 474.151 422.771" stroke="#333333" stroke-width="7" stroke-linecap="round" stroke-linejoin="round"/>
<path d="M331.291 421.239C334.141 432.699 339.291 443.239 352.091 446.899C370.441 452.139 404.211 443.209 408.091 423.079C410.341 433.079 425.761 435.249 431.831 433.689C438.181 432.049 456.161 427.069 456.101 413.609" stroke="#333333" stroke-width="7" stroke-linecap="round" stroke-linejoin="round"/>
<path d="M324.091 387.001C324.141 364.001 341.091 375.141 351.261 388.391C344.021 379.331 341.971 364.741 346.481 354.141C351.171 343.141 360.861 342.141 371.971 343.701C387.851 345.941 417.491 378.321 404.591 395.051C395.211 407.211 390.591 380.361 398.141 372.981C411.451 359.981 433.371 368.091 434.621 385.981C433.091 367.621 467.491 337.611 483.491 353.381" stroke="#333333" stroke-width="7" stroke-linecap="round" stroke-linejoin="round"/>
<path d="M429.001 345.32C427.582 346.861 426.247 348.477 425.001 350.16" stroke="#333333" stroke-width="7" stroke-linecap="round" stroke-linejoin="round"/>
<path d="M355.571 575.51C357.691 532.17 349.901 509.38 345.711 478.91" stroke="#333333" stroke-width="7" stroke-linecap="round" stroke-linejoin="round"/>
<path d="M438.631 496.529C436.311 509.859 435.221 523.839 433.821 536.979C432.991 544.849 433.601 570.809 433.601 570.809" stroke="#333333" stroke-width="7" stroke-linecap="round" stroke-linejoin="round"/>
<path d="M389.571 574.43C389.571 574.43 388.281 529.97 387.571 519.74C386.511 504.55 385.061 490.2 381.971 475.74" stroke="#333333" stroke-width="7" stroke-linecap="round" stroke-linejoin="round"/>
<path d="M361.251 467.42C367.061 484.25 369.901 506.27 371.351 523.77" stroke="#333333" stroke-width="7" stroke-linecap="round" stroke-linejoin="round"/>
<path d="M417.001 469.301C414.511 480.651 414.651 493.901 413.901 505.481C413.121 517.421 413.801 542.191 413.801 542.191" stroke="#333333" stroke-width="7" stroke-linecap="round" stroke-linejoin="round"/>
<path d="M327.781 353.57L324.001 352.34" stroke="#333333" stroke-width="7" stroke-linecap="round" stroke-linejoin="round"/>
<path d="M350.231 141.721C347.831 159.451 317.031 168.651 307.891 153.301C297.661 136.141 308.071 112.651 328.211 111.121C329.061 93.481 326.341 80.051 340.781 66.361C353.781 54.041 375.171 46.821 392.391 43.781C414.901 39.781 437.871 37.871 460.831 36.781C468.141 36.421 476.181 34.781 469.091 42.181C463.544 47.8811 457.588 53.1685 451.271 58.001C446.374 61.7336 441.762 65.8249 437.471 70.241C431.411 76.591 434.581 80.001 438.471 86.851C446.021 100.141 451.901 109.431 459.471 122.691C466.471 135.021 472.631 148.101 466.761 162.291C459.651 179.491 439.691 194.121 420.921 197.101C386.461 202.561 369.921 175.101 354.921 149.361C353.421 146.841 350.231 141.721 350.231 141.721Z" stroke="#333333" stroke-width="7" stroke-linecap="round" stroke-linejoin="round"/>
<path d="M325.48 138.691C328.18 137.051 330.65 134.741 333.59 133.461" stroke="#333333" stroke-width="7" stroke-linecap="round" stroke-linejoin="round"/>
<path d="M380.711 84.9495L376.881 82.2695" stroke="#333333" stroke-width="7" stroke-linecap="round" stroke-linejoin="round"/>
<path d="M399.631 69.5906L396.421 66.3906" stroke="#333333" stroke-width="7" stroke-linecap="round" stroke-linejoin="round"/>
<path d="M423.461 124.26C417.311 115.5 413.381 109.79 417.461 105.26C421.541 100.73 427.461 106 430.901 111.26C433.721 115.6 442.241 126.6 439.751 132.07C436.441 139.24 429.601 133 423.461 124.26Z" stroke="#333333" stroke-width="7" stroke-linecap="round" stroke-linejoin="round"/>
<path d="M353.121 147.77C352.545 147.138 351.765 146.731 350.917 146.619C350.07 146.507 349.21 146.699 348.491 147.16C347.877 148.373 347.14 149.519 346.291 150.58C346.271 150.837 346.271 151.094 346.291 151.35C346.151 151.26 341.921 154.98 339.471 156.47C344.54 160.282 350.466 162.792 356.731 163.78C357.4 163.873 358.082 163.822 358.731 163.63C359.452 163.716 360.183 163.621 360.859 163.354C361.535 163.087 362.133 162.656 362.601 162.1C360.121 158.17 357.741 154.1 355.411 150.16C354.651 149.36 353.901 148.56 353.121 147.77Z" fill="#333333"/>
<path d="M379.811 33.2502C373.451 49.7802 350.051 47.7202 336.141 51.5702C329.001 53.5702 320.981 57.4802 317.731 64.5702C315.791 68.7902 316.581 73.9102 319.591 76.8702C315.831 78.9935 312.885 82.3089 311.219 86.2929C309.553 90.2768 309.262 94.7022 310.391 98.8702C310.501 104.72 312.131 110.96 314.151 116.73C316.414 114.887 318.983 113.455 321.741 112.5C325.321 114.59 329.101 116.35 332.231 119.12C333.901 120.61 337.061 119.21 336.231 116.79C334.613 112.212 334.19 107.297 335.001 102.51C335.721 98.5102 337.561 94.9402 338.641 91.0702C339.961 86.2902 339.721 81.3102 336.811 77.5702C340.153 77.8893 343.525 77.5079 346.711 76.4502C352.541 74.4502 356.981 70.4502 361.151 66.0302C366.311 60.6302 371.591 55.2702 376.531 49.6702C380.471 45.2002 383.591 40.4802 384.461 34.5502L384.551 33.9102C384.871 31.0002 380.701 30.9302 379.811 33.2502Z" fill="#333333"/>
<path d="M398.201 289.1C398.201 279.58 397.851 230.1 397.851 230.1" stroke="#333333" stroke-width="7" stroke-linecap="round" stroke-linejoin="round"/>
<path d="M375.11 196.6C375.11 202.73 374.48 249.81 374.48 249.81" stroke="#333333" stroke-width="7" stroke-linecap="round" stroke-linejoin="round"/>
<path d="M452.181 219.131L451.961 243.521" stroke="#333333" stroke-width="7" stroke-linecap="round" stroke-linejoin="round"/>
<path d="M432.851 194.6C432.851 200.5 432.851 259.6 432.851 259.6" stroke="#333333" stroke-width="7" stroke-linecap="round" stroke-linejoin="round"/>
</svg>
