<svg width="250" height="250" viewBox="0 0 250 250" fill="none" xmlns="http://www.w3.org/2000/svg">
<path d="M166.301 176.229C166.301 176.229 162.151 201.629 161.151 207.889C159.581 217.709 152.741 218.239 143.831 217.729C132.401 217.069 120.631 216.489 109.341 214.649C101.891 213.439 82.0407 214.149 78.7807 205.649C77.5807 202.539 81.0007 181.999 81.0007 181.999L83.7407 147.579C83.7407 147.579 88.4307 95.7088 89.1907 88.9588C89.6807 84.7188 89.7407 79.0688 93.1907 76.6888C97.5107 73.7588 113.581 73.2688 135.191 75.2588C156.801 77.2488 170.571 81.2588 172.381 84.3188C174.191 87.3788 172.271 101.879 171.551 108.079C171.361 109.779 170.641 118.809 169.801 129.779L166.301 176.229Z" fill="#02ABF8" stroke="#02ABF8" stroke-width="7" stroke-linecap="round" stroke-linejoin="round"/>
<path d="M45.8102 161.9L38.2002 167.71" stroke="#333333" stroke-width="7" stroke-linecap="round" stroke-linejoin="round"/>
<path d="M46.6498 71.2996L41.7998 67.0996" stroke="#333333" stroke-width="7" stroke-linecap="round" stroke-linejoin="round"/>
<path d="M53.21 59.9094L50.25 54.8594" stroke="#333333" stroke-width="7" stroke-linecap="round" stroke-linejoin="round"/>
<path d="M190.811 57.1293L198.681 49.2793" stroke="#333333" stroke-width="7" stroke-linecap="round" stroke-linejoin="round"/>
<path d="M202.83 132.5L211.8 130.41" stroke="#333333" stroke-width="7" stroke-linecap="round" stroke-linejoin="round"/>
<path d="M203.55 149.869L209.9 151.409" stroke="#333333" stroke-width="7" stroke-linecap="round" stroke-linejoin="round"/>
<path d="M103.111 42.9995C103.333 39.3065 102.718 35.6109 101.311 32.1895" stroke="#333333" stroke-width="7" stroke-linecap="round" stroke-linejoin="round"/>
<path d="M108.58 142.739C112.18 147.739 116.02 153.889 119.69 159.369C129.96 150.869 139.69 139.879 149.42 130.729" stroke="#333333" stroke-width="7" stroke-linecap="round" stroke-linejoin="round"/>
</svg>
