<svg width="820" height="820" viewBox="0 0 820 820" fill="none" xmlns="http://www.w3.org/2000/svg">
<path d="M679.531 197.09C673.291 180.42 664.121 165.29 653.301 151.22C632.391 124.03 606.561 97.8705 575.301 82.9205C541.571 66.8205 503.761 65.4605 467.181 69.3105C398.411 76.5605 327.791 95.7305 272.181 138.39C220.491 178 182.641 240 183.501 306.45C183.669 316.253 184.391 326.039 185.661 335.76C186.331 340.25 191.281 344.84 195.301 345.1C236.071 347.78 297.101 343.29 309.351 343.29C321.601 343.29 325.911 334.09 329.261 320.77C334.161 301.29 342.711 283.29 354.861 268.21L351.111 268.47C348.471 268.63 337.551 270.8 336.411 268.78C334.841 265.99 345.821 254.78 347.411 252.9C353.411 245.9 359.491 239.21 366.121 232.79C372.971 226.16 379.441 219.55 385.981 212.9C394.981 203.71 404.871 195.01 414.411 186.22C415.301 185.4 416.231 184.58 417.191 183.75C411.409 182.588 406.09 179.77 401.881 175.64C401.539 175.279 401.31 174.826 401.219 174.337C401.129 173.847 401.183 173.343 401.373 172.883C401.563 172.423 401.882 172.028 402.292 171.746C402.701 171.463 403.183 171.305 403.681 171.29C421.811 170.42 435.491 156.09 452.451 151.29C466.311 147.37 489.741 151.12 493.501 167.54L493.621 167.93C505.081 169.63 510.751 179.51 515.351 188.8C519.701 197.6 521.261 207.3 521.941 217.04C529.891 216.14 537.841 217.34 543.221 223.04C552.761 233.12 545.521 248.12 535.151 254.59C538.075 259.938 540.569 265.508 542.611 271.25C548.542 287.925 550.949 305.648 549.681 323.3C547.971 347.09 534.491 370.15 520.601 392.46C520.801 397.85 520.951 403.18 521.021 408.38C521.021 410.7 521.021 413.02 521.071 415.33C527.781 420.2 541.531 431.9 547.581 436.91C566.271 452.36 581.481 469.91 598.651 486.69C603.561 477.099 609.051 467.815 615.091 458.89C635.281 428.63 658.371 400.4 670.291 365.52C676.541 347.24 679.801 328.17 682.291 309.07C684.711 290.28 686.851 271.24 687.451 252.3C688.001 233.6 686.131 214.7 679.531 197.09Z" fill="#F4F6F9"/>
<path d="M509.201 289.54C509.301 278.81 509.361 268.82 509.321 260.82C516.144 260.248 522.896 259.012 529.48 257.13C542.48 253.55 554.48 234.89 543.22 223.04C534.28 213.6 518.311 216.5 506.921 220.9C506.261 215.75 505.461 210.66 504.451 205.73C501.571 191.58 497.021 174.73 483.451 167.1C460.451 154.19 431.901 170.15 414.451 186.22C404.871 195 395.001 203.71 386.001 212.9C379.461 219.55 373.001 226.16 366.141 232.79C359.511 239.21 353.451 245.93 347.431 252.9C345.841 254.74 334.861 265.99 336.431 268.78C337.571 270.78 348.491 268.63 351.131 268.47C356.631 268.13 362.061 267.67 367.521 267.34C371.751 267.08 383.411 267.34 383.411 267.34C383.411 267.34 382.811 276.96 382.831 282.06C382.941 312.76 385.111 343.47 385.111 374.36" stroke="#333333" stroke-width="7" stroke-linecap="round" stroke-linejoin="round"/>
<path d="M519.29 240.16C521.19 239.79 523.16 239.42 524.95 239.02" stroke="#333333" stroke-width="7" stroke-linecap="round" stroke-linejoin="round"/>
<path d="M449.811 236.57V228.34" stroke="#333333" stroke-width="7" stroke-linecap="round" stroke-linejoin="round"/>
<path d="M424.82 236.57V228.34" stroke="#333333" stroke-width="7" stroke-linecap="round" stroke-linejoin="round"/>
<path d="M431.08 271.141C435.08 268.141 445.23 262.481 449.2 267.741" stroke="#333333" stroke-width="7" stroke-linecap="round" stroke-linejoin="round"/>
<path d="M520.69 415.061C527.25 419.751 541.41 431.811 547.58 436.911C566.99 452.911 582.65 471.251 600.64 488.641C621.75 509.031 640.1 533.891 657.17 557.771" stroke="#333333" stroke-width="7" stroke-linecap="round" stroke-linejoin="round"/>
<path d="M369.48 403.24C376.57 410.74 385.07 415.82 393.71 415.82" stroke="#333333" stroke-width="7" stroke-linecap="round" stroke-linejoin="round"/>
<path d="M521.121 482.001C521.121 482.001 520.931 464.801 520.991 455.301C521.081 439.681 521.221 423.971 520.991 408.391C520.561 376.481 517.421 340.151 514.041 308.681C513.401 302.801 509.291 274.331 493.921 279.951C486.191 282.781 487.921 301.881 487.921 308.681C487.921 319.341 487.921 333.831 487.921 343.581C487.921 353.331 486.711 364.111 486.711 364.111" stroke="#333333" stroke-width="7" stroke-linecap="round" stroke-linejoin="round"/>
<path d="M488.521 366C488.521 366 479.981 359.9 474.741 357.92C466.021 354.64 459.261 351.22 450.201 349.92C444.801 349.14 437.091 348.72 431.821 350.98C428.001 352.62 421.911 359.68 422.461 362.98" stroke="#333333" stroke-width="7" stroke-linecap="round" stroke-linejoin="round"/>
<path d="M463.82 380.601C463.82 380.601 452.82 373.601 446.87 371.121C440.64 368.491 431.47 363.441 424.75 364.171C413.75 365.351 400.36 379.711 399.82 391.071" stroke="#333333" stroke-width="7" stroke-linecap="round" stroke-linejoin="round"/>
<path d="M443.41 398.711C443.41 398.711 434.41 392.211 428.71 390.711C423.33 389.311 417.71 387.551 412.06 387.901C404.06 388.391 398.45 392.761 395.6 400.431C392.47 408.851 391.23 443.941 408.3 440.021C416.66 438.101 413.41 422.361 411.35 416.841C415.45 423.361 423.29 426.841 430.79 424.141C410.89 424.331 423.79 474.251 444.54 471.731" stroke="#333333" stroke-width="7" stroke-linecap="round" stroke-linejoin="round"/>
<path d="M132.48 614.45C133.18 601.12 136.53 592.35 142.32 580.45C147.96 568.87 164.32 549.29 173.85 541.1C183.38 532.91 198.48 525.1 214.85 522.1C225.85 506.24 255.41 479.22 275.85 465.02C296.29 450.82 321.35 433.02 358.64 410.38C361.81 408.46 369.51 403.19 369.51 403.19C369.51 403.19 373.08 393.19 375.51 388.55C378.03 383.73 379.87 379.69 383.51 374.4C391.85 375.18 405.79 376.54 405.79 376.54" stroke="#333333" stroke-width="7" stroke-linecap="round" stroke-linejoin="round"/>
<path d="M441.14 474C440.01 485.55 440.62 506.27 440.62 506.27" stroke="#333333" stroke-width="7" stroke-linecap="round" stroke-linejoin="round"/>
<path d="M477.57 506.29C464.96 508.85 448.51 510.57 436.83 506.29C436.83 518.07 437.83 535.11 438.44 547.53C439.01 559.69 437.84 581.53 440.44 583.92C443.04 586.31 451.99 586.5 458.55 586.09C475.2 585.02 491.79 578.21 506.18 570.94C510.84 568.6 514.9 566.72 519.28 564.04C521.45 562.71 526.28 558.91 527.81 556.82C529.97 553.91 529.47 545.27 529.47 541.38C529.47 533.27 528.47 511.31 527.56 503.32C526.1 490.74 526.07 479.6 521.98 479.6C517.32 491.29 492.45 503.28 477.57 506.29Z" stroke="#333333" stroke-width="7" stroke-linecap="round" stroke-linejoin="round"/>
<path d="M424.721 458.73C422.581 466.49 385.021 520.53 402.381 523.28C405.101 523.71 410.291 518.84 412.881 520.47C417.641 523.47 409.991 535.98 408.711 538.57C405.521 545.06 394.761 563.35 408.921 555.72C411.691 561.39 403.491 578.2 398.541 582.57" stroke="#333333" stroke-width="7" stroke-linecap="round" stroke-linejoin="round"/>
<path d="M286.82 561.221C287.72 565.891 285.94 573.221 282.82 576.571C277.82 581.961 269.47 583.771 256.82 583.921C276.34 585.281 271.24 597.431 263.28 606.261C255.32 615.091 236 614.871 236 610.481C236 601.571 253.84 596.911 262.83 596.571C269.44 596.321 289.83 592.571 284.08 609.071C296.83 597.071 305.82 592.561 320.57 588.241C335.32 583.921 344.83 590.571 346.57 604.331C353.26 595.471 358.92 590.461 369.03 585.441C376.88 581.551 387.24 581.311 395.53 582.571C406.74 584.271 419.43 588.391 429.81 592.501" stroke="#333333" stroke-width="7" stroke-linecap="round" stroke-linejoin="round"/>
<path d="M440.45 583.92C435.58 586.6 431.06 590.99 427.32 595.2C423.05 599.99 420.49 608.99 417.32 614.89C410.61 627.47 405.32 644.04 404.87 658.35C404.6 667.02 408.44 672.53 411.67 680.27C414.54 687.17 413.62 686.55 409.97 691.86C404.57 699.73 403.85 710.75 402.03 719.81C400.64 726.74 399.49 733.58 401.03 740.62C401.89 744.62 404.26 748.24 403.76 752.49C403.68 751.41 404.14 750.83 404.34 749.78" stroke="#333333" stroke-width="7" stroke-linecap="round" stroke-linejoin="round"/>
<path d="M527.82 556.82C536.29 575.74 537.28 604.01 539.24 625.76C540.93 644.4 542.84 663.28 543.63 681.99C543.87 687.55 540.69 709.79 544.77 712.99" stroke="#333333" stroke-width="7" stroke-linecap="round" stroke-linejoin="round"/>
<path d="M537 589.67C550.15 586.82 561.56 587.27 575.3 587.27C588.61 587.27 598.3 590.99 608.77 599.62C619 608 625.21 621.37 627.45 634C628.85 641.94 632.72 662.87 625.74 668.21C618.76 673.55 614.53 665.98 610.65 655.5" stroke="#333333" stroke-width="7" stroke-linecap="round" stroke-linejoin="round"/>
<path d="M549.11 649.001C552.589 653.319 554.434 658.726 554.32 664.271C554.02 669.871 549.1 683.271 552.84 687.911C563.7 701.491 574.2 669.791 574.23 661.721C574.26 653.651 574.35 647.381 572.81 643.061" stroke="#333333" stroke-width="7" stroke-linecap="round" stroke-linejoin="round"/>
<path d="M567.421 683.53C568.361 687.88 569.511 693.72 575.571 693.82C580.981 693.91 584.841 686.1 586.471 682.03C591.331 669.88 591.341 659.3 590.041 646.16C589.371 639.4 586.761 632.65 584.971 626.91" stroke="#333333" stroke-width="7" stroke-linecap="round" stroke-linejoin="round"/>
<path d="M595.82 614.449C611.09 633.819 616.82 667.329 602.08 690.779C598.08 697.109 584.57 700.569 586.47 682.029" stroke="#333333" stroke-width="7" stroke-linecap="round" stroke-linejoin="round"/>
<path d="M406.601 695.42C392.601 701.24 378.051 708.77 363.291 712.42C354.455 714.508 345.454 715.826 336.391 716.36C327.951 716.95 316.951 720.06 308.641 717.51" stroke="#333333" stroke-width="7" stroke-linecap="round" stroke-linejoin="round"/>
<path d="M450.82 569.121V570.821" stroke="#333333" stroke-width="7" stroke-linecap="round" stroke-linejoin="round"/>
<path d="M509.28 279.79C509.583 280.138 509.972 280.4 510.409 280.55C510.845 280.7 511.313 280.733 511.766 280.645C512.219 280.557 512.641 280.351 512.989 280.048C513.337 279.745 513.6 279.356 513.75 278.92C516.241 272.64 518.116 266.133 519.35 259.49C516.042 260.106 512.704 260.55 509.35 260.82C509.35 266.33 509.33 272.8 509.28 279.79Z" fill="#333333"/>
<path d="M511.221 231.57C511.511 227.36 512.161 223.2 512.501 219.01C515.584 218.075 518.743 217.405 521.941 217.01C521.261 207.27 519.701 197.57 515.351 188.77C510.751 179.48 505.081 169.6 493.621 167.9L493.501 167.51C489.741 151.09 466.311 147.34 452.451 151.26C435.451 156.05 421.811 170.38 403.681 171.26C403.183 171.275 402.701 171.433 402.292 171.715C401.882 171.998 401.563 172.393 401.373 172.853C401.183 173.312 401.129 173.817 401.219 174.306C401.31 174.796 401.539 175.248 401.881 175.61C412.821 186.28 426.741 185.15 439.971 184.04C448.591 183.32 459.501 177.89 467.821 175.37C474.961 173.21 480.291 175.05 485.721 180.37C482.721 190.05 482.891 197.9 487.211 207.64C491.531 217.38 500.951 223.75 506.481 232.82C506.769 233.289 507.2 233.652 507.71 233.857C508.221 234.061 508.783 234.096 509.315 233.956C509.847 233.816 510.319 233.508 510.663 233.078C511.006 232.649 511.201 232.12 511.221 231.57Z" fill="#333333"/>
<path d="M552.57 655.57C550.47 659.49 547.28 660.3 543.32 661.07" stroke="#333333" stroke-width="7" stroke-linecap="round" stroke-linejoin="round"/>
</svg>
