<svg width="250" height="250" viewBox="0 0 250 250" fill="none" xmlns="http://www.w3.org/2000/svg">
<path d="M181.939 94.9408C187.553 91.9911 192.923 88.6005 197.999 84.8008" stroke="#333333" stroke-width="7" stroke-linecap="round" stroke-linejoin="round"/>
<path d="M191.149 72.2812C195.726 80.6758 200.767 88.8084 206.249 96.6413" stroke="#333333" stroke-width="7" stroke-linecap="round" stroke-linejoin="round"/>
<path d="M135.889 50.5106C135.889 50.5106 136.629 42.1106 135.559 37.6706C129.059 35.2206 117.559 37.8106 110.239 37.9406C103.745 38.0742 97.2624 38.5549 90.8193 39.3806C90.8791 43.1783 91.1394 46.9703 91.5993 50.7406C105.549 50.5806 119.709 48.9006 135.889 50.5106Z" stroke="#333333" stroke-width="7" stroke-linecap="round" stroke-linejoin="round"/>
<path d="M114.89 62.3102V50.7402" stroke="#333333" stroke-width="7" stroke-linecap="round" stroke-linejoin="round"/>
<path d="M193.78 134.42C192.27 114.95 186.34 96.1203 171.59 82.4203C157.74 69.5503 138.82 64.3103 116.24 62.3203C95.3896 62.3203 74.4796 71.5603 61.5296 88.2403C54.3496 97.4803 48.8296 106.07 46.4396 117.43C44.1245 128.196 43.3034 139.23 43.9996 150.22C44.9996 166.05 51.9996 179.62 62.7196 191.12C69.9696 198.85 78.0796 203.99 88.2396 208.12C100.614 213.116 114.129 214.591 127.29 212.38C167.08 206.19 197 175.8 193.78 134.42ZM162.73 175.42C150.34 189.57 136.99 194.42 118.28 196.36C109.21 197.31 90.1196 192.05 78.0696 182.9C66.0196 173.75 56.6296 152.05 58.3096 130.8C59.7396 112.69 76.3996 90.4003 93.6096 83.4403C104.37 79.0903 120.1 78.5003 131.38 81.1403C148.62 85.1403 160.97 92.2303 169.38 107.24C182.17 130.22 180.85 154.78 162.73 175.46V175.42Z" fill="#02ABF8" stroke="#02ABF8" stroke-width="7" stroke-linecap="round" stroke-linejoin="round"/>
<path d="M160.53 138.001C160.53 138.001 128.23 135.631 112.83 135.271" stroke="#333333" stroke-width="7" stroke-linecap="round" stroke-linejoin="round"/>
<path d="M107.7 142.051C99.9098 134.761 107.94 123.851 116.28 125.401C123.28 126.721 129.28 138.841 121.72 144.061C118.25 146.451 111.65 146.271 107.7 142.051Z" fill="#333333" stroke="#333333" stroke-width="7" stroke-linecap="round" stroke-linejoin="round"/>
</svg>
