<svg width="250" height="250" viewBox="0 0 250 250" fill="none" xmlns="http://www.w3.org/2000/svg">
<path d="M116.18 60.8105C95.3299 60.8105 77.8299 69.3305 64.8799 86.0105C57.6999 95.2505 49.2199 104.461 47.3799 115.921C45.6399 126.821 43.2199 137.521 43.9399 148.721C44.9399 164.551 51.9399 178.121 62.6599 189.621C69.9199 197.351 78.0199 202.491 88.1899 206.621C100.564 211.618 114.079 213.092 127.24 210.881C167.03 204.661 196.93 174.271 193.72 132.881C192.21 113.411 186.28 94.5805 171.53 80.8805C157.68 68.0005 138.77 62.8005 116.18 60.8105Z" stroke="#333333" stroke-width="7" stroke-linecap="round" stroke-linejoin="round"/>
<path d="M78.0002 181.441C66.0002 172.281 56.5502 150.551 58.2302 129.301C59.6602 111.191 76.7402 87.2207 94.5402 81.9407C105.66 78.6407 118.74 75.9407 130.3 76.6407C147.97 77.7107 158.89 87.7306 167.3 102.741C180.12 125.741 180.8 153.281 162.69 173.961C150.29 188.111 136.94 192.961 118.23 194.901C109.15 195.851 90.0602 190.591 78.0002 181.441Z" stroke="#333333" stroke-width="7" stroke-linecap="round" stroke-linejoin="round"/>
<path d="M160.48 136.46C160.48 136.46 128.17 134.09 112.77 133.73" stroke="#333333" stroke-width="7" stroke-linecap="round" stroke-linejoin="round"/>
<path d="M107.639 140.551C99.8494 133.261 107.889 122.351 116.219 123.901C123.279 125.221 129.219 137.341 121.669 142.561C118.189 145.001 111.589 144.771 107.639 140.551Z" fill="#333333" stroke="#333333" stroke-width="7" stroke-linecap="round" stroke-linejoin="round"/>
<path d="M181.89 93.4408C187.52 90.4939 192.907 87.1032 198 83.3008" stroke="#333333" stroke-width="7" stroke-linecap="round" stroke-linejoin="round"/>
<path d="M191.09 70.7812C195.67 79.1737 200.711 87.3062 206.19 95.1413" stroke="#333333" stroke-width="7" stroke-linecap="round" stroke-linejoin="round"/>
<path d="M135.83 52.0008C135.83 52.0008 136.57 43.6008 135.51 39.1608C129.01 36.7108 117.51 39.3008 110.18 39.4308C103.685 39.5648 97.2028 40.0455 90.7598 40.8708C90.8178 44.669 91.0816 48.4612 91.5498 52.2308C105.49 52.0808 119.66 50.4008 135.83 52.0008Z" stroke="#333333" stroke-width="7" stroke-linecap="round" stroke-linejoin="round"/>
<path d="M114.83 60.8102V52.2402" stroke="#333333" stroke-width="7" stroke-linecap="round" stroke-linejoin="round"/>
</svg>
