<svg width="250" height="250" viewBox="0 0 250 250" fill="none" xmlns="http://www.w3.org/2000/svg">
<path d="M162.34 94.2383L162.72 113.328L163.6 140.998C163.6 140.998 164.48 177.798 164.47 183.248C164.47 186.678 164.92 191.188 162.35 193.398C159.18 196.128 139.27 196.958 121.93 197.308C104.59 197.658 93.27 195.678 91.56 193.408C89.85 191.138 90.09 179.408 90.11 174.408C90.11 173.038 89.88 165.768 89.57 156.938L88.22 124.548L87.5 96.8383" stroke="#333333" stroke-width="7" stroke-linecap="round" stroke-linejoin="round"/>
<path d="M76.5898 94.1889C76.9105 88.9173 77.5786 83.6726 78.5898 78.4889C78.7728 76.9626 79.3105 75.5002 80.1599 74.2189C81.9199 71.9389 85.1598 71.5589 88.0298 71.3789C110.743 69.9523 133.483 69.5789 156.25 70.2589C158.945 70.1754 161.631 70.6134 164.16 71.5489C165.998 72.4435 167.613 73.7388 168.885 75.3396C170.157 76.9403 171.054 78.8058 171.51 80.7989C173.51 88.9689 173.44 92.6289 173.44 92.6289C173.44 92.6289 144.89 92.9689 135.14 93.1489L76.5898 94.1889Z" stroke="#333333" stroke-width="7" stroke-linecap="round" stroke-linejoin="round"/>
<path d="M105.38 69.059C105.08 65.926 105.289 62.7652 106 59.699C106.228 58.3148 106.821 57.0167 107.72 55.939C108.98 54.619 110.88 54.189 112.72 53.879C120.046 52.6138 127.506 52.3179 134.91 52.999C136.242 53.0604 137.556 53.3234 138.81 53.779C140.086 54.392 141.212 55.2774 142.108 56.3728C143.005 57.4683 143.651 58.747 144 60.119C144.665 62.8765 144.918 65.7174 144.75 68.549" stroke="#333333" stroke-width="7" stroke-linecap="round" stroke-linejoin="round"/>
<path d="M103 105.609C101.81 126.179 102.34 145.249 102.6 165.859" stroke="#333333" stroke-width="7" stroke-linecap="round" stroke-linejoin="round"/>
<path d="M117.109 105.609C117.749 126.869 118.389 144.609 119.029 165.859" stroke="#333333" stroke-width="7" stroke-linecap="round" stroke-linejoin="round"/>
<path d="M133.17 105.609C132.95 128.609 134.22 142.859 135.22 165.859" stroke="#333333" stroke-width="7" stroke-linecap="round" stroke-linejoin="round"/>
<path d="M149.34 105.609C149.79 128.069 149.81 143.389 149.34 165.859" stroke="#333333" stroke-width="7" stroke-linecap="round" stroke-linejoin="round"/>
</svg>
