<svg width="820" height="820" viewBox="0 0 820 820" fill="none" xmlns="http://www.w3.org/2000/svg">
<path d="M324.66 227.149C325.75 254.219 326.84 286.989 327.36 316.959C327.36 316.959 360.54 294.619 383.12 285.959C385.2 285.172 387.406 284.772 389.63 284.779L391.07 282.699C394.56 275.139 398.43 267.599 402.07 259.899C396.52 259.119 395.97 251.959 395.94 246.989C395.94 245.259 395.94 243.519 396.04 241.789C386.56 239.389 380.5 229.539 384.35 217.699C387.26 208.699 395.55 202.249 404.74 199.699C407.65 192.187 411.266 184.968 415.54 178.139C404.617 174.064 392.952 172.36 381.32 173.139C378.398 173.355 375.491 173.728 372.61 174.259C367.709 174.159 362.807 174.4 357.94 174.979C340.85 176.979 324.32 181.979 308.34 188.479C320.39 194.699 324.05 211.749 324.66 227.149Z" fill="#F4F6F9"/>
<path d="M513.07 262.379C510.216 261.761 507.419 260.901 504.71 259.809C502.23 265.609 499.71 271.179 497.55 276.189C491 291.249 476 325.999 476 325.999L475.71 326.739C476.52 327.479 477.15 328.089 477.53 328.469C482.53 333.469 483 350.469 483.1 378.469C483.2 406.469 482.64 466.059 491.39 498.559C496.24 516.559 501.44 548.999 517.07 560.379C540.76 577.639 564.37 542.309 572.92 523.459C580.2 507.459 583.97 491.389 589.12 474.879C591.84 466.169 593.64 459.519 600.82 457.879C600.82 457.879 613.41 406.099 617.88 382.439C621.88 360.949 626.56 332.839 647.04 320.659C655.38 315.659 673.73 306.879 680.37 318.559C686.26 312.789 697.63 311.189 702.28 317.849C702.109 298.443 694.661 279.808 681.41 265.629C672.212 255.628 660.622 248.13 647.73 243.839C633 238.999 617.2 239.999 602.33 243.699C572.91 251.089 544.51 269.189 513.07 262.379Z" fill="#F4F6F9"/>
<path d="M765 522.76C762.21 507.54 753.14 494.6 741.83 484.38C728.97 472.75 714.33 462.88 700.49 452.47L689.79 444.42L679.05 493.68L678.93 494.08C680.754 496.073 682.342 498.271 683.66 500.63C695 521.21 689.15 555.44 681.66 576.02C679.66 581.45 674.35 590.96 668.16 598.17C669.65 605.93 668.35 615.47 665.7 625.07C674.278 624.232 682.775 622.71 691.11 620.52C719.44 612.96 747.28 595.46 759.34 567.73C765.57 553.47 767.85 538.12 765 522.76Z" fill="#F4F6F9"/>
<path d="M770.39 378.229C769.039 375.134 766.796 372.512 763.948 370.696C761.1 368.881 757.776 367.955 754.4 368.036C751.023 368.118 747.748 369.203 744.991 371.154C742.234 373.105 740.12 375.832 738.92 378.989L737.31 383.169C735.24 382.379 732.31 381.279 728.85 379.969C727.732 379.549 726.493 379.59 725.405 380.083C724.318 380.576 723.47 381.481 723.05 382.599C722.63 383.717 722.67 384.956 723.164 386.044C723.657 387.132 724.562 387.979 725.68 388.399L734.07 391.559L733 394.309C732.194 396.397 731.806 398.622 731.86 400.859C731.914 403.096 732.408 405.301 733.314 407.347C734.22 409.393 735.52 411.241 737.14 412.785C738.759 414.328 740.668 415.538 742.755 416.344C744.842 417.151 747.068 417.538 749.305 417.484C751.542 417.43 753.747 416.936 755.793 416.03C757.839 415.125 759.687 413.825 761.23 412.205C762.774 410.585 763.984 408.677 764.79 406.589L770.71 391.259C771.521 389.174 771.91 386.949 771.855 384.712C771.8 382.476 771.302 380.272 770.39 378.229ZM762.31 387.999L756.4 403.319C756.02 404.304 755.449 405.205 754.721 405.969C753.993 406.734 753.121 407.347 752.156 407.775C751.191 408.202 750.151 408.436 749.095 408.461C748.04 408.487 746.99 408.304 746.005 407.924C745.02 407.544 744.12 406.974 743.355 406.246C742.591 405.517 741.977 404.646 741.55 403.681C741.122 402.715 740.889 401.675 740.863 400.62C740.837 399.564 741.02 398.514 741.4 397.529L747.31 382.209C747.898 380.696 748.93 379.395 750.27 378.478C751.61 377.561 753.196 377.07 754.82 377.069C756.127 377.062 757.417 377.375 758.575 377.981C759.734 378.587 760.726 379.468 761.465 380.547C762.204 381.626 762.668 382.869 762.815 384.168C762.962 385.467 762.789 386.783 762.31 387.999Z" fill="#FFE945"/>
<path d="M327.37 317C327.37 317 360.55 294.66 383.13 286C393.55 282 405.67 289.19 416.08 293.15C430.8 298.75 444.67 304.75 458.08 312.86C465.5 317.35 475.37 326.33 477.51 328.48C482.51 333.48 482.98 350.48 483.08 378.48C483.18 406.48 482.62 466.07 491.37 498.57C496.22 516.57 501.42 549.01 517.05 560.39C540.74 577.65 564.35 542.32 572.9 523.47C580.18 507.47 583.95 491.4 589.1 474.89C592.48 464.07 594.43 456.41 607.1 457.72C617.34 458.78 631.1 465.99 640.1 470.72C654.74 478.45 675.24 485.32 683.71 500.72C695.05 521.29 689.2 555.52 681.71 576.1C677.2 588.5 655.11 622.25 645.51 601.1C641.32 591.88 651.75 578.2 661.16 585.65C681.52 601.77 656.07 654.33 646.1 667.72" stroke="#333333" stroke-width="7" stroke-linecap="round" stroke-linejoin="round"/>
<path d="M377.08 304.68C376.61 317.1 381.51 348.4 392.03 356.93C408.37 370.17 431.08 339.71 440.95 330.76C440.46 341.68 434.17 368.71 446.08 375.23C454.53 379.85 465.08 371.23 471.08 366.68" stroke="#333333" stroke-width="7" stroke-linecap="round" stroke-linejoin="round"/>
<path d="M423.08 366.68C414 377.26 404.86 388.36 396 404C387.14 419.64 381.28 432.05 385 440.89C387.65 447.14 395.78 444.01 398.16 450.83C401.41 460.13 384.66 475.83 381.56 483.46C378 492.21 375.38 501.46 378.04 509.92C380.28 517.01 384.49 520.75 384.04 528.92C383.6 537.85 367.04 562.92 367.04 568.69" stroke="#333333" stroke-width="7" stroke-linecap="round" stroke-linejoin="round"/>
<path d="M409.08 424.68L415.08 425.68" stroke="#333333" stroke-width="7" stroke-linecap="round" stroke-linejoin="round"/>
<path d="M394.08 493.68C395.48 494.08 396.63 494.37 398.08 494.68" stroke="#333333" stroke-width="7" stroke-linecap="round" stroke-linejoin="round"/>
<path d="M382.08 563.68H387.08" stroke="#333333" stroke-width="7" stroke-linecap="round" stroke-linejoin="round"/>
<path d="M433.08 467.68C442.43 474.54 452.56 479.94 461.08 487.68" stroke="#333333" stroke-width="7" stroke-linecap="round" stroke-linejoin="round"/>
<path d="M458.08 469.68C456.91 483.35 451.82 498.62 447.08 511.68" stroke="#333333" stroke-width="7" stroke-linecap="round" stroke-linejoin="round"/>
<path d="M449.08 464.68C447.72 473.44 439.08 498.09 439.08 498.09" stroke="#333333" stroke-width="7" stroke-linecap="round" stroke-linejoin="round"/>
<path d="M600.8 457.9C600.8 457.9 613.39 406.12 617.86 382.46C621.86 360.97 626.54 332.86 647.02 320.68C655.36 315.68 673.71 306.9 680.35 318.58C687.54 311.53 702.95 310.69 704.22 323.58C713.55 317.98 722.57 323.28 722.22 334.58C747.66 335.72 732.06 383.11 719.22 392.77C709.97 399.71 701.89 397.15 697.22 391.6" stroke="#333333" stroke-width="7" stroke-linecap="round" stroke-linejoin="round"/>
<path d="M679.08 493.68L700.65 394.74" stroke="#333333" stroke-width="7" stroke-linecap="round" stroke-linejoin="round"/>
<path d="M611.08 417.68C626.77 417.68 641.66 418.74 655.08 423.46C668.5 428.18 682.59 435.75 688.08 443.75" stroke="#333333" stroke-width="7" stroke-linecap="round" stroke-linejoin="round"/>
<path d="M653.08 338.68C653.48 342.15 652.94 347.83 653.08 349.68" stroke="#333333" stroke-width="7" stroke-linecap="round" stroke-linejoin="round"/>
<path d="M680.35 318.58C686.107 327.145 688.774 337.416 687.91 347.7" stroke="#333333" stroke-width="7" stroke-linecap="round" stroke-linejoin="round"/>
<path d="M704.22 323.58C707.02 337.23 709.03 359.06 703.08 370.42C698.25 379.63 684.46 388.31 673.93 382.68" stroke="#333333" stroke-width="7" stroke-linecap="round" stroke-linejoin="round"/>
<path d="M722.22 334.6C722.22 363.6 706.94 410.09 679.08 384.42" stroke="#333333" stroke-width="7" stroke-linecap="round" stroke-linejoin="round"/>
<path d="M645 350.909C618.2 341.619 580 327.839 579.62 327.699C579.058 327.472 578.457 327.359 577.851 327.37C577.245 327.38 576.647 327.513 576.094 327.76C575.541 328.007 575.043 328.363 574.631 328.806C574.218 329.25 573.9 329.773 573.694 330.343C573.489 330.913 573.401 331.519 573.435 332.123C573.469 332.728 573.625 333.32 573.894 333.863C574.162 334.406 574.538 334.89 574.997 335.284C575.457 335.679 575.992 335.976 576.57 336.159L579.37 337.159L575.19 346.349C574.94 346.89 574.8 347.475 574.778 348.07C574.756 348.665 574.851 349.258 575.06 349.816C575.268 350.374 575.585 350.885 575.991 351.32C576.398 351.754 576.887 352.104 577.43 352.349C578.012 352.62 578.647 352.76 579.29 352.759C580.154 352.759 581 352.509 581.727 352.041C582.454 351.573 583.031 350.906 583.39 350.119L587.87 340.259L588.17 340.359C583.86 348.869 584.06 350.019 585.17 351.969C585.567 352.651 586.136 353.217 586.82 353.61C587.505 354.003 588.28 354.21 589.07 354.209C589.861 354.213 590.639 354.002 591.32 353.599C591.943 353.241 592.472 352.738 592.86 352.132C593.248 351.526 593.485 350.836 593.55 350.119C593.96 348.999 595.28 346.219 596.7 343.429C610.04 348.199 627.7 354.429 642.03 359.429C642.588 359.626 643.179 359.711 643.77 359.68C644.361 359.648 644.94 359.501 645.474 359.245C646.008 358.99 646.487 358.632 646.882 358.192C647.278 357.751 647.583 357.237 647.78 356.679C647.977 356.121 648.062 355.53 648.03 354.939C647.999 354.348 647.851 353.769 647.596 353.235C647.34 352.701 646.982 352.222 646.542 351.827C646.102 351.431 645.588 351.126 645.03 350.929L645 350.909Z" fill="#FFE945"/>
<path d="M391.08 282.68C397.5 268.77 405.24 254.93 410.17 240.05C393.91 247.77 378.77 234.8 384.33 217.68C389.53 201.68 411.85 193.59 425.88 201.53C431.55 182.46 446.88 157.11 468.08 154.68C496.8 151.39 517.51 176.83 533 197.12C540.596 207.311 547.288 218.145 553 229.5C542.27 228.02 516.29 223.78 516.29 223.78C514.13 240.2 504.22 260.78 497.57 276.19C491 291.25 476 326 476 326" stroke="#333333" stroke-width="7" stroke-linecap="round" stroke-linejoin="round"/>
<path d="M465.08 231.68C467.08 236.78 471.57 243.09 478.08 243.09" stroke="#333333" stroke-width="7" stroke-linecap="round" stroke-linejoin="round"/>
<path d="M474.08 203.68L477.08 209.68" stroke="#333333" stroke-width="7" stroke-linecap="round" stroke-linejoin="round"/>
<path d="M489.08 202.68L493.08 209.68" stroke="#333333" stroke-width="7" stroke-linecap="round" stroke-linejoin="round"/>
<path d="M414.08 220.68C411.26 219.98 400.58 219.79 403.08 219.68" stroke="#333333" stroke-width="7" stroke-linecap="round" stroke-linejoin="round"/>
<path d="M396 241.769C395.93 243.499 395.89 245.239 395.9 246.969C395.9 251.969 396.48 259.099 402.03 259.879C405.126 253.435 407.838 246.813 410.15 240.049C405.782 242.268 400.772 242.877 396 241.769Z" fill="#333333"/>
<path d="M532.86 173.769C517.78 169.139 509.48 153.529 496.21 145.769C483.26 138.209 465.97 137.189 454.49 148.069C453.179 149.33 452 150.72 450.97 152.219C450.49 152.919 450.17 153.439 449.87 153.839C444.794 152.643 439.455 153.355 434.87 155.839C427.74 159.749 422.56 167.569 418.09 174.139C412.67 182.12 408.178 190.692 404.7 199.689C410.916 197.806 417.585 198.074 423.63 200.449C424.24 207.315 425.98 214.032 428.78 220.329C430.01 223.099 434.36 222.789 435.69 220.329C444.37 204.229 464.29 188.169 461.98 168.839C484.253 177.382 507.916 181.722 531.77 181.639C536.36 181.599 537.16 175.079 532.86 173.769Z" fill="#333333"/>
<path d="M302.51 675.75C282.1 677.87 237.51 679.54 196.51 679.54C155.51 679.54 109.82 680.36 90.8001 679.77C71.7801 679.18 53.8001 672.77 52.4901 642.54C51.1801 612.31 50.4901 564.29 50.4201 534.05C50.2001 463.63 48.1201 393.31 48.1201 322.76C48.1201 285.94 48.0601 250.41 54.2301 214.23C57.4501 195.34 75.3601 189 92.8301 185.94C122.7 180.71 140.49 182.7 170.88 181.15C214.64 178.91 281.54 184.4 300.19 186.15C318.84 187.9 323.9 208.71 324.64 227.15C326.1 263.42 327.57 309.94 327.64 346.23C327.8 421.1 326.26 496.9 330.22 571.5C331.6 597.68 330.51 630.4 330.51 641.75C330.51 653.1 322.93 673.64 302.51 675.75Z" stroke="#333333" stroke-width="7" stroke-linecap="round" stroke-linejoin="round"/>
<path d="M108.18 185.5C85.5098 195.09 80.8698 214.65 79.8498 243.05C78.8298 271.45 79.3198 326.95 79.3198 382.35C79.3198 437.75 79.8398 499.04 79.8398 538.06C79.8398 577.08 79.7298 615.89 81.5098 641.75C83.2898 667.61 96.1598 679.92 114.85 680" stroke="#333333" stroke-width="7" stroke-linecap="round" stroke-linejoin="round"/>
<path d="M269.561 471.44C266.991 422.63 264.011 417.34 262.891 415.34C259.421 409.18 253.051 405.87 246.141 404.16C246.101 401.966 246.071 399.83 246.051 397.75C245.801 375.86 245.611 358.57 225.921 344.75C217.921 339.11 201.381 336.25 184.141 343.26C161.471 352.5 161.071 377.68 160.781 396.07C160.721 399.9 160.671 403.54 160.411 406.65L159.661 406.81C142.811 410.81 141.831 433.25 141.121 449.65C141.011 452.29 140.901 454.78 140.741 457.03C138.951 482.03 138.811 520.29 138.811 520.67C138.807 521.569 139.15 522.436 139.768 523.089C140.386 523.743 141.232 524.133 142.131 524.18C156.131 524.92 169.131 525.25 182.021 525.25C209.241 525.25 235.611 523.79 268.021 521.78C268.923 521.726 269.77 521.323 270.382 520.657C270.993 519.991 271.323 519.114 271.301 518.21C271.341 518 270.811 495.22 269.561 471.44ZM169.781 396.23C170.061 378.6 170.381 358.61 187.541 351.62C197.541 347.56 212.541 346.37 220.761 352.14C236.661 363.28 236.821 377.04 237.051 397.85C237.051 399.45 237.051 401.09 237.111 402.76C235.111 402.6 233.111 402.53 231.291 402.53C221.121 402.53 188.081 403.43 169.521 405.37C169.681 402.52 169.731 399.44 169.781 396.23Z" fill="#9ED5F0"/>
<path d="M176.83 408.59C170.03 421.19 172.92 480.89 172.17 521.78" stroke="#333333" stroke-width="7" stroke-linecap="round" stroke-linejoin="round"/>
<path d="M226.18 460.24C229.346 459.938 232.284 458.462 234.416 456.102C236.548 453.743 237.72 450.67 237.701 447.49C237.701 440.86 233.171 435.91 226.271 434.88C222.155 434.261 217.972 434.241 213.851 434.82L212.62 434.94C205.43 435.61 200.241 441 200.281 447.74C200.309 450.784 201.425 453.718 203.428 456.011C205.431 458.303 208.188 459.804 211.201 460.24C207.711 473.02 202.271 489.48 202.201 489.68C202.027 490.207 201.98 490.767 202.065 491.314C202.149 491.862 202.362 492.382 202.685 492.832C203.009 493.281 203.435 493.648 203.928 493.902C204.421 494.155 204.966 494.288 205.521 494.29H205.631L231.461 493.5C231.998 493.487 232.524 493.349 232.999 493.098C233.474 492.847 233.885 492.49 234.199 492.055C234.514 491.619 234.724 491.117 234.812 490.587C234.901 490.058 234.866 489.515 234.711 489C234.651 488.78 229.83 472.66 226.18 460.24Z" fill="#333333"/>
<path d="M668.08 407.68C676.32 398.99 676.45 374.06 663.38 368.88C672.56 368.31 695.32 370.16 698.09 357.63C699.87 349.63 688.28 347.26 681.61 346.77C662.94 345.39 638.39 352.01 629.43 369.77" stroke="#333333" stroke-width="7" stroke-linecap="round" stroke-linejoin="round"/>
</svg>
