<svg width="250" height="250" viewBox="0 0 250 250" fill="none" xmlns="http://www.w3.org/2000/svg">
<path d="M80.7499 125.999C80.1199 102.819 79.3699 76.8095 79.1599 60.4895C78.8899 39.8395 99.1599 31.0695 123.08 31.3095C147 31.5495 156.95 42.3095 160.58 52.8195C164.21 63.3295 166 78.3695 166 89.2295C166 97.4695 151.71 97.1395 151.61 93.6995C151.38 84.9595 150.61 72.8195 148.32 64.3895C146.03 55.9595 139.53 47.3895 123.74 47.3895C107.95 47.3895 94.5199 54.6295 94.5199 71.2695C94.5199 84.7695 94.7999 106.519 95.0199 125.559" stroke="#333333" stroke-width="7" stroke-linecap="round" stroke-linejoin="round"/>
<path d="M102.78 218.71C102.78 218.71 79.9698 218.17 74.3598 218.06C65.5398 217.89 64.2598 211.2 63.6398 202.3C62.8498 190.9 61.9698 170.17 62.2298 158.73C62.3998 151.18 60.2798 131.62 67.3498 127.2C69.9398 125.58 88.4098 126.02 88.4098 126.02L119 123.89C119 123.89 165.12 121.23 171.13 121.04C174.92 120.92 179.89 120.19 182.39 123.31C185.49 127.18 186.94 152.03 187.78 173.69C188.62 195.35 186.78 209.56 184.28 211.78C181.78 214 168.86 214.14 163.28 214.31C161.77 214.31 153.75 214.92 144.02 215.63L102.78 218.71Z" stroke="#333333" stroke-width="7" stroke-linecap="round" stroke-linejoin="round"/>
<path d="M126.349 147.06C121.439 146.51 116.969 148.69 115.599 152.87C114.9 154.799 114.983 156.924 115.829 158.792C116.676 160.661 118.219 162.124 120.129 162.87C121.9 163.484 123.766 163.772 125.639 163.72C128.279 163.8 131.209 163.72 133.149 161.92C135.239 160 135.619 155.92 134.699 153.23C133.779 150.54 131.259 147.61 126.349 147.06Z" fill="#333333" stroke="#333333" stroke-width="7" stroke-linecap="round" stroke-linejoin="round"/>
<path d="M136.59 191.64C129.471 192.479 122.307 192.88 115.14 192.84C119.353 181.771 122.938 170.473 125.88 159C131.12 169.18 136.59 191.64 136.59 191.64Z" fill="#333333" stroke="#333333" stroke-width="7" stroke-linecap="round" stroke-linejoin="round"/>
</svg>
