<svg width="250" height="250" viewBox="0 0 250 250" fill="none" xmlns="http://www.w3.org/2000/svg">
<path d="M144.62 152.001C144.62 152.001 145.18 120.631 144.77 105.271L168.2 104.271C161.931 94.8295 154.747 86.0302 146.75 78.0005C144.09 75.3105 141.2 72.6305 137.59 71.4805C133.98 70.3305 127.82 68.9705 124.25 69.7105C117.7 71.0805 113.33 72.3005 109.25 77.5605C107.5 79.7805 106.7 87.3305 105.93 90.0105C99.4297 90.6005 89.6697 90.3605 85.9297 94.1305C82.1897 97.9005 84.1897 105.741 88.1897 106.541C92.1897 107.341 104.36 107.471 104.36 107.471C104.54 122.104 104.723 136.737 104.91 151.37" stroke="#333333" stroke-width="7" stroke-linecap="round" stroke-linejoin="round"/>
<path d="M150.549 59.4697C138.809 62.5397 126.999 58.7297 114.999 57.9297C111.359 57.6897 106.669 57.8397 103.739 60.2797C102.191 61.4797 101.06 63.1372 100.507 65.0167C99.9537 66.8963 100.007 68.9023 100.659 70.7497C93.5994 70.7497 90.6594 78.2297 92.0894 87.7497C98.8894 87.7497 101.939 89.2397 105.359 95.0397C107.149 98.0397 112.799 97.8897 113.459 93.9797C114.539 87.6397 115.139 82.4897 118.729 77.4797C133.169 78.8497 142.599 74.4797 151.729 68.1497C155.529 65.5697 155.749 58.1097 150.549 59.4697Z" fill="#333333"/>
<path d="M128.88 152C159.51 152 176.31 162.5 193.65 192.07L56.3496 192.16C75.7596 155.63 98.2396 152 128.88 152Z" fill="#9ED5F0" stroke="#9ED5F0" stroke-width="7" stroke-linecap="round" stroke-linejoin="round"/>
<path d="M95.9992 156.14C95.8892 159.59 98.7492 162.4 101.699 164.2C106.869 167.37 113.989 168.74 118.769 165C121.829 162.6 123.199 158.69 124.429 155C126.429 159.69 129.549 164.06 133.859 166.81C138.169 169.56 143.859 170.49 148.489 168.41C153.119 166.33 156.369 160.94 155.199 155.96" stroke="#333333" stroke-width="7" stroke-linecap="round" stroke-linejoin="round"/>
<path d="M125.52 173.66L124.77 190.66" stroke="#333333" stroke-width="7" stroke-linecap="round" stroke-linejoin="round"/>
</svg>
