<svg width="250" height="250" viewBox="0 0 250 250" fill="none" xmlns="http://www.w3.org/2000/svg">
<path d="M87.7803 168.78C76.3703 160.12 67.4803 139.55 69.0703 119.44C70.4203 102.3 86.8203 79.3397 103.43 73.6097C113.82 70.0297 123.43 67.8297 134.34 68.4897C151.06 69.4897 164.34 80.0897 172.27 94.2997C184.41 116.05 185.05 142.13 167.91 161.7C156.18 175.1 143.54 179.7 125.83 181.53C117.24 182.42 99.1803 177.45 87.7803 168.78Z" stroke="#333333" stroke-width="7" stroke-linecap="round" stroke-linejoin="round"/>
<path d="M94.6104 128.999C94.6104 158.749 109.1 170.529 120.04 181.599C131.19 174.669 143.1 164.059 147.44 134.009C151.78 103.959 139.9 81.4991 125 68.3691C111.85 80.1291 94.6104 99.2691 94.6104 128.999Z" stroke="#333333" stroke-width="7" stroke-linecap="round" stroke-linejoin="round"/>
<path d="M68.8906 124C106.163 128.062 143.742 128.508 181.101 125.33" stroke="#333333" stroke-width="7" stroke-linecap="round" stroke-linejoin="round"/>
<path d="M81.8008 90.7188C102.261 93.0787 123.101 92.9188 143.801 92.7188L163.381 92.5488L171.291 92.4788" stroke="#333333" stroke-width="7" stroke-linecap="round" stroke-linejoin="round"/>
<path d="M78.1699 157.718C107.57 157.088 141.31 157.258 170.71 158.218" stroke="#333333" stroke-width="7" stroke-linecap="round" stroke-linejoin="round"/>
</svg>
