<svg width="820" height="820" viewBox="0 0 820 820" fill="none" xmlns="http://www.w3.org/2000/svg">
<path d="M349 221.379C313.599 207.564 277.437 195.785 240.69 186.099C268.25 203.369 388.01 279.719 423.69 306.549C437.17 309.109 451.97 315.039 460.69 320.769C469.41 326.499 463.88 339.179 460.09 350.889C456.3 362.599 447.37 379.889 440.09 377.889C432.81 375.889 404.41 368.999 396.7 368.229C392.2 367.779 380.45 367.439 367 367.149C363.48 375.019 358.59 384.969 354.17 394.149L354.74 395.319C382.63 415.249 395.9 446.699 403.09 479.889L403.82 482.809C404.42 482.139 405.02 481.459 405.6 480.809C410.39 493.409 415.19 506.149 419.09 519.139C420.96 525.389 421.89 529.139 421.38 532.139L422.56 531.659C425.36 530.539 431.65 534.199 434.09 536.449C437.59 539.689 441.97 547.829 446.14 557.199C448.09 549.599 451.94 543.419 459.59 537.459C453.09 512.169 493.09 471.299 513.75 459.299C514.29 459.669 514.87 460.099 515.48 460.559L515.56 460.379C521.8 436.909 533.79 415.379 543.39 393.019C548.86 380.249 556.39 369.279 562.95 357.269C566.08 351.559 565.02 349.139 561.7 342.989C557.85 335.849 555.04 330.319 550.42 323.629C543.71 313.919 537.09 306.029 532.59 298.989C528.09 291.949 544.2 293.649 561.09 296.299C573.39 298.229 599.75 304.179 619.52 308.409C613.016 301.167 609.184 291.919 608.66 282.199C608.48 279.509 612.03 278.379 613.79 280.079C619.27 285.399 626.13 288.379 633.29 290.599C627.05 271.729 613.41 254.679 598.66 241.719C584.94 229.659 570.1 218.809 555.66 207.589L509.05 171.249C500.89 164.889 490.9 170.779 492.34 180.979C494.497 196.509 494.856 212.237 493.41 227.849C440.264 184.22 381.025 148.596 317.57 122.109C309.12 118.579 302.3 129.909 306.27 136.799C322.081 164.173 336.346 192.411 349 221.379Z" fill="#F4F6F9"/>
<path d="M347.23 633.34C347.56 628.97 349.35 614.05 355.67 612.42C348.24 603.24 342.95 598 343.92 584.83C344.38 578.51 346.49 564.56 353.81 559.83C351.341 557.576 349.7 554.558 349.15 551.26C347.56 543.62 342.81 518.92 342.81 518.92C344.49 518.872 346.162 518.685 347.81 518.36L346.47 517.92C346.66 513.4 344 508.17 342.35 504.04C337.01 503.73 326.77 501.32 319.91 498.23C318.817 501.683 317.205 504.95 315.13 507.92C311.05 513.21 304.76 512.56 298.47 511.11C290.24 509.21 289.14 504.9 290.47 496.92C291.29 492 293.14 477.92 293.14 477.92L294.96 477.75C281.6 476.1 268.4 463.6 273.13 447.04C268.74 442.04 266.65 435.46 269.61 426.96C269.211 426.188 268.877 425.386 268.61 424.56C266.26 417.27 269.22 407.8 273.12 403.56L275.26 405.05C273.311 402.918 271.886 400.36 271.1 397.58C268.54 385.47 277.84 377.19 288.46 375.91C297.526 374.888 306.7 375.433 315.58 377.52L315.15 378.77L316.15 378.34C317.63 373.61 319.04 369.34 320.09 366.23C318.09 366.23 316.26 366.12 314.79 366.06C302 365.55 248.86 368.96 234.2 369.76C212.63 370.95 191.74 373.18 170.45 376.41C170.09 376.47 169.74 376.54 169.38 376.59C151.868 390.513 136.35 406.775 123.26 424.92C118.47 431.56 125.06 439.5 131.89 439.97L254.77 448.36C224.62 474.365 197.22 503.397 173 535C168.27 541.16 174.73 550.19 181.64 550C231.427 548.98 281.12 545.98 330.72 541C309.983 569.536 293.27 600.789 281.05 633.88C278.16 641.7 286.58 647.39 293.35 646.18C311.18 643 329.15 639.77 347.06 636.1C347.12 635.14 347.16 634.24 347.23 633.34Z" fill="#F4F6F9"/>
<path d="M341.09 484.889C341.09 484.889 336.32 481.779 334.33 478.589C331.55 474.139 329.33 470.379 328.12 465.229C326.25 457.309 327.12 442.789 331.75 436.029C322.08 433.729 299.61 425.709 303.15 412.559C306.3 400.859 327.06 403.139 335.82 405.259C339.96 406.259 348.82 410.509 353.82 416.559" stroke="#333333" stroke-width="7" stroke-linecap="round" stroke-linejoin="round"/>
<path d="M315.6 377.499C306.719 375.412 297.546 374.868 288.48 375.889C277.86 377.169 268.56 385.449 271.12 397.559C272.94 406.159 290 420.889 302.77 414.889" stroke="#333333" stroke-width="7" stroke-linecap="round" stroke-linejoin="round"/>
<path d="M403.15 479.888C395.96 446.698 382.69 415.248 354.8 395.318" stroke="#333333" stroke-width="7" stroke-linecap="round" stroke-linejoin="round"/>
<path d="M273.14 403.539C269.24 407.799 266.28 417.269 268.63 424.539C270.73 431.079 277.12 435.919 283.15 438.539C290.67 441.849 313.75 445.369 315.15 432.539" stroke="#333333" stroke-width="7" stroke-linecap="round" stroke-linejoin="round"/>
<path d="M269.621 426.998C263.481 444.598 278.991 454.048 291.811 457.928C299.651 460.298 324.501 458.648 327.601 449.358" stroke="#333333" stroke-width="7" stroke-linecap="round" stroke-linejoin="round"/>
<path d="M273.14 446.998C268.24 464.188 282.62 476.998 296.48 477.848C298.762 478.005 301.038 477.459 303.001 476.284C304.963 475.109 306.519 473.361 307.459 471.276C308.399 469.191 308.677 466.867 308.258 464.619C307.838 462.37 306.739 460.304 305.11 458.698" stroke="#333333" stroke-width="7" stroke-linecap="round" stroke-linejoin="round"/>
<path d="M293.15 387.889C298.32 388.889 304 390.089 308.5 392.719C312.75 395.209 314.4 400.369 315.15 403.539" stroke="#333333" stroke-width="7" stroke-linecap="round" stroke-linejoin="round"/>
<path d="M346.481 517.888C346.671 513.368 344.011 508.138 342.361 504.008C335.541 503.608 325.361 502.818 319.811 498.508" stroke="#333333" stroke-width="7" stroke-linecap="round" stroke-linejoin="round"/>
<path d="M329.81 474.559C328.88 479.839 325.13 484.559 323.06 489.559C320.66 495.299 318.94 502.999 315.14 507.919C311.06 513.209 304.77 512.559 298.48 511.109C290.25 509.209 289.15 504.899 290.48 496.919C291.3 491.999 293.15 477.919 293.15 477.919" stroke="#333333" stroke-width="7" stroke-linecap="round" stroke-linejoin="round"/>
<path d="M311.391 395.229C313.673 385.962 316.484 376.834 319.811 367.889" stroke="#333333" stroke-width="7" stroke-linecap="round" stroke-linejoin="round"/>
<path d="M347.15 409.229C353.2 395.669 361.58 380.029 366.48 367.889" stroke="#333333" stroke-width="7" stroke-linecap="round" stroke-linejoin="round"/>
<path d="M423.71 306.549C386.86 278.859 260.48 198.419 238.33 184.619C223.13 175.149 194.92 158.919 186.74 154.619C179.09 150.619 163.39 150.619 156.15 154.409C140.77 162.469 129.77 176.689 122.08 192.269C114.904 206.506 108.885 221.297 104.08 236.499C97.9002 256.259 94.0802 272.599 92.5302 293.599C91.4102 308.529 90.0502 323.169 92.9902 338.029C95.6502 351.399 99.0502 366.119 105.83 378.029C111.89 388.699 118.3 388.489 128.83 386.029C142.83 382.839 156.09 378.519 170.51 376.329C191.8 373.099 212.69 370.869 234.26 369.679C248.92 368.879 302.06 365.469 314.85 365.979C331.09 366.629 385.75 367.059 396.79 368.169C404.5 368.939 432.89 375.849 440.18 377.829C447.47 379.809 456.38 362.549 460.18 350.829C463.98 339.109 469.55 326.439 460.78 320.709C452.01 314.979 437.22 309.049 423.78 306.489C422.78 320.489 414.22 351.829 404.55 369.169" stroke="#333333" stroke-width="7" stroke-linecap="round" stroke-linejoin="round"/>
<path d="M189.81 171.389C194.42 184.799 198.81 208.389 199.48 222.499C200.292 238.524 199.286 254.59 196.48 270.389C192.9 289.229 184.31 314.099 173.14 336.889C161.97 359.679 141.71 382.219 133.26 384.999" stroke="#333333" stroke-width="7" stroke-linecap="round" stroke-linejoin="round"/>
<path d="M187.58 302.399C187.58 302.399 126.08 276.399 123.81 270.559C122.15 266.249 125.81 248.099 129.45 245.199C133.74 241.839 162 245.769 168.88 246.899C174.42 247.809 198.99 251.419 198.99 251.419" stroke="#333333" stroke-width="7" stroke-linecap="round" stroke-linejoin="round"/>
<path d="M131.551 244.369C139.151 251.889 134.381 267.369 123.811 270.559" stroke="#333333" stroke-width="7" stroke-linecap="round" stroke-linejoin="round"/>
<path d="M342.811 518.889C354.711 518.589 366.311 510.779 376.181 504.559C386.981 497.749 397.601 490.329 405.661 480.779C410.451 493.379 415.251 506.119 419.151 519.109C423.681 534.239 422.701 534.849 409.151 544.259C394.994 553.941 378.843 560.318 361.891 562.919C361.891 562.919 351.641 563.169 349.171 551.229C347.561 543.589 342.811 518.889 342.811 518.889Z" stroke="#333333" stroke-width="7" stroke-linecap="round" stroke-linejoin="round"/>
<path d="M353.811 559.799C346.491 564.559 344.381 578.509 343.921 584.799C342.921 597.969 348.241 603.209 355.671 612.389C349.351 614.019 347.561 628.939 347.231 633.309C346.384 644.711 347.056 656.174 349.231 667.399C350.801 675.449 356.231 691.199 363.441 698.529" stroke="#333333" stroke-width="7" stroke-linecap="round" stroke-linejoin="round"/>
<path d="M422.62 531.59C425.42 530.47 431.71 534.13 434.15 536.38C443.46 544.98 458.98 588.23 460.15 597.01C460.73 601.43 460.15 619.73 451.43 610.93C446.85 606.32 444.12 590.75 444.15 584.93C444.24 561.93 444.48 549.27 459.65 537.43C453.15 512.14 493.15 471.27 513.81 459.27C518.48 462.52 526.23 469.6 533.48 473.27C544.63 478.91 561.03 482.2 573.48 482.93C587.97 483.79 614.9 484.93 641.03 481.37C643.08 487.5 642.65 499.25 644.74 505.28C646.37 509.96 659.58 534.11 663.68 544.6C668.37 556.6 696.9 616.15 699.8 623.09C705.58 636.94 712.54 649.24 719.05 662.54" stroke="#333333" stroke-width="7" stroke-linecap="round" stroke-linejoin="round"/>
<path d="M537.15 526.559C532.28 543.559 532.15 570.669 518.48 584.689C513.23 590.069 506.99 590.689 507.8 600.689C508.54 609.809 511.03 626.939 499.8 632.509" stroke="#333333" stroke-width="7" stroke-linecap="round" stroke-linejoin="round"/>
<path d="M549.15 617.229C559.15 617.229 569.15 617.889 579.23 617.889C585.04 617.889 614.9 617.229 614.9 617.229" stroke="#333333" stroke-width="7" stroke-linecap="round" stroke-linejoin="round"/>
<path d="M599.15 609.229V625.889" stroke="#333333" stroke-width="7" stroke-linecap="round" stroke-linejoin="round"/>
<path d="M587.15 607.229C589.72 618.389 588.35 629.959 587.15 641.229" stroke="#333333" stroke-width="7" stroke-linecap="round" stroke-linejoin="round"/>
<path d="M508.48 475.229C505.86 484.169 493.73 507.319 499.95 515.889C508.2 527.269 535.39 495.029 543.7 492.639C543.97 506.639 548.9 527.548 564.86 530.228C574.73 531.888 586.09 527.418 594.86 523.228C603.411 518.942 611.648 514.056 619.51 508.608" stroke="#333333" stroke-width="7" stroke-linecap="round" stroke-linejoin="round"/>
<path d="M515.62 460.308C521.86 436.838 533.85 415.308 543.45 392.948C548.92 380.178 556.45 369.208 563.01 357.198C566.14 351.488 565.08 349.068 561.76 342.918C557.91 335.778 555.1 330.248 550.48 323.558C543.77 313.848 537.15 305.958 532.65 298.918C528.15 291.878 544.26 293.578 561.15 296.228C578.04 298.878 621.42 309.108 637.86 312.038C652.93 314.728 672.28 321.038 681.86 333.758C689.1 343.348 686.95 360.058 681.86 370.428C696.26 372.658 735.8 372.568 727.75 396.278C721.11 415.818 687.57 406.558 673.3 402.658C665.72 415.058 659.44 429.768 653.13 443.178C647.75 454.628 641.04 470.518 638.13 481.698" stroke="#333333" stroke-width="7" stroke-linecap="round" stroke-linejoin="round"/>
<path d="M591.23 374.258C595.04 379.988 593.23 388.568 590.84 394.188C588.68 399.278 583.11 409.608 576.4 409.478C569.3 409.348 570.09 399.238 571.04 393.858C572.12 387.758 574.39 382.358 578.16 376.238C581.93 370.118 588.35 369.928 591.23 374.258Z" stroke="#333333" stroke-width="7" stroke-linecap="round" stroke-linejoin="round"/>
<path d="M595.78 332.389L600.51 341.399" stroke="#333333" stroke-width="7" stroke-linecap="round" stroke-linejoin="round"/>
<path d="M621.75 353.699L634.16 353.059" stroke="#333333" stroke-width="7" stroke-linecap="round" stroke-linejoin="round"/>
<path d="M695.15 389.889C700.22 389.659 704.05 391.069 709.15 390.889" stroke="#333333" stroke-width="7" stroke-linecap="round" stroke-linejoin="round"/>
<path d="M696.7 333.189C698.391 330.534 699.482 327.541 699.896 324.42C700.311 321.299 700.039 318.125 699.1 315.119C696.27 306.119 688.33 301.629 679.46 300.039C673.92 299.039 668.29 298.749 662.76 297.759C656.7 296.679 650.76 295.189 644.76 293.649C633.76 290.819 622.21 288.139 613.83 280.009C612.07 278.309 608.52 279.439 608.7 282.129C611.18 318.609 650.7 328.129 679.28 339.449C676.085 342.183 673.791 345.819 672.7 349.879C669.93 359.299 673.61 369.149 671.44 378.639C670.9 381.019 673.55 383.569 675.85 382.029C680.844 378.863 685.575 375.302 690 371.379C696.256 371.937 702.476 372.845 708.63 374.099C712.11 360.179 709.42 341.069 696.7 333.189Z" fill="#333333"/>
<path d="M664.29 419.388C664.446 419.732 664.669 420.042 664.946 420.299C665.223 420.556 665.548 420.755 665.902 420.885C666.257 421.015 666.634 421.074 667.011 421.057C667.388 421.041 667.758 420.949 668.1 420.788C668.431 420.82 668.764 420.786 669.082 420.688C669.399 420.59 669.695 420.43 669.95 420.218C675.79 415.808 681.81 411.218 687.37 406.148C681.93 405.018 676.98 403.658 673.31 402.658C670.11 407.908 667.14 413.578 664.29 419.388Z" fill="#333333"/>
</svg>
